%TF.GenerationSoftware,KiCad,Pcbnew,8.0.1*%
%TF.CreationDate,2024-11-12T01:42:33+00:00*%
%TF.ProjectId,Heating Element,48656174-696e-4672-9045-6c656d656e74,1*%
%TF.SameCoordinates,Original*%
%TF.FileFunction,Legend,Top*%
%TF.FilePolarity,Positive*%
%FSLAX46Y46*%
G04 Gerber Fmt 4.6, Leading zero omitted, Abs format (unit mm)*
G04 Created by KiCad (PCBNEW 8.0.1) date 2024-11-12 01:42:33*
%MOMM*%
%LPD*%
G01*
G04 APERTURE LIST*
G04 Aperture macros list*
%AMRoundRect*
0 Rectangle with rounded corners*
0 $1 Rounding radius*
0 $2 $3 $4 $5 $6 $7 $8 $9 X,Y pos of 4 corners*
0 Add a 4 corners polygon primitive as box body*
4,1,4,$2,$3,$4,$5,$6,$7,$8,$9,$2,$3,0*
0 Add four circle primitives for the rounded corners*
1,1,$1+$1,$2,$3*
1,1,$1+$1,$4,$5*
1,1,$1+$1,$6,$7*
1,1,$1+$1,$8,$9*
0 Add four rect primitives between the rounded corners*
20,1,$1+$1,$2,$3,$4,$5,0*
20,1,$1+$1,$4,$5,$6,$7,0*
20,1,$1+$1,$6,$7,$8,$9,0*
20,1,$1+$1,$8,$9,$2,$3,0*%
G04 Aperture macros list end*
%ADD10C,0.100000*%
%ADD11C,0.150000*%
%ADD12C,0.254000*%
%ADD13C,0.127000*%
%ADD14C,0.300000*%
%ADD15C,0.120000*%
%ADD16C,0.200000*%
%ADD17RoundRect,0.102000X-0.485000X-1.415000X0.485000X-1.415000X0.485000X1.415000X-0.485000X1.415000X0*%
%ADD18RoundRect,0.102000X-2.815000X-3.045000X2.815000X-3.045000X2.815000X3.045000X-2.815000X3.045000X0*%
%ADD19RoundRect,0.102000X0.955000X0.955000X-0.955000X0.955000X-0.955000X-0.955000X0.955000X-0.955000X0*%
%ADD20C,2.114000*%
%ADD21C,1.800000*%
%ADD22RoundRect,0.250000X-0.312500X-0.625000X0.312500X-0.625000X0.312500X0.625000X-0.312500X0.625000X0*%
%ADD23R,1.524000X1.524000*%
%ADD24C,1.524000*%
%ADD25R,1.850000X0.650000*%
%ADD26C,2.200000*%
%ADD27R,2.400000X2.400000*%
%ADD28O,2.400000X2.400000*%
%ADD29RoundRect,0.102000X-0.700000X-0.700000X0.700000X-0.700000X0.700000X0.700000X-0.700000X0.700000X0*%
%ADD30C,1.604000*%
%ADD31R,3.200000X3.200000*%
%ADD32O,3.200000X3.200000*%
%ADD33RoundRect,0.250000X-0.325000X-0.650000X0.325000X-0.650000X0.325000X0.650000X-0.325000X0.650000X0*%
G04 APERTURE END LIST*
D10*
X161357419Y-101166665D02*
X161357419Y-100547618D01*
X161357419Y-100547618D02*
X161738371Y-100880951D01*
X161738371Y-100880951D02*
X161738371Y-100738094D01*
X161738371Y-100738094D02*
X161785990Y-100642856D01*
X161785990Y-100642856D02*
X161833609Y-100595237D01*
X161833609Y-100595237D02*
X161928847Y-100547618D01*
X161928847Y-100547618D02*
X162166942Y-100547618D01*
X162166942Y-100547618D02*
X162262180Y-100595237D01*
X162262180Y-100595237D02*
X162309800Y-100642856D01*
X162309800Y-100642856D02*
X162357419Y-100738094D01*
X162357419Y-100738094D02*
X162357419Y-101023808D01*
X162357419Y-101023808D02*
X162309800Y-101119046D01*
X162309800Y-101119046D02*
X162262180Y-101166665D01*
X161357419Y-100214284D02*
X161357419Y-99547618D01*
X161357419Y-99547618D02*
X162357419Y-99976189D01*
X162262180Y-99166665D02*
X162309800Y-99119046D01*
X162309800Y-99119046D02*
X162357419Y-99166665D01*
X162357419Y-99166665D02*
X162309800Y-99214284D01*
X162309800Y-99214284D02*
X162262180Y-99166665D01*
X162262180Y-99166665D02*
X162357419Y-99166665D01*
X161357419Y-98499999D02*
X161357419Y-98404761D01*
X161357419Y-98404761D02*
X161405038Y-98309523D01*
X161405038Y-98309523D02*
X161452657Y-98261904D01*
X161452657Y-98261904D02*
X161547895Y-98214285D01*
X161547895Y-98214285D02*
X161738371Y-98166666D01*
X161738371Y-98166666D02*
X161976466Y-98166666D01*
X161976466Y-98166666D02*
X162166942Y-98214285D01*
X162166942Y-98214285D02*
X162262180Y-98261904D01*
X162262180Y-98261904D02*
X162309800Y-98309523D01*
X162309800Y-98309523D02*
X162357419Y-98404761D01*
X162357419Y-98404761D02*
X162357419Y-98499999D01*
X162357419Y-98499999D02*
X162309800Y-98595237D01*
X162309800Y-98595237D02*
X162262180Y-98642856D01*
X162262180Y-98642856D02*
X162166942Y-98690475D01*
X162166942Y-98690475D02*
X161976466Y-98738094D01*
X161976466Y-98738094D02*
X161738371Y-98738094D01*
X161738371Y-98738094D02*
X161547895Y-98690475D01*
X161547895Y-98690475D02*
X161452657Y-98642856D01*
X161452657Y-98642856D02*
X161405038Y-98595237D01*
X161405038Y-98595237D02*
X161357419Y-98499999D01*
X161357419Y-97547618D02*
X161357419Y-97452380D01*
X161357419Y-97452380D02*
X161405038Y-97357142D01*
X161405038Y-97357142D02*
X161452657Y-97309523D01*
X161452657Y-97309523D02*
X161547895Y-97261904D01*
X161547895Y-97261904D02*
X161738371Y-97214285D01*
X161738371Y-97214285D02*
X161976466Y-97214285D01*
X161976466Y-97214285D02*
X162166942Y-97261904D01*
X162166942Y-97261904D02*
X162262180Y-97309523D01*
X162262180Y-97309523D02*
X162309800Y-97357142D01*
X162309800Y-97357142D02*
X162357419Y-97452380D01*
X162357419Y-97452380D02*
X162357419Y-97547618D01*
X162357419Y-97547618D02*
X162309800Y-97642856D01*
X162309800Y-97642856D02*
X162262180Y-97690475D01*
X162262180Y-97690475D02*
X162166942Y-97738094D01*
X162166942Y-97738094D02*
X161976466Y-97785713D01*
X161976466Y-97785713D02*
X161738371Y-97785713D01*
X161738371Y-97785713D02*
X161547895Y-97738094D01*
X161547895Y-97738094D02*
X161452657Y-97690475D01*
X161452657Y-97690475D02*
X161405038Y-97642856D01*
X161405038Y-97642856D02*
X161357419Y-97547618D01*
X161357419Y-96595237D02*
X161357419Y-96499999D01*
X161357419Y-96499999D02*
X161405038Y-96404761D01*
X161405038Y-96404761D02*
X161452657Y-96357142D01*
X161452657Y-96357142D02*
X161547895Y-96309523D01*
X161547895Y-96309523D02*
X161738371Y-96261904D01*
X161738371Y-96261904D02*
X161976466Y-96261904D01*
X161976466Y-96261904D02*
X162166942Y-96309523D01*
X162166942Y-96309523D02*
X162262180Y-96357142D01*
X162262180Y-96357142D02*
X162309800Y-96404761D01*
X162309800Y-96404761D02*
X162357419Y-96499999D01*
X162357419Y-96499999D02*
X162357419Y-96595237D01*
X162357419Y-96595237D02*
X162309800Y-96690475D01*
X162309800Y-96690475D02*
X162262180Y-96738094D01*
X162262180Y-96738094D02*
X162166942Y-96785713D01*
X162166942Y-96785713D02*
X161976466Y-96833332D01*
X161976466Y-96833332D02*
X161738371Y-96833332D01*
X161738371Y-96833332D02*
X161547895Y-96785713D01*
X161547895Y-96785713D02*
X161452657Y-96738094D01*
X161452657Y-96738094D02*
X161405038Y-96690475D01*
X161405038Y-96690475D02*
X161357419Y-96595237D01*
X161357419Y-95642856D02*
X161357419Y-95547618D01*
X161357419Y-95547618D02*
X161405038Y-95452380D01*
X161405038Y-95452380D02*
X161452657Y-95404761D01*
X161452657Y-95404761D02*
X161547895Y-95357142D01*
X161547895Y-95357142D02*
X161738371Y-95309523D01*
X161738371Y-95309523D02*
X161976466Y-95309523D01*
X161976466Y-95309523D02*
X162166942Y-95357142D01*
X162166942Y-95357142D02*
X162262180Y-95404761D01*
X162262180Y-95404761D02*
X162309800Y-95452380D01*
X162309800Y-95452380D02*
X162357419Y-95547618D01*
X162357419Y-95547618D02*
X162357419Y-95642856D01*
X162357419Y-95642856D02*
X162309800Y-95738094D01*
X162309800Y-95738094D02*
X162262180Y-95785713D01*
X162262180Y-95785713D02*
X162166942Y-95833332D01*
X162166942Y-95833332D02*
X161976466Y-95880951D01*
X161976466Y-95880951D02*
X161738371Y-95880951D01*
X161738371Y-95880951D02*
X161547895Y-95833332D01*
X161547895Y-95833332D02*
X161452657Y-95785713D01*
X161452657Y-95785713D02*
X161405038Y-95738094D01*
X161405038Y-95738094D02*
X161357419Y-95642856D01*
X162357419Y-94119046D02*
X161690752Y-94119046D01*
X161785990Y-94119046D02*
X161738371Y-94071427D01*
X161738371Y-94071427D02*
X161690752Y-93976189D01*
X161690752Y-93976189D02*
X161690752Y-93833332D01*
X161690752Y-93833332D02*
X161738371Y-93738094D01*
X161738371Y-93738094D02*
X161833609Y-93690475D01*
X161833609Y-93690475D02*
X162357419Y-93690475D01*
X161833609Y-93690475D02*
X161738371Y-93642856D01*
X161738371Y-93642856D02*
X161690752Y-93547618D01*
X161690752Y-93547618D02*
X161690752Y-93404761D01*
X161690752Y-93404761D02*
X161738371Y-93309522D01*
X161738371Y-93309522D02*
X161833609Y-93261903D01*
X161833609Y-93261903D02*
X162357419Y-93261903D01*
X162357419Y-92785713D02*
X161690752Y-92785713D01*
X161785990Y-92785713D02*
X161738371Y-92738094D01*
X161738371Y-92738094D02*
X161690752Y-92642856D01*
X161690752Y-92642856D02*
X161690752Y-92499999D01*
X161690752Y-92499999D02*
X161738371Y-92404761D01*
X161738371Y-92404761D02*
X161833609Y-92357142D01*
X161833609Y-92357142D02*
X162357419Y-92357142D01*
X161833609Y-92357142D02*
X161738371Y-92309523D01*
X161738371Y-92309523D02*
X161690752Y-92214285D01*
X161690752Y-92214285D02*
X161690752Y-92071428D01*
X161690752Y-92071428D02*
X161738371Y-91976189D01*
X161738371Y-91976189D02*
X161833609Y-91928570D01*
X161833609Y-91928570D02*
X162357419Y-91928570D01*
X151750000Y-78000000D02*
X163586420Y-78000000D01*
X151750000Y-115000000D02*
X163586420Y-115000000D01*
X163000000Y-78000000D02*
X163000000Y-115000000D01*
X163000000Y-78000000D02*
X163000000Y-115000000D01*
X163000000Y-78000000D02*
X163586421Y-79126504D01*
X163000000Y-78000000D02*
X162413579Y-79126504D01*
X163000000Y-115000000D02*
X162413579Y-113873496D01*
X163000000Y-115000000D02*
X163586421Y-113873496D01*
X119154762Y-70607419D02*
X118678572Y-70607419D01*
X118678572Y-70607419D02*
X118630953Y-71083609D01*
X118630953Y-71083609D02*
X118678572Y-71035990D01*
X118678572Y-71035990D02*
X118773810Y-70988371D01*
X118773810Y-70988371D02*
X119011905Y-70988371D01*
X119011905Y-70988371D02*
X119107143Y-71035990D01*
X119107143Y-71035990D02*
X119154762Y-71083609D01*
X119154762Y-71083609D02*
X119202381Y-71178847D01*
X119202381Y-71178847D02*
X119202381Y-71416942D01*
X119202381Y-71416942D02*
X119154762Y-71512180D01*
X119154762Y-71512180D02*
X119107143Y-71559800D01*
X119107143Y-71559800D02*
X119011905Y-71607419D01*
X119011905Y-71607419D02*
X118773810Y-71607419D01*
X118773810Y-71607419D02*
X118678572Y-71559800D01*
X118678572Y-71559800D02*
X118630953Y-71512180D01*
X120059524Y-70607419D02*
X119869048Y-70607419D01*
X119869048Y-70607419D02*
X119773810Y-70655038D01*
X119773810Y-70655038D02*
X119726191Y-70702657D01*
X119726191Y-70702657D02*
X119630953Y-70845514D01*
X119630953Y-70845514D02*
X119583334Y-71035990D01*
X119583334Y-71035990D02*
X119583334Y-71416942D01*
X119583334Y-71416942D02*
X119630953Y-71512180D01*
X119630953Y-71512180D02*
X119678572Y-71559800D01*
X119678572Y-71559800D02*
X119773810Y-71607419D01*
X119773810Y-71607419D02*
X119964286Y-71607419D01*
X119964286Y-71607419D02*
X120059524Y-71559800D01*
X120059524Y-71559800D02*
X120107143Y-71512180D01*
X120107143Y-71512180D02*
X120154762Y-71416942D01*
X120154762Y-71416942D02*
X120154762Y-71178847D01*
X120154762Y-71178847D02*
X120107143Y-71083609D01*
X120107143Y-71083609D02*
X120059524Y-71035990D01*
X120059524Y-71035990D02*
X119964286Y-70988371D01*
X119964286Y-70988371D02*
X119773810Y-70988371D01*
X119773810Y-70988371D02*
X119678572Y-71035990D01*
X119678572Y-71035990D02*
X119630953Y-71083609D01*
X119630953Y-71083609D02*
X119583334Y-71178847D01*
X120583334Y-71512180D02*
X120630953Y-71559800D01*
X120630953Y-71559800D02*
X120583334Y-71607419D01*
X120583334Y-71607419D02*
X120535715Y-71559800D01*
X120535715Y-71559800D02*
X120583334Y-71512180D01*
X120583334Y-71512180D02*
X120583334Y-71607419D01*
X121250000Y-70607419D02*
X121345238Y-70607419D01*
X121345238Y-70607419D02*
X121440476Y-70655038D01*
X121440476Y-70655038D02*
X121488095Y-70702657D01*
X121488095Y-70702657D02*
X121535714Y-70797895D01*
X121535714Y-70797895D02*
X121583333Y-70988371D01*
X121583333Y-70988371D02*
X121583333Y-71226466D01*
X121583333Y-71226466D02*
X121535714Y-71416942D01*
X121535714Y-71416942D02*
X121488095Y-71512180D01*
X121488095Y-71512180D02*
X121440476Y-71559800D01*
X121440476Y-71559800D02*
X121345238Y-71607419D01*
X121345238Y-71607419D02*
X121250000Y-71607419D01*
X121250000Y-71607419D02*
X121154762Y-71559800D01*
X121154762Y-71559800D02*
X121107143Y-71512180D01*
X121107143Y-71512180D02*
X121059524Y-71416942D01*
X121059524Y-71416942D02*
X121011905Y-71226466D01*
X121011905Y-71226466D02*
X121011905Y-70988371D01*
X121011905Y-70988371D02*
X121059524Y-70797895D01*
X121059524Y-70797895D02*
X121107143Y-70702657D01*
X121107143Y-70702657D02*
X121154762Y-70655038D01*
X121154762Y-70655038D02*
X121250000Y-70607419D01*
X122202381Y-70607419D02*
X122297619Y-70607419D01*
X122297619Y-70607419D02*
X122392857Y-70655038D01*
X122392857Y-70655038D02*
X122440476Y-70702657D01*
X122440476Y-70702657D02*
X122488095Y-70797895D01*
X122488095Y-70797895D02*
X122535714Y-70988371D01*
X122535714Y-70988371D02*
X122535714Y-71226466D01*
X122535714Y-71226466D02*
X122488095Y-71416942D01*
X122488095Y-71416942D02*
X122440476Y-71512180D01*
X122440476Y-71512180D02*
X122392857Y-71559800D01*
X122392857Y-71559800D02*
X122297619Y-71607419D01*
X122297619Y-71607419D02*
X122202381Y-71607419D01*
X122202381Y-71607419D02*
X122107143Y-71559800D01*
X122107143Y-71559800D02*
X122059524Y-71512180D01*
X122059524Y-71512180D02*
X122011905Y-71416942D01*
X122011905Y-71416942D02*
X121964286Y-71226466D01*
X121964286Y-71226466D02*
X121964286Y-70988371D01*
X121964286Y-70988371D02*
X122011905Y-70797895D01*
X122011905Y-70797895D02*
X122059524Y-70702657D01*
X122059524Y-70702657D02*
X122107143Y-70655038D01*
X122107143Y-70655038D02*
X122202381Y-70607419D01*
X123154762Y-70607419D02*
X123250000Y-70607419D01*
X123250000Y-70607419D02*
X123345238Y-70655038D01*
X123345238Y-70655038D02*
X123392857Y-70702657D01*
X123392857Y-70702657D02*
X123440476Y-70797895D01*
X123440476Y-70797895D02*
X123488095Y-70988371D01*
X123488095Y-70988371D02*
X123488095Y-71226466D01*
X123488095Y-71226466D02*
X123440476Y-71416942D01*
X123440476Y-71416942D02*
X123392857Y-71512180D01*
X123392857Y-71512180D02*
X123345238Y-71559800D01*
X123345238Y-71559800D02*
X123250000Y-71607419D01*
X123250000Y-71607419D02*
X123154762Y-71607419D01*
X123154762Y-71607419D02*
X123059524Y-71559800D01*
X123059524Y-71559800D02*
X123011905Y-71512180D01*
X123011905Y-71512180D02*
X122964286Y-71416942D01*
X122964286Y-71416942D02*
X122916667Y-71226466D01*
X122916667Y-71226466D02*
X122916667Y-70988371D01*
X122916667Y-70988371D02*
X122964286Y-70797895D01*
X122964286Y-70797895D02*
X123011905Y-70702657D01*
X123011905Y-70702657D02*
X123059524Y-70655038D01*
X123059524Y-70655038D02*
X123154762Y-70607419D01*
X124107143Y-70607419D02*
X124202381Y-70607419D01*
X124202381Y-70607419D02*
X124297619Y-70655038D01*
X124297619Y-70655038D02*
X124345238Y-70702657D01*
X124345238Y-70702657D02*
X124392857Y-70797895D01*
X124392857Y-70797895D02*
X124440476Y-70988371D01*
X124440476Y-70988371D02*
X124440476Y-71226466D01*
X124440476Y-71226466D02*
X124392857Y-71416942D01*
X124392857Y-71416942D02*
X124345238Y-71512180D01*
X124345238Y-71512180D02*
X124297619Y-71559800D01*
X124297619Y-71559800D02*
X124202381Y-71607419D01*
X124202381Y-71607419D02*
X124107143Y-71607419D01*
X124107143Y-71607419D02*
X124011905Y-71559800D01*
X124011905Y-71559800D02*
X123964286Y-71512180D01*
X123964286Y-71512180D02*
X123916667Y-71416942D01*
X123916667Y-71416942D02*
X123869048Y-71226466D01*
X123869048Y-71226466D02*
X123869048Y-70988371D01*
X123869048Y-70988371D02*
X123916667Y-70797895D01*
X123916667Y-70797895D02*
X123964286Y-70702657D01*
X123964286Y-70702657D02*
X124011905Y-70655038D01*
X124011905Y-70655038D02*
X124107143Y-70607419D01*
X125630953Y-71607419D02*
X125630953Y-70940752D01*
X125630953Y-71035990D02*
X125678572Y-70988371D01*
X125678572Y-70988371D02*
X125773810Y-70940752D01*
X125773810Y-70940752D02*
X125916667Y-70940752D01*
X125916667Y-70940752D02*
X126011905Y-70988371D01*
X126011905Y-70988371D02*
X126059524Y-71083609D01*
X126059524Y-71083609D02*
X126059524Y-71607419D01*
X126059524Y-71083609D02*
X126107143Y-70988371D01*
X126107143Y-70988371D02*
X126202381Y-70940752D01*
X126202381Y-70940752D02*
X126345238Y-70940752D01*
X126345238Y-70940752D02*
X126440477Y-70988371D01*
X126440477Y-70988371D02*
X126488096Y-71083609D01*
X126488096Y-71083609D02*
X126488096Y-71607419D01*
X126964286Y-71607419D02*
X126964286Y-70940752D01*
X126964286Y-71035990D02*
X127011905Y-70988371D01*
X127011905Y-70988371D02*
X127107143Y-70940752D01*
X127107143Y-70940752D02*
X127250000Y-70940752D01*
X127250000Y-70940752D02*
X127345238Y-70988371D01*
X127345238Y-70988371D02*
X127392857Y-71083609D01*
X127392857Y-71083609D02*
X127392857Y-71607419D01*
X127392857Y-71083609D02*
X127440476Y-70988371D01*
X127440476Y-70988371D02*
X127535714Y-70940752D01*
X127535714Y-70940752D02*
X127678571Y-70940752D01*
X127678571Y-70940752D02*
X127773810Y-70988371D01*
X127773810Y-70988371D02*
X127821429Y-71083609D01*
X127821429Y-71083609D02*
X127821429Y-71607419D01*
X95250000Y-77500000D02*
X95250000Y-71663580D01*
X151250000Y-77500000D02*
X151250000Y-71663580D01*
X95250000Y-72250000D02*
X151250000Y-72250000D01*
X95250000Y-72250000D02*
X151250000Y-72250000D01*
X95250000Y-72250000D02*
X96376504Y-71663579D01*
X95250000Y-72250000D02*
X96376504Y-72836421D01*
X151250000Y-72250000D02*
X150123496Y-72836421D01*
X151250000Y-72250000D02*
X150123496Y-71663579D01*
D11*
X144348333Y-87250866D02*
X144348333Y-88384200D01*
X144348333Y-88384200D02*
X144415000Y-88517533D01*
X144415000Y-88517533D02*
X144481666Y-88584200D01*
X144481666Y-88584200D02*
X144615000Y-88650866D01*
X144615000Y-88650866D02*
X144881666Y-88650866D01*
X144881666Y-88650866D02*
X145015000Y-88584200D01*
X145015000Y-88584200D02*
X145081666Y-88517533D01*
X145081666Y-88517533D02*
X145148333Y-88384200D01*
X145148333Y-88384200D02*
X145148333Y-87250866D01*
X145748333Y-87384200D02*
X145815000Y-87317533D01*
X145815000Y-87317533D02*
X145948333Y-87250866D01*
X145948333Y-87250866D02*
X146281667Y-87250866D01*
X146281667Y-87250866D02*
X146415000Y-87317533D01*
X146415000Y-87317533D02*
X146481667Y-87384200D01*
X146481667Y-87384200D02*
X146548333Y-87517533D01*
X146548333Y-87517533D02*
X146548333Y-87650866D01*
X146548333Y-87650866D02*
X146481667Y-87850866D01*
X146481667Y-87850866D02*
X145681667Y-88650866D01*
X145681667Y-88650866D02*
X146548333Y-88650866D01*
X117146665Y-113565539D02*
X117146665Y-114375062D01*
X117146665Y-114375062D02*
X117194284Y-114470300D01*
X117194284Y-114470300D02*
X117241903Y-114517920D01*
X117241903Y-114517920D02*
X117337141Y-114565539D01*
X117337141Y-114565539D02*
X117527617Y-114565539D01*
X117527617Y-114565539D02*
X117622855Y-114517920D01*
X117622855Y-114517920D02*
X117670474Y-114470300D01*
X117670474Y-114470300D02*
X117718093Y-114375062D01*
X117718093Y-114375062D02*
X117718093Y-113565539D01*
X118718093Y-114565539D02*
X118146665Y-114565539D01*
X118432379Y-114565539D02*
X118432379Y-113565539D01*
X118432379Y-113565539D02*
X118337141Y-113708396D01*
X118337141Y-113708396D02*
X118241903Y-113803634D01*
X118241903Y-113803634D02*
X118146665Y-113851253D01*
X117610095Y-105036819D02*
X118181523Y-105036819D01*
X117895809Y-106036819D02*
X117895809Y-105036819D01*
X118514857Y-106036819D02*
X118514857Y-105036819D01*
X118514857Y-105036819D02*
X118895809Y-105036819D01*
X118895809Y-105036819D02*
X118991047Y-105084438D01*
X118991047Y-105084438D02*
X119038666Y-105132057D01*
X119038666Y-105132057D02*
X119086285Y-105227295D01*
X119086285Y-105227295D02*
X119086285Y-105370152D01*
X119086285Y-105370152D02*
X119038666Y-105465390D01*
X119038666Y-105465390D02*
X118991047Y-105513009D01*
X118991047Y-105513009D02*
X118895809Y-105560628D01*
X118895809Y-105560628D02*
X118514857Y-105560628D01*
X119419619Y-105036819D02*
X120038666Y-105036819D01*
X120038666Y-105036819D02*
X119705333Y-105417771D01*
X119705333Y-105417771D02*
X119848190Y-105417771D01*
X119848190Y-105417771D02*
X119943428Y-105465390D01*
X119943428Y-105465390D02*
X119991047Y-105513009D01*
X119991047Y-105513009D02*
X120038666Y-105608247D01*
X120038666Y-105608247D02*
X120038666Y-105846342D01*
X120038666Y-105846342D02*
X119991047Y-105941580D01*
X119991047Y-105941580D02*
X119943428Y-105989200D01*
X119943428Y-105989200D02*
X119848190Y-106036819D01*
X119848190Y-106036819D02*
X119562476Y-106036819D01*
X119562476Y-106036819D02*
X119467238Y-105989200D01*
X119467238Y-105989200D02*
X119419619Y-105941580D01*
X117610095Y-99448819D02*
X118181523Y-99448819D01*
X117895809Y-100448819D02*
X117895809Y-99448819D01*
X118514857Y-100448819D02*
X118514857Y-99448819D01*
X118514857Y-99448819D02*
X118895809Y-99448819D01*
X118895809Y-99448819D02*
X118991047Y-99496438D01*
X118991047Y-99496438D02*
X119038666Y-99544057D01*
X119038666Y-99544057D02*
X119086285Y-99639295D01*
X119086285Y-99639295D02*
X119086285Y-99782152D01*
X119086285Y-99782152D02*
X119038666Y-99877390D01*
X119038666Y-99877390D02*
X118991047Y-99925009D01*
X118991047Y-99925009D02*
X118895809Y-99972628D01*
X118895809Y-99972628D02*
X118514857Y-99972628D01*
X119467238Y-99544057D02*
X119514857Y-99496438D01*
X119514857Y-99496438D02*
X119610095Y-99448819D01*
X119610095Y-99448819D02*
X119848190Y-99448819D01*
X119848190Y-99448819D02*
X119943428Y-99496438D01*
X119943428Y-99496438D02*
X119991047Y-99544057D01*
X119991047Y-99544057D02*
X120038666Y-99639295D01*
X120038666Y-99639295D02*
X120038666Y-99734533D01*
X120038666Y-99734533D02*
X119991047Y-99877390D01*
X119991047Y-99877390D02*
X119419619Y-100448819D01*
X119419619Y-100448819D02*
X120038666Y-100448819D01*
X117610095Y-93860819D02*
X118181523Y-93860819D01*
X117895809Y-94860819D02*
X117895809Y-93860819D01*
X118514857Y-94860819D02*
X118514857Y-93860819D01*
X118514857Y-93860819D02*
X118895809Y-93860819D01*
X118895809Y-93860819D02*
X118991047Y-93908438D01*
X118991047Y-93908438D02*
X119038666Y-93956057D01*
X119038666Y-93956057D02*
X119086285Y-94051295D01*
X119086285Y-94051295D02*
X119086285Y-94194152D01*
X119086285Y-94194152D02*
X119038666Y-94289390D01*
X119038666Y-94289390D02*
X118991047Y-94337009D01*
X118991047Y-94337009D02*
X118895809Y-94384628D01*
X118895809Y-94384628D02*
X118514857Y-94384628D01*
X120038666Y-94860819D02*
X119467238Y-94860819D01*
X119752952Y-94860819D02*
X119752952Y-93860819D01*
X119752952Y-93860819D02*
X119657714Y-94003676D01*
X119657714Y-94003676D02*
X119562476Y-94098914D01*
X119562476Y-94098914D02*
X119467238Y-94146533D01*
X111620833Y-100134819D02*
X111287500Y-99658628D01*
X111049405Y-100134819D02*
X111049405Y-99134819D01*
X111049405Y-99134819D02*
X111430357Y-99134819D01*
X111430357Y-99134819D02*
X111525595Y-99182438D01*
X111525595Y-99182438D02*
X111573214Y-99230057D01*
X111573214Y-99230057D02*
X111620833Y-99325295D01*
X111620833Y-99325295D02*
X111620833Y-99468152D01*
X111620833Y-99468152D02*
X111573214Y-99563390D01*
X111573214Y-99563390D02*
X111525595Y-99611009D01*
X111525595Y-99611009D02*
X111430357Y-99658628D01*
X111430357Y-99658628D02*
X111049405Y-99658628D01*
X111954167Y-99134819D02*
X112573214Y-99134819D01*
X112573214Y-99134819D02*
X112239881Y-99515771D01*
X112239881Y-99515771D02*
X112382738Y-99515771D01*
X112382738Y-99515771D02*
X112477976Y-99563390D01*
X112477976Y-99563390D02*
X112525595Y-99611009D01*
X112525595Y-99611009D02*
X112573214Y-99706247D01*
X112573214Y-99706247D02*
X112573214Y-99944342D01*
X112573214Y-99944342D02*
X112525595Y-100039580D01*
X112525595Y-100039580D02*
X112477976Y-100087200D01*
X112477976Y-100087200D02*
X112382738Y-100134819D01*
X112382738Y-100134819D02*
X112097024Y-100134819D01*
X112097024Y-100134819D02*
X112001786Y-100087200D01*
X112001786Y-100087200D02*
X111954167Y-100039580D01*
X111593333Y-95954819D02*
X111260000Y-95478628D01*
X111021905Y-95954819D02*
X111021905Y-94954819D01*
X111021905Y-94954819D02*
X111402857Y-94954819D01*
X111402857Y-94954819D02*
X111498095Y-95002438D01*
X111498095Y-95002438D02*
X111545714Y-95050057D01*
X111545714Y-95050057D02*
X111593333Y-95145295D01*
X111593333Y-95145295D02*
X111593333Y-95288152D01*
X111593333Y-95288152D02*
X111545714Y-95383390D01*
X111545714Y-95383390D02*
X111498095Y-95431009D01*
X111498095Y-95431009D02*
X111402857Y-95478628D01*
X111402857Y-95478628D02*
X111021905Y-95478628D01*
X111974286Y-95050057D02*
X112021905Y-95002438D01*
X112021905Y-95002438D02*
X112117143Y-94954819D01*
X112117143Y-94954819D02*
X112355238Y-94954819D01*
X112355238Y-94954819D02*
X112450476Y-95002438D01*
X112450476Y-95002438D02*
X112498095Y-95050057D01*
X112498095Y-95050057D02*
X112545714Y-95145295D01*
X112545714Y-95145295D02*
X112545714Y-95240533D01*
X112545714Y-95240533D02*
X112498095Y-95383390D01*
X112498095Y-95383390D02*
X111926667Y-95954819D01*
X111926667Y-95954819D02*
X112545714Y-95954819D01*
X111573333Y-91474819D02*
X111240000Y-90998628D01*
X111001905Y-91474819D02*
X111001905Y-90474819D01*
X111001905Y-90474819D02*
X111382857Y-90474819D01*
X111382857Y-90474819D02*
X111478095Y-90522438D01*
X111478095Y-90522438D02*
X111525714Y-90570057D01*
X111525714Y-90570057D02*
X111573333Y-90665295D01*
X111573333Y-90665295D02*
X111573333Y-90808152D01*
X111573333Y-90808152D02*
X111525714Y-90903390D01*
X111525714Y-90903390D02*
X111478095Y-90951009D01*
X111478095Y-90951009D02*
X111382857Y-90998628D01*
X111382857Y-90998628D02*
X111001905Y-90998628D01*
X112525714Y-91474819D02*
X111954286Y-91474819D01*
X112240000Y-91474819D02*
X112240000Y-90474819D01*
X112240000Y-90474819D02*
X112144762Y-90617676D01*
X112144762Y-90617676D02*
X112049524Y-90712914D01*
X112049524Y-90712914D02*
X111954286Y-90760533D01*
X99766666Y-89974819D02*
X99766666Y-90689104D01*
X99766666Y-90689104D02*
X99719047Y-90831961D01*
X99719047Y-90831961D02*
X99623809Y-90927200D01*
X99623809Y-90927200D02*
X99480952Y-90974819D01*
X99480952Y-90974819D02*
X99385714Y-90974819D01*
X100766666Y-90974819D02*
X100195238Y-90974819D01*
X100480952Y-90974819D02*
X100480952Y-89974819D01*
X100480952Y-89974819D02*
X100385714Y-90117676D01*
X100385714Y-90117676D02*
X100290476Y-90212914D01*
X100290476Y-90212914D02*
X100195238Y-90260533D01*
D12*
X122560237Y-84974318D02*
X122560237Y-83704318D01*
X123890714Y-84853365D02*
X123830238Y-84913842D01*
X123830238Y-84913842D02*
X123648809Y-84974318D01*
X123648809Y-84974318D02*
X123527857Y-84974318D01*
X123527857Y-84974318D02*
X123346428Y-84913842D01*
X123346428Y-84913842D02*
X123225476Y-84792889D01*
X123225476Y-84792889D02*
X123164999Y-84671937D01*
X123164999Y-84671937D02*
X123104523Y-84430032D01*
X123104523Y-84430032D02*
X123104523Y-84248603D01*
X123104523Y-84248603D02*
X123164999Y-84006699D01*
X123164999Y-84006699D02*
X123225476Y-83885746D01*
X123225476Y-83885746D02*
X123346428Y-83764794D01*
X123346428Y-83764794D02*
X123527857Y-83704318D01*
X123527857Y-83704318D02*
X123648809Y-83704318D01*
X123648809Y-83704318D02*
X123830238Y-83764794D01*
X123830238Y-83764794D02*
X123890714Y-83825270D01*
X125100238Y-84974318D02*
X124374523Y-84974318D01*
X124737380Y-84974318D02*
X124737380Y-83704318D01*
X124737380Y-83704318D02*
X124616428Y-83885746D01*
X124616428Y-83885746D02*
X124495476Y-84006699D01*
X124495476Y-84006699D02*
X124374523Y-84067175D01*
D11*
X133424819Y-98274094D02*
X132424819Y-98274094D01*
X132424819Y-98274094D02*
X132424819Y-98035999D01*
X132424819Y-98035999D02*
X132472438Y-97893142D01*
X132472438Y-97893142D02*
X132567676Y-97797904D01*
X132567676Y-97797904D02*
X132662914Y-97750285D01*
X132662914Y-97750285D02*
X132853390Y-97702666D01*
X132853390Y-97702666D02*
X132996247Y-97702666D01*
X132996247Y-97702666D02*
X133186723Y-97750285D01*
X133186723Y-97750285D02*
X133281961Y-97797904D01*
X133281961Y-97797904D02*
X133377200Y-97893142D01*
X133377200Y-97893142D02*
X133424819Y-98035999D01*
X133424819Y-98035999D02*
X133424819Y-98274094D01*
X132424819Y-97369332D02*
X132424819Y-96750285D01*
X132424819Y-96750285D02*
X132805771Y-97083618D01*
X132805771Y-97083618D02*
X132805771Y-96940761D01*
X132805771Y-96940761D02*
X132853390Y-96845523D01*
X132853390Y-96845523D02*
X132901009Y-96797904D01*
X132901009Y-96797904D02*
X132996247Y-96750285D01*
X132996247Y-96750285D02*
X133234342Y-96750285D01*
X133234342Y-96750285D02*
X133329580Y-96797904D01*
X133329580Y-96797904D02*
X133377200Y-96845523D01*
X133377200Y-96845523D02*
X133424819Y-96940761D01*
X133424819Y-96940761D02*
X133424819Y-97226475D01*
X133424819Y-97226475D02*
X133377200Y-97321713D01*
X133377200Y-97321713D02*
X133329580Y-97369332D01*
X134144819Y-105417904D02*
X133144819Y-105417904D01*
X134144819Y-104846476D02*
X133573390Y-105275047D01*
X133144819Y-104846476D02*
X133716247Y-105417904D01*
X106466667Y-83639866D02*
X106466667Y-82239866D01*
X106466667Y-82239866D02*
X106800000Y-82239866D01*
X106800000Y-82239866D02*
X107000000Y-82306533D01*
X107000000Y-82306533D02*
X107133334Y-82439866D01*
X107133334Y-82439866D02*
X107200000Y-82573200D01*
X107200000Y-82573200D02*
X107266667Y-82839866D01*
X107266667Y-82839866D02*
X107266667Y-83039866D01*
X107266667Y-83039866D02*
X107200000Y-83306533D01*
X107200000Y-83306533D02*
X107133334Y-83439866D01*
X107133334Y-83439866D02*
X107000000Y-83573200D01*
X107000000Y-83573200D02*
X106800000Y-83639866D01*
X106800000Y-83639866D02*
X106466667Y-83639866D01*
X107800000Y-82373200D02*
X107866667Y-82306533D01*
X107866667Y-82306533D02*
X108000000Y-82239866D01*
X108000000Y-82239866D02*
X108333334Y-82239866D01*
X108333334Y-82239866D02*
X108466667Y-82306533D01*
X108466667Y-82306533D02*
X108533334Y-82373200D01*
X108533334Y-82373200D02*
X108600000Y-82506533D01*
X108600000Y-82506533D02*
X108600000Y-82639866D01*
X108600000Y-82639866D02*
X108533334Y-82839866D01*
X108533334Y-82839866D02*
X107733334Y-83639866D01*
X107733334Y-83639866D02*
X108600000Y-83639866D01*
X123734819Y-98782094D02*
X122734819Y-98782094D01*
X122734819Y-98782094D02*
X122734819Y-98543999D01*
X122734819Y-98543999D02*
X122782438Y-98401142D01*
X122782438Y-98401142D02*
X122877676Y-98305904D01*
X122877676Y-98305904D02*
X122972914Y-98258285D01*
X122972914Y-98258285D02*
X123163390Y-98210666D01*
X123163390Y-98210666D02*
X123306247Y-98210666D01*
X123306247Y-98210666D02*
X123496723Y-98258285D01*
X123496723Y-98258285D02*
X123591961Y-98305904D01*
X123591961Y-98305904D02*
X123687200Y-98401142D01*
X123687200Y-98401142D02*
X123734819Y-98543999D01*
X123734819Y-98543999D02*
X123734819Y-98782094D01*
X123734819Y-97258285D02*
X123734819Y-97829713D01*
X123734819Y-97543999D02*
X122734819Y-97543999D01*
X122734819Y-97543999D02*
X122877676Y-97639237D01*
X122877676Y-97639237D02*
X122972914Y-97734475D01*
X122972914Y-97734475D02*
X123020533Y-97829713D01*
X143233333Y-106899580D02*
X143185714Y-106947200D01*
X143185714Y-106947200D02*
X143042857Y-106994819D01*
X143042857Y-106994819D02*
X142947619Y-106994819D01*
X142947619Y-106994819D02*
X142804762Y-106947200D01*
X142804762Y-106947200D02*
X142709524Y-106851961D01*
X142709524Y-106851961D02*
X142661905Y-106756723D01*
X142661905Y-106756723D02*
X142614286Y-106566247D01*
X142614286Y-106566247D02*
X142614286Y-106423390D01*
X142614286Y-106423390D02*
X142661905Y-106232914D01*
X142661905Y-106232914D02*
X142709524Y-106137676D01*
X142709524Y-106137676D02*
X142804762Y-106042438D01*
X142804762Y-106042438D02*
X142947619Y-105994819D01*
X142947619Y-105994819D02*
X143042857Y-105994819D01*
X143042857Y-105994819D02*
X143185714Y-106042438D01*
X143185714Y-106042438D02*
X143233333Y-106090057D01*
X143614286Y-106090057D02*
X143661905Y-106042438D01*
X143661905Y-106042438D02*
X143757143Y-105994819D01*
X143757143Y-105994819D02*
X143995238Y-105994819D01*
X143995238Y-105994819D02*
X144090476Y-106042438D01*
X144090476Y-106042438D02*
X144138095Y-106090057D01*
X144138095Y-106090057D02*
X144185714Y-106185295D01*
X144185714Y-106185295D02*
X144185714Y-106280533D01*
X144185714Y-106280533D02*
X144138095Y-106423390D01*
X144138095Y-106423390D02*
X143566667Y-106994819D01*
X143566667Y-106994819D02*
X144185714Y-106994819D01*
X104989333Y-108563580D02*
X104941714Y-108611200D01*
X104941714Y-108611200D02*
X104798857Y-108658819D01*
X104798857Y-108658819D02*
X104703619Y-108658819D01*
X104703619Y-108658819D02*
X104560762Y-108611200D01*
X104560762Y-108611200D02*
X104465524Y-108515961D01*
X104465524Y-108515961D02*
X104417905Y-108420723D01*
X104417905Y-108420723D02*
X104370286Y-108230247D01*
X104370286Y-108230247D02*
X104370286Y-108087390D01*
X104370286Y-108087390D02*
X104417905Y-107896914D01*
X104417905Y-107896914D02*
X104465524Y-107801676D01*
X104465524Y-107801676D02*
X104560762Y-107706438D01*
X104560762Y-107706438D02*
X104703619Y-107658819D01*
X104703619Y-107658819D02*
X104798857Y-107658819D01*
X104798857Y-107658819D02*
X104941714Y-107706438D01*
X104941714Y-107706438D02*
X104989333Y-107754057D01*
X105941714Y-108658819D02*
X105370286Y-108658819D01*
X105656000Y-108658819D02*
X105656000Y-107658819D01*
X105656000Y-107658819D02*
X105560762Y-107801676D01*
X105560762Y-107801676D02*
X105465524Y-107896914D01*
X105465524Y-107896914D02*
X105370286Y-107944533D01*
D13*
%TO.C,U2*%
X141410000Y-97378000D02*
X141410000Y-91157000D01*
X148150000Y-91157000D02*
X148150000Y-97378000D01*
X148150000Y-97378000D02*
X141410000Y-97378000D01*
D14*
X142580000Y-101650000D02*
G75*
G02*
X142380000Y-101650000I-100000J0D01*
G01*
X142380000Y-101650000D02*
G75*
G02*
X142580000Y-101650000I100000J0D01*
G01*
D13*
%TO.C,U1*%
X121200000Y-107660000D02*
X121200000Y-112260000D01*
X121200000Y-112260000D02*
X110800000Y-112260000D01*
X110800000Y-112260000D02*
X110800000Y-107660000D01*
X110800000Y-107660000D02*
X121200000Y-107660000D01*
D14*
X122500000Y-109660000D02*
G75*
G02*
X122200000Y-109660000I-150000J0D01*
G01*
X122200000Y-109660000D02*
G75*
G02*
X122500000Y-109660000I150000J0D01*
G01*
D15*
%TO.C,TP3*%
X117572000Y-102532000D02*
X117572000Y-104232000D01*
X117572000Y-104232000D02*
X117572000Y-104732000D01*
X117572000Y-104732000D02*
X120172000Y-104732000D01*
X120172000Y-102532000D02*
X117572000Y-102532000D01*
X120172000Y-104732000D02*
X120172000Y-102532000D01*
%TO.C,TP2*%
X117572000Y-96944000D02*
X117572000Y-98644000D01*
X117572000Y-98644000D02*
X117572000Y-99144000D01*
X117572000Y-99144000D02*
X120172000Y-99144000D01*
X120172000Y-96944000D02*
X117572000Y-96944000D01*
X120172000Y-99144000D02*
X120172000Y-96944000D01*
%TO.C,TP1*%
X117572000Y-91356000D02*
X117572000Y-93056000D01*
X117572000Y-93056000D02*
X117572000Y-93556000D01*
X117572000Y-93556000D02*
X120172000Y-93556000D01*
X120172000Y-91356000D02*
X117572000Y-91356000D01*
X120172000Y-93556000D02*
X120172000Y-91356000D01*
%TO.C,R3*%
X111060436Y-100590000D02*
X112514564Y-100590000D01*
X111060436Y-102410000D02*
X112514564Y-102410000D01*
%TO.C,R2*%
X111032936Y-96360000D02*
X112487064Y-96360000D01*
X111032936Y-98180000D02*
X112487064Y-98180000D01*
%TO.C,R1*%
X111022936Y-92090000D02*
X112477064Y-92090000D01*
X111022936Y-93910000D02*
X112477064Y-93910000D01*
%TO.C,J1*%
X98300000Y-92020000D02*
X98300000Y-94670000D01*
X98300000Y-92020000D02*
X104150000Y-92020000D01*
X98300000Y-94920000D02*
X98300000Y-95520000D01*
X98300000Y-95770000D02*
X98300000Y-99270000D01*
X98300000Y-99520000D02*
X98300000Y-100120000D01*
X98300000Y-100420000D02*
X98300000Y-103070000D01*
X98300000Y-103070000D02*
X104150000Y-103070000D01*
X101600000Y-91520000D02*
X104600000Y-91520000D01*
X104150000Y-92020000D02*
X104150000Y-103070000D01*
X104600000Y-91520000D02*
X104600000Y-94520000D01*
D16*
%TO.C,IC1*%
X119750000Y-82060000D02*
X127850000Y-82060000D01*
X127850000Y-82060000D02*
X127850000Y-86740000D01*
X127850000Y-86740000D02*
X119750000Y-86740000D01*
X119750000Y-86740000D02*
X119750000Y-82060000D01*
X117550000Y-82455000D02*
X119400000Y-82455000D01*
D15*
%TO.C,D3*%
X135890000Y-103716000D02*
X135890000Y-101456000D01*
X133970000Y-101456000D02*
X137810000Y-101456000D01*
X137810000Y-101456000D02*
X137810000Y-93616000D01*
X133970000Y-100316000D02*
X137810000Y-100316000D01*
X133970000Y-100196000D02*
X137810000Y-100196000D01*
X133970000Y-100076000D02*
X137810000Y-100076000D01*
X133970000Y-93616000D02*
X133970000Y-101456000D01*
X137810000Y-93616000D02*
X133970000Y-93616000D01*
X135890000Y-91356000D02*
X135890000Y-93616000D01*
D13*
%TO.C,D2*%
X107080000Y-87000000D02*
G75*
G02*
X101180000Y-87000000I-2950000J0D01*
G01*
X101180000Y-87000000D02*
G75*
G02*
X107080000Y-87000000I2950000J0D01*
G01*
D15*
%TO.C,D1*%
X127000000Y-103824000D02*
X127000000Y-102914000D01*
X124280000Y-102914000D02*
X129720000Y-102914000D01*
X129720000Y-102914000D02*
X129720000Y-93174000D01*
X124280000Y-101489000D02*
X129720000Y-101489000D01*
X124280000Y-101369000D02*
X129720000Y-101369000D01*
X124280000Y-101249000D02*
X129720000Y-101249000D01*
X124280000Y-93174000D02*
X124280000Y-102914000D01*
X129720000Y-93174000D02*
X124280000Y-93174000D01*
X127000000Y-92264000D02*
X127000000Y-93174000D01*
%TO.C,C2*%
X142688748Y-103090000D02*
X144111252Y-103090000D01*
X142688748Y-104910000D02*
X144111252Y-104910000D01*
%TO.C,C1*%
X104444748Y-104754000D02*
X105867252Y-104754000D01*
X104444748Y-106574000D02*
X105867252Y-106574000D01*
%TD*%
%LPC*%
D17*
%TO.C,U2*%
X142490000Y-99390000D03*
X147070000Y-99390000D03*
D18*
X144780000Y-92740000D03*
%TD*%
D19*
%TO.C,U1*%
X118540000Y-109400000D03*
D20*
X116000000Y-109400000D03*
X113460000Y-109400000D03*
%TD*%
D21*
%TO.C,TP3*%
X118872000Y-103632000D03*
%TD*%
%TO.C,TP2*%
X118872000Y-98044000D03*
%TD*%
%TO.C,TP1*%
X118872000Y-92456000D03*
%TD*%
D22*
%TO.C,R3*%
X110325000Y-101500000D03*
X113250000Y-101500000D03*
%TD*%
%TO.C,R2*%
X110297500Y-97270000D03*
X113222500Y-97270000D03*
%TD*%
%TO.C,R1*%
X110287500Y-93000000D03*
X113212500Y-93000000D03*
%TD*%
D23*
%TO.C,J1*%
X101600000Y-94520000D03*
D24*
X101600000Y-96520000D03*
X101600000Y-98520000D03*
X101600000Y-100520000D03*
%TD*%
D25*
%TO.C,IC1*%
X118475000Y-83130000D03*
X118475000Y-84400000D03*
X118475000Y-85670000D03*
X129125000Y-85670000D03*
X129125000Y-84400000D03*
X129125000Y-83130000D03*
%TD*%
D26*
%TO.C,H4*%
X147320000Y-111760000D03*
%TD*%
%TO.C,H3*%
X99060000Y-111760000D03*
%TD*%
%TO.C,H2*%
X147320000Y-82000000D03*
%TD*%
%TO.C,H1*%
X99060000Y-82000000D03*
%TD*%
D27*
%TO.C,D3*%
X135890000Y-105156000D03*
D28*
X135890000Y-89916000D03*
%TD*%
D29*
%TO.C,D2*%
X102860000Y-87000000D03*
D30*
X105400000Y-87000000D03*
%TD*%
D31*
%TO.C,D1*%
X127000000Y-105664000D03*
D32*
X127000000Y-90424000D03*
%TD*%
D33*
%TO.C,C2*%
X141925000Y-104000000D03*
X144875000Y-104000000D03*
%TD*%
%TO.C,C1*%
X103681000Y-105664000D03*
X106631000Y-105664000D03*
%TD*%
%LPD*%
M02*
