%TF.GenerationSoftware,KiCad,Pcbnew,8.0.1*%
%TF.CreationDate,2024-11-12T01:42:33+00:00*%
%TF.ProjectId,Heating Element,48656174-696e-4672-9045-6c656d656e74,1*%
%TF.SameCoordinates,Original*%
%TF.FileFunction,Soldermask,Top*%
%TF.FilePolarity,Negative*%
%FSLAX46Y46*%
G04 Gerber Fmt 4.6, Leading zero omitted, Abs format (unit mm)*
G04 Created by KiCad (PCBNEW 8.0.1) date 2024-11-12 01:42:33*
%MOMM*%
%LPD*%
G01*
G04 APERTURE LIST*
G04 Aperture macros list*
%AMRoundRect*
0 Rectangle with rounded corners*
0 $1 Rounding radius*
0 $2 $3 $4 $5 $6 $7 $8 $9 X,Y pos of 4 corners*
0 Add a 4 corners polygon primitive as box body*
4,1,4,$2,$3,$4,$5,$6,$7,$8,$9,$2,$3,0*
0 Add four circle primitives for the rounded corners*
1,1,$1+$1,$2,$3*
1,1,$1+$1,$4,$5*
1,1,$1+$1,$6,$7*
1,1,$1+$1,$8,$9*
0 Add four rect primitives between the rounded corners*
20,1,$1+$1,$2,$3,$4,$5,0*
20,1,$1+$1,$4,$5,$6,$7,0*
20,1,$1+$1,$6,$7,$8,$9,0*
20,1,$1+$1,$8,$9,$2,$3,0*%
G04 Aperture macros list end*
%ADD10RoundRect,0.102000X-0.485000X-1.415000X0.485000X-1.415000X0.485000X1.415000X-0.485000X1.415000X0*%
%ADD11RoundRect,0.102000X-2.815000X-3.045000X2.815000X-3.045000X2.815000X3.045000X-2.815000X3.045000X0*%
%ADD12RoundRect,0.102000X0.955000X0.955000X-0.955000X0.955000X-0.955000X-0.955000X0.955000X-0.955000X0*%
%ADD13C,2.114000*%
%ADD14C,1.800000*%
%ADD15RoundRect,0.250000X-0.312500X-0.625000X0.312500X-0.625000X0.312500X0.625000X-0.312500X0.625000X0*%
%ADD16R,1.524000X1.524000*%
%ADD17C,1.524000*%
%ADD18R,1.850000X0.650000*%
%ADD19C,2.200000*%
%ADD20R,2.400000X2.400000*%
%ADD21O,2.400000X2.400000*%
%ADD22RoundRect,0.102000X-0.700000X-0.700000X0.700000X-0.700000X0.700000X0.700000X-0.700000X0.700000X0*%
%ADD23C,1.604000*%
%ADD24R,3.200000X3.200000*%
%ADD25O,3.200000X3.200000*%
%ADD26RoundRect,0.250000X-0.325000X-0.650000X0.325000X-0.650000X0.325000X0.650000X-0.325000X0.650000X0*%
G04 APERTURE END LIST*
D10*
%TO.C,U2*%
X142490000Y-99390000D03*
X147070000Y-99390000D03*
D11*
X144780000Y-92740000D03*
%TD*%
D12*
%TO.C,U1*%
X118540000Y-109400000D03*
D13*
X116000000Y-109400000D03*
X113460000Y-109400000D03*
%TD*%
D14*
%TO.C,TP3*%
X118872000Y-103632000D03*
%TD*%
%TO.C,TP2*%
X118872000Y-98044000D03*
%TD*%
%TO.C,TP1*%
X118872000Y-92456000D03*
%TD*%
D15*
%TO.C,R3*%
X110325000Y-101500000D03*
X113250000Y-101500000D03*
%TD*%
%TO.C,R2*%
X110297500Y-97270000D03*
X113222500Y-97270000D03*
%TD*%
%TO.C,R1*%
X110287500Y-93000000D03*
X113212500Y-93000000D03*
%TD*%
D16*
%TO.C,J1*%
X101600000Y-94520000D03*
D17*
X101600000Y-96520000D03*
X101600000Y-98520000D03*
X101600000Y-100520000D03*
%TD*%
D18*
%TO.C,IC1*%
X118475000Y-83130000D03*
X118475000Y-84400000D03*
X118475000Y-85670000D03*
X129125000Y-85670000D03*
X129125000Y-84400000D03*
X129125000Y-83130000D03*
%TD*%
D19*
%TO.C,H4*%
X147320000Y-111760000D03*
%TD*%
%TO.C,H3*%
X99060000Y-111760000D03*
%TD*%
%TO.C,H2*%
X147320000Y-82000000D03*
%TD*%
%TO.C,H1*%
X99060000Y-82000000D03*
%TD*%
D20*
%TO.C,D3*%
X135890000Y-105156000D03*
D21*
X135890000Y-89916000D03*
%TD*%
D22*
%TO.C,D2*%
X102860000Y-87000000D03*
D23*
X105400000Y-87000000D03*
%TD*%
D24*
%TO.C,D1*%
X127000000Y-105664000D03*
D25*
X127000000Y-90424000D03*
%TD*%
D26*
%TO.C,C2*%
X141925000Y-104000000D03*
X144875000Y-104000000D03*
%TD*%
%TO.C,C1*%
X103681000Y-105664000D03*
X106631000Y-105664000D03*
%TD*%
M02*
