%TF.GenerationSoftware,KiCad,Pcbnew,8.0.1*%
%TF.CreationDate,2024-11-12T01:42:33+00:00*%
%TF.ProjectId,Heating Element,48656174-696e-4672-9045-6c656d656e74,1*%
%TF.SameCoordinates,Original*%
%TF.FileFunction,Paste,Top*%
%TF.FilePolarity,Positive*%
%FSLAX46Y46*%
G04 Gerber Fmt 4.6, Leading zero omitted, Abs format (unit mm)*
G04 Created by KiCad (PCBNEW 8.0.1) date 2024-11-12 01:42:33*
%MOMM*%
%LPD*%
G01*
G04 APERTURE LIST*
G04 Aperture macros list*
%AMRoundRect*
0 Rectangle with rounded corners*
0 $1 Rounding radius*
0 $2 $3 $4 $5 $6 $7 $8 $9 X,Y pos of 4 corners*
0 Add a 4 corners polygon primitive as box body*
4,1,4,$2,$3,$4,$5,$6,$7,$8,$9,$2,$3,0*
0 Add four circle primitives for the rounded corners*
1,1,$1+$1,$2,$3*
1,1,$1+$1,$4,$5*
1,1,$1+$1,$6,$7*
1,1,$1+$1,$8,$9*
0 Add four rect primitives between the rounded corners*
20,1,$1+$1,$2,$3,$4,$5,0*
20,1,$1+$1,$4,$5,$6,$7,0*
20,1,$1+$1,$6,$7,$8,$9,0*
20,1,$1+$1,$8,$9,$2,$3,0*%
G04 Aperture macros list end*
%ADD10C,0.010000*%
%ADD11R,0.970000X2.830000*%
%ADD12RoundRect,0.250000X-0.312500X-0.625000X0.312500X-0.625000X0.312500X0.625000X-0.312500X0.625000X0*%
%ADD13R,1.850000X0.650000*%
%ADD14RoundRect,0.250000X-0.325000X-0.650000X0.325000X-0.650000X0.325000X0.650000X-0.325000X0.650000X0*%
G04 APERTURE END LIST*
D10*
%TO.C,U2*%
X145435000Y-93470000D02*
X144125000Y-93470000D01*
X144125000Y-92010000D01*
X145435000Y-92010000D01*
X145435000Y-93470000D01*
G36*
X145435000Y-93470000D02*
G01*
X144125000Y-93470000D01*
X144125000Y-92010000D01*
X145435000Y-92010000D01*
X145435000Y-93470000D01*
G37*
X143555000Y-93470000D02*
X142245000Y-93470000D01*
X142245000Y-92010000D01*
X143555000Y-92010000D01*
X143555000Y-93470000D01*
G36*
X143555000Y-93470000D02*
G01*
X142245000Y-93470000D01*
X142245000Y-92010000D01*
X143555000Y-92010000D01*
X143555000Y-93470000D01*
G37*
X147315000Y-93470000D02*
X146005000Y-93470000D01*
X146005000Y-92010000D01*
X147315000Y-92010000D01*
X147315000Y-93470000D01*
G36*
X147315000Y-93470000D02*
G01*
X146005000Y-93470000D01*
X146005000Y-92010000D01*
X147315000Y-92010000D01*
X147315000Y-93470000D01*
G37*
X143555000Y-91440000D02*
X142245000Y-91440000D01*
X142245000Y-89980000D01*
X143555000Y-89980000D01*
X143555000Y-91440000D01*
G36*
X143555000Y-91440000D02*
G01*
X142245000Y-91440000D01*
X142245000Y-89980000D01*
X143555000Y-89980000D01*
X143555000Y-91440000D01*
G37*
X145435000Y-91440000D02*
X144125000Y-91440000D01*
X144125000Y-89980000D01*
X145435000Y-89980000D01*
X145435000Y-91440000D01*
G36*
X145435000Y-91440000D02*
G01*
X144125000Y-91440000D01*
X144125000Y-89980000D01*
X145435000Y-89980000D01*
X145435000Y-91440000D01*
G37*
X147315000Y-91440000D02*
X146005000Y-91440000D01*
X146005000Y-89980000D01*
X147315000Y-89980000D01*
X147315000Y-91440000D01*
G36*
X147315000Y-91440000D02*
G01*
X146005000Y-91440000D01*
X146005000Y-89980000D01*
X147315000Y-89980000D01*
X147315000Y-91440000D01*
G37*
X143555000Y-95500000D02*
X142245000Y-95500000D01*
X142245000Y-94040000D01*
X143555000Y-94040000D01*
X143555000Y-95500000D01*
G36*
X143555000Y-95500000D02*
G01*
X142245000Y-95500000D01*
X142245000Y-94040000D01*
X143555000Y-94040000D01*
X143555000Y-95500000D01*
G37*
X145435000Y-95500000D02*
X144125000Y-95500000D01*
X144125000Y-94040000D01*
X145435000Y-94040000D01*
X145435000Y-95500000D01*
G36*
X145435000Y-95500000D02*
G01*
X144125000Y-95500000D01*
X144125000Y-94040000D01*
X145435000Y-94040000D01*
X145435000Y-95500000D01*
G37*
X147315000Y-95500000D02*
X146005000Y-95500000D01*
X146005000Y-94040000D01*
X147315000Y-94040000D01*
X147315000Y-95500000D01*
G36*
X147315000Y-95500000D02*
G01*
X146005000Y-95500000D01*
X146005000Y-94040000D01*
X147315000Y-94040000D01*
X147315000Y-95500000D01*
G37*
%TD*%
D11*
%TO.C,U2*%
X142490000Y-99390000D03*
X147070000Y-99390000D03*
%TD*%
D12*
%TO.C,R3*%
X110325000Y-101500000D03*
X113250000Y-101500000D03*
%TD*%
%TO.C,R2*%
X110297500Y-97270000D03*
X113222500Y-97270000D03*
%TD*%
%TO.C,R1*%
X110287500Y-93000000D03*
X113212500Y-93000000D03*
%TD*%
D13*
%TO.C,IC1*%
X118475000Y-83130000D03*
X118475000Y-84400000D03*
X118475000Y-85670000D03*
X129125000Y-85670000D03*
X129125000Y-84400000D03*
X129125000Y-83130000D03*
%TD*%
D14*
%TO.C,C2*%
X141925000Y-104000000D03*
X144875000Y-104000000D03*
%TD*%
%TO.C,C1*%
X103681000Y-105664000D03*
X106631000Y-105664000D03*
%TD*%
M02*
