M48
INCH
T1C0.0118
T2C0.0295
T3C0.0315
T4C0.0354
T5C0.0500
T6C0.0866
%
G90
G05
T1
X3.5222Y-4.1175
X3.685Y-3.3289
X3.7387Y-3.7489
X4.0215Y-4.0419
X4.3865Y-3.4041
X4.3946Y-3.5908
X4.4394Y-4.1175
X4.6457Y-4.0551
X4.7841Y-3.9733
X4.9303Y-3.4415
T2
X3.5449Y-3.6504
X3.5449Y-3.7291
X3.5449Y-3.8079
X3.5449Y-3.8866
X3.5449Y-3.9654
T3
X5.0Y-3.7795
X5.0Y-3.8583
T4
X4.3307Y-3.7136
X4.3307Y-3.937
X4.3307Y-4.1634
T5
X4.2291Y-4.4094
X4.3291Y-4.4094
X4.4291Y-4.4094
T6
X3.4843Y-3.1693
X3.4843Y-4.4094
X5.0Y-3.1693
X5.0Y-4.4094
M30
