%TF.GenerationSoftware,KiCad,Pcbnew,8.0.1*%
%TF.CreationDate,2025-03-02T16:25:42+00:00*%
%TF.ProjectId,PWM Control Circuit,50574d20-436f-46e7-9472-6f6c20436972,rev?*%
%TF.SameCoordinates,Original*%
%TF.FileFunction,Copper,L2,Bot*%
%TF.FilePolarity,Positive*%
%FSLAX46Y46*%
G04 Gerber Fmt 4.6, Leading zero omitted, Abs format (unit mm)*
G04 Created by KiCad (PCBNEW 8.0.1) date 2025-03-02 16:25:42*
%MOMM*%
%LPD*%
G01*
G04 APERTURE LIST*
G04 Aperture macros list*
%AMRoundRect*
0 Rectangle with rounded corners*
0 $1 Rounding radius*
0 $2 $3 $4 $5 $6 $7 $8 $9 X,Y pos of 4 corners*
0 Add a 4 corners polygon primitive as box body*
4,1,4,$2,$3,$4,$5,$6,$7,$8,$9,$2,$3,0*
0 Add four circle primitives for the rounded corners*
1,1,$1+$1,$2,$3*
1,1,$1+$1,$4,$5*
1,1,$1+$1,$6,$7*
1,1,$1+$1,$8,$9*
0 Add four rect primitives between the rounded corners*
20,1,$1+$1,$2,$3,$4,$5,0*
20,1,$1+$1,$4,$5,$6,$7,0*
20,1,$1+$1,$6,$7,$8,$9,0*
20,1,$1+$1,$8,$9,$2,$3,0*%
G04 Aperture macros list end*
%TA.AperFunction,ComponentPad*%
%ADD10C,3.800000*%
%TD*%
%TA.AperFunction,ComponentPad*%
%ADD11C,1.800000*%
%TD*%
%TA.AperFunction,ComponentPad*%
%ADD12R,1.910000X1.910000*%
%TD*%
%TA.AperFunction,ComponentPad*%
%ADD13C,1.910000*%
%TD*%
%TA.AperFunction,ComponentPad*%
%ADD14R,1.350000X1.350000*%
%TD*%
%TA.AperFunction,ComponentPad*%
%ADD15O,1.350000X1.350000*%
%TD*%
%TA.AperFunction,ComponentPad*%
%ADD16RoundRect,0.250000X-0.625000X0.350000X-0.625000X-0.350000X0.625000X-0.350000X0.625000X0.350000X0*%
%TD*%
%TA.AperFunction,ComponentPad*%
%ADD17O,1.750000X1.200000*%
%TD*%
%TA.AperFunction,ViaPad*%
%ADD18C,0.600000*%
%TD*%
%TA.AperFunction,Conductor*%
%ADD19C,0.200000*%
%TD*%
%TA.AperFunction,Conductor*%
%ADD20C,0.800000*%
%TD*%
G04 APERTURE END LIST*
D10*
%TO.P,H1,1*%
%TO.N,N/C*%
X88500000Y-80500000D03*
%TD*%
D11*
%TO.P,+15V_TP1,1,1*%
%TO.N,/+15V*%
X110000000Y-94325000D03*
%TD*%
%TO.P,GND_TP1,1,1*%
%TO.N,GND*%
X110000000Y-100000000D03*
%TD*%
%TO.P,VG_TP1,1,1*%
%TO.N,/VG*%
X110000000Y-105750000D03*
%TD*%
D10*
%TO.P,H3,1*%
%TO.N,N/C*%
X88500000Y-112000000D03*
%TD*%
D12*
%TO.P,U1,1*%
%TO.N,/VG*%
X107420000Y-112000000D03*
D13*
%TO.P,U1,2*%
%TO.N,+12V*%
X109960000Y-112000000D03*
%TO.P,U1,3*%
%TO.N,/Vsource*%
X112500000Y-112000000D03*
%TD*%
D10*
%TO.P,H4,1*%
%TO.N,N/C*%
X127000000Y-112000000D03*
%TD*%
D14*
%TO.P,J2,1,Pin_1*%
%TO.N,/Vsource*%
X127000000Y-96000000D03*
D15*
%TO.P,J2,2,Pin_2*%
%TO.N,GND*%
X127000000Y-98000000D03*
%TD*%
D10*
%TO.P,H2,1*%
%TO.N,N/C*%
X127000000Y-80500000D03*
%TD*%
D16*
%TO.P,J1,1,Pin_1*%
%TO.N,/PWM input*%
X90040000Y-92720000D03*
D17*
%TO.P,J1,2,Pin_2*%
%TO.N,GND*%
X90040000Y-94720000D03*
%TO.P,J1,3,Pin_3*%
%TO.N,+24V*%
X90040000Y-96720000D03*
%TO.P,J1,4,Pin_4*%
%TO.N,+12V*%
X90040000Y-98720000D03*
%TO.P,J1,5,Pin_5*%
%TO.N,GND*%
X90040000Y-100720000D03*
%TD*%
D18*
%TO.N,GND*%
X118000000Y-103000000D03*
X89465000Y-104584400D03*
X93600000Y-84553200D03*
X94963300Y-95222400D03*
X111623400Y-91206800D03*
X102145700Y-102664800D03*
X112760200Y-104584400D03*
X125230500Y-87414800D03*
X121517100Y-100921500D03*
X111416100Y-86464400D03*
%TD*%
D19*
%TO.N,/VG*%
X110000000Y-108163300D02*
X110000000Y-105750000D01*
X107420000Y-110743300D02*
X110000000Y-108163300D01*
X107420000Y-112000000D02*
X107420000Y-110743300D01*
D20*
%TO.N,+12V*%
X95220000Y-98720000D02*
X105865000Y-109365000D01*
X105865000Y-113555000D02*
X108690200Y-113555000D01*
X90040000Y-98720000D02*
X95220000Y-98720000D01*
X105865000Y-109365000D02*
X105865000Y-113555000D01*
X108690200Y-113555000D02*
X109960000Y-112285200D01*
X109960000Y-112285200D02*
X109960000Y-112000000D01*
%TD*%
%TA.AperFunction,Conductor*%
%TO.N,GND*%
G36*
X126209133Y-78020185D02*
G01*
X126254888Y-78072989D01*
X126264832Y-78142147D01*
X126235807Y-78205703D01*
X126187741Y-78239792D01*
X125975904Y-78323663D01*
X125975903Y-78323664D01*
X125711205Y-78469184D01*
X125711193Y-78469191D01*
X125466846Y-78646719D01*
X125466836Y-78646727D01*
X125246652Y-78853494D01*
X125054111Y-79086236D01*
X124892268Y-79341261D01*
X124892265Y-79341267D01*
X124763661Y-79614563D01*
X124763659Y-79614568D01*
X124670320Y-79901835D01*
X124613719Y-80198546D01*
X124613718Y-80198553D01*
X124594754Y-80499994D01*
X124594754Y-80500005D01*
X124613718Y-80801446D01*
X124613719Y-80801453D01*
X124670320Y-81098164D01*
X124763659Y-81385431D01*
X124763661Y-81385436D01*
X124892265Y-81658732D01*
X124892268Y-81658738D01*
X125054111Y-81913763D01*
X125054114Y-81913767D01*
X125054115Y-81913768D01*
X125246649Y-82146502D01*
X125246652Y-82146505D01*
X125466836Y-82353272D01*
X125466846Y-82353280D01*
X125711193Y-82530808D01*
X125711198Y-82530810D01*
X125711205Y-82530816D01*
X125975896Y-82676332D01*
X125975901Y-82676334D01*
X125975903Y-82676335D01*
X125975904Y-82676336D01*
X126256734Y-82787524D01*
X126256737Y-82787525D01*
X126354259Y-82812564D01*
X126549302Y-82862642D01*
X126696039Y-82881179D01*
X126848963Y-82900499D01*
X126848969Y-82900499D01*
X126848973Y-82900500D01*
X126848975Y-82900500D01*
X127151025Y-82900500D01*
X127151027Y-82900500D01*
X127151032Y-82900499D01*
X127151036Y-82900499D01*
X127230591Y-82890448D01*
X127450698Y-82862642D01*
X127743262Y-82787525D01*
X127743265Y-82787524D01*
X128024095Y-82676336D01*
X128024096Y-82676335D01*
X128024094Y-82676335D01*
X128024104Y-82676332D01*
X128288795Y-82530816D01*
X128533162Y-82353274D01*
X128753349Y-82146504D01*
X128829956Y-82053901D01*
X128887856Y-82014794D01*
X128957707Y-82013198D01*
X129017333Y-82049619D01*
X129047803Y-82112495D01*
X129049500Y-82132942D01*
X129049500Y-110367057D01*
X129029815Y-110434096D01*
X128977011Y-110479851D01*
X128907853Y-110489795D01*
X128844297Y-110460770D01*
X128829957Y-110446098D01*
X128753352Y-110353499D01*
X128753350Y-110353497D01*
X128651708Y-110258048D01*
X128533162Y-110146726D01*
X128533159Y-110146724D01*
X128533153Y-110146719D01*
X128288806Y-109969191D01*
X128288799Y-109969186D01*
X128288795Y-109969184D01*
X128024104Y-109823668D01*
X128024101Y-109823666D01*
X128024096Y-109823664D01*
X128024095Y-109823663D01*
X127743265Y-109712475D01*
X127743262Y-109712474D01*
X127450695Y-109637357D01*
X127151036Y-109599500D01*
X127151027Y-109599500D01*
X126848973Y-109599500D01*
X126848963Y-109599500D01*
X126549304Y-109637357D01*
X126256737Y-109712474D01*
X126256734Y-109712475D01*
X125975904Y-109823663D01*
X125975903Y-109823664D01*
X125711205Y-109969184D01*
X125711193Y-109969191D01*
X125466846Y-110146719D01*
X125466836Y-110146727D01*
X125246652Y-110353494D01*
X125054111Y-110586236D01*
X124892268Y-110841261D01*
X124892265Y-110841267D01*
X124763661Y-111114563D01*
X124763659Y-111114568D01*
X124670320Y-111401835D01*
X124613719Y-111698546D01*
X124613718Y-111698553D01*
X124594754Y-111999994D01*
X124594754Y-112000005D01*
X124613718Y-112301446D01*
X124613719Y-112301453D01*
X124670320Y-112598164D01*
X124763659Y-112885431D01*
X124763661Y-112885436D01*
X124892265Y-113158732D01*
X124892268Y-113158738D01*
X125054111Y-113413763D01*
X125054114Y-113413767D01*
X125054115Y-113413768D01*
X125087059Y-113453591D01*
X125246652Y-113646505D01*
X125394249Y-113785108D01*
X125429644Y-113845349D01*
X125426851Y-113915163D01*
X125386757Y-113972384D01*
X125322092Y-113998845D01*
X125309365Y-113999500D01*
X109818562Y-113999500D01*
X109751523Y-113979815D01*
X109705768Y-113927011D01*
X109695824Y-113857853D01*
X109724849Y-113794297D01*
X109730881Y-113787819D01*
X110031623Y-113487076D01*
X110092946Y-113453591D01*
X110098885Y-113452449D01*
X110318529Y-113415797D01*
X110546671Y-113337476D01*
X110758811Y-113222672D01*
X110949162Y-113074516D01*
X111112530Y-112897050D01*
X111126191Y-112876139D01*
X111179336Y-112830784D01*
X111248567Y-112821359D01*
X111311903Y-112850860D01*
X111333807Y-112876138D01*
X111347470Y-112897050D01*
X111510838Y-113074516D01*
X111510841Y-113074518D01*
X111510844Y-113074521D01*
X111701180Y-113222666D01*
X111701187Y-113222670D01*
X111701189Y-113222672D01*
X111913329Y-113337476D01*
X112141471Y-113415797D01*
X112379394Y-113455500D01*
X112379395Y-113455500D01*
X112620605Y-113455500D01*
X112620606Y-113455500D01*
X112858529Y-113415797D01*
X113086671Y-113337476D01*
X113298811Y-113222672D01*
X113489162Y-113074516D01*
X113652530Y-112897050D01*
X113784461Y-112695115D01*
X113881355Y-112474220D01*
X113940569Y-112240388D01*
X113960488Y-112000000D01*
X113940569Y-111759612D01*
X113881355Y-111525780D01*
X113784461Y-111304885D01*
X113652530Y-111102950D01*
X113489162Y-110925484D01*
X113489157Y-110925480D01*
X113489155Y-110925478D01*
X113298819Y-110777333D01*
X113298808Y-110777326D01*
X113086677Y-110662527D01*
X113086674Y-110662525D01*
X113086671Y-110662524D01*
X113086668Y-110662523D01*
X113086666Y-110662522D01*
X112858531Y-110584203D01*
X112646877Y-110548884D01*
X112620606Y-110544500D01*
X112379394Y-110544500D01*
X112353123Y-110548884D01*
X112141468Y-110584203D01*
X111913333Y-110662522D01*
X111913322Y-110662527D01*
X111701191Y-110777326D01*
X111701180Y-110777333D01*
X111510844Y-110925478D01*
X111510841Y-110925481D01*
X111510838Y-110925483D01*
X111510838Y-110925484D01*
X111347470Y-111102950D01*
X111333806Y-111123863D01*
X111280661Y-111169218D01*
X111211430Y-111178641D01*
X111148094Y-111149138D01*
X111126194Y-111123864D01*
X111112530Y-111102950D01*
X110949162Y-110925484D01*
X110949157Y-110925480D01*
X110949155Y-110925478D01*
X110758819Y-110777333D01*
X110758808Y-110777326D01*
X110546677Y-110662527D01*
X110546674Y-110662525D01*
X110546671Y-110662524D01*
X110546668Y-110662523D01*
X110546666Y-110662522D01*
X110318531Y-110584203D01*
X110106877Y-110548884D01*
X110080606Y-110544500D01*
X109839394Y-110544500D01*
X109813123Y-110548884D01*
X109601468Y-110584203D01*
X109373333Y-110662522D01*
X109373322Y-110662527D01*
X109161191Y-110777326D01*
X109161187Y-110777328D01*
X109021814Y-110885807D01*
X108956820Y-110911449D01*
X108888280Y-110897882D01*
X108837955Y-110849414D01*
X108829470Y-110831286D01*
X108818797Y-110802671D01*
X108818793Y-110802664D01*
X108732547Y-110687456D01*
X108732548Y-110687456D01*
X108732546Y-110687454D01*
X108617331Y-110601204D01*
X108617329Y-110601203D01*
X108614080Y-110598771D01*
X108572209Y-110542837D01*
X108567225Y-110473145D01*
X108600708Y-110411825D01*
X110368713Y-108643821D01*
X110368716Y-108643820D01*
X110480520Y-108532016D01*
X110530639Y-108445204D01*
X110559577Y-108395085D01*
X110600501Y-108242357D01*
X110600501Y-108084243D01*
X110600501Y-108076648D01*
X110600500Y-108076630D01*
X110600500Y-107091343D01*
X110620185Y-107024304D01*
X110665483Y-106982288D01*
X110768626Y-106926470D01*
X110951784Y-106783913D01*
X111108979Y-106613153D01*
X111235924Y-106418849D01*
X111329157Y-106206300D01*
X111386134Y-105981305D01*
X111405300Y-105750000D01*
X111405300Y-105749993D01*
X111386135Y-105518702D01*
X111386133Y-105518691D01*
X111329157Y-105293699D01*
X111235924Y-105081151D01*
X111108983Y-104886852D01*
X111108980Y-104886849D01*
X111108979Y-104886847D01*
X110951784Y-104716087D01*
X110951779Y-104716083D01*
X110951777Y-104716081D01*
X110768634Y-104573535D01*
X110768628Y-104573531D01*
X110564504Y-104463064D01*
X110564495Y-104463061D01*
X110344984Y-104387702D01*
X110173282Y-104359050D01*
X110116049Y-104349500D01*
X109883951Y-104349500D01*
X109838164Y-104357140D01*
X109655015Y-104387702D01*
X109435504Y-104463061D01*
X109435495Y-104463064D01*
X109231371Y-104573531D01*
X109231365Y-104573535D01*
X109048222Y-104716081D01*
X109048219Y-104716084D01*
X108891016Y-104886852D01*
X108764075Y-105081151D01*
X108670842Y-105293699D01*
X108613866Y-105518691D01*
X108613864Y-105518702D01*
X108594700Y-105749993D01*
X108594700Y-105750006D01*
X108613864Y-105981297D01*
X108613866Y-105981308D01*
X108670842Y-106206300D01*
X108764075Y-106418848D01*
X108891016Y-106613147D01*
X108891019Y-106613151D01*
X108891021Y-106613153D01*
X109048216Y-106783913D01*
X109048219Y-106783915D01*
X109048222Y-106783918D01*
X109231365Y-106926464D01*
X109231376Y-106926471D01*
X109334517Y-106982288D01*
X109384108Y-107031507D01*
X109399500Y-107091343D01*
X109399500Y-107863202D01*
X109379815Y-107930241D01*
X109363181Y-107950883D01*
X106977181Y-110336883D01*
X106915858Y-110370368D01*
X106846166Y-110365384D01*
X106790233Y-110323512D01*
X106765816Y-110258048D01*
X106765500Y-110249202D01*
X106765500Y-109276306D01*
X106765499Y-109276304D01*
X106730896Y-109102341D01*
X106730893Y-109102332D01*
X106663016Y-108938459D01*
X106663009Y-108938446D01*
X106564465Y-108790966D01*
X106564464Y-108790965D01*
X106439035Y-108665536D01*
X97773505Y-100000005D01*
X108595202Y-100000005D01*
X108614361Y-100231218D01*
X108671317Y-100456135D01*
X108764515Y-100668606D01*
X108848812Y-100797633D01*
X109557861Y-100088584D01*
X109580667Y-100173694D01*
X109639910Y-100276306D01*
X109723694Y-100360090D01*
X109826306Y-100419333D01*
X109911414Y-100442138D01*
X109201201Y-101152351D01*
X109231649Y-101176050D01*
X109435697Y-101286476D01*
X109435706Y-101286479D01*
X109655139Y-101361811D01*
X109883993Y-101400000D01*
X110116007Y-101400000D01*
X110344860Y-101361811D01*
X110564293Y-101286479D01*
X110564301Y-101286476D01*
X110768355Y-101176047D01*
X110798797Y-101152351D01*
X110798798Y-101152350D01*
X110088585Y-100442137D01*
X110173694Y-100419333D01*
X110276306Y-100360090D01*
X110360090Y-100276306D01*
X110419333Y-100173694D01*
X110442138Y-100088585D01*
X111151186Y-100797633D01*
X111235482Y-100668611D01*
X111328682Y-100456135D01*
X111385638Y-100231218D01*
X111404798Y-100000005D01*
X111404798Y-99999994D01*
X111385638Y-99768781D01*
X111328682Y-99543864D01*
X111235484Y-99331393D01*
X111151186Y-99202365D01*
X110442137Y-99911414D01*
X110419333Y-99826306D01*
X110360090Y-99723694D01*
X110276306Y-99639910D01*
X110173694Y-99580667D01*
X110088584Y-99557861D01*
X110798797Y-98847647D01*
X110798797Y-98847645D01*
X110768360Y-98823955D01*
X110768354Y-98823951D01*
X110564302Y-98713523D01*
X110564293Y-98713520D01*
X110344860Y-98638188D01*
X110116007Y-98600000D01*
X109883993Y-98600000D01*
X109655139Y-98638188D01*
X109435706Y-98713520D01*
X109435697Y-98713523D01*
X109231650Y-98823949D01*
X109201200Y-98847647D01*
X109911415Y-99557861D01*
X109826306Y-99580667D01*
X109723694Y-99639910D01*
X109639910Y-99723694D01*
X109580667Y-99826306D01*
X109557861Y-99911415D01*
X108848811Y-99202365D01*
X108764516Y-99331390D01*
X108671317Y-99543864D01*
X108614361Y-99768781D01*
X108595202Y-99999994D01*
X108595202Y-100000005D01*
X97773505Y-100000005D01*
X95794036Y-98020536D01*
X95794035Y-98020535D01*
X95794030Y-98020531D01*
X95734961Y-97981064D01*
X95734960Y-97981063D01*
X95646544Y-97921985D01*
X95646542Y-97921984D01*
X95564607Y-97888046D01*
X95564606Y-97888046D01*
X95482666Y-97854105D01*
X95482658Y-97854103D01*
X95308696Y-97819500D01*
X95308692Y-97819500D01*
X95308691Y-97819500D01*
X91055583Y-97819500D01*
X90988544Y-97799815D01*
X90942789Y-97747011D01*
X90932845Y-97677853D01*
X90961870Y-97614297D01*
X90982694Y-97595184D01*
X91031928Y-97559414D01*
X91154414Y-97436928D01*
X91256232Y-97296788D01*
X91334873Y-97142445D01*
X91388402Y-96977701D01*
X91415500Y-96806611D01*
X91415500Y-96722870D01*
X125824500Y-96722870D01*
X125824501Y-96722876D01*
X125830908Y-96782483D01*
X125881202Y-96917328D01*
X125881206Y-96917335D01*
X125967452Y-97032544D01*
X125967455Y-97032547D01*
X126053504Y-97096964D01*
X126095375Y-97152898D01*
X126100359Y-97222589D01*
X126078148Y-97270956D01*
X125996714Y-97378792D01*
X125899651Y-97573719D01*
X125849494Y-97749999D01*
X125849495Y-97750000D01*
X126684314Y-97750000D01*
X126679920Y-97754394D01*
X126627259Y-97845606D01*
X126600000Y-97947339D01*
X126600000Y-98052661D01*
X126627259Y-98154394D01*
X126679920Y-98245606D01*
X126684314Y-98250000D01*
X125849495Y-98250000D01*
X125899651Y-98426280D01*
X125996715Y-98621208D01*
X126127945Y-98794985D01*
X126288868Y-98941685D01*
X126474012Y-99056322D01*
X126474023Y-99056327D01*
X126677060Y-99134984D01*
X126750000Y-99148619D01*
X126750000Y-98315686D01*
X126754394Y-98320080D01*
X126845606Y-98372741D01*
X126947339Y-98400000D01*
X127052661Y-98400000D01*
X127154394Y-98372741D01*
X127245606Y-98320080D01*
X127250000Y-98315686D01*
X127250000Y-99148619D01*
X127322939Y-99134984D01*
X127525976Y-99056327D01*
X127525987Y-99056322D01*
X127711130Y-98941685D01*
X127711131Y-98941685D01*
X127872054Y-98794985D01*
X128003284Y-98621208D01*
X128100348Y-98426280D01*
X128150505Y-98250000D01*
X127315686Y-98250000D01*
X127320080Y-98245606D01*
X127372741Y-98154394D01*
X127400000Y-98052661D01*
X127400000Y-97947339D01*
X127372741Y-97845606D01*
X127320080Y-97754394D01*
X127315686Y-97750000D01*
X128150505Y-97750000D01*
X128150505Y-97749999D01*
X128100348Y-97573719D01*
X128003284Y-97378791D01*
X127921852Y-97270957D01*
X127897160Y-97205595D01*
X127911725Y-97137261D01*
X127946493Y-97096965D01*
X128032546Y-97032546D01*
X128118796Y-96917331D01*
X128169091Y-96782483D01*
X128175500Y-96722873D01*
X128175499Y-95277128D01*
X128169091Y-95217517D01*
X128118796Y-95082669D01*
X128118795Y-95082668D01*
X128118793Y-95082664D01*
X128032547Y-94967455D01*
X128032544Y-94967452D01*
X127917335Y-94881206D01*
X127917328Y-94881202D01*
X127782482Y-94830908D01*
X127782483Y-94830908D01*
X127722883Y-94824501D01*
X127722881Y-94824500D01*
X127722873Y-94824500D01*
X127722864Y-94824500D01*
X126277129Y-94824500D01*
X126277123Y-94824501D01*
X126217516Y-94830908D01*
X126082671Y-94881202D01*
X126082664Y-94881206D01*
X125967455Y-94967452D01*
X125967452Y-94967455D01*
X125881206Y-95082664D01*
X125881202Y-95082671D01*
X125830908Y-95217517D01*
X125824501Y-95277116D01*
X125824501Y-95277123D01*
X125824500Y-95277135D01*
X125824500Y-96722870D01*
X91415500Y-96722870D01*
X91415500Y-96633389D01*
X91388402Y-96462299D01*
X91334873Y-96297555D01*
X91256232Y-96143212D01*
X91154414Y-96003072D01*
X91031928Y-95880586D01*
X90948550Y-95820008D01*
X90905885Y-95764677D01*
X90899906Y-95695064D01*
X90932512Y-95633269D01*
X90948552Y-95619371D01*
X91031598Y-95559036D01*
X91154032Y-95436602D01*
X91255804Y-95296524D01*
X91334408Y-95142255D01*
X91387914Y-94977584D01*
X91389115Y-94970000D01*
X90320330Y-94970000D01*
X90340075Y-94950255D01*
X90389444Y-94864745D01*
X90415000Y-94769370D01*
X90415000Y-94670630D01*
X90389444Y-94575255D01*
X90340075Y-94489745D01*
X90320330Y-94470000D01*
X91389115Y-94470000D01*
X91389115Y-94469999D01*
X91387914Y-94462415D01*
X91343266Y-94325006D01*
X108594700Y-94325006D01*
X108613864Y-94556297D01*
X108613866Y-94556308D01*
X108670842Y-94781300D01*
X108764075Y-94993848D01*
X108891016Y-95188147D01*
X108891019Y-95188151D01*
X108891021Y-95188153D01*
X109048216Y-95358913D01*
X109048219Y-95358915D01*
X109048222Y-95358918D01*
X109231365Y-95501464D01*
X109231371Y-95501468D01*
X109231374Y-95501470D01*
X109435497Y-95611936D01*
X109497638Y-95633269D01*
X109655015Y-95687297D01*
X109655017Y-95687297D01*
X109655019Y-95687298D01*
X109883951Y-95725500D01*
X109883952Y-95725500D01*
X110116048Y-95725500D01*
X110116049Y-95725500D01*
X110344981Y-95687298D01*
X110564503Y-95611936D01*
X110768626Y-95501470D01*
X110951784Y-95358913D01*
X111108979Y-95188153D01*
X111235924Y-94993849D01*
X111329157Y-94781300D01*
X111386134Y-94556305D01*
X111386135Y-94556297D01*
X111405300Y-94325006D01*
X111405300Y-94324993D01*
X111386135Y-94093702D01*
X111386133Y-94093691D01*
X111329157Y-93868699D01*
X111235924Y-93656151D01*
X111108983Y-93461852D01*
X111108980Y-93461849D01*
X111108979Y-93461847D01*
X110951784Y-93291087D01*
X110951779Y-93291083D01*
X110951777Y-93291081D01*
X110768634Y-93148535D01*
X110768628Y-93148531D01*
X110564504Y-93038064D01*
X110564495Y-93038061D01*
X110344984Y-92962702D01*
X110173282Y-92934050D01*
X110116049Y-92924500D01*
X109883951Y-92924500D01*
X109838164Y-92932140D01*
X109655015Y-92962702D01*
X109435504Y-93038061D01*
X109435495Y-93038064D01*
X109231371Y-93148531D01*
X109231365Y-93148535D01*
X109048222Y-93291081D01*
X109048219Y-93291084D01*
X108891016Y-93461852D01*
X108764075Y-93656151D01*
X108670842Y-93868699D01*
X108613866Y-94093691D01*
X108613864Y-94093702D01*
X108594700Y-94324993D01*
X108594700Y-94325006D01*
X91343266Y-94325006D01*
X91334408Y-94297744D01*
X91255804Y-94143475D01*
X91154032Y-94003397D01*
X91046434Y-93895799D01*
X91012949Y-93834476D01*
X91017933Y-93764784D01*
X91059805Y-93708851D01*
X91068995Y-93702594D01*
X91133656Y-93662712D01*
X91257712Y-93538656D01*
X91349814Y-93389334D01*
X91404999Y-93222797D01*
X91415500Y-93120009D01*
X91415499Y-92319992D01*
X91404999Y-92217203D01*
X91349814Y-92050666D01*
X91257712Y-91901344D01*
X91133656Y-91777288D01*
X90984334Y-91685186D01*
X90817797Y-91630001D01*
X90817795Y-91630000D01*
X90715010Y-91619500D01*
X89364998Y-91619500D01*
X89364981Y-91619501D01*
X89262203Y-91630000D01*
X89262200Y-91630001D01*
X89095668Y-91685185D01*
X89095663Y-91685187D01*
X88946342Y-91777289D01*
X88822289Y-91901342D01*
X88730187Y-92050663D01*
X88730186Y-92050666D01*
X88675001Y-92217203D01*
X88675001Y-92217204D01*
X88675000Y-92217204D01*
X88664500Y-92319983D01*
X88664500Y-93120001D01*
X88664501Y-93120019D01*
X88675000Y-93222796D01*
X88675001Y-93222799D01*
X88697628Y-93291081D01*
X88730186Y-93389334D01*
X88822288Y-93538656D01*
X88946344Y-93662712D01*
X89010981Y-93702580D01*
X89057705Y-93754526D01*
X89068928Y-93823489D01*
X89041085Y-93887571D01*
X89033566Y-93895799D01*
X88925964Y-94003401D01*
X88824195Y-94143475D01*
X88745591Y-94297744D01*
X88692085Y-94462415D01*
X88690884Y-94469999D01*
X88690885Y-94470000D01*
X89759670Y-94470000D01*
X89739925Y-94489745D01*
X89690556Y-94575255D01*
X89665000Y-94670630D01*
X89665000Y-94769370D01*
X89690556Y-94864745D01*
X89739925Y-94950255D01*
X89759670Y-94970000D01*
X88690885Y-94970000D01*
X88692085Y-94977584D01*
X88745591Y-95142255D01*
X88824195Y-95296524D01*
X88925967Y-95436602D01*
X89048401Y-95559036D01*
X89131447Y-95619371D01*
X89174114Y-95674701D01*
X89180093Y-95744314D01*
X89147488Y-95806109D01*
X89131450Y-95820007D01*
X89048072Y-95880585D01*
X88925588Y-96003069D01*
X88925588Y-96003070D01*
X88925586Y-96003072D01*
X88881859Y-96063256D01*
X88823768Y-96143211D01*
X88745128Y-96297552D01*
X88691597Y-96462302D01*
X88664500Y-96633389D01*
X88664500Y-96806611D01*
X88691598Y-96977701D01*
X88745127Y-97142445D01*
X88823768Y-97296788D01*
X88925586Y-97436928D01*
X89048072Y-97559414D01*
X89048078Y-97559418D01*
X89131023Y-97619683D01*
X89173689Y-97675013D01*
X89179667Y-97744626D01*
X89147061Y-97806421D01*
X89131023Y-97820317D01*
X89048078Y-97880581D01*
X89048069Y-97880588D01*
X88925588Y-98003069D01*
X88925588Y-98003070D01*
X88925586Y-98003072D01*
X88912898Y-98020536D01*
X88823768Y-98143211D01*
X88745128Y-98297552D01*
X88691597Y-98462302D01*
X88664500Y-98633389D01*
X88664500Y-98806610D01*
X88685893Y-98941685D01*
X88691598Y-98977701D01*
X88745127Y-99142445D01*
X88823768Y-99296788D01*
X88925586Y-99436928D01*
X89048072Y-99559414D01*
X89131449Y-99619991D01*
X89174114Y-99675322D01*
X89180093Y-99744935D01*
X89147487Y-99806730D01*
X89131448Y-99820627D01*
X89048404Y-99880961D01*
X89048399Y-99880965D01*
X88925967Y-100003397D01*
X88824195Y-100143475D01*
X88745591Y-100297744D01*
X88692085Y-100462415D01*
X88690884Y-100469999D01*
X88690885Y-100470000D01*
X89759670Y-100470000D01*
X89739925Y-100489745D01*
X89690556Y-100575255D01*
X89665000Y-100670630D01*
X89665000Y-100769370D01*
X89690556Y-100864745D01*
X89739925Y-100950255D01*
X89759670Y-100970000D01*
X88690885Y-100970000D01*
X88692085Y-100977584D01*
X88745591Y-101142255D01*
X88824195Y-101296524D01*
X88925967Y-101436602D01*
X89048397Y-101559032D01*
X89188475Y-101660804D01*
X89342742Y-101739408D01*
X89507415Y-101792914D01*
X89678429Y-101820000D01*
X89790000Y-101820000D01*
X89790000Y-101000330D01*
X89809745Y-101020075D01*
X89895255Y-101069444D01*
X89990630Y-101095000D01*
X90089370Y-101095000D01*
X90184745Y-101069444D01*
X90270255Y-101020075D01*
X90290000Y-101000330D01*
X90290000Y-101820000D01*
X90401571Y-101820000D01*
X90572584Y-101792914D01*
X90737257Y-101739408D01*
X90891524Y-101660804D01*
X91031602Y-101559032D01*
X91154032Y-101436602D01*
X91255804Y-101296524D01*
X91334408Y-101142255D01*
X91387914Y-100977584D01*
X91389115Y-100970000D01*
X90320330Y-100970000D01*
X90340075Y-100950255D01*
X90389444Y-100864745D01*
X90415000Y-100769370D01*
X90415000Y-100670630D01*
X90389444Y-100575255D01*
X90340075Y-100489745D01*
X90320330Y-100470000D01*
X91389115Y-100470000D01*
X91389115Y-100469999D01*
X91387914Y-100462415D01*
X91334408Y-100297744D01*
X91255804Y-100143475D01*
X91154032Y-100003397D01*
X91031596Y-99880961D01*
X90981848Y-99844818D01*
X90939182Y-99789489D01*
X90933203Y-99719875D01*
X90965808Y-99658080D01*
X91026647Y-99623723D01*
X91054733Y-99620500D01*
X94795638Y-99620500D01*
X94862677Y-99640185D01*
X94883319Y-99656819D01*
X104928181Y-109701680D01*
X104961666Y-109763003D01*
X104964500Y-109789361D01*
X104964500Y-113643695D01*
X104999103Y-113817658D01*
X104999107Y-113817671D01*
X105003407Y-113828051D01*
X105010874Y-113897520D01*
X104979597Y-113959999D01*
X104919507Y-113995649D01*
X104888845Y-113999500D01*
X90190635Y-113999500D01*
X90123596Y-113979815D01*
X90077841Y-113927011D01*
X90067897Y-113857853D01*
X90096922Y-113794297D01*
X90105751Y-113785108D01*
X90253349Y-113646504D01*
X90445885Y-113413768D01*
X90607733Y-113158736D01*
X90736341Y-112885430D01*
X90829681Y-112598160D01*
X90886280Y-112301457D01*
X90890122Y-112240388D01*
X90905246Y-112000005D01*
X90905246Y-111999994D01*
X90886281Y-111698553D01*
X90886280Y-111698546D01*
X90886280Y-111698543D01*
X90829681Y-111401840D01*
X90736341Y-111114570D01*
X90730874Y-111102953D01*
X90647361Y-110925478D01*
X90607733Y-110841264D01*
X90510124Y-110687456D01*
X90445888Y-110586236D01*
X90411361Y-110544500D01*
X90253349Y-110353496D01*
X90033162Y-110146726D01*
X90033159Y-110146724D01*
X90033153Y-110146719D01*
X89788806Y-109969191D01*
X89788799Y-109969186D01*
X89788795Y-109969184D01*
X89524104Y-109823668D01*
X89524101Y-109823666D01*
X89524096Y-109823664D01*
X89524095Y-109823663D01*
X89243265Y-109712475D01*
X89243262Y-109712474D01*
X88950695Y-109637357D01*
X88651036Y-109599500D01*
X88651027Y-109599500D01*
X88348973Y-109599500D01*
X88348963Y-109599500D01*
X88049304Y-109637357D01*
X87756737Y-109712474D01*
X87756734Y-109712475D01*
X87475904Y-109823663D01*
X87475903Y-109823664D01*
X87211205Y-109969184D01*
X87211193Y-109969191D01*
X86966846Y-110146719D01*
X86966836Y-110146727D01*
X86746652Y-110353494D01*
X86554111Y-110586236D01*
X86392268Y-110841261D01*
X86392265Y-110841267D01*
X86286698Y-111065608D01*
X86240343Y-111117886D01*
X86173083Y-111136803D01*
X86106273Y-111116354D01*
X86061124Y-111063030D01*
X86050500Y-111012811D01*
X86050500Y-81487188D01*
X86070185Y-81420149D01*
X86122989Y-81374394D01*
X86192147Y-81364450D01*
X86255703Y-81393475D01*
X86286697Y-81434388D01*
X86392267Y-81658736D01*
X86392269Y-81658739D01*
X86392270Y-81658741D01*
X86554111Y-81913763D01*
X86554114Y-81913767D01*
X86554115Y-81913768D01*
X86746649Y-82146502D01*
X86746652Y-82146505D01*
X86966836Y-82353272D01*
X86966846Y-82353280D01*
X87211193Y-82530808D01*
X87211198Y-82530810D01*
X87211205Y-82530816D01*
X87475896Y-82676332D01*
X87475901Y-82676334D01*
X87475903Y-82676335D01*
X87475904Y-82676336D01*
X87756734Y-82787524D01*
X87756737Y-82787525D01*
X87854259Y-82812564D01*
X88049302Y-82862642D01*
X88196039Y-82881179D01*
X88348963Y-82900499D01*
X88348969Y-82900499D01*
X88348973Y-82900500D01*
X88348975Y-82900500D01*
X88651025Y-82900500D01*
X88651027Y-82900500D01*
X88651032Y-82900499D01*
X88651036Y-82900499D01*
X88730591Y-82890448D01*
X88950698Y-82862642D01*
X89243262Y-82787525D01*
X89243265Y-82787524D01*
X89524095Y-82676336D01*
X89524096Y-82676335D01*
X89524094Y-82676335D01*
X89524104Y-82676332D01*
X89788795Y-82530816D01*
X90033162Y-82353274D01*
X90253349Y-82146504D01*
X90445885Y-81913768D01*
X90607733Y-81658736D01*
X90736341Y-81385430D01*
X90829681Y-81098160D01*
X90886280Y-80801457D01*
X90905246Y-80500000D01*
X90886280Y-80198543D01*
X90829681Y-79901840D01*
X90736341Y-79614570D01*
X90607733Y-79341264D01*
X90445885Y-79086232D01*
X90253349Y-78853496D01*
X90033162Y-78646726D01*
X90033159Y-78646724D01*
X90033153Y-78646719D01*
X89788806Y-78469191D01*
X89788799Y-78469186D01*
X89788795Y-78469184D01*
X89524104Y-78323668D01*
X89524101Y-78323666D01*
X89524096Y-78323664D01*
X89524095Y-78323663D01*
X89312259Y-78239792D01*
X89257173Y-78196811D01*
X89234070Y-78130872D01*
X89250283Y-78062909D01*
X89300667Y-78014502D01*
X89357906Y-78000500D01*
X126142094Y-78000500D01*
X126209133Y-78020185D01*
G37*
%TD.AperFunction*%
%TD*%
M02*
