%TF.GenerationSoftware,KiCad,Pcbnew,8.0.1*%
%TF.CreationDate,2025-03-02T16:25:42+00:00*%
%TF.ProjectId,PWM Control Circuit,50574d20-436f-46e7-9472-6f6c20436972,rev?*%
%TF.SameCoordinates,Original*%
%TF.FileFunction,Copper,L1,Top*%
%TF.FilePolarity,Positive*%
%FSLAX46Y46*%
G04 Gerber Fmt 4.6, Leading zero omitted, Abs format (unit mm)*
G04 Created by KiCad (PCBNEW 8.0.1) date 2025-03-02 16:25:42*
%MOMM*%
%LPD*%
G01*
G04 APERTURE LIST*
G04 Aperture macros list*
%AMRoundRect*
0 Rectangle with rounded corners*
0 $1 Rounding radius*
0 $2 $3 $4 $5 $6 $7 $8 $9 X,Y pos of 4 corners*
0 Add a 4 corners polygon primitive as box body*
4,1,4,$2,$3,$4,$5,$6,$7,$8,$9,$2,$3,0*
0 Add four circle primitives for the rounded corners*
1,1,$1+$1,$2,$3*
1,1,$1+$1,$4,$5*
1,1,$1+$1,$6,$7*
1,1,$1+$1,$8,$9*
0 Add four rect primitives between the rounded corners*
20,1,$1+$1,$2,$3,$4,$5,0*
20,1,$1+$1,$4,$5,$6,$7,0*
20,1,$1+$1,$6,$7,$8,$9,0*
20,1,$1+$1,$8,$9,$2,$3,0*%
G04 Aperture macros list end*
%TA.AperFunction,SMDPad,CuDef*%
%ADD10R,1.110000X1.220000*%
%TD*%
%TA.AperFunction,SMDPad,CuDef*%
%ADD11RoundRect,0.250000X-0.312500X-0.625000X0.312500X-0.625000X0.312500X0.625000X-0.312500X0.625000X0*%
%TD*%
%TA.AperFunction,SMDPad,CuDef*%
%ADD12RoundRect,0.150000X0.150000X-0.587500X0.150000X0.587500X-0.150000X0.587500X-0.150000X-0.587500X0*%
%TD*%
%TA.AperFunction,ComponentPad*%
%ADD13C,3.800000*%
%TD*%
%TA.AperFunction,ComponentPad*%
%ADD14C,1.800000*%
%TD*%
%TA.AperFunction,SMDPad,CuDef*%
%ADD15R,0.970000X2.830000*%
%TD*%
%TA.AperFunction,SMDPad,CuDef*%
%ADD16R,5.630000X6.090000*%
%TD*%
%TA.AperFunction,SMDPad,CuDef*%
%ADD17RoundRect,0.250000X-0.650000X0.325000X-0.650000X-0.325000X0.650000X-0.325000X0.650000X0.325000X0*%
%TD*%
%TA.AperFunction,SMDPad,CuDef*%
%ADD18R,1.000000X1.400000*%
%TD*%
%TA.AperFunction,SMDPad,CuDef*%
%ADD19RoundRect,0.250000X-0.325000X-0.650000X0.325000X-0.650000X0.325000X0.650000X-0.325000X0.650000X0*%
%TD*%
%TA.AperFunction,SMDPad,CuDef*%
%ADD20R,1.850000X0.650000*%
%TD*%
%TA.AperFunction,ComponentPad*%
%ADD21R,1.910000X1.910000*%
%TD*%
%TA.AperFunction,ComponentPad*%
%ADD22C,1.910000*%
%TD*%
%TA.AperFunction,ComponentPad*%
%ADD23R,1.350000X1.350000*%
%TD*%
%TA.AperFunction,ComponentPad*%
%ADD24O,1.350000X1.350000*%
%TD*%
%TA.AperFunction,ComponentPad*%
%ADD25RoundRect,0.250000X-0.625000X0.350000X-0.625000X-0.350000X0.625000X-0.350000X0.625000X0.350000X0*%
%TD*%
%TA.AperFunction,ComponentPad*%
%ADD26O,1.750000X1.200000*%
%TD*%
%TA.AperFunction,SMDPad,CuDef*%
%ADD27R,1.600000X2.400000*%
%TD*%
%TA.AperFunction,ViaPad*%
%ADD28C,0.600000*%
%TD*%
%TA.AperFunction,Conductor*%
%ADD29C,0.800000*%
%TD*%
%TA.AperFunction,Conductor*%
%ADD30C,0.200000*%
%TD*%
G04 APERTURE END LIST*
D10*
%TO.P,D3,1*%
%TO.N,Net-(D3-Pad1)*%
X107950000Y-90000000D03*
%TO.P,D3,2*%
%TO.N,GND*%
X111050000Y-90000000D03*
%TD*%
D11*
%TO.P,R5,1*%
%TO.N,+24V*%
X102075000Y-90000000D03*
%TO.P,R5,2*%
%TO.N,Net-(D3-Pad1)*%
X105000000Y-90000000D03*
%TD*%
D12*
%TO.P,D2,1,A*%
%TO.N,GND*%
X103100000Y-102500000D03*
%TO.P,D2,2,NC*%
%TO.N,unconnected-(D2-NC-Pad2)*%
X105000000Y-102500000D03*
%TO.P,D2,3,K*%
%TO.N,Net-(D2-K)*%
X104050000Y-100625000D03*
%TD*%
D13*
%TO.P,H1,1*%
%TO.N,N/C*%
X88500000Y-80500000D03*
%TD*%
D14*
%TO.P,+15V_TP1,1,1*%
%TO.N,/+15V*%
X110000000Y-94325000D03*
%TD*%
D15*
%TO.P,U2,1,IN*%
%TO.N,+24V*%
X118593300Y-93650000D03*
D16*
%TO.P,U2,2,GND*%
%TO.N,GND*%
X120883300Y-87000000D03*
D15*
%TO.P,U2,3,OUT*%
%TO.N,/+15V*%
X123173300Y-93650000D03*
%TD*%
D17*
%TO.P,C2,1*%
%TO.N,+24V*%
X118000000Y-98025000D03*
%TO.P,C2,2*%
%TO.N,GND*%
X118000000Y-100975000D03*
%TD*%
D14*
%TO.P,GND_TP1,1,1*%
%TO.N,GND*%
X110000000Y-100000000D03*
%TD*%
D11*
%TO.P,R1,1*%
%TO.N,/PWM input*%
X96350000Y-90000000D03*
%TO.P,R1,2*%
%TO.N,Net-(IC1-ANODE)*%
X99275000Y-90000000D03*
%TD*%
D18*
%TO.P,D4,1*%
%TO.N,GND*%
X114050000Y-104100000D03*
%TO.P,D4,2*%
%TO.N,unconnected-(D4-Pad2)*%
X115950000Y-104100000D03*
%TO.P,D4,3*%
%TO.N,Net-(D4-Pad3)*%
X115000000Y-101900000D03*
%TD*%
D19*
%TO.P,C1,1*%
%TO.N,+24V*%
X87990000Y-105200000D03*
%TO.P,C1,2*%
%TO.N,GND*%
X90940000Y-105200000D03*
%TD*%
D11*
%TO.P,R6,1*%
%TO.N,/Vsource*%
X102100000Y-95100000D03*
%TO.P,R6,2*%
%TO.N,Net-(D4-Pad3)*%
X105025000Y-95100000D03*
%TD*%
D14*
%TO.P,VG_TP1,1,1*%
%TO.N,/VG*%
X110000000Y-105750000D03*
%TD*%
D13*
%TO.P,H3,1*%
%TO.N,N/C*%
X88500000Y-112000000D03*
%TD*%
D17*
%TO.P,C3,1*%
%TO.N,/+15V*%
X123000000Y-98025000D03*
%TO.P,C3,2*%
%TO.N,GND*%
X123000000Y-100975000D03*
%TD*%
D11*
%TO.P,R2,1*%
%TO.N,GND*%
X96200000Y-95000000D03*
%TO.P,R2,2*%
%TO.N,Net-(IC1-CATHODE)*%
X99125000Y-95000000D03*
%TD*%
%TO.P,R3,1*%
%TO.N,+24V*%
X96125000Y-100300000D03*
%TO.P,R3,2*%
%TO.N,Net-(D1-Pad2)*%
X99050000Y-100300000D03*
%TD*%
%TO.P,R4,1*%
%TO.N,/VG*%
X96150000Y-106075000D03*
%TO.P,R4,2*%
%TO.N,Net-(D2-K)*%
X99075000Y-106075000D03*
%TD*%
D20*
%TO.P,IC1,1,ANODE*%
%TO.N,Net-(IC1-ANODE)*%
X100875000Y-82530000D03*
%TO.P,IC1,2,NC*%
%TO.N,unconnected-(IC1-NC-Pad2)*%
X100875000Y-83800000D03*
%TO.P,IC1,3,CATHODE*%
%TO.N,Net-(IC1-CATHODE)*%
X100875000Y-85070000D03*
%TO.P,IC1,4,VEE*%
%TO.N,GND*%
X111525000Y-85070000D03*
%TO.P,IC1,5,VOUT*%
%TO.N,/VG*%
X111525000Y-83800000D03*
%TO.P,IC1,6,VCC*%
%TO.N,/+15V*%
X111525000Y-82530000D03*
%TD*%
D21*
%TO.P,U1,1*%
%TO.N,/VG*%
X107420000Y-112000000D03*
D22*
%TO.P,U1,2*%
%TO.N,+12V*%
X109960000Y-112000000D03*
%TO.P,U1,3*%
%TO.N,/Vsource*%
X112500000Y-112000000D03*
%TD*%
D13*
%TO.P,H4,1*%
%TO.N,N/C*%
X127000000Y-112000000D03*
%TD*%
D23*
%TO.P,J2,1,Pin_1*%
%TO.N,/Vsource*%
X127000000Y-96000000D03*
D24*
%TO.P,J2,2,Pin_2*%
%TO.N,GND*%
X127000000Y-98000000D03*
%TD*%
D13*
%TO.P,H2,1*%
%TO.N,N/C*%
X127000000Y-80500000D03*
%TD*%
D25*
%TO.P,J1,1,Pin_1*%
%TO.N,/PWM input*%
X90040000Y-92720000D03*
D26*
%TO.P,J1,2,Pin_2*%
%TO.N,GND*%
X90040000Y-94720000D03*
%TO.P,J1,3,Pin_3*%
%TO.N,+24V*%
X90040000Y-96720000D03*
%TO.P,J1,4,Pin_4*%
%TO.N,+12V*%
X90040000Y-98720000D03*
%TO.P,J1,5,Pin_5*%
%TO.N,GND*%
X90040000Y-100720000D03*
%TD*%
D27*
%TO.P,D1,1*%
%TO.N,GND*%
X92175000Y-85000000D03*
%TO.P,D1,2*%
%TO.N,Net-(D1-Pad2)*%
X95025000Y-85000000D03*
%TD*%
D28*
%TO.N,GND*%
X118000000Y-103000000D03*
X89465000Y-104584400D03*
X93600000Y-84553200D03*
X94963300Y-95222400D03*
X111623400Y-91206800D03*
X102145700Y-102664800D03*
X112760200Y-104584400D03*
X125230500Y-87414800D03*
X121517100Y-100921500D03*
X111416100Y-86464400D03*
%TD*%
D29*
%TO.N,/+15V*%
X126936500Y-93650000D02*
X123173300Y-93650000D01*
X111551800Y-92562800D02*
X109500000Y-90511000D01*
X110000000Y-94114600D02*
X110000000Y-94325000D01*
X109500000Y-90511000D02*
X109500000Y-89290000D01*
X123173300Y-93650000D02*
X122086600Y-93650000D01*
X120069900Y-91633300D02*
X112481300Y-91633300D01*
X108500000Y-88290000D02*
X108500000Y-84028300D01*
X112481300Y-91633300D02*
X111551800Y-92562800D01*
X109500000Y-89290000D02*
X108500000Y-88290000D01*
X109998300Y-82530000D02*
X111525000Y-82530000D01*
X128276700Y-98557800D02*
X128276700Y-94990200D01*
X123000000Y-98025000D02*
X124301000Y-99326000D01*
X128276700Y-94990200D02*
X126936500Y-93650000D01*
X122086600Y-93650000D02*
X120069900Y-91633300D01*
X127508500Y-99326000D02*
X128276700Y-98557800D01*
X111551800Y-92562800D02*
X110000000Y-94114600D01*
X124301000Y-99326000D02*
X127508500Y-99326000D01*
X108500000Y-84028300D02*
X109998300Y-82530000D01*
D30*
%TO.N,GND*%
X112763900Y-104584400D02*
X113248300Y-104100000D01*
X90324400Y-104584400D02*
X90940000Y-105200000D01*
X122946500Y-100921500D02*
X123000000Y-100975000D01*
X89465000Y-104584400D02*
X90324400Y-104584400D01*
X111050000Y-90000000D02*
X111050000Y-90911700D01*
X112760200Y-104584400D02*
X112763900Y-104584400D01*
X93276700Y-84876500D02*
X93276700Y-85000000D01*
X111623400Y-91206800D02*
X111328300Y-90911700D01*
X111525000Y-86355500D02*
X111525000Y-85070000D01*
X95977600Y-95222400D02*
X96200000Y-95000000D01*
X118000000Y-103000000D02*
X118000000Y-100975000D01*
X121517100Y-100921500D02*
X122946500Y-100921500D01*
X93600000Y-84553200D02*
X93276700Y-84876500D01*
X102145700Y-102664800D02*
X102935200Y-102664800D01*
X111416100Y-86464400D02*
X111525000Y-86355500D01*
X124414800Y-87414800D02*
X124000000Y-87000000D01*
X92175000Y-85000000D02*
X93276700Y-85000000D01*
X102935200Y-102664800D02*
X103100000Y-102500000D01*
X111328300Y-90911700D02*
X111050000Y-90911700D01*
X114050000Y-104100000D02*
X113248300Y-104100000D01*
X125230500Y-87414800D02*
X124414800Y-87414800D01*
X120883300Y-87000000D02*
X124000000Y-87000000D01*
X94963300Y-95222400D02*
X95977600Y-95222400D01*
%TO.N,Net-(D1-Pad2)*%
X97812500Y-86685800D02*
X96126700Y-85000000D01*
X99050000Y-100300000D02*
X97812500Y-99062500D01*
X97812500Y-99062500D02*
X97812500Y-86685800D01*
X95025000Y-85000000D02*
X96126700Y-85000000D01*
%TO.N,Net-(D2-K)*%
X99075000Y-104884700D02*
X99075000Y-106075000D01*
X103334700Y-100625000D02*
X99075000Y-104884700D01*
X104050000Y-100625000D02*
X103334700Y-100625000D01*
%TO.N,Net-(D3-Pad1)*%
X105000000Y-90000000D02*
X107950000Y-90000000D01*
%TO.N,Net-(D4-Pad3)*%
X107141300Y-101900000D02*
X101217200Y-95975900D01*
X101548300Y-93899300D02*
X103824300Y-93899300D01*
X115000000Y-101900000D02*
X107141300Y-101900000D01*
X101217200Y-94230400D02*
X101548300Y-93899300D01*
X103824300Y-93899300D02*
X105025000Y-95100000D01*
X101217200Y-95975900D02*
X101217200Y-94230400D01*
%TO.N,Net-(IC1-ANODE)*%
X99208500Y-82969800D02*
X99208500Y-89933500D01*
X100875000Y-82530000D02*
X99648300Y-82530000D01*
X99648300Y-82530000D02*
X99208500Y-82969800D01*
X99208500Y-89933500D02*
X99275000Y-90000000D01*
%TO.N,/VG*%
X111525000Y-83800000D02*
X112751700Y-83800000D01*
X107420000Y-112000000D02*
X103244200Y-112000000D01*
X104134800Y-90709200D02*
X100583700Y-94260300D01*
X112497900Y-81826200D02*
X109709700Y-81826200D01*
X112751700Y-83800000D02*
X112751700Y-82080000D01*
X104134800Y-87401100D02*
X104134800Y-90709200D01*
X103244200Y-112000000D02*
X97097600Y-105853400D01*
X96876000Y-106075000D02*
X97097600Y-105853400D01*
X96150000Y-106075000D02*
X96876000Y-106075000D01*
X100583700Y-102367300D02*
X97097600Y-105853400D01*
X112751700Y-82080000D02*
X112497900Y-81826200D01*
X109709700Y-81826200D02*
X104134800Y-87401100D01*
X100583700Y-94260300D02*
X100583700Y-102367300D01*
%TO.N,Net-(IC1-CATHODE)*%
X100185000Y-93940000D02*
X99125000Y-95000000D01*
X100185000Y-86074600D02*
X100185000Y-93940000D01*
X99648300Y-85070000D02*
X99648300Y-85537900D01*
X100875000Y-85070000D02*
X99648300Y-85070000D01*
X99648300Y-85537900D02*
X100185000Y-86074600D01*
%TO.N,/PWM input*%
X90040000Y-92720000D02*
X92760000Y-90000000D01*
X92760000Y-90000000D02*
X96350000Y-90000000D01*
D29*
%TO.N,/Vsource*%
X127000000Y-96000000D02*
X125723300Y-96000000D01*
X125723300Y-96000000D02*
X125125700Y-96597600D01*
X115902400Y-96597600D02*
X114500000Y-98000000D01*
X120535200Y-96597600D02*
X120617100Y-96679500D01*
X114500000Y-98000000D02*
X105000000Y-98000000D01*
X120911403Y-101588597D02*
X112500000Y-110000000D01*
X120617100Y-101294293D02*
X120911403Y-101588597D01*
X112500000Y-110000000D02*
X112500000Y-112000000D01*
X125125700Y-96597600D02*
X120535200Y-96597600D01*
X120535200Y-96597600D02*
X115902400Y-96597600D01*
X105000000Y-98000000D02*
X102100000Y-95100000D01*
X120617100Y-96679500D02*
X120617100Y-101294293D01*
%TD*%
%TA.AperFunction,Conductor*%
%TO.N,+24V*%
G36*
X126209133Y-78020185D02*
G01*
X126254888Y-78072989D01*
X126264832Y-78142147D01*
X126235807Y-78205703D01*
X126187741Y-78239792D01*
X125975904Y-78323663D01*
X125975903Y-78323664D01*
X125711205Y-78469184D01*
X125711193Y-78469191D01*
X125466846Y-78646719D01*
X125466836Y-78646727D01*
X125246652Y-78853494D01*
X125054111Y-79086236D01*
X124892268Y-79341261D01*
X124892265Y-79341267D01*
X124763661Y-79614563D01*
X124763659Y-79614568D01*
X124670320Y-79901835D01*
X124613719Y-80198546D01*
X124613718Y-80198553D01*
X124594754Y-80499994D01*
X124594754Y-80500005D01*
X124613718Y-80801446D01*
X124613719Y-80801453D01*
X124670320Y-81098164D01*
X124763659Y-81385431D01*
X124763661Y-81385436D01*
X124892265Y-81658732D01*
X124892268Y-81658738D01*
X125054111Y-81913763D01*
X125054114Y-81913767D01*
X125054115Y-81913768D01*
X125246649Y-82146502D01*
X125246652Y-82146505D01*
X125466836Y-82353272D01*
X125466846Y-82353280D01*
X125711193Y-82530808D01*
X125711198Y-82530810D01*
X125711205Y-82530816D01*
X125975896Y-82676332D01*
X125975901Y-82676334D01*
X125975903Y-82676335D01*
X125975904Y-82676336D01*
X126256734Y-82787524D01*
X126256737Y-82787525D01*
X126354259Y-82812564D01*
X126549302Y-82862642D01*
X126696039Y-82881179D01*
X126848963Y-82900499D01*
X126848969Y-82900499D01*
X126848973Y-82900500D01*
X126848975Y-82900500D01*
X127151025Y-82900500D01*
X127151027Y-82900500D01*
X127151032Y-82900499D01*
X127151036Y-82900499D01*
X127230591Y-82890448D01*
X127450698Y-82862642D01*
X127743262Y-82787525D01*
X127743265Y-82787524D01*
X128024095Y-82676336D01*
X128024096Y-82676335D01*
X128024094Y-82676335D01*
X128024104Y-82676332D01*
X128288795Y-82530816D01*
X128533162Y-82353274D01*
X128753349Y-82146504D01*
X128829956Y-82053901D01*
X128887856Y-82014794D01*
X128957707Y-82013198D01*
X129017333Y-82049619D01*
X129047803Y-82112495D01*
X129049500Y-82132942D01*
X129049500Y-94190137D01*
X129029815Y-94257176D01*
X128977011Y-94302931D01*
X128907853Y-94312875D01*
X128844297Y-94283850D01*
X128837819Y-94277818D01*
X127510535Y-92950535D01*
X127510530Y-92950531D01*
X127451461Y-92911064D01*
X127451460Y-92911063D01*
X127363044Y-92851985D01*
X127363042Y-92851984D01*
X127281107Y-92818046D01*
X127281106Y-92818046D01*
X127199166Y-92784105D01*
X127199158Y-92784103D01*
X127025196Y-92749500D01*
X127025192Y-92749500D01*
X127025191Y-92749500D01*
X124282799Y-92749500D01*
X124215760Y-92729815D01*
X124170005Y-92677011D01*
X124158799Y-92625500D01*
X124158799Y-92187129D01*
X124158798Y-92187123D01*
X124152391Y-92127516D01*
X124102097Y-91992671D01*
X124102093Y-91992664D01*
X124015847Y-91877455D01*
X124015844Y-91877452D01*
X123900635Y-91791206D01*
X123900628Y-91791202D01*
X123765782Y-91740908D01*
X123765783Y-91740908D01*
X123706183Y-91734501D01*
X123706181Y-91734500D01*
X123706173Y-91734500D01*
X123706164Y-91734500D01*
X122640429Y-91734500D01*
X122640423Y-91734501D01*
X122580816Y-91740908D01*
X122445971Y-91791202D01*
X122445964Y-91791206D01*
X122330755Y-91877452D01*
X122330752Y-91877455D01*
X122244506Y-91992664D01*
X122244502Y-91992671D01*
X122194208Y-92127517D01*
X122187445Y-92190428D01*
X122186138Y-92190287D01*
X122164623Y-92251188D01*
X122109426Y-92294026D01*
X122039832Y-92300222D01*
X121977935Y-92267809D01*
X121976397Y-92266297D01*
X120643935Y-90933835D01*
X120643930Y-90933831D01*
X120584861Y-90894364D01*
X120584860Y-90894363D01*
X120496444Y-90835285D01*
X120496442Y-90835284D01*
X120414507Y-90801346D01*
X120414506Y-90801346D01*
X120372773Y-90784059D01*
X120318371Y-90740218D01*
X120296307Y-90673924D01*
X120313587Y-90606225D01*
X120364724Y-90558615D01*
X120420225Y-90545499D01*
X123746172Y-90545499D01*
X123805783Y-90539091D01*
X123940631Y-90488796D01*
X124055846Y-90402546D01*
X124142096Y-90287331D01*
X124192391Y-90152483D01*
X124198800Y-90092873D01*
X124198799Y-88138665D01*
X124218484Y-88071627D01*
X124271287Y-88025872D01*
X124327615Y-88017436D01*
X124327615Y-88015301D01*
X124501454Y-88015301D01*
X124501470Y-88015300D01*
X124648088Y-88015300D01*
X124715127Y-88034985D01*
X124725403Y-88042355D01*
X124728236Y-88044614D01*
X124728238Y-88044616D01*
X124771226Y-88071627D01*
X124877917Y-88138666D01*
X124880978Y-88140589D01*
X125051245Y-88200168D01*
X125051250Y-88200169D01*
X125230496Y-88220365D01*
X125230500Y-88220365D01*
X125230504Y-88220365D01*
X125409749Y-88200169D01*
X125409752Y-88200168D01*
X125409755Y-88200168D01*
X125580022Y-88140589D01*
X125732762Y-88044616D01*
X125860316Y-87917062D01*
X125956289Y-87764322D01*
X126015868Y-87594055D01*
X126036065Y-87414800D01*
X126025614Y-87322045D01*
X126015869Y-87235550D01*
X126015868Y-87235545D01*
X125956288Y-87065276D01*
X125917082Y-87002880D01*
X125860316Y-86912538D01*
X125732762Y-86784984D01*
X125704593Y-86767284D01*
X125580023Y-86689011D01*
X125409754Y-86629431D01*
X125409749Y-86629430D01*
X125230504Y-86609235D01*
X125230496Y-86609235D01*
X125051250Y-86629430D01*
X125051245Y-86629431D01*
X124880974Y-86689012D01*
X124754227Y-86768652D01*
X124686991Y-86787652D01*
X124620155Y-86767284D01*
X124600575Y-86751339D01*
X124368717Y-86519481D01*
X124368709Y-86519475D01*
X124273315Y-86464400D01*
X124273311Y-86464398D01*
X124260796Y-86457172D01*
X124212582Y-86406604D01*
X124198799Y-86349787D01*
X124198799Y-83907129D01*
X124198798Y-83907123D01*
X124198797Y-83907116D01*
X124192391Y-83847517D01*
X124156813Y-83752128D01*
X124142097Y-83712671D01*
X124142093Y-83712664D01*
X124055847Y-83597455D01*
X124055844Y-83597452D01*
X123940635Y-83511206D01*
X123940628Y-83511202D01*
X123805782Y-83460908D01*
X123805783Y-83460908D01*
X123746183Y-83454501D01*
X123746181Y-83454500D01*
X123746173Y-83454500D01*
X123746164Y-83454500D01*
X118020429Y-83454500D01*
X118020423Y-83454501D01*
X117960816Y-83460908D01*
X117825971Y-83511202D01*
X117825964Y-83511206D01*
X117710755Y-83597452D01*
X117710752Y-83597455D01*
X117624506Y-83712664D01*
X117624502Y-83712671D01*
X117574208Y-83847517D01*
X117567801Y-83907116D01*
X117567801Y-83907123D01*
X117567800Y-83907135D01*
X117567800Y-90092870D01*
X117567801Y-90092876D01*
X117574208Y-90152483D01*
X117624502Y-90287328D01*
X117624506Y-90287335D01*
X117710752Y-90402544D01*
X117710755Y-90402547D01*
X117825964Y-90488793D01*
X117825971Y-90488797D01*
X117836215Y-90492618D01*
X117892149Y-90534489D01*
X117916566Y-90599954D01*
X117901714Y-90668227D01*
X117852309Y-90717632D01*
X117792882Y-90732800D01*
X112392604Y-90732800D01*
X112364916Y-90738307D01*
X112295325Y-90732077D01*
X112253049Y-90704371D01*
X112141817Y-90593139D01*
X112108333Y-90531816D01*
X112105499Y-90505458D01*
X112105499Y-89342129D01*
X112105498Y-89342123D01*
X112099091Y-89282516D01*
X112048797Y-89147671D01*
X112048793Y-89147664D01*
X111962547Y-89032455D01*
X111962544Y-89032452D01*
X111847335Y-88946206D01*
X111847328Y-88946202D01*
X111712482Y-88895908D01*
X111712483Y-88895908D01*
X111652883Y-88889501D01*
X111652881Y-88889500D01*
X111652873Y-88889500D01*
X111652864Y-88889500D01*
X110447129Y-88889500D01*
X110447120Y-88889501D01*
X110398887Y-88894686D01*
X110330128Y-88882279D01*
X110282533Y-88840286D01*
X110199467Y-88715969D01*
X110199465Y-88715966D01*
X110160516Y-88677017D01*
X110074035Y-88590536D01*
X109436819Y-87953319D01*
X109403334Y-87891996D01*
X109400500Y-87865638D01*
X109400500Y-84452661D01*
X109420185Y-84385622D01*
X109436815Y-84364984D01*
X109887821Y-83913977D01*
X109949142Y-83880494D01*
X110018833Y-83885478D01*
X110074767Y-83927349D01*
X110099184Y-83992814D01*
X110099500Y-84001659D01*
X110099500Y-84172869D01*
X110099501Y-84172876D01*
X110105908Y-84232483D01*
X110156202Y-84367328D01*
X110160454Y-84375114D01*
X110157280Y-84376846D01*
X110175659Y-84426302D01*
X110160725Y-84494557D01*
X110160117Y-84495502D01*
X110156202Y-84502671D01*
X110105910Y-84637513D01*
X110105909Y-84637517D01*
X110099500Y-84697127D01*
X110099500Y-84697134D01*
X110099500Y-84697135D01*
X110099500Y-85442870D01*
X110099501Y-85442876D01*
X110105908Y-85502483D01*
X110156202Y-85637328D01*
X110156206Y-85637335D01*
X110242452Y-85752544D01*
X110242455Y-85752547D01*
X110357664Y-85838793D01*
X110357671Y-85838797D01*
X110402618Y-85855561D01*
X110492517Y-85889091D01*
X110552127Y-85895500D01*
X110603793Y-85895499D01*
X110670831Y-85915182D01*
X110716586Y-85967985D01*
X110726531Y-86037144D01*
X110708789Y-86085468D01*
X110690311Y-86114876D01*
X110630731Y-86285145D01*
X110630730Y-86285150D01*
X110610535Y-86464396D01*
X110610535Y-86464400D01*
X110630730Y-86643649D01*
X110630731Y-86643654D01*
X110690311Y-86813923D01*
X110757327Y-86920578D01*
X110786284Y-86966662D01*
X110913838Y-87094216D01*
X111066578Y-87190189D01*
X111196198Y-87235545D01*
X111236845Y-87249768D01*
X111236850Y-87249769D01*
X111416096Y-87269965D01*
X111416100Y-87269965D01*
X111416104Y-87269965D01*
X111595349Y-87249769D01*
X111595352Y-87249768D01*
X111595355Y-87249768D01*
X111765622Y-87190189D01*
X111918362Y-87094216D01*
X112045916Y-86966662D01*
X112141889Y-86813922D01*
X112201468Y-86643655D01*
X112207820Y-86587285D01*
X112221665Y-86464400D01*
X112221665Y-86464396D01*
X112201469Y-86285150D01*
X112201466Y-86285137D01*
X112141890Y-86114881D01*
X112138867Y-86108602D01*
X112141174Y-86107490D01*
X112125500Y-86053070D01*
X112125500Y-86019499D01*
X112145185Y-85952460D01*
X112197989Y-85906705D01*
X112249500Y-85895499D01*
X112497871Y-85895499D01*
X112497872Y-85895499D01*
X112557483Y-85889091D01*
X112692331Y-85838796D01*
X112807546Y-85752546D01*
X112893796Y-85637331D01*
X112944091Y-85502483D01*
X112950500Y-85442873D01*
X112950499Y-84697128D01*
X112944091Y-84637517D01*
X112941767Y-84631286D01*
X112901092Y-84522229D01*
X112896108Y-84452537D01*
X112929593Y-84391214D01*
X112976563Y-84364101D01*
X112975977Y-84362686D01*
X112983473Y-84359579D01*
X112983484Y-84359577D01*
X113120416Y-84280520D01*
X113232220Y-84168716D01*
X113311277Y-84031784D01*
X113352200Y-83879057D01*
X113352200Y-82000943D01*
X113311277Y-81848216D01*
X113310835Y-81847451D01*
X113232224Y-81711290D01*
X113232221Y-81711286D01*
X113232220Y-81711284D01*
X113120416Y-81599480D01*
X113120415Y-81599479D01*
X113116085Y-81595149D01*
X113116074Y-81595139D01*
X112985490Y-81464555D01*
X112985488Y-81464552D01*
X112866617Y-81345681D01*
X112866616Y-81345680D01*
X112779804Y-81295560D01*
X112779804Y-81295559D01*
X112779800Y-81295558D01*
X112729685Y-81266623D01*
X112576957Y-81225699D01*
X112418843Y-81225699D01*
X112411247Y-81225699D01*
X112411231Y-81225700D01*
X109788757Y-81225700D01*
X109630642Y-81225700D01*
X109477915Y-81266623D01*
X109477914Y-81266623D01*
X109477912Y-81266624D01*
X109477909Y-81266625D01*
X109427796Y-81295559D01*
X109427795Y-81295560D01*
X109384389Y-81320620D01*
X109340985Y-81345679D01*
X109340982Y-81345681D01*
X103654281Y-87032382D01*
X103654277Y-87032387D01*
X103635290Y-87065276D01*
X103635289Y-87065278D01*
X103575223Y-87169315D01*
X103534299Y-87322043D01*
X103534299Y-87322045D01*
X103534299Y-87490146D01*
X103534300Y-87490159D01*
X103534300Y-90409101D01*
X103514615Y-90476140D01*
X103497981Y-90496782D01*
X103349181Y-90645582D01*
X103287858Y-90679067D01*
X103218166Y-90674083D01*
X103162233Y-90632211D01*
X103137816Y-90566747D01*
X103137500Y-90557901D01*
X103137500Y-90250000D01*
X102325000Y-90250000D01*
X102325000Y-91374999D01*
X102326911Y-91376910D01*
X102387441Y-91394684D01*
X102433196Y-91447488D01*
X102443140Y-91516646D01*
X102414115Y-91580202D01*
X102408083Y-91586680D01*
X100997181Y-92997582D01*
X100935858Y-93031067D01*
X100866166Y-93026083D01*
X100810233Y-92984211D01*
X100785816Y-92918747D01*
X100785500Y-92909901D01*
X100785500Y-90829411D01*
X100805185Y-90762372D01*
X100857989Y-90716617D01*
X100927147Y-90706673D01*
X100990703Y-90735698D01*
X101027206Y-90790407D01*
X101078141Y-90944119D01*
X101078143Y-90944124D01*
X101170184Y-91093345D01*
X101294154Y-91217315D01*
X101443375Y-91309356D01*
X101443380Y-91309358D01*
X101609802Y-91364505D01*
X101609809Y-91364506D01*
X101712519Y-91374999D01*
X101824999Y-91374999D01*
X101825000Y-91374998D01*
X101825000Y-88625000D01*
X102325000Y-88625000D01*
X102325000Y-89750000D01*
X103137499Y-89750000D01*
X103137499Y-89325028D01*
X103137498Y-89325013D01*
X103127005Y-89222302D01*
X103071858Y-89055880D01*
X103071856Y-89055875D01*
X102979815Y-88906654D01*
X102855845Y-88782684D01*
X102706624Y-88690643D01*
X102706619Y-88690641D01*
X102540197Y-88635494D01*
X102540190Y-88635493D01*
X102437486Y-88625000D01*
X102325000Y-88625000D01*
X101825000Y-88625000D01*
X101712527Y-88625000D01*
X101712512Y-88625001D01*
X101609802Y-88635494D01*
X101443380Y-88690641D01*
X101443375Y-88690643D01*
X101294154Y-88782684D01*
X101170184Y-88906654D01*
X101078143Y-89055875D01*
X101078141Y-89055880D01*
X101027206Y-89209594D01*
X100987433Y-89267039D01*
X100922918Y-89293862D01*
X100854142Y-89281547D01*
X100802942Y-89234004D01*
X100785500Y-89170590D01*
X100785500Y-86019499D01*
X100805185Y-85952460D01*
X100857989Y-85906705D01*
X100909500Y-85895499D01*
X101847871Y-85895499D01*
X101847872Y-85895499D01*
X101907483Y-85889091D01*
X102042331Y-85838796D01*
X102157546Y-85752546D01*
X102243796Y-85637331D01*
X102294091Y-85502483D01*
X102300500Y-85442873D01*
X102300499Y-84697128D01*
X102294091Y-84637517D01*
X102291767Y-84631286D01*
X102243797Y-84502670D01*
X102239547Y-84494888D01*
X102242757Y-84493134D01*
X102224361Y-84444001D01*
X102239127Y-84375709D01*
X102239752Y-84374736D01*
X102243797Y-84367329D01*
X102255052Y-84337150D01*
X102294091Y-84232483D01*
X102300500Y-84172873D01*
X102300499Y-83427128D01*
X102294091Y-83367517D01*
X102294091Y-83367516D01*
X102243797Y-83232670D01*
X102239547Y-83224888D01*
X102242757Y-83223134D01*
X102224361Y-83174001D01*
X102239127Y-83105709D01*
X102239752Y-83104736D01*
X102243797Y-83097329D01*
X102261874Y-83048860D01*
X102294091Y-82962483D01*
X102300500Y-82902873D01*
X102300499Y-82157128D01*
X102294091Y-82097517D01*
X102276226Y-82049619D01*
X102243797Y-81962671D01*
X102243793Y-81962664D01*
X102157547Y-81847455D01*
X102157544Y-81847452D01*
X102042335Y-81761206D01*
X102042328Y-81761202D01*
X101907482Y-81710908D01*
X101907483Y-81710908D01*
X101847883Y-81704501D01*
X101847881Y-81704500D01*
X101847873Y-81704500D01*
X101847864Y-81704500D01*
X99902129Y-81704500D01*
X99902123Y-81704501D01*
X99842516Y-81710908D01*
X99707671Y-81761202D01*
X99707664Y-81761206D01*
X99592457Y-81847451D01*
X99592450Y-81847457D01*
X99547165Y-81907950D01*
X99491230Y-81949821D01*
X99479995Y-81953412D01*
X99416519Y-81970421D01*
X99416513Y-81970424D01*
X99394312Y-81983240D01*
X99394313Y-81983241D01*
X99279587Y-82049477D01*
X99279582Y-82049481D01*
X98727979Y-82601084D01*
X98712359Y-82628139D01*
X98705757Y-82639576D01*
X98648923Y-82738015D01*
X98607999Y-82890743D01*
X98607999Y-82890745D01*
X98607999Y-83058846D01*
X98608000Y-83058859D01*
X98608000Y-86400192D01*
X98588315Y-86467231D01*
X98535511Y-86512986D01*
X98466353Y-86522930D01*
X98402797Y-86493905D01*
X98378232Y-86459846D01*
X98376141Y-86461054D01*
X98372077Y-86454015D01*
X98332429Y-86385343D01*
X98293020Y-86317084D01*
X98181216Y-86205280D01*
X98181215Y-86205279D01*
X98176885Y-86200949D01*
X98176874Y-86200939D01*
X96614290Y-84638355D01*
X96614288Y-84638352D01*
X96495417Y-84519481D01*
X96495416Y-84519480D01*
X96408604Y-84469360D01*
X96408604Y-84469358D01*
X96408599Y-84469357D01*
X96397047Y-84462687D01*
X96387495Y-84457172D01*
X96339281Y-84406602D01*
X96325499Y-84349787D01*
X96325499Y-83752129D01*
X96325498Y-83752123D01*
X96325497Y-83752116D01*
X96319091Y-83692517D01*
X96310259Y-83668838D01*
X96268797Y-83557671D01*
X96268793Y-83557664D01*
X96182547Y-83442455D01*
X96182544Y-83442452D01*
X96067335Y-83356206D01*
X96067328Y-83356202D01*
X95932482Y-83305908D01*
X95932483Y-83305908D01*
X95872883Y-83299501D01*
X95872881Y-83299500D01*
X95872873Y-83299500D01*
X95872864Y-83299500D01*
X94177129Y-83299500D01*
X94177123Y-83299501D01*
X94117516Y-83305908D01*
X93982671Y-83356202D01*
X93982664Y-83356206D01*
X93867455Y-83442452D01*
X93867452Y-83442455D01*
X93781206Y-83557664D01*
X93781203Y-83557669D01*
X93739740Y-83668838D01*
X93697868Y-83724771D01*
X93632404Y-83749188D01*
X93609680Y-83748725D01*
X93600002Y-83747635D01*
X93599997Y-83747635D01*
X93590318Y-83748725D01*
X93521497Y-83736667D01*
X93470120Y-83689315D01*
X93460259Y-83668837D01*
X93418797Y-83557671D01*
X93418793Y-83557664D01*
X93332547Y-83442455D01*
X93332544Y-83442452D01*
X93217335Y-83356206D01*
X93217328Y-83356202D01*
X93082482Y-83305908D01*
X93082483Y-83305908D01*
X93022883Y-83299501D01*
X93022881Y-83299500D01*
X93022873Y-83299500D01*
X93022864Y-83299500D01*
X91327129Y-83299500D01*
X91327123Y-83299501D01*
X91267516Y-83305908D01*
X91132671Y-83356202D01*
X91132664Y-83356206D01*
X91017455Y-83442452D01*
X91017452Y-83442455D01*
X90931206Y-83557664D01*
X90931202Y-83557671D01*
X90880908Y-83692517D01*
X90877441Y-83724771D01*
X90874501Y-83752123D01*
X90874500Y-83752135D01*
X90874500Y-86247870D01*
X90874501Y-86247876D01*
X90880908Y-86307483D01*
X90931202Y-86442328D01*
X90931206Y-86442335D01*
X91017452Y-86557544D01*
X91017455Y-86557547D01*
X91132664Y-86643793D01*
X91132671Y-86643797D01*
X91267517Y-86694091D01*
X91267516Y-86694091D01*
X91274444Y-86694835D01*
X91327127Y-86700500D01*
X93022872Y-86700499D01*
X93082483Y-86694091D01*
X93217331Y-86643796D01*
X93332546Y-86557546D01*
X93418796Y-86442331D01*
X93469091Y-86307483D01*
X93475500Y-86247873D01*
X93475499Y-85650211D01*
X93495183Y-85583173D01*
X93537490Y-85542830D01*
X93538496Y-85542249D01*
X93606393Y-85525774D01*
X93672422Y-85548623D01*
X93715615Y-85603542D01*
X93724500Y-85649634D01*
X93724500Y-86247870D01*
X93724501Y-86247876D01*
X93730908Y-86307483D01*
X93781202Y-86442328D01*
X93781206Y-86442335D01*
X93867452Y-86557544D01*
X93867455Y-86557547D01*
X93982664Y-86643793D01*
X93982671Y-86643797D01*
X94117517Y-86694091D01*
X94117516Y-86694091D01*
X94124444Y-86694835D01*
X94177127Y-86700500D01*
X95872872Y-86700499D01*
X95932483Y-86694091D01*
X96067331Y-86643796D01*
X96182546Y-86557546D01*
X96268796Y-86442331D01*
X96319091Y-86307483D01*
X96319090Y-86307483D01*
X96321802Y-86300215D01*
X96323351Y-86300792D01*
X96353339Y-86248121D01*
X96415247Y-86215731D01*
X96484839Y-86221952D01*
X96527130Y-86249665D01*
X97175681Y-86898216D01*
X97209166Y-86959539D01*
X97212000Y-86985897D01*
X97212000Y-88609978D01*
X97192315Y-88677017D01*
X97139511Y-88722772D01*
X97070353Y-88732716D01*
X97022905Y-88715518D01*
X97000412Y-88701645D01*
X96981834Y-88690186D01*
X96815297Y-88635001D01*
X96815295Y-88635000D01*
X96712510Y-88624500D01*
X95987498Y-88624500D01*
X95987480Y-88624501D01*
X95884703Y-88635000D01*
X95884700Y-88635001D01*
X95718168Y-88690185D01*
X95718163Y-88690187D01*
X95568842Y-88782289D01*
X95444789Y-88906342D01*
X95352687Y-89055663D01*
X95352685Y-89055668D01*
X95352615Y-89055880D01*
X95297502Y-89222202D01*
X95297501Y-89222204D01*
X95297500Y-89222205D01*
X95290768Y-89288103D01*
X95264371Y-89352795D01*
X95207190Y-89392946D01*
X95167410Y-89399500D01*
X92846669Y-89399500D01*
X92846653Y-89399499D01*
X92839057Y-89399499D01*
X92680943Y-89399499D01*
X92573587Y-89428265D01*
X92528210Y-89440424D01*
X92528209Y-89440425D01*
X92478096Y-89469359D01*
X92478095Y-89469360D01*
X92434689Y-89494420D01*
X92391285Y-89519479D01*
X92391282Y-89519481D01*
X92279478Y-89631286D01*
X90327582Y-91583181D01*
X90266259Y-91616666D01*
X90239901Y-91619500D01*
X89364998Y-91619500D01*
X89364980Y-91619501D01*
X89262203Y-91630000D01*
X89262200Y-91630001D01*
X89095668Y-91685185D01*
X89095663Y-91685187D01*
X88946342Y-91777289D01*
X88822289Y-91901342D01*
X88730187Y-92050663D01*
X88730186Y-92050666D01*
X88675001Y-92217203D01*
X88675001Y-92217204D01*
X88675000Y-92217204D01*
X88664500Y-92319983D01*
X88664500Y-93120001D01*
X88664501Y-93120019D01*
X88675000Y-93222796D01*
X88675001Y-93222799D01*
X88713747Y-93339724D01*
X88730186Y-93389334D01*
X88822288Y-93538656D01*
X88946344Y-93662712D01*
X89010543Y-93702310D01*
X89057268Y-93754258D01*
X89068489Y-93823221D01*
X89040646Y-93887303D01*
X89033128Y-93895530D01*
X88925585Y-94003073D01*
X88823768Y-94143211D01*
X88745128Y-94297552D01*
X88745127Y-94297554D01*
X88745127Y-94297555D01*
X88740149Y-94312875D01*
X88691597Y-94462302D01*
X88671876Y-94586819D01*
X88664500Y-94633389D01*
X88664500Y-94806611D01*
X88669493Y-94838137D01*
X88689974Y-94967452D01*
X88691598Y-94977701D01*
X88745127Y-95142445D01*
X88823768Y-95296788D01*
X88925586Y-95436928D01*
X89048072Y-95559414D01*
X89103189Y-95599459D01*
X89131449Y-95619991D01*
X89174114Y-95675322D01*
X89180093Y-95744935D01*
X89147487Y-95806730D01*
X89131448Y-95820627D01*
X89048404Y-95880961D01*
X89048399Y-95880965D01*
X88925967Y-96003397D01*
X88824195Y-96143475D01*
X88745591Y-96297744D01*
X88692085Y-96462415D01*
X88690884Y-96469999D01*
X88690885Y-96470000D01*
X89759670Y-96470000D01*
X89739925Y-96489745D01*
X89690556Y-96575255D01*
X89665000Y-96670630D01*
X89665000Y-96769370D01*
X89690556Y-96864745D01*
X89739925Y-96950255D01*
X89759670Y-96970000D01*
X88690885Y-96970000D01*
X88692085Y-96977584D01*
X88745591Y-97142255D01*
X88824195Y-97296524D01*
X88925967Y-97436602D01*
X89048401Y-97559036D01*
X89131447Y-97619371D01*
X89174114Y-97674701D01*
X89180093Y-97744314D01*
X89147488Y-97806109D01*
X89131450Y-97820007D01*
X89048072Y-97880585D01*
X88925588Y-98003069D01*
X88925588Y-98003070D01*
X88925586Y-98003072D01*
X88881859Y-98063256D01*
X88823768Y-98143211D01*
X88745128Y-98297552D01*
X88691597Y-98462302D01*
X88664500Y-98633389D01*
X88664500Y-98806611D01*
X88666408Y-98818656D01*
X88691304Y-98975848D01*
X88691598Y-98977701D01*
X88745127Y-99142445D01*
X88823768Y-99296788D01*
X88925586Y-99436928D01*
X89048072Y-99559414D01*
X89048078Y-99559418D01*
X89131023Y-99619683D01*
X89173689Y-99675013D01*
X89179667Y-99744626D01*
X89147061Y-99806421D01*
X89131023Y-99820317D01*
X89048078Y-99880581D01*
X89048069Y-99880588D01*
X88925588Y-100003069D01*
X88925588Y-100003070D01*
X88925586Y-100003072D01*
X88896043Y-100043735D01*
X88823768Y-100143211D01*
X88745128Y-100297552D01*
X88745127Y-100297554D01*
X88745127Y-100297555D01*
X88734368Y-100330668D01*
X88691597Y-100462302D01*
X88664500Y-100633389D01*
X88664500Y-100806610D01*
X88688425Y-100957671D01*
X88691598Y-100977701D01*
X88745127Y-101142445D01*
X88823768Y-101296788D01*
X88925586Y-101436928D01*
X89048072Y-101559414D01*
X89188212Y-101661232D01*
X89342555Y-101739873D01*
X89507299Y-101793402D01*
X89678389Y-101820500D01*
X89678390Y-101820500D01*
X90401610Y-101820500D01*
X90401611Y-101820500D01*
X90572701Y-101793402D01*
X90737445Y-101739873D01*
X90891788Y-101661232D01*
X91031928Y-101559414D01*
X91154414Y-101436928D01*
X91256232Y-101296788D01*
X91334873Y-101142445D01*
X91388402Y-100977701D01*
X91415500Y-100806611D01*
X91415500Y-100633389D01*
X91402292Y-100550000D01*
X95062501Y-100550000D01*
X95062501Y-100974986D01*
X95072994Y-101077697D01*
X95128141Y-101244119D01*
X95128143Y-101244124D01*
X95220184Y-101393345D01*
X95344154Y-101517315D01*
X95493375Y-101609356D01*
X95493380Y-101609358D01*
X95659802Y-101664505D01*
X95659809Y-101664506D01*
X95762519Y-101674999D01*
X95874999Y-101674999D01*
X95875000Y-101674998D01*
X95875000Y-100550000D01*
X96375000Y-100550000D01*
X96375000Y-101674999D01*
X96487472Y-101674999D01*
X96487486Y-101674998D01*
X96590197Y-101664505D01*
X96756619Y-101609358D01*
X96756624Y-101609356D01*
X96905845Y-101517315D01*
X97029815Y-101393345D01*
X97121856Y-101244124D01*
X97121858Y-101244119D01*
X97177005Y-101077697D01*
X97177006Y-101077690D01*
X97187499Y-100974986D01*
X97187500Y-100974973D01*
X97187500Y-100550000D01*
X96375000Y-100550000D01*
X95875000Y-100550000D01*
X95062501Y-100550000D01*
X91402292Y-100550000D01*
X91388402Y-100462299D01*
X91334873Y-100297555D01*
X91256232Y-100143212D01*
X91188509Y-100050000D01*
X95062500Y-100050000D01*
X95875000Y-100050000D01*
X95875000Y-98925000D01*
X95762527Y-98925000D01*
X95762512Y-98925001D01*
X95659802Y-98935494D01*
X95493380Y-98990641D01*
X95493375Y-98990643D01*
X95344154Y-99082684D01*
X95220184Y-99206654D01*
X95128143Y-99355875D01*
X95128141Y-99355880D01*
X95072994Y-99522302D01*
X95072993Y-99522309D01*
X95062500Y-99625013D01*
X95062500Y-100050000D01*
X91188509Y-100050000D01*
X91154414Y-100003072D01*
X91031928Y-99880586D01*
X90948975Y-99820317D01*
X90906311Y-99764988D01*
X90900332Y-99695374D01*
X90932938Y-99633579D01*
X90948976Y-99619682D01*
X91031928Y-99559414D01*
X91154414Y-99436928D01*
X91256232Y-99296788D01*
X91334873Y-99142445D01*
X91388402Y-98977701D01*
X91415500Y-98806611D01*
X91415500Y-98633389D01*
X91388402Y-98462299D01*
X91334873Y-98297555D01*
X91256232Y-98143212D01*
X91154414Y-98003072D01*
X91031928Y-97880586D01*
X90948550Y-97820008D01*
X90905885Y-97764677D01*
X90899906Y-97695064D01*
X90932512Y-97633269D01*
X90948552Y-97619371D01*
X91031598Y-97559036D01*
X91154032Y-97436602D01*
X91255804Y-97296524D01*
X91334408Y-97142255D01*
X91387914Y-96977584D01*
X91389115Y-96970000D01*
X90320330Y-96970000D01*
X90340075Y-96950255D01*
X90389444Y-96864745D01*
X90415000Y-96769370D01*
X90415000Y-96670630D01*
X90389444Y-96575255D01*
X90340075Y-96489745D01*
X90320330Y-96470000D01*
X91389115Y-96470000D01*
X91389115Y-96469999D01*
X91387914Y-96462415D01*
X91334408Y-96297744D01*
X91255804Y-96143475D01*
X91154032Y-96003397D01*
X91031602Y-95880967D01*
X90948551Y-95820628D01*
X90905885Y-95765298D01*
X90899906Y-95695685D01*
X90932511Y-95633889D01*
X90948551Y-95619991D01*
X90959639Y-95611935D01*
X91031928Y-95559414D01*
X91154414Y-95436928D01*
X91256232Y-95296788D01*
X91334873Y-95142445D01*
X91388402Y-94977701D01*
X91415500Y-94806611D01*
X91415500Y-94633389D01*
X91388402Y-94462299D01*
X91334873Y-94297555D01*
X91256232Y-94143212D01*
X91154414Y-94003072D01*
X91046872Y-93895530D01*
X91013387Y-93834207D01*
X91018371Y-93764515D01*
X91060243Y-93708582D01*
X91069457Y-93702310D01*
X91133656Y-93662712D01*
X91257712Y-93538656D01*
X91349814Y-93389334D01*
X91404999Y-93222797D01*
X91415500Y-93120009D01*
X91415499Y-92319992D01*
X91413479Y-92300222D01*
X91409785Y-92264053D01*
X91422555Y-92195360D01*
X91445459Y-92163774D01*
X92972416Y-90636819D01*
X93033739Y-90603334D01*
X93060097Y-90600500D01*
X95167411Y-90600500D01*
X95234450Y-90620185D01*
X95280205Y-90672989D01*
X95290769Y-90711898D01*
X95297501Y-90777797D01*
X95297501Y-90777799D01*
X95349206Y-90933831D01*
X95352686Y-90944334D01*
X95444788Y-91093656D01*
X95568844Y-91217712D01*
X95718166Y-91309814D01*
X95884703Y-91364999D01*
X95987491Y-91375500D01*
X96712508Y-91375499D01*
X96712516Y-91375498D01*
X96712519Y-91375498D01*
X96788924Y-91367693D01*
X96815297Y-91364999D01*
X96981834Y-91309814D01*
X97022904Y-91284481D01*
X97090296Y-91266042D01*
X97156959Y-91286965D01*
X97201729Y-91340607D01*
X97212000Y-91390021D01*
X97212000Y-93713770D01*
X97192315Y-93780809D01*
X97139511Y-93826564D01*
X97070353Y-93836508D01*
X97006797Y-93807483D01*
X97000319Y-93801451D01*
X96981157Y-93782289D01*
X96981156Y-93782288D01*
X96831834Y-93690186D01*
X96665297Y-93635001D01*
X96665295Y-93635000D01*
X96562510Y-93624500D01*
X95837498Y-93624500D01*
X95837480Y-93624501D01*
X95734703Y-93635000D01*
X95734700Y-93635001D01*
X95568168Y-93690185D01*
X95568163Y-93690187D01*
X95418842Y-93782289D01*
X95294789Y-93906342D01*
X95202687Y-94055663D01*
X95202685Y-94055668D01*
X95147501Y-94222204D01*
X95147500Y-94222205D01*
X95138481Y-94310492D01*
X95112085Y-94375183D01*
X95054904Y-94415335D01*
X95001240Y-94421109D01*
X94963304Y-94416835D01*
X94963296Y-94416835D01*
X94784050Y-94437030D01*
X94784045Y-94437031D01*
X94613776Y-94496611D01*
X94461037Y-94592584D01*
X94333484Y-94720137D01*
X94237511Y-94872876D01*
X94177931Y-95043145D01*
X94177930Y-95043150D01*
X94157735Y-95222396D01*
X94157735Y-95222403D01*
X94177930Y-95401649D01*
X94177931Y-95401654D01*
X94237511Y-95571923D01*
X94316166Y-95697100D01*
X94333484Y-95724662D01*
X94461038Y-95852216D01*
X94506792Y-95880965D01*
X94607642Y-95944334D01*
X94613778Y-95948189D01*
X94771553Y-96003397D01*
X94784045Y-96007768D01*
X94784050Y-96007769D01*
X94963296Y-96027965D01*
X94963300Y-96027965D01*
X94963304Y-96027965D01*
X95142550Y-96007769D01*
X95142553Y-96007768D01*
X95142555Y-96007768D01*
X95142556Y-96007767D01*
X95143016Y-96007663D01*
X95143325Y-96007681D01*
X95149476Y-96006989D01*
X95149597Y-96008065D01*
X95212755Y-96011929D01*
X95269117Y-96053223D01*
X95276158Y-96063453D01*
X95294787Y-96093655D01*
X95294788Y-96093656D01*
X95418844Y-96217712D01*
X95568166Y-96309814D01*
X95734703Y-96364999D01*
X95837491Y-96375500D01*
X96562508Y-96375499D01*
X96562516Y-96375498D01*
X96562519Y-96375498D01*
X96618802Y-96369748D01*
X96665297Y-96364999D01*
X96831834Y-96309814D01*
X96981156Y-96217712D01*
X97000319Y-96198549D01*
X97061642Y-96165064D01*
X97131334Y-96170048D01*
X97187267Y-96211920D01*
X97211684Y-96277384D01*
X97212000Y-96286230D01*
X97212000Y-98975830D01*
X97211999Y-98975848D01*
X97211999Y-99089476D01*
X97192314Y-99156515D01*
X97139510Y-99202270D01*
X97070352Y-99212214D01*
X97006796Y-99183189D01*
X97000318Y-99177157D01*
X96905845Y-99082684D01*
X96756624Y-98990643D01*
X96756619Y-98990641D01*
X96590197Y-98935494D01*
X96590190Y-98935493D01*
X96487486Y-98925000D01*
X96375000Y-98925000D01*
X96375000Y-100050000D01*
X97187499Y-100050000D01*
X97187499Y-99625028D01*
X97187498Y-99625013D01*
X97184431Y-99594989D01*
X97197200Y-99526296D01*
X97245081Y-99475412D01*
X97312871Y-99458491D01*
X97379047Y-99480907D01*
X97395470Y-99494706D01*
X97450849Y-99550085D01*
X97450855Y-99550090D01*
X97950681Y-100049916D01*
X97984166Y-100111239D01*
X97987000Y-100137597D01*
X97987000Y-100975001D01*
X97987001Y-100975019D01*
X97997500Y-101077796D01*
X97997501Y-101077799D01*
X98030198Y-101176470D01*
X98052686Y-101244334D01*
X98144788Y-101393656D01*
X98268844Y-101517712D01*
X98418166Y-101609814D01*
X98584703Y-101664999D01*
X98687491Y-101675500D01*
X99412508Y-101675499D01*
X99412516Y-101675498D01*
X99412519Y-101675498D01*
X99468802Y-101669748D01*
X99515297Y-101664999D01*
X99681834Y-101609814D01*
X99794103Y-101540565D01*
X99861495Y-101522125D01*
X99928159Y-101543047D01*
X99972929Y-101596689D01*
X99983200Y-101646104D01*
X99983200Y-102067202D01*
X99963515Y-102134241D01*
X99946881Y-102154883D01*
X97175497Y-104926266D01*
X97114174Y-104959751D01*
X97044482Y-104954767D01*
X97000135Y-104926267D01*
X96978901Y-104905033D01*
X96931156Y-104857288D01*
X96781834Y-104765186D01*
X96615297Y-104710001D01*
X96615295Y-104710000D01*
X96512510Y-104699500D01*
X95787498Y-104699500D01*
X95787480Y-104699501D01*
X95684703Y-104710000D01*
X95684700Y-104710001D01*
X95518168Y-104765185D01*
X95518163Y-104765187D01*
X95368842Y-104857289D01*
X95244789Y-104981342D01*
X95152687Y-105130663D01*
X95152685Y-105130668D01*
X95125808Y-105211778D01*
X95097501Y-105297203D01*
X95097501Y-105297204D01*
X95097500Y-105297204D01*
X95087000Y-105399983D01*
X95087000Y-106750001D01*
X95087001Y-106750018D01*
X95097500Y-106852796D01*
X95097501Y-106852799D01*
X95125626Y-106937673D01*
X95152686Y-107019334D01*
X95244788Y-107168656D01*
X95368844Y-107292712D01*
X95518166Y-107384814D01*
X95684703Y-107439999D01*
X95787491Y-107450500D01*
X96512508Y-107450499D01*
X96512516Y-107450498D01*
X96512519Y-107450498D01*
X96568802Y-107444748D01*
X96615297Y-107439999D01*
X96781834Y-107384814D01*
X96931156Y-107292712D01*
X97055212Y-107168656D01*
X97147314Y-107019334D01*
X97150530Y-107009628D01*
X97190297Y-106952186D01*
X97254812Y-106925361D01*
X97323589Y-106937673D01*
X97355916Y-106960951D01*
X102759339Y-112364374D01*
X102759349Y-112364385D01*
X102763679Y-112368715D01*
X102763680Y-112368716D01*
X102875484Y-112480520D01*
X102962295Y-112530639D01*
X102962297Y-112530641D01*
X103000351Y-112552611D01*
X103012415Y-112559577D01*
X103165143Y-112600500D01*
X103323257Y-112600500D01*
X105840501Y-112600500D01*
X105907540Y-112620185D01*
X105953295Y-112672989D01*
X105964501Y-112724500D01*
X105964501Y-113002876D01*
X105970908Y-113062483D01*
X106021202Y-113197328D01*
X106021206Y-113197335D01*
X106107452Y-113312544D01*
X106107455Y-113312547D01*
X106222664Y-113398793D01*
X106222671Y-113398797D01*
X106357517Y-113449091D01*
X106357516Y-113449091D01*
X106364444Y-113449835D01*
X106417127Y-113455500D01*
X108422872Y-113455499D01*
X108482483Y-113449091D01*
X108617331Y-113398796D01*
X108732546Y-113312546D01*
X108818796Y-113197331D01*
X108818798Y-113197326D01*
X108829470Y-113168714D01*
X108871341Y-113112780D01*
X108936805Y-113088362D01*
X109005078Y-113103213D01*
X109021814Y-113114193D01*
X109161180Y-113222666D01*
X109161187Y-113222670D01*
X109161189Y-113222672D01*
X109373329Y-113337476D01*
X109601471Y-113415797D01*
X109839394Y-113455500D01*
X109839395Y-113455500D01*
X110080605Y-113455500D01*
X110080606Y-113455500D01*
X110318529Y-113415797D01*
X110546671Y-113337476D01*
X110758811Y-113222672D01*
X110949162Y-113074516D01*
X111112530Y-112897050D01*
X111126191Y-112876139D01*
X111179336Y-112830784D01*
X111248567Y-112821359D01*
X111311903Y-112850860D01*
X111333807Y-112876138D01*
X111347470Y-112897050D01*
X111510838Y-113074516D01*
X111510841Y-113074518D01*
X111510844Y-113074521D01*
X111701180Y-113222666D01*
X111701187Y-113222670D01*
X111701189Y-113222672D01*
X111913329Y-113337476D01*
X112141471Y-113415797D01*
X112379394Y-113455500D01*
X112379395Y-113455500D01*
X112620605Y-113455500D01*
X112620606Y-113455500D01*
X112858529Y-113415797D01*
X113086671Y-113337476D01*
X113298811Y-113222672D01*
X113489162Y-113074516D01*
X113652530Y-112897050D01*
X113784461Y-112695115D01*
X113881355Y-112474220D01*
X113940569Y-112240388D01*
X113960488Y-112000000D01*
X113940569Y-111759612D01*
X113881355Y-111525780D01*
X113784461Y-111304885D01*
X113652530Y-111102950D01*
X113489162Y-110925484D01*
X113469278Y-110910007D01*
X113448337Y-110893708D01*
X113407524Y-110836997D01*
X113400500Y-110795855D01*
X113400500Y-110424362D01*
X113420185Y-110357323D01*
X113436819Y-110336681D01*
X121610864Y-102162636D01*
X121610867Y-102162633D01*
X121630760Y-102132861D01*
X121657858Y-102092307D01*
X121709414Y-102015147D01*
X121729072Y-101967689D01*
X121772913Y-101913286D01*
X121839207Y-101891221D01*
X121906906Y-101908500D01*
X121908670Y-101909566D01*
X122030666Y-101984814D01*
X122197203Y-102039999D01*
X122299991Y-102050500D01*
X123700008Y-102050499D01*
X123802797Y-102039999D01*
X123969334Y-101984814D01*
X124118656Y-101892712D01*
X124242712Y-101768656D01*
X124334814Y-101619334D01*
X124389999Y-101452797D01*
X124400500Y-101350009D01*
X124400499Y-100599992D01*
X124389999Y-100497203D01*
X124354310Y-100389503D01*
X124351909Y-100319676D01*
X124387641Y-100259634D01*
X124450161Y-100228441D01*
X124472017Y-100226500D01*
X127597193Y-100226500D01*
X127597194Y-100226499D01*
X127771166Y-100191895D01*
X127853106Y-100157953D01*
X127935047Y-100124013D01*
X127935049Y-100124011D01*
X127935052Y-100124010D01*
X128023455Y-100064939D01*
X128023455Y-100064938D01*
X128023459Y-100064936D01*
X128082536Y-100025464D01*
X128837819Y-99270181D01*
X128899142Y-99236696D01*
X128968834Y-99241680D01*
X129024767Y-99283552D01*
X129049184Y-99349016D01*
X129049500Y-99357862D01*
X129049500Y-110367057D01*
X129029815Y-110434096D01*
X128977011Y-110479851D01*
X128907853Y-110489795D01*
X128844297Y-110460770D01*
X128829957Y-110446098D01*
X128753352Y-110353499D01*
X128753350Y-110353497D01*
X128533163Y-110146727D01*
X128533153Y-110146719D01*
X128288806Y-109969191D01*
X128288799Y-109969186D01*
X128288795Y-109969184D01*
X128024104Y-109823668D01*
X128024101Y-109823666D01*
X128024096Y-109823664D01*
X128024095Y-109823663D01*
X127743265Y-109712475D01*
X127743262Y-109712474D01*
X127450695Y-109637357D01*
X127151036Y-109599500D01*
X127151027Y-109599500D01*
X126848973Y-109599500D01*
X126848963Y-109599500D01*
X126549304Y-109637357D01*
X126256737Y-109712474D01*
X126256734Y-109712475D01*
X125975904Y-109823663D01*
X125975903Y-109823664D01*
X125711205Y-109969184D01*
X125711193Y-109969191D01*
X125466846Y-110146719D01*
X125466836Y-110146727D01*
X125246652Y-110353494D01*
X125054111Y-110586236D01*
X124892268Y-110841261D01*
X124892265Y-110841267D01*
X124763661Y-111114563D01*
X124763659Y-111114568D01*
X124670320Y-111401835D01*
X124613719Y-111698546D01*
X124613718Y-111698553D01*
X124594754Y-111999994D01*
X124594754Y-112000005D01*
X124613718Y-112301446D01*
X124613719Y-112301453D01*
X124670320Y-112598164D01*
X124763659Y-112885431D01*
X124763661Y-112885436D01*
X124892265Y-113158732D01*
X124892268Y-113158738D01*
X125054111Y-113413763D01*
X125246652Y-113646505D01*
X125394249Y-113785108D01*
X125429644Y-113845349D01*
X125426851Y-113915163D01*
X125386757Y-113972384D01*
X125322092Y-113998845D01*
X125309365Y-113999500D01*
X90190635Y-113999500D01*
X90123596Y-113979815D01*
X90077841Y-113927011D01*
X90067897Y-113857853D01*
X90096922Y-113794297D01*
X90105751Y-113785108D01*
X90253349Y-113646504D01*
X90445885Y-113413768D01*
X90607733Y-113158736D01*
X90736341Y-112885430D01*
X90829681Y-112598160D01*
X90886280Y-112301457D01*
X90890122Y-112240388D01*
X90905246Y-112000005D01*
X90905246Y-111999994D01*
X90886281Y-111698553D01*
X90886280Y-111698546D01*
X90886280Y-111698543D01*
X90829681Y-111401840D01*
X90736341Y-111114570D01*
X90730874Y-111102953D01*
X90647361Y-110925478D01*
X90607733Y-110841264D01*
X90510123Y-110687455D01*
X90445888Y-110586236D01*
X90357879Y-110479851D01*
X90253349Y-110353496D01*
X90033162Y-110146726D01*
X90033159Y-110146724D01*
X90033153Y-110146719D01*
X89788806Y-109969191D01*
X89788799Y-109969186D01*
X89788795Y-109969184D01*
X89524104Y-109823668D01*
X89524101Y-109823666D01*
X89524096Y-109823664D01*
X89524095Y-109823663D01*
X89243265Y-109712475D01*
X89243262Y-109712474D01*
X88950695Y-109637357D01*
X88651036Y-109599500D01*
X88651027Y-109599500D01*
X88348973Y-109599500D01*
X88348963Y-109599500D01*
X88049304Y-109637357D01*
X87756737Y-109712474D01*
X87756734Y-109712475D01*
X87475904Y-109823663D01*
X87475903Y-109823664D01*
X87211205Y-109969184D01*
X87211193Y-109969191D01*
X86966846Y-110146719D01*
X86966836Y-110146727D01*
X86746652Y-110353494D01*
X86554111Y-110586236D01*
X86392268Y-110841261D01*
X86392265Y-110841267D01*
X86286698Y-111065608D01*
X86240343Y-111117886D01*
X86173083Y-111136803D01*
X86106273Y-111116354D01*
X86061124Y-111063030D01*
X86050500Y-111012811D01*
X86050500Y-105450000D01*
X86915001Y-105450000D01*
X86915001Y-105899986D01*
X86925494Y-106002697D01*
X86980641Y-106169119D01*
X86980643Y-106169124D01*
X87072684Y-106318345D01*
X87196654Y-106442315D01*
X87345875Y-106534356D01*
X87345880Y-106534358D01*
X87512302Y-106589505D01*
X87512309Y-106589506D01*
X87615019Y-106599999D01*
X87739999Y-106599999D01*
X88240000Y-106599999D01*
X88364972Y-106599999D01*
X88364986Y-106599998D01*
X88467697Y-106589505D01*
X88634119Y-106534358D01*
X88634124Y-106534356D01*
X88783345Y-106442315D01*
X88907315Y-106318345D01*
X88999356Y-106169124D01*
X88999358Y-106169119D01*
X89054505Y-106002697D01*
X89054506Y-106002690D01*
X89064999Y-105899986D01*
X89064999Y-105467287D01*
X89084683Y-105400248D01*
X89137487Y-105354493D01*
X89206646Y-105344549D01*
X89229952Y-105350245D01*
X89242092Y-105354493D01*
X89285740Y-105369767D01*
X89285750Y-105369769D01*
X89464996Y-105389965D01*
X89465000Y-105389965D01*
X89465004Y-105389965D01*
X89644249Y-105369769D01*
X89644250Y-105369768D01*
X89644255Y-105369768D01*
X89699545Y-105350420D01*
X89769322Y-105346858D01*
X89829950Y-105381586D01*
X89862178Y-105443579D01*
X89864500Y-105467462D01*
X89864500Y-105900001D01*
X89864501Y-105900019D01*
X89875000Y-106002796D01*
X89875001Y-106002799D01*
X89930115Y-106169119D01*
X89930186Y-106169334D01*
X90022288Y-106318656D01*
X90146344Y-106442712D01*
X90295666Y-106534814D01*
X90462203Y-106589999D01*
X90564991Y-106600500D01*
X91315008Y-106600499D01*
X91315016Y-106600498D01*
X91315019Y-106600498D01*
X91371302Y-106594748D01*
X91417797Y-106589999D01*
X91584334Y-106534814D01*
X91733656Y-106442712D01*
X91857712Y-106318656D01*
X91949814Y-106169334D01*
X92004999Y-106002797D01*
X92015500Y-105900009D01*
X92015499Y-104499992D01*
X92011726Y-104463061D01*
X92004999Y-104397203D01*
X92004998Y-104397200D01*
X91964836Y-104276000D01*
X91949814Y-104230666D01*
X91857712Y-104081344D01*
X91733656Y-103957288D01*
X91584334Y-103865186D01*
X91417797Y-103810001D01*
X91417795Y-103810000D01*
X91315010Y-103799500D01*
X90564998Y-103799500D01*
X90564980Y-103799501D01*
X90462203Y-103810000D01*
X90462200Y-103810001D01*
X90295668Y-103865185D01*
X90295663Y-103865187D01*
X90199368Y-103924582D01*
X90146344Y-103957288D01*
X90146342Y-103957289D01*
X90140197Y-103961080D01*
X90139520Y-103959982D01*
X90081699Y-103983307D01*
X90069587Y-103983900D01*
X90047412Y-103983900D01*
X89980373Y-103964215D01*
X89970097Y-103956845D01*
X89967263Y-103954585D01*
X89967262Y-103954584D01*
X89910496Y-103918915D01*
X89814523Y-103858611D01*
X89644254Y-103799031D01*
X89644249Y-103799030D01*
X89465004Y-103778835D01*
X89464996Y-103778835D01*
X89285750Y-103799030D01*
X89285745Y-103799031D01*
X89115476Y-103858611D01*
X88962734Y-103954586D01*
X88959161Y-103958159D01*
X88897834Y-103991636D01*
X88828143Y-103986644D01*
X88789359Y-103961715D01*
X88789007Y-103962161D01*
X88784466Y-103958570D01*
X88783809Y-103958148D01*
X88783345Y-103957684D01*
X88634124Y-103865643D01*
X88634119Y-103865641D01*
X88467697Y-103810494D01*
X88467690Y-103810493D01*
X88364986Y-103800000D01*
X88240000Y-103800000D01*
X88240000Y-106599999D01*
X87739999Y-106599999D01*
X87740000Y-106599998D01*
X87740000Y-105450000D01*
X86915001Y-105450000D01*
X86050500Y-105450000D01*
X86050500Y-104950000D01*
X86915000Y-104950000D01*
X87740000Y-104950000D01*
X87740000Y-103800000D01*
X87615027Y-103800000D01*
X87615012Y-103800001D01*
X87512302Y-103810494D01*
X87345880Y-103865641D01*
X87345875Y-103865643D01*
X87196654Y-103957684D01*
X87072684Y-104081654D01*
X86980643Y-104230875D01*
X86980641Y-104230880D01*
X86925494Y-104397302D01*
X86925493Y-104397309D01*
X86915000Y-104500013D01*
X86915000Y-104950000D01*
X86050500Y-104950000D01*
X86050500Y-81487188D01*
X86070185Y-81420149D01*
X86122989Y-81374394D01*
X86192147Y-81364450D01*
X86255703Y-81393475D01*
X86286697Y-81434388D01*
X86392267Y-81658736D01*
X86392269Y-81658739D01*
X86392270Y-81658741D01*
X86554111Y-81913763D01*
X86554114Y-81913767D01*
X86554115Y-81913768D01*
X86746649Y-82146502D01*
X86746652Y-82146505D01*
X86966836Y-82353272D01*
X86966846Y-82353280D01*
X87211193Y-82530808D01*
X87211198Y-82530810D01*
X87211205Y-82530816D01*
X87475896Y-82676332D01*
X87475901Y-82676334D01*
X87475903Y-82676335D01*
X87475904Y-82676336D01*
X87756734Y-82787524D01*
X87756737Y-82787525D01*
X87854259Y-82812564D01*
X88049302Y-82862642D01*
X88196039Y-82881179D01*
X88348963Y-82900499D01*
X88348969Y-82900499D01*
X88348973Y-82900500D01*
X88348975Y-82900500D01*
X88651025Y-82900500D01*
X88651027Y-82900500D01*
X88651032Y-82900499D01*
X88651036Y-82900499D01*
X88730591Y-82890448D01*
X88950698Y-82862642D01*
X89243262Y-82787525D01*
X89243265Y-82787524D01*
X89524095Y-82676336D01*
X89524096Y-82676335D01*
X89524094Y-82676335D01*
X89524104Y-82676332D01*
X89788795Y-82530816D01*
X90033162Y-82353274D01*
X90253349Y-82146504D01*
X90445885Y-81913768D01*
X90607733Y-81658736D01*
X90736341Y-81385430D01*
X90829681Y-81098160D01*
X90886280Y-80801457D01*
X90905246Y-80500000D01*
X90886280Y-80198543D01*
X90829681Y-79901840D01*
X90736341Y-79614570D01*
X90607733Y-79341264D01*
X90445885Y-79086232D01*
X90253349Y-78853496D01*
X90033162Y-78646726D01*
X90033159Y-78646724D01*
X90033153Y-78646719D01*
X89788806Y-78469191D01*
X89788799Y-78469186D01*
X89788795Y-78469184D01*
X89524104Y-78323668D01*
X89524101Y-78323666D01*
X89524096Y-78323664D01*
X89524095Y-78323663D01*
X89312259Y-78239792D01*
X89257173Y-78196811D01*
X89234070Y-78130872D01*
X89250283Y-78062909D01*
X89300667Y-78014502D01*
X89357906Y-78000500D01*
X126142094Y-78000500D01*
X126209133Y-78020185D01*
G37*
%TD.AperFunction*%
%TA.AperFunction,Conductor*%
G36*
X116545246Y-97517785D02*
G01*
X116591001Y-97570589D01*
X116601565Y-97634704D01*
X116600000Y-97650016D01*
X116600000Y-97775000D01*
X119399999Y-97775000D01*
X119399999Y-97650028D01*
X119399998Y-97650013D01*
X119398434Y-97634702D01*
X119411203Y-97566009D01*
X119459084Y-97515125D01*
X119521792Y-97498100D01*
X119592600Y-97498100D01*
X119659639Y-97517785D01*
X119705394Y-97570589D01*
X119716600Y-97622100D01*
X119716600Y-101382983D01*
X119724726Y-101423839D01*
X119718497Y-101493430D01*
X119690789Y-101535709D01*
X119569797Y-101656701D01*
X119508474Y-101690186D01*
X119438782Y-101685202D01*
X119382849Y-101643330D01*
X119358432Y-101577866D01*
X119364409Y-101530021D01*
X119389999Y-101452797D01*
X119400500Y-101350009D01*
X119400499Y-100599992D01*
X119389999Y-100497203D01*
X119334814Y-100330666D01*
X119242712Y-100181344D01*
X119118656Y-100057288D01*
X118969334Y-99965186D01*
X118802797Y-99910001D01*
X118802795Y-99910000D01*
X118700010Y-99899500D01*
X117299998Y-99899500D01*
X117299981Y-99899501D01*
X117197203Y-99910000D01*
X117197200Y-99910001D01*
X117030668Y-99965185D01*
X117030663Y-99965187D01*
X116881342Y-100057289D01*
X116757289Y-100181342D01*
X116665187Y-100330663D01*
X116665186Y-100330666D01*
X116610001Y-100497203D01*
X116610001Y-100497204D01*
X116610000Y-100497204D01*
X116599500Y-100599983D01*
X116599500Y-101350001D01*
X116599501Y-101350019D01*
X116610000Y-101452796D01*
X116610001Y-101452799D01*
X116665185Y-101619331D01*
X116665187Y-101619336D01*
X116693048Y-101664506D01*
X116757288Y-101768656D01*
X116881344Y-101892712D01*
X117030666Y-101984814D01*
X117197203Y-102039999D01*
X117288103Y-102049285D01*
X117352794Y-102075681D01*
X117392945Y-102132861D01*
X117399500Y-102172643D01*
X117399500Y-102417587D01*
X117379815Y-102484626D01*
X117372450Y-102494896D01*
X117370186Y-102497734D01*
X117274211Y-102650476D01*
X117214631Y-102820745D01*
X117214630Y-102820750D01*
X117194435Y-102999996D01*
X117194435Y-103000003D01*
X117214630Y-103179249D01*
X117214631Y-103179254D01*
X117274211Y-103349523D01*
X117370184Y-103502262D01*
X117459529Y-103591607D01*
X117493014Y-103652930D01*
X117488030Y-103722622D01*
X117459529Y-103766969D01*
X117162180Y-104064319D01*
X117100857Y-104097804D01*
X117031166Y-104092820D01*
X116975232Y-104050949D01*
X116950815Y-103985484D01*
X116950499Y-103976638D01*
X116950499Y-103352129D01*
X116950498Y-103352123D01*
X116950497Y-103352116D01*
X116944091Y-103292517D01*
X116905880Y-103190069D01*
X116893797Y-103157671D01*
X116893793Y-103157664D01*
X116807547Y-103042455D01*
X116807544Y-103042452D01*
X116692335Y-102956206D01*
X116692328Y-102956202D01*
X116557482Y-102905908D01*
X116557483Y-102905908D01*
X116497883Y-102899501D01*
X116497881Y-102899500D01*
X116497873Y-102899500D01*
X116497865Y-102899500D01*
X116101067Y-102899500D01*
X116034028Y-102879815D01*
X115988273Y-102827011D01*
X115978329Y-102757853D01*
X115984885Y-102732168D01*
X115994090Y-102707485D01*
X115994091Y-102707483D01*
X116000500Y-102647873D01*
X116000499Y-101152128D01*
X115994091Y-101092517D01*
X115992781Y-101089006D01*
X115943797Y-100957671D01*
X115943793Y-100957664D01*
X115857547Y-100842455D01*
X115857544Y-100842452D01*
X115742335Y-100756206D01*
X115742328Y-100756202D01*
X115607482Y-100705908D01*
X115607483Y-100705908D01*
X115547883Y-100699501D01*
X115547881Y-100699500D01*
X115547873Y-100699500D01*
X115547864Y-100699500D01*
X114452129Y-100699500D01*
X114452123Y-100699501D01*
X114392516Y-100705908D01*
X114257671Y-100756202D01*
X114257664Y-100756206D01*
X114142455Y-100842452D01*
X114142452Y-100842455D01*
X114056206Y-100957664D01*
X114056202Y-100957671D01*
X114005908Y-101092517D01*
X113999693Y-101150329D01*
X113999501Y-101152123D01*
X113999500Y-101152135D01*
X113999500Y-101175500D01*
X113979815Y-101242539D01*
X113927011Y-101288294D01*
X113875500Y-101299500D01*
X110971757Y-101299500D01*
X110904718Y-101279815D01*
X110858963Y-101227011D01*
X110849019Y-101157853D01*
X110878044Y-101094297D01*
X110895592Y-101077648D01*
X110951784Y-101033913D01*
X111108979Y-100863153D01*
X111235924Y-100668849D01*
X111329157Y-100456300D01*
X111386134Y-100231305D01*
X111386135Y-100231297D01*
X111405300Y-100000006D01*
X111405300Y-99999993D01*
X111386135Y-99768702D01*
X111386133Y-99768691D01*
X111329157Y-99543699D01*
X111235924Y-99331151D01*
X111108983Y-99136852D01*
X111108980Y-99136849D01*
X111108979Y-99136847D01*
X111082865Y-99108480D01*
X111051945Y-99045828D01*
X111059805Y-98976402D01*
X111103952Y-98922247D01*
X111170370Y-98900556D01*
X111174097Y-98900500D01*
X114588693Y-98900500D01*
X114588694Y-98900499D01*
X114762666Y-98865895D01*
X114844606Y-98831953D01*
X114926547Y-98798013D01*
X114926549Y-98798011D01*
X114926552Y-98798010D01*
X115014955Y-98738939D01*
X115014955Y-98738938D01*
X115014959Y-98738936D01*
X115074036Y-98699464D01*
X115498500Y-98275000D01*
X116600001Y-98275000D01*
X116600001Y-98399986D01*
X116610494Y-98502697D01*
X116665641Y-98669119D01*
X116665643Y-98669124D01*
X116757684Y-98818345D01*
X116881654Y-98942315D01*
X117030875Y-99034356D01*
X117030880Y-99034358D01*
X117197302Y-99089505D01*
X117197309Y-99089506D01*
X117300019Y-99099999D01*
X117749999Y-99099999D01*
X117750000Y-99099998D01*
X117750000Y-98275000D01*
X118250000Y-98275000D01*
X118250000Y-99099999D01*
X118699972Y-99099999D01*
X118699986Y-99099998D01*
X118802697Y-99089505D01*
X118969119Y-99034358D01*
X118969124Y-99034356D01*
X119118345Y-98942315D01*
X119242315Y-98818345D01*
X119334356Y-98669124D01*
X119334358Y-98669119D01*
X119389505Y-98502697D01*
X119389506Y-98502690D01*
X119399999Y-98399986D01*
X119400000Y-98399973D01*
X119400000Y-98275000D01*
X118250000Y-98275000D01*
X117750000Y-98275000D01*
X116600001Y-98275000D01*
X115498500Y-98275000D01*
X116239081Y-97534419D01*
X116300404Y-97500934D01*
X116326762Y-97498100D01*
X116478207Y-97498100D01*
X116545246Y-97517785D01*
G37*
%TD.AperFunction*%
%TA.AperFunction,Conductor*%
G36*
X106843988Y-90620185D02*
G01*
X106889743Y-90672989D01*
X106900239Y-90711251D01*
X106900908Y-90717482D01*
X106951202Y-90852328D01*
X106951206Y-90852335D01*
X107037452Y-90967544D01*
X107037455Y-90967547D01*
X107152664Y-91053793D01*
X107152671Y-91053797D01*
X107287517Y-91104091D01*
X107287516Y-91104091D01*
X107294444Y-91104835D01*
X107347127Y-91110500D01*
X108552872Y-91110499D01*
X108612483Y-91104091D01*
X108688665Y-91075676D01*
X108758353Y-91070693D01*
X108819677Y-91104177D01*
X108819677Y-91104178D01*
X110190619Y-92475118D01*
X110224104Y-92536441D01*
X110219120Y-92606132D01*
X110190619Y-92650480D01*
X109951228Y-92889871D01*
X109889905Y-92923356D01*
X109883957Y-92924499D01*
X109655015Y-92962702D01*
X109435504Y-93038061D01*
X109435495Y-93038064D01*
X109231371Y-93148531D01*
X109231365Y-93148535D01*
X109048222Y-93291081D01*
X109048219Y-93291084D01*
X108891016Y-93461852D01*
X108764075Y-93656151D01*
X108670842Y-93868699D01*
X108613866Y-94093691D01*
X108613864Y-94093702D01*
X108594700Y-94324993D01*
X108594700Y-94325006D01*
X108613864Y-94556297D01*
X108613866Y-94556308D01*
X108670842Y-94781300D01*
X108764075Y-94993848D01*
X108891016Y-95188147D01*
X108891019Y-95188151D01*
X108891021Y-95188153D01*
X109048216Y-95358913D01*
X109048219Y-95358915D01*
X109048222Y-95358918D01*
X109231365Y-95501464D01*
X109231371Y-95501468D01*
X109231374Y-95501470D01*
X109338445Y-95559414D01*
X109412441Y-95599459D01*
X109435497Y-95611936D01*
X109499444Y-95633889D01*
X109655015Y-95687297D01*
X109655017Y-95687297D01*
X109655019Y-95687298D01*
X109883951Y-95725500D01*
X109883952Y-95725500D01*
X110116048Y-95725500D01*
X110116049Y-95725500D01*
X110344981Y-95687298D01*
X110564503Y-95611936D01*
X110768626Y-95501470D01*
X110780926Y-95491897D01*
X110870028Y-95422546D01*
X110951784Y-95358913D01*
X111108979Y-95188153D01*
X111235924Y-94993849D01*
X111329157Y-94781300D01*
X111386134Y-94556305D01*
X111389185Y-94519485D01*
X111405300Y-94325006D01*
X111405300Y-94324993D01*
X111386135Y-94093702D01*
X111386134Y-94093698D01*
X111386134Y-94093695D01*
X111384895Y-94088802D01*
X111387518Y-94018983D01*
X111417417Y-93970680D01*
X112115626Y-93272472D01*
X112115631Y-93272468D01*
X112125834Y-93262264D01*
X112125836Y-93262264D01*
X112817980Y-92570118D01*
X112879303Y-92536634D01*
X112905661Y-92533800D01*
X117484300Y-92533800D01*
X117551339Y-92553485D01*
X117597094Y-92606289D01*
X117608300Y-92657800D01*
X117608300Y-93400000D01*
X119578300Y-93400000D01*
X119578300Y-92714561D01*
X119597985Y-92647522D01*
X119650789Y-92601767D01*
X119719947Y-92591823D01*
X119783503Y-92620848D01*
X119789967Y-92626867D01*
X121387136Y-94224035D01*
X121460653Y-94297552D01*
X121512566Y-94349465D01*
X121660046Y-94448009D01*
X121660059Y-94448016D01*
X121777380Y-94496611D01*
X121823934Y-94515894D01*
X121823936Y-94515894D01*
X121823941Y-94515896D01*
X121997904Y-94550499D01*
X121997907Y-94550500D01*
X121997909Y-94550500D01*
X122063801Y-94550500D01*
X122130840Y-94570185D01*
X122176595Y-94622989D01*
X122187801Y-94674500D01*
X122187801Y-95112876D01*
X122194208Y-95172483D01*
X122244502Y-95307328D01*
X122244506Y-95307335D01*
X122330752Y-95422544D01*
X122330755Y-95422547D01*
X122399265Y-95473834D01*
X122441136Y-95529767D01*
X122446120Y-95599459D01*
X122412634Y-95660782D01*
X122351311Y-95694266D01*
X122324954Y-95697100D01*
X119440812Y-95697100D01*
X119373773Y-95677415D01*
X119328018Y-95624611D01*
X119318074Y-95555453D01*
X119347099Y-95491897D01*
X119366501Y-95473834D01*
X119435487Y-95422190D01*
X119435490Y-95422187D01*
X119521650Y-95307093D01*
X119521654Y-95307086D01*
X119571896Y-95172379D01*
X119571898Y-95172372D01*
X119578299Y-95112844D01*
X119578300Y-95112827D01*
X119578300Y-93900000D01*
X117608300Y-93900000D01*
X117608300Y-95112844D01*
X117614701Y-95172372D01*
X117614703Y-95172379D01*
X117664945Y-95307086D01*
X117664949Y-95307093D01*
X117751109Y-95422187D01*
X117751112Y-95422190D01*
X117820099Y-95473834D01*
X117861970Y-95529767D01*
X117866954Y-95599459D01*
X117833469Y-95660782D01*
X117772145Y-95694266D01*
X117745788Y-95697100D01*
X115813703Y-95697100D01*
X115639741Y-95731703D01*
X115639733Y-95731705D01*
X115567362Y-95761683D01*
X115567361Y-95761683D01*
X115475857Y-95799584D01*
X115475855Y-95799585D01*
X115397090Y-95852215D01*
X115328361Y-95898137D01*
X115328358Y-95898140D01*
X114163319Y-97063181D01*
X114101996Y-97096666D01*
X114075638Y-97099500D01*
X105424361Y-97099500D01*
X105357322Y-97079815D01*
X105336680Y-97063181D01*
X104960680Y-96687180D01*
X104927195Y-96625857D01*
X104932179Y-96556165D01*
X104974051Y-96500232D01*
X105039515Y-96475815D01*
X105048361Y-96475499D01*
X105387502Y-96475499D01*
X105387508Y-96475499D01*
X105490297Y-96464999D01*
X105656834Y-96409814D01*
X105806156Y-96317712D01*
X105930212Y-96193656D01*
X106022314Y-96044334D01*
X106077499Y-95877797D01*
X106088000Y-95775009D01*
X106087999Y-94424992D01*
X106077499Y-94322203D01*
X106022314Y-94155666D01*
X105930212Y-94006344D01*
X105806156Y-93882288D01*
X105656834Y-93790186D01*
X105490297Y-93735001D01*
X105490295Y-93735000D01*
X105387510Y-93724500D01*
X104662498Y-93724500D01*
X104662480Y-93724501D01*
X104572530Y-93733690D01*
X104503837Y-93720920D01*
X104472248Y-93698013D01*
X104311890Y-93537655D01*
X104311888Y-93537652D01*
X104193017Y-93418781D01*
X104193009Y-93418775D01*
X104092613Y-93360812D01*
X104092611Y-93360811D01*
X104056090Y-93339725D01*
X104056089Y-93339724D01*
X104043563Y-93336367D01*
X103903357Y-93298799D01*
X103745243Y-93298799D01*
X103737647Y-93298799D01*
X103737631Y-93298800D01*
X102693797Y-93298800D01*
X102626758Y-93279115D01*
X102581003Y-93226311D01*
X102571059Y-93157153D01*
X102600084Y-93093597D01*
X102606116Y-93087119D01*
X103442047Y-92251188D01*
X104325543Y-91367691D01*
X104386864Y-91334208D01*
X104452222Y-91337667D01*
X104534703Y-91364999D01*
X104637491Y-91375500D01*
X105362508Y-91375499D01*
X105362516Y-91375498D01*
X105362519Y-91375498D01*
X105438924Y-91367693D01*
X105465297Y-91364999D01*
X105631834Y-91309814D01*
X105781156Y-91217712D01*
X105905212Y-91093656D01*
X105997314Y-90944334D01*
X106052499Y-90777797D01*
X106056338Y-90740218D01*
X106059232Y-90711897D01*
X106085629Y-90647205D01*
X106142810Y-90607054D01*
X106182590Y-90600500D01*
X106776949Y-90600500D01*
X106843988Y-90620185D01*
G37*
%TD.AperFunction*%
%TD*%
M02*
