%TF.GenerationSoftware,KiCad,Pcbnew,8.0.1*%
%TF.CreationDate,2025-03-02T16:25:42+00:00*%
%TF.ProjectId,PWM Control Circuit,50574d20-436f-46e7-9472-6f6c20436972,rev?*%
%TF.SameCoordinates,Original*%
%TF.FileFunction,Paste,Top*%
%TF.FilePolarity,Positive*%
%FSLAX46Y46*%
G04 Gerber Fmt 4.6, Leading zero omitted, Abs format (unit mm)*
G04 Created by KiCad (PCBNEW 8.0.1) date 2025-03-02 16:25:42*
%MOMM*%
%LPD*%
G01*
G04 APERTURE LIST*
G04 Aperture macros list*
%AMRoundRect*
0 Rectangle with rounded corners*
0 $1 Rounding radius*
0 $2 $3 $4 $5 $6 $7 $8 $9 X,Y pos of 4 corners*
0 Add a 4 corners polygon primitive as box body*
4,1,4,$2,$3,$4,$5,$6,$7,$8,$9,$2,$3,0*
0 Add four circle primitives for the rounded corners*
1,1,$1+$1,$2,$3*
1,1,$1+$1,$4,$5*
1,1,$1+$1,$6,$7*
1,1,$1+$1,$8,$9*
0 Add four rect primitives between the rounded corners*
20,1,$1+$1,$2,$3,$4,$5,0*
20,1,$1+$1,$4,$5,$6,$7,0*
20,1,$1+$1,$6,$7,$8,$9,0*
20,1,$1+$1,$8,$9,$2,$3,0*%
G04 Aperture macros list end*
%ADD10C,0.010000*%
%ADD11R,1.110000X1.220000*%
%ADD12RoundRect,0.250000X-0.312500X-0.625000X0.312500X-0.625000X0.312500X0.625000X-0.312500X0.625000X0*%
%ADD13RoundRect,0.150000X0.150000X-0.587500X0.150000X0.587500X-0.150000X0.587500X-0.150000X-0.587500X0*%
%ADD14R,0.970000X2.830000*%
%ADD15RoundRect,0.250000X-0.650000X0.325000X-0.650000X-0.325000X0.650000X-0.325000X0.650000X0.325000X0*%
%ADD16R,1.000000X1.400000*%
%ADD17RoundRect,0.250000X-0.325000X-0.650000X0.325000X-0.650000X0.325000X0.650000X-0.325000X0.650000X0*%
%ADD18R,1.850000X0.650000*%
%ADD19R,1.600000X2.400000*%
G04 APERTURE END LIST*
D10*
%TO.C,U2*%
X119658300Y-85700000D02*
X118348300Y-85700000D01*
X118348300Y-84240000D01*
X119658300Y-84240000D01*
X119658300Y-85700000D01*
G36*
X119658300Y-85700000D02*
G01*
X118348300Y-85700000D01*
X118348300Y-84240000D01*
X119658300Y-84240000D01*
X119658300Y-85700000D01*
G37*
X119658300Y-87730000D02*
X118348300Y-87730000D01*
X118348300Y-86270000D01*
X119658300Y-86270000D01*
X119658300Y-87730000D01*
G36*
X119658300Y-87730000D02*
G01*
X118348300Y-87730000D01*
X118348300Y-86270000D01*
X119658300Y-86270000D01*
X119658300Y-87730000D01*
G37*
X119658300Y-89760000D02*
X118348300Y-89760000D01*
X118348300Y-88300000D01*
X119658300Y-88300000D01*
X119658300Y-89760000D01*
G36*
X119658300Y-89760000D02*
G01*
X118348300Y-89760000D01*
X118348300Y-88300000D01*
X119658300Y-88300000D01*
X119658300Y-89760000D01*
G37*
X121538300Y-85700000D02*
X120228300Y-85700000D01*
X120228300Y-84240000D01*
X121538300Y-84240000D01*
X121538300Y-85700000D01*
G36*
X121538300Y-85700000D02*
G01*
X120228300Y-85700000D01*
X120228300Y-84240000D01*
X121538300Y-84240000D01*
X121538300Y-85700000D01*
G37*
X121538300Y-87730000D02*
X120228300Y-87730000D01*
X120228300Y-86270000D01*
X121538300Y-86270000D01*
X121538300Y-87730000D01*
G36*
X121538300Y-87730000D02*
G01*
X120228300Y-87730000D01*
X120228300Y-86270000D01*
X121538300Y-86270000D01*
X121538300Y-87730000D01*
G37*
X121538300Y-89760000D02*
X120228300Y-89760000D01*
X120228300Y-88300000D01*
X121538300Y-88300000D01*
X121538300Y-89760000D01*
G36*
X121538300Y-89760000D02*
G01*
X120228300Y-89760000D01*
X120228300Y-88300000D01*
X121538300Y-88300000D01*
X121538300Y-89760000D01*
G37*
X123418300Y-85700000D02*
X122108300Y-85700000D01*
X122108300Y-84240000D01*
X123418300Y-84240000D01*
X123418300Y-85700000D01*
G36*
X123418300Y-85700000D02*
G01*
X122108300Y-85700000D01*
X122108300Y-84240000D01*
X123418300Y-84240000D01*
X123418300Y-85700000D01*
G37*
X123418300Y-87730000D02*
X122108300Y-87730000D01*
X122108300Y-86270000D01*
X123418300Y-86270000D01*
X123418300Y-87730000D01*
G36*
X123418300Y-87730000D02*
G01*
X122108300Y-87730000D01*
X122108300Y-86270000D01*
X123418300Y-86270000D01*
X123418300Y-87730000D01*
G37*
X123418300Y-89760000D02*
X122108300Y-89760000D01*
X122108300Y-88300000D01*
X123418300Y-88300000D01*
X123418300Y-89760000D01*
G36*
X123418300Y-89760000D02*
G01*
X122108300Y-89760000D01*
X122108300Y-88300000D01*
X123418300Y-88300000D01*
X123418300Y-89760000D01*
G37*
%TD*%
D11*
%TO.C,D3*%
X107950000Y-90000000D03*
X111050000Y-90000000D03*
%TD*%
D12*
%TO.C,R5*%
X102075000Y-90000000D03*
X105000000Y-90000000D03*
%TD*%
D13*
%TO.C,D2*%
X103100000Y-102500000D03*
X105000000Y-102500000D03*
X104050000Y-100625000D03*
%TD*%
D14*
%TO.C,U2*%
X118593300Y-93650000D03*
X123173300Y-93650000D03*
%TD*%
D15*
%TO.C,C2*%
X118000000Y-98025000D03*
X118000000Y-100975000D03*
%TD*%
D12*
%TO.C,R1*%
X96350000Y-90000000D03*
X99275000Y-90000000D03*
%TD*%
D16*
%TO.C,D4*%
X114050000Y-104100000D03*
X115950000Y-104100000D03*
X115000000Y-101900000D03*
%TD*%
D17*
%TO.C,C1*%
X87990000Y-105200000D03*
X90940000Y-105200000D03*
%TD*%
D12*
%TO.C,R6*%
X102100000Y-95100000D03*
X105025000Y-95100000D03*
%TD*%
D15*
%TO.C,C3*%
X123000000Y-98025000D03*
X123000000Y-100975000D03*
%TD*%
D12*
%TO.C,R2*%
X96200000Y-95000000D03*
X99125000Y-95000000D03*
%TD*%
%TO.C,R3*%
X96125000Y-100300000D03*
X99050000Y-100300000D03*
%TD*%
%TO.C,R4*%
X96150000Y-106075000D03*
X99075000Y-106075000D03*
%TD*%
D18*
%TO.C,IC1*%
X100875000Y-82530000D03*
X100875000Y-83800000D03*
X100875000Y-85070000D03*
X111525000Y-85070000D03*
X111525000Y-83800000D03*
X111525000Y-82530000D03*
%TD*%
D19*
%TO.C,D1*%
X92175000Y-85000000D03*
X95025000Y-85000000D03*
%TD*%
M02*
