%TF.GenerationSoftware,KiCad,Pcbnew,8.0.1*%
%TF.CreationDate,2024-11-30T19:41:01+00:00*%
%TF.ProjectId,Heating Element,48656174-696e-4672-9045-6c656d656e74,1*%
%TF.SameCoordinates,Original*%
%TF.FileFunction,Drillmap*%
%TF.FilePolarity,Positive*%
%FSLAX45Y45*%
G04 Gerber Fmt 4.5, Leading zero omitted, Abs format (unit mm)*
G04 Created by KiCad (PCBNEW 8.0.1) date 2024-11-30 19:41:01*
%MOMM*%
%LPD*%
G01*
G04 APERTURE LIST*
%ADD10C,0.050000*%
%ADD11C,0.200000*%
%ADD12C,0.100000*%
%ADD13C,0.127000*%
%ADD14C,0.220000*%
G04 APERTURE END LIST*
D10*
X9567500Y-7737500D02*
X13967500Y-7737500D01*
X13967500Y-11437500D01*
X9567500Y-11437500D01*
X9567500Y-7737500D01*
D11*
D12*
X9715000Y-10037500D02*
X9745000Y-10067500D01*
X9745000Y-10037500D02*
X9715000Y-10067500D01*
X10247400Y-9583720D02*
X10277400Y-9613720D01*
X10277400Y-9583720D02*
X10247400Y-9613720D01*
X10289200Y-8769920D02*
X10319200Y-8799920D01*
X10319200Y-8769920D02*
X10289200Y-8799920D01*
X12011600Y-9297370D02*
X12041600Y-9327370D01*
X12041600Y-9297370D02*
X12011600Y-9327370D01*
X12080100Y-8519500D02*
X12110100Y-8549500D01*
X12110100Y-8519500D02*
X12080100Y-8549500D01*
X12474600Y-10735600D02*
X12504600Y-10765600D01*
X12504600Y-10735600D02*
X12474600Y-10765600D01*
X12589500Y-8724670D02*
X12619500Y-8754670D01*
X12619500Y-8724670D02*
X12589500Y-8754670D01*
X12979600Y-9870070D02*
X13009600Y-9900070D01*
X13009600Y-9870070D02*
X12979600Y-9900070D01*
X9996000Y-9468000D02*
G75*
G02*
X9916000Y-9468000I-40000J0D01*
G01*
X9916000Y-9468000D02*
G75*
G02*
X9996000Y-9468000I40000J0D01*
G01*
X9996000Y-9668000D02*
G75*
G02*
X9916000Y-9668000I-40000J0D01*
G01*
X9916000Y-9668000D02*
G75*
G02*
X9996000Y-9668000I40000J0D01*
G01*
X13644240Y-9612960D02*
G75*
G02*
X13564240Y-9612960I-40000J0D01*
G01*
X13564240Y-9612960D02*
G75*
G02*
X13644240Y-9612960I40000J0D01*
G01*
X13644240Y-9812960D02*
G75*
G02*
X13564240Y-9812960I-40000J0D01*
G01*
X13564240Y-9812960D02*
G75*
G02*
X13644240Y-9812960I40000J0D01*
G01*
X11253000Y-9195000D02*
X11253000Y-9285000D01*
X11208000Y-9240000D02*
X11298000Y-9240000D01*
X11268000Y-9786000D02*
X11268000Y-9876000D01*
X11223000Y-9831000D02*
X11313000Y-9831000D01*
X11305000Y-10317000D02*
X11305000Y-10407000D01*
X11260000Y-10362000D02*
X11350000Y-10362000D01*
D13*
X11390902Y-10984902D02*
X11390902Y-10895098D01*
X11301098Y-10895098D01*
X11301098Y-10984902D01*
X11390902Y-10984902D01*
X11644902Y-10984902D02*
X11644902Y-10895098D01*
X11555098Y-10895098D01*
X11555098Y-10984902D01*
X11644902Y-10984902D01*
X11898902Y-10984902D02*
X11898902Y-10895098D01*
X11809098Y-10895098D01*
X11809098Y-10984902D01*
X11898902Y-10984902D01*
D14*
X9900920Y-8161720D02*
X10010920Y-8051720D01*
X9900920Y-7941720D01*
X9790920Y-8051720D01*
X9900920Y-8161720D01*
X9900920Y-11225000D02*
X10010920Y-11115000D01*
X9900920Y-11005000D01*
X9790920Y-11115000D01*
X9900920Y-11225000D01*
X13617500Y-8161720D02*
X13727500Y-8051720D01*
X13617500Y-7941720D01*
X13507500Y-8051720D01*
X13617500Y-8161720D01*
X13617500Y-11225000D02*
X13727500Y-11115000D01*
X13617500Y-11005000D01*
X13507500Y-11115000D01*
X13617500Y-11225000D01*
D11*
X9825777Y-11751484D02*
X9825777Y-11551484D01*
X9825777Y-11551484D02*
X9873396Y-11551484D01*
X9873396Y-11551484D02*
X9901967Y-11561008D01*
X9901967Y-11561008D02*
X9921015Y-11580055D01*
X9921015Y-11580055D02*
X9930539Y-11599103D01*
X9930539Y-11599103D02*
X9940063Y-11637198D01*
X9940063Y-11637198D02*
X9940063Y-11665769D01*
X9940063Y-11665769D02*
X9930539Y-11703865D01*
X9930539Y-11703865D02*
X9921015Y-11722912D01*
X9921015Y-11722912D02*
X9901967Y-11741960D01*
X9901967Y-11741960D02*
X9873396Y-11751484D01*
X9873396Y-11751484D02*
X9825777Y-11751484D01*
X10025777Y-11751484D02*
X10025777Y-11618150D01*
X10025777Y-11656246D02*
X10035301Y-11637198D01*
X10035301Y-11637198D02*
X10044824Y-11627674D01*
X10044824Y-11627674D02*
X10063872Y-11618150D01*
X10063872Y-11618150D02*
X10082920Y-11618150D01*
X10149586Y-11751484D02*
X10149586Y-11618150D01*
X10149586Y-11551484D02*
X10140063Y-11561008D01*
X10140063Y-11561008D02*
X10149586Y-11570531D01*
X10149586Y-11570531D02*
X10159110Y-11561008D01*
X10159110Y-11561008D02*
X10149586Y-11551484D01*
X10149586Y-11551484D02*
X10149586Y-11570531D01*
X10273396Y-11751484D02*
X10254348Y-11741960D01*
X10254348Y-11741960D02*
X10244824Y-11722912D01*
X10244824Y-11722912D02*
X10244824Y-11551484D01*
X10378158Y-11751484D02*
X10359110Y-11741960D01*
X10359110Y-11741960D02*
X10349586Y-11722912D01*
X10349586Y-11722912D02*
X10349586Y-11551484D01*
X10606729Y-11751484D02*
X10606729Y-11551484D01*
X10606729Y-11551484D02*
X10673396Y-11694341D01*
X10673396Y-11694341D02*
X10740063Y-11551484D01*
X10740063Y-11551484D02*
X10740063Y-11751484D01*
X10921015Y-11751484D02*
X10921015Y-11646722D01*
X10921015Y-11646722D02*
X10911491Y-11627674D01*
X10911491Y-11627674D02*
X10892444Y-11618150D01*
X10892444Y-11618150D02*
X10854348Y-11618150D01*
X10854348Y-11618150D02*
X10835301Y-11627674D01*
X10921015Y-11741960D02*
X10901967Y-11751484D01*
X10901967Y-11751484D02*
X10854348Y-11751484D01*
X10854348Y-11751484D02*
X10835301Y-11741960D01*
X10835301Y-11741960D02*
X10825777Y-11722912D01*
X10825777Y-11722912D02*
X10825777Y-11703865D01*
X10825777Y-11703865D02*
X10835301Y-11684817D01*
X10835301Y-11684817D02*
X10854348Y-11675293D01*
X10854348Y-11675293D02*
X10901967Y-11675293D01*
X10901967Y-11675293D02*
X10921015Y-11665769D01*
X11016253Y-11618150D02*
X11016253Y-11818150D01*
X11016253Y-11627674D02*
X11035301Y-11618150D01*
X11035301Y-11618150D02*
X11073396Y-11618150D01*
X11073396Y-11618150D02*
X11092444Y-11627674D01*
X11092444Y-11627674D02*
X11101967Y-11637198D01*
X11101967Y-11637198D02*
X11111491Y-11656246D01*
X11111491Y-11656246D02*
X11111491Y-11713388D01*
X11111491Y-11713388D02*
X11101967Y-11732436D01*
X11101967Y-11732436D02*
X11092444Y-11741960D01*
X11092444Y-11741960D02*
X11073396Y-11751484D01*
X11073396Y-11751484D02*
X11035301Y-11751484D01*
X11035301Y-11751484D02*
X11016253Y-11741960D01*
X11197205Y-11732436D02*
X11206729Y-11741960D01*
X11206729Y-11741960D02*
X11197205Y-11751484D01*
X11197205Y-11751484D02*
X11187682Y-11741960D01*
X11187682Y-11741960D02*
X11197205Y-11732436D01*
X11197205Y-11732436D02*
X11197205Y-11751484D01*
X11197205Y-11627674D02*
X11206729Y-11637198D01*
X11206729Y-11637198D02*
X11197205Y-11646722D01*
X11197205Y-11646722D02*
X11187682Y-11637198D01*
X11187682Y-11637198D02*
X11197205Y-11627674D01*
X11197205Y-11627674D02*
X11197205Y-11646722D01*
D12*
X9535000Y-12065000D02*
X9565000Y-12095000D01*
X9565000Y-12065000D02*
X9535000Y-12095000D01*
D11*
X9863872Y-11971484D02*
X9882920Y-11971484D01*
X9882920Y-11971484D02*
X9901967Y-11981008D01*
X9901967Y-11981008D02*
X9911491Y-11990531D01*
X9911491Y-11990531D02*
X9921015Y-12009579D01*
X9921015Y-12009579D02*
X9930539Y-12047674D01*
X9930539Y-12047674D02*
X9930539Y-12095293D01*
X9930539Y-12095293D02*
X9921015Y-12133388D01*
X9921015Y-12133388D02*
X9911491Y-12152436D01*
X9911491Y-12152436D02*
X9901967Y-12161960D01*
X9901967Y-12161960D02*
X9882920Y-12171484D01*
X9882920Y-12171484D02*
X9863872Y-12171484D01*
X9863872Y-12171484D02*
X9844824Y-12161960D01*
X9844824Y-12161960D02*
X9835301Y-12152436D01*
X9835301Y-12152436D02*
X9825777Y-12133388D01*
X9825777Y-12133388D02*
X9816253Y-12095293D01*
X9816253Y-12095293D02*
X9816253Y-12047674D01*
X9816253Y-12047674D02*
X9825777Y-12009579D01*
X9825777Y-12009579D02*
X9835301Y-11990531D01*
X9835301Y-11990531D02*
X9844824Y-11981008D01*
X9844824Y-11981008D02*
X9863872Y-11971484D01*
X10016253Y-12152436D02*
X10025777Y-12161960D01*
X10025777Y-12161960D02*
X10016253Y-12171484D01*
X10016253Y-12171484D02*
X10006729Y-12161960D01*
X10006729Y-12161960D02*
X10016253Y-12152436D01*
X10016253Y-12152436D02*
X10016253Y-12171484D01*
X10092444Y-11971484D02*
X10216253Y-11971484D01*
X10216253Y-11971484D02*
X10149586Y-12047674D01*
X10149586Y-12047674D02*
X10178158Y-12047674D01*
X10178158Y-12047674D02*
X10197205Y-12057198D01*
X10197205Y-12057198D02*
X10206729Y-12066722D01*
X10206729Y-12066722D02*
X10216253Y-12085769D01*
X10216253Y-12085769D02*
X10216253Y-12133388D01*
X10216253Y-12133388D02*
X10206729Y-12152436D01*
X10206729Y-12152436D02*
X10197205Y-12161960D01*
X10197205Y-12161960D02*
X10178158Y-12171484D01*
X10178158Y-12171484D02*
X10121015Y-12171484D01*
X10121015Y-12171484D02*
X10101967Y-12161960D01*
X10101967Y-12161960D02*
X10092444Y-12152436D01*
X10340063Y-11971484D02*
X10359110Y-11971484D01*
X10359110Y-11971484D02*
X10378158Y-11981008D01*
X10378158Y-11981008D02*
X10387682Y-11990531D01*
X10387682Y-11990531D02*
X10397205Y-12009579D01*
X10397205Y-12009579D02*
X10406729Y-12047674D01*
X10406729Y-12047674D02*
X10406729Y-12095293D01*
X10406729Y-12095293D02*
X10397205Y-12133388D01*
X10397205Y-12133388D02*
X10387682Y-12152436D01*
X10387682Y-12152436D02*
X10378158Y-12161960D01*
X10378158Y-12161960D02*
X10359110Y-12171484D01*
X10359110Y-12171484D02*
X10340063Y-12171484D01*
X10340063Y-12171484D02*
X10321015Y-12161960D01*
X10321015Y-12161960D02*
X10311491Y-12152436D01*
X10311491Y-12152436D02*
X10301967Y-12133388D01*
X10301967Y-12133388D02*
X10292444Y-12095293D01*
X10292444Y-12095293D02*
X10292444Y-12047674D01*
X10292444Y-12047674D02*
X10301967Y-12009579D01*
X10301967Y-12009579D02*
X10311491Y-11990531D01*
X10311491Y-11990531D02*
X10321015Y-11981008D01*
X10321015Y-11981008D02*
X10340063Y-11971484D01*
X10530539Y-11971484D02*
X10549586Y-11971484D01*
X10549586Y-11971484D02*
X10568634Y-11981008D01*
X10568634Y-11981008D02*
X10578158Y-11990531D01*
X10578158Y-11990531D02*
X10587682Y-12009579D01*
X10587682Y-12009579D02*
X10597205Y-12047674D01*
X10597205Y-12047674D02*
X10597205Y-12095293D01*
X10597205Y-12095293D02*
X10587682Y-12133388D01*
X10587682Y-12133388D02*
X10578158Y-12152436D01*
X10578158Y-12152436D02*
X10568634Y-12161960D01*
X10568634Y-12161960D02*
X10549586Y-12171484D01*
X10549586Y-12171484D02*
X10530539Y-12171484D01*
X10530539Y-12171484D02*
X10511491Y-12161960D01*
X10511491Y-12161960D02*
X10501967Y-12152436D01*
X10501967Y-12152436D02*
X10492444Y-12133388D01*
X10492444Y-12133388D02*
X10482920Y-12095293D01*
X10482920Y-12095293D02*
X10482920Y-12047674D01*
X10482920Y-12047674D02*
X10492444Y-12009579D01*
X10492444Y-12009579D02*
X10501967Y-11990531D01*
X10501967Y-11990531D02*
X10511491Y-11981008D01*
X10511491Y-11981008D02*
X10530539Y-11971484D01*
X10682920Y-12171484D02*
X10682920Y-12038150D01*
X10682920Y-12057198D02*
X10692444Y-12047674D01*
X10692444Y-12047674D02*
X10711491Y-12038150D01*
X10711491Y-12038150D02*
X10740063Y-12038150D01*
X10740063Y-12038150D02*
X10759110Y-12047674D01*
X10759110Y-12047674D02*
X10768634Y-12066722D01*
X10768634Y-12066722D02*
X10768634Y-12171484D01*
X10768634Y-12066722D02*
X10778158Y-12047674D01*
X10778158Y-12047674D02*
X10797205Y-12038150D01*
X10797205Y-12038150D02*
X10825777Y-12038150D01*
X10825777Y-12038150D02*
X10844825Y-12047674D01*
X10844825Y-12047674D02*
X10854348Y-12066722D01*
X10854348Y-12066722D02*
X10854348Y-12171484D01*
X10949586Y-12171484D02*
X10949586Y-12038150D01*
X10949586Y-12057198D02*
X10959110Y-12047674D01*
X10959110Y-12047674D02*
X10978158Y-12038150D01*
X10978158Y-12038150D02*
X11006729Y-12038150D01*
X11006729Y-12038150D02*
X11025777Y-12047674D01*
X11025777Y-12047674D02*
X11035301Y-12066722D01*
X11035301Y-12066722D02*
X11035301Y-12171484D01*
X11035301Y-12066722D02*
X11044825Y-12047674D01*
X11044825Y-12047674D02*
X11063872Y-12038150D01*
X11063872Y-12038150D02*
X11092444Y-12038150D01*
X11092444Y-12038150D02*
X11111491Y-12047674D01*
X11111491Y-12047674D02*
X11121015Y-12066722D01*
X11121015Y-12066722D02*
X11121015Y-12171484D01*
X11511491Y-11961960D02*
X11340063Y-12219103D01*
X11768634Y-11971484D02*
X11787682Y-11971484D01*
X11787682Y-11971484D02*
X11806729Y-11981008D01*
X11806729Y-11981008D02*
X11816253Y-11990531D01*
X11816253Y-11990531D02*
X11825777Y-12009579D01*
X11825777Y-12009579D02*
X11835301Y-12047674D01*
X11835301Y-12047674D02*
X11835301Y-12095293D01*
X11835301Y-12095293D02*
X11825777Y-12133388D01*
X11825777Y-12133388D02*
X11816253Y-12152436D01*
X11816253Y-12152436D02*
X11806729Y-12161960D01*
X11806729Y-12161960D02*
X11787682Y-12171484D01*
X11787682Y-12171484D02*
X11768634Y-12171484D01*
X11768634Y-12171484D02*
X11749586Y-12161960D01*
X11749586Y-12161960D02*
X11740063Y-12152436D01*
X11740063Y-12152436D02*
X11730539Y-12133388D01*
X11730539Y-12133388D02*
X11721015Y-12095293D01*
X11721015Y-12095293D02*
X11721015Y-12047674D01*
X11721015Y-12047674D02*
X11730539Y-12009579D01*
X11730539Y-12009579D02*
X11740063Y-11990531D01*
X11740063Y-11990531D02*
X11749586Y-11981008D01*
X11749586Y-11981008D02*
X11768634Y-11971484D01*
X11921015Y-12152436D02*
X11930539Y-12161960D01*
X11930539Y-12161960D02*
X11921015Y-12171484D01*
X11921015Y-12171484D02*
X11911491Y-12161960D01*
X11911491Y-12161960D02*
X11921015Y-12152436D01*
X11921015Y-12152436D02*
X11921015Y-12171484D01*
X12054348Y-11971484D02*
X12073396Y-11971484D01*
X12073396Y-11971484D02*
X12092444Y-11981008D01*
X12092444Y-11981008D02*
X12101967Y-11990531D01*
X12101967Y-11990531D02*
X12111491Y-12009579D01*
X12111491Y-12009579D02*
X12121015Y-12047674D01*
X12121015Y-12047674D02*
X12121015Y-12095293D01*
X12121015Y-12095293D02*
X12111491Y-12133388D01*
X12111491Y-12133388D02*
X12101967Y-12152436D01*
X12101967Y-12152436D02*
X12092444Y-12161960D01*
X12092444Y-12161960D02*
X12073396Y-12171484D01*
X12073396Y-12171484D02*
X12054348Y-12171484D01*
X12054348Y-12171484D02*
X12035301Y-12161960D01*
X12035301Y-12161960D02*
X12025777Y-12152436D01*
X12025777Y-12152436D02*
X12016253Y-12133388D01*
X12016253Y-12133388D02*
X12006729Y-12095293D01*
X12006729Y-12095293D02*
X12006729Y-12047674D01*
X12006729Y-12047674D02*
X12016253Y-12009579D01*
X12016253Y-12009579D02*
X12025777Y-11990531D01*
X12025777Y-11990531D02*
X12035301Y-11981008D01*
X12035301Y-11981008D02*
X12054348Y-11971484D01*
X12311491Y-12171484D02*
X12197206Y-12171484D01*
X12254348Y-12171484D02*
X12254348Y-11971484D01*
X12254348Y-11971484D02*
X12235301Y-12000055D01*
X12235301Y-12000055D02*
X12216253Y-12019103D01*
X12216253Y-12019103D02*
X12197206Y-12028627D01*
X12501967Y-12171484D02*
X12387682Y-12171484D01*
X12444825Y-12171484D02*
X12444825Y-11971484D01*
X12444825Y-11971484D02*
X12425777Y-12000055D01*
X12425777Y-12000055D02*
X12406729Y-12019103D01*
X12406729Y-12019103D02*
X12387682Y-12028627D01*
X12616253Y-12057198D02*
X12597206Y-12047674D01*
X12597206Y-12047674D02*
X12587682Y-12038150D01*
X12587682Y-12038150D02*
X12578158Y-12019103D01*
X12578158Y-12019103D02*
X12578158Y-12009579D01*
X12578158Y-12009579D02*
X12587682Y-11990531D01*
X12587682Y-11990531D02*
X12597206Y-11981008D01*
X12597206Y-11981008D02*
X12616253Y-11971484D01*
X12616253Y-11971484D02*
X12654348Y-11971484D01*
X12654348Y-11971484D02*
X12673396Y-11981008D01*
X12673396Y-11981008D02*
X12682920Y-11990531D01*
X12682920Y-11990531D02*
X12692444Y-12009579D01*
X12692444Y-12009579D02*
X12692444Y-12019103D01*
X12692444Y-12019103D02*
X12682920Y-12038150D01*
X12682920Y-12038150D02*
X12673396Y-12047674D01*
X12673396Y-12047674D02*
X12654348Y-12057198D01*
X12654348Y-12057198D02*
X12616253Y-12057198D01*
X12616253Y-12057198D02*
X12597206Y-12066722D01*
X12597206Y-12066722D02*
X12587682Y-12076246D01*
X12587682Y-12076246D02*
X12578158Y-12095293D01*
X12578158Y-12095293D02*
X12578158Y-12133388D01*
X12578158Y-12133388D02*
X12587682Y-12152436D01*
X12587682Y-12152436D02*
X12597206Y-12161960D01*
X12597206Y-12161960D02*
X12616253Y-12171484D01*
X12616253Y-12171484D02*
X12654348Y-12171484D01*
X12654348Y-12171484D02*
X12673396Y-12161960D01*
X12673396Y-12161960D02*
X12682920Y-12152436D01*
X12682920Y-12152436D02*
X12692444Y-12133388D01*
X12692444Y-12133388D02*
X12692444Y-12095293D01*
X12692444Y-12095293D02*
X12682920Y-12076246D01*
X12682920Y-12076246D02*
X12673396Y-12066722D01*
X12673396Y-12066722D02*
X12654348Y-12057198D01*
X12768634Y-11971484D02*
X12768634Y-12009579D01*
X12844825Y-11971484D02*
X12844825Y-12009579D01*
X13140063Y-12247674D02*
X13130539Y-12238150D01*
X13130539Y-12238150D02*
X13111491Y-12209579D01*
X13111491Y-12209579D02*
X13101968Y-12190531D01*
X13101968Y-12190531D02*
X13092444Y-12161960D01*
X13092444Y-12161960D02*
X13082920Y-12114341D01*
X13082920Y-12114341D02*
X13082920Y-12076246D01*
X13082920Y-12076246D02*
X13092444Y-12028627D01*
X13092444Y-12028627D02*
X13101968Y-12000055D01*
X13101968Y-12000055D02*
X13111491Y-11981008D01*
X13111491Y-11981008D02*
X13130539Y-11952436D01*
X13130539Y-11952436D02*
X13140063Y-11942912D01*
X13244825Y-12057198D02*
X13225777Y-12047674D01*
X13225777Y-12047674D02*
X13216253Y-12038150D01*
X13216253Y-12038150D02*
X13206729Y-12019103D01*
X13206729Y-12019103D02*
X13206729Y-12009579D01*
X13206729Y-12009579D02*
X13216253Y-11990531D01*
X13216253Y-11990531D02*
X13225777Y-11981008D01*
X13225777Y-11981008D02*
X13244825Y-11971484D01*
X13244825Y-11971484D02*
X13282920Y-11971484D01*
X13282920Y-11971484D02*
X13301968Y-11981008D01*
X13301968Y-11981008D02*
X13311491Y-11990531D01*
X13311491Y-11990531D02*
X13321015Y-12009579D01*
X13321015Y-12009579D02*
X13321015Y-12019103D01*
X13321015Y-12019103D02*
X13311491Y-12038150D01*
X13311491Y-12038150D02*
X13301968Y-12047674D01*
X13301968Y-12047674D02*
X13282920Y-12057198D01*
X13282920Y-12057198D02*
X13244825Y-12057198D01*
X13244825Y-12057198D02*
X13225777Y-12066722D01*
X13225777Y-12066722D02*
X13216253Y-12076246D01*
X13216253Y-12076246D02*
X13206729Y-12095293D01*
X13206729Y-12095293D02*
X13206729Y-12133388D01*
X13206729Y-12133388D02*
X13216253Y-12152436D01*
X13216253Y-12152436D02*
X13225777Y-12161960D01*
X13225777Y-12161960D02*
X13244825Y-12171484D01*
X13244825Y-12171484D02*
X13282920Y-12171484D01*
X13282920Y-12171484D02*
X13301968Y-12161960D01*
X13301968Y-12161960D02*
X13311491Y-12152436D01*
X13311491Y-12152436D02*
X13321015Y-12133388D01*
X13321015Y-12133388D02*
X13321015Y-12095293D01*
X13321015Y-12095293D02*
X13311491Y-12076246D01*
X13311491Y-12076246D02*
X13301968Y-12066722D01*
X13301968Y-12066722D02*
X13282920Y-12057198D01*
X13559110Y-12171484D02*
X13559110Y-11971484D01*
X13644825Y-12171484D02*
X13644825Y-12066722D01*
X13644825Y-12066722D02*
X13635301Y-12047674D01*
X13635301Y-12047674D02*
X13616253Y-12038150D01*
X13616253Y-12038150D02*
X13587682Y-12038150D01*
X13587682Y-12038150D02*
X13568634Y-12047674D01*
X13568634Y-12047674D02*
X13559110Y-12057198D01*
X13768634Y-12171484D02*
X13749587Y-12161960D01*
X13749587Y-12161960D02*
X13740063Y-12152436D01*
X13740063Y-12152436D02*
X13730539Y-12133388D01*
X13730539Y-12133388D02*
X13730539Y-12076246D01*
X13730539Y-12076246D02*
X13740063Y-12057198D01*
X13740063Y-12057198D02*
X13749587Y-12047674D01*
X13749587Y-12047674D02*
X13768634Y-12038150D01*
X13768634Y-12038150D02*
X13797206Y-12038150D01*
X13797206Y-12038150D02*
X13816253Y-12047674D01*
X13816253Y-12047674D02*
X13825777Y-12057198D01*
X13825777Y-12057198D02*
X13835301Y-12076246D01*
X13835301Y-12076246D02*
X13835301Y-12133388D01*
X13835301Y-12133388D02*
X13825777Y-12152436D01*
X13825777Y-12152436D02*
X13816253Y-12161960D01*
X13816253Y-12161960D02*
X13797206Y-12171484D01*
X13797206Y-12171484D02*
X13768634Y-12171484D01*
X13949587Y-12171484D02*
X13930539Y-12161960D01*
X13930539Y-12161960D02*
X13921015Y-12142912D01*
X13921015Y-12142912D02*
X13921015Y-11971484D01*
X14101968Y-12161960D02*
X14082920Y-12171484D01*
X14082920Y-12171484D02*
X14044825Y-12171484D01*
X14044825Y-12171484D02*
X14025777Y-12161960D01*
X14025777Y-12161960D02*
X14016253Y-12142912D01*
X14016253Y-12142912D02*
X14016253Y-12066722D01*
X14016253Y-12066722D02*
X14025777Y-12047674D01*
X14025777Y-12047674D02*
X14044825Y-12038150D01*
X14044825Y-12038150D02*
X14082920Y-12038150D01*
X14082920Y-12038150D02*
X14101968Y-12047674D01*
X14101968Y-12047674D02*
X14111491Y-12066722D01*
X14111491Y-12066722D02*
X14111491Y-12085769D01*
X14111491Y-12085769D02*
X14016253Y-12104817D01*
X14187682Y-12161960D02*
X14206730Y-12171484D01*
X14206730Y-12171484D02*
X14244825Y-12171484D01*
X14244825Y-12171484D02*
X14263872Y-12161960D01*
X14263872Y-12161960D02*
X14273396Y-12142912D01*
X14273396Y-12142912D02*
X14273396Y-12133388D01*
X14273396Y-12133388D02*
X14263872Y-12114341D01*
X14263872Y-12114341D02*
X14244825Y-12104817D01*
X14244825Y-12104817D02*
X14216253Y-12104817D01*
X14216253Y-12104817D02*
X14197206Y-12095293D01*
X14197206Y-12095293D02*
X14187682Y-12076246D01*
X14187682Y-12076246D02*
X14187682Y-12066722D01*
X14187682Y-12066722D02*
X14197206Y-12047674D01*
X14197206Y-12047674D02*
X14216253Y-12038150D01*
X14216253Y-12038150D02*
X14244825Y-12038150D01*
X14244825Y-12038150D02*
X14263872Y-12047674D01*
X14340063Y-12247674D02*
X14349587Y-12238150D01*
X14349587Y-12238150D02*
X14368634Y-12209579D01*
X14368634Y-12209579D02*
X14378158Y-12190531D01*
X14378158Y-12190531D02*
X14387682Y-12161960D01*
X14387682Y-12161960D02*
X14397206Y-12114341D01*
X14397206Y-12114341D02*
X14397206Y-12076246D01*
X14397206Y-12076246D02*
X14387682Y-12028627D01*
X14387682Y-12028627D02*
X14378158Y-12000055D01*
X14378158Y-12000055D02*
X14368634Y-11981008D01*
X14368634Y-11981008D02*
X14349587Y-11952436D01*
X14349587Y-11952436D02*
X14340063Y-11942912D01*
D12*
X9565000Y-12344000D02*
G75*
G02*
X9485000Y-12344000I-40000J0D01*
G01*
X9485000Y-12344000D02*
G75*
G02*
X9565000Y-12344000I40000J0D01*
G01*
D11*
X9863872Y-12235484D02*
X9882920Y-12235484D01*
X9882920Y-12235484D02*
X9901967Y-12245008D01*
X9901967Y-12245008D02*
X9911491Y-12254531D01*
X9911491Y-12254531D02*
X9921015Y-12273579D01*
X9921015Y-12273579D02*
X9930539Y-12311674D01*
X9930539Y-12311674D02*
X9930539Y-12359293D01*
X9930539Y-12359293D02*
X9921015Y-12397388D01*
X9921015Y-12397388D02*
X9911491Y-12416436D01*
X9911491Y-12416436D02*
X9901967Y-12425960D01*
X9901967Y-12425960D02*
X9882920Y-12435484D01*
X9882920Y-12435484D02*
X9863872Y-12435484D01*
X9863872Y-12435484D02*
X9844824Y-12425960D01*
X9844824Y-12425960D02*
X9835301Y-12416436D01*
X9835301Y-12416436D02*
X9825777Y-12397388D01*
X9825777Y-12397388D02*
X9816253Y-12359293D01*
X9816253Y-12359293D02*
X9816253Y-12311674D01*
X9816253Y-12311674D02*
X9825777Y-12273579D01*
X9825777Y-12273579D02*
X9835301Y-12254531D01*
X9835301Y-12254531D02*
X9844824Y-12245008D01*
X9844824Y-12245008D02*
X9863872Y-12235484D01*
X10016253Y-12416436D02*
X10025777Y-12425960D01*
X10025777Y-12425960D02*
X10016253Y-12435484D01*
X10016253Y-12435484D02*
X10006729Y-12425960D01*
X10006729Y-12425960D02*
X10016253Y-12416436D01*
X10016253Y-12416436D02*
X10016253Y-12435484D01*
X10140063Y-12321198D02*
X10121015Y-12311674D01*
X10121015Y-12311674D02*
X10111491Y-12302150D01*
X10111491Y-12302150D02*
X10101967Y-12283103D01*
X10101967Y-12283103D02*
X10101967Y-12273579D01*
X10101967Y-12273579D02*
X10111491Y-12254531D01*
X10111491Y-12254531D02*
X10121015Y-12245008D01*
X10121015Y-12245008D02*
X10140063Y-12235484D01*
X10140063Y-12235484D02*
X10178158Y-12235484D01*
X10178158Y-12235484D02*
X10197205Y-12245008D01*
X10197205Y-12245008D02*
X10206729Y-12254531D01*
X10206729Y-12254531D02*
X10216253Y-12273579D01*
X10216253Y-12273579D02*
X10216253Y-12283103D01*
X10216253Y-12283103D02*
X10206729Y-12302150D01*
X10206729Y-12302150D02*
X10197205Y-12311674D01*
X10197205Y-12311674D02*
X10178158Y-12321198D01*
X10178158Y-12321198D02*
X10140063Y-12321198D01*
X10140063Y-12321198D02*
X10121015Y-12330722D01*
X10121015Y-12330722D02*
X10111491Y-12340246D01*
X10111491Y-12340246D02*
X10101967Y-12359293D01*
X10101967Y-12359293D02*
X10101967Y-12397388D01*
X10101967Y-12397388D02*
X10111491Y-12416436D01*
X10111491Y-12416436D02*
X10121015Y-12425960D01*
X10121015Y-12425960D02*
X10140063Y-12435484D01*
X10140063Y-12435484D02*
X10178158Y-12435484D01*
X10178158Y-12435484D02*
X10197205Y-12425960D01*
X10197205Y-12425960D02*
X10206729Y-12416436D01*
X10206729Y-12416436D02*
X10216253Y-12397388D01*
X10216253Y-12397388D02*
X10216253Y-12359293D01*
X10216253Y-12359293D02*
X10206729Y-12340246D01*
X10206729Y-12340246D02*
X10197205Y-12330722D01*
X10197205Y-12330722D02*
X10178158Y-12321198D01*
X10340063Y-12235484D02*
X10359110Y-12235484D01*
X10359110Y-12235484D02*
X10378158Y-12245008D01*
X10378158Y-12245008D02*
X10387682Y-12254531D01*
X10387682Y-12254531D02*
X10397205Y-12273579D01*
X10397205Y-12273579D02*
X10406729Y-12311674D01*
X10406729Y-12311674D02*
X10406729Y-12359293D01*
X10406729Y-12359293D02*
X10397205Y-12397388D01*
X10397205Y-12397388D02*
X10387682Y-12416436D01*
X10387682Y-12416436D02*
X10378158Y-12425960D01*
X10378158Y-12425960D02*
X10359110Y-12435484D01*
X10359110Y-12435484D02*
X10340063Y-12435484D01*
X10340063Y-12435484D02*
X10321015Y-12425960D01*
X10321015Y-12425960D02*
X10311491Y-12416436D01*
X10311491Y-12416436D02*
X10301967Y-12397388D01*
X10301967Y-12397388D02*
X10292444Y-12359293D01*
X10292444Y-12359293D02*
X10292444Y-12311674D01*
X10292444Y-12311674D02*
X10301967Y-12273579D01*
X10301967Y-12273579D02*
X10311491Y-12254531D01*
X10311491Y-12254531D02*
X10321015Y-12245008D01*
X10321015Y-12245008D02*
X10340063Y-12235484D01*
X10530539Y-12235484D02*
X10549586Y-12235484D01*
X10549586Y-12235484D02*
X10568634Y-12245008D01*
X10568634Y-12245008D02*
X10578158Y-12254531D01*
X10578158Y-12254531D02*
X10587682Y-12273579D01*
X10587682Y-12273579D02*
X10597205Y-12311674D01*
X10597205Y-12311674D02*
X10597205Y-12359293D01*
X10597205Y-12359293D02*
X10587682Y-12397388D01*
X10587682Y-12397388D02*
X10578158Y-12416436D01*
X10578158Y-12416436D02*
X10568634Y-12425960D01*
X10568634Y-12425960D02*
X10549586Y-12435484D01*
X10549586Y-12435484D02*
X10530539Y-12435484D01*
X10530539Y-12435484D02*
X10511491Y-12425960D01*
X10511491Y-12425960D02*
X10501967Y-12416436D01*
X10501967Y-12416436D02*
X10492444Y-12397388D01*
X10492444Y-12397388D02*
X10482920Y-12359293D01*
X10482920Y-12359293D02*
X10482920Y-12311674D01*
X10482920Y-12311674D02*
X10492444Y-12273579D01*
X10492444Y-12273579D02*
X10501967Y-12254531D01*
X10501967Y-12254531D02*
X10511491Y-12245008D01*
X10511491Y-12245008D02*
X10530539Y-12235484D01*
X10682920Y-12435484D02*
X10682920Y-12302150D01*
X10682920Y-12321198D02*
X10692444Y-12311674D01*
X10692444Y-12311674D02*
X10711491Y-12302150D01*
X10711491Y-12302150D02*
X10740063Y-12302150D01*
X10740063Y-12302150D02*
X10759110Y-12311674D01*
X10759110Y-12311674D02*
X10768634Y-12330722D01*
X10768634Y-12330722D02*
X10768634Y-12435484D01*
X10768634Y-12330722D02*
X10778158Y-12311674D01*
X10778158Y-12311674D02*
X10797205Y-12302150D01*
X10797205Y-12302150D02*
X10825777Y-12302150D01*
X10825777Y-12302150D02*
X10844825Y-12311674D01*
X10844825Y-12311674D02*
X10854348Y-12330722D01*
X10854348Y-12330722D02*
X10854348Y-12435484D01*
X10949586Y-12435484D02*
X10949586Y-12302150D01*
X10949586Y-12321198D02*
X10959110Y-12311674D01*
X10959110Y-12311674D02*
X10978158Y-12302150D01*
X10978158Y-12302150D02*
X11006729Y-12302150D01*
X11006729Y-12302150D02*
X11025777Y-12311674D01*
X11025777Y-12311674D02*
X11035301Y-12330722D01*
X11035301Y-12330722D02*
X11035301Y-12435484D01*
X11035301Y-12330722D02*
X11044825Y-12311674D01*
X11044825Y-12311674D02*
X11063872Y-12302150D01*
X11063872Y-12302150D02*
X11092444Y-12302150D01*
X11092444Y-12302150D02*
X11111491Y-12311674D01*
X11111491Y-12311674D02*
X11121015Y-12330722D01*
X11121015Y-12330722D02*
X11121015Y-12435484D01*
X11511491Y-12225960D02*
X11340063Y-12483103D01*
X11768634Y-12235484D02*
X11787682Y-12235484D01*
X11787682Y-12235484D02*
X11806729Y-12245008D01*
X11806729Y-12245008D02*
X11816253Y-12254531D01*
X11816253Y-12254531D02*
X11825777Y-12273579D01*
X11825777Y-12273579D02*
X11835301Y-12311674D01*
X11835301Y-12311674D02*
X11835301Y-12359293D01*
X11835301Y-12359293D02*
X11825777Y-12397388D01*
X11825777Y-12397388D02*
X11816253Y-12416436D01*
X11816253Y-12416436D02*
X11806729Y-12425960D01*
X11806729Y-12425960D02*
X11787682Y-12435484D01*
X11787682Y-12435484D02*
X11768634Y-12435484D01*
X11768634Y-12435484D02*
X11749586Y-12425960D01*
X11749586Y-12425960D02*
X11740063Y-12416436D01*
X11740063Y-12416436D02*
X11730539Y-12397388D01*
X11730539Y-12397388D02*
X11721015Y-12359293D01*
X11721015Y-12359293D02*
X11721015Y-12311674D01*
X11721015Y-12311674D02*
X11730539Y-12273579D01*
X11730539Y-12273579D02*
X11740063Y-12254531D01*
X11740063Y-12254531D02*
X11749586Y-12245008D01*
X11749586Y-12245008D02*
X11768634Y-12235484D01*
X11921015Y-12416436D02*
X11930539Y-12425960D01*
X11930539Y-12425960D02*
X11921015Y-12435484D01*
X11921015Y-12435484D02*
X11911491Y-12425960D01*
X11911491Y-12425960D02*
X11921015Y-12416436D01*
X11921015Y-12416436D02*
X11921015Y-12435484D01*
X12054348Y-12235484D02*
X12073396Y-12235484D01*
X12073396Y-12235484D02*
X12092444Y-12245008D01*
X12092444Y-12245008D02*
X12101967Y-12254531D01*
X12101967Y-12254531D02*
X12111491Y-12273579D01*
X12111491Y-12273579D02*
X12121015Y-12311674D01*
X12121015Y-12311674D02*
X12121015Y-12359293D01*
X12121015Y-12359293D02*
X12111491Y-12397388D01*
X12111491Y-12397388D02*
X12101967Y-12416436D01*
X12101967Y-12416436D02*
X12092444Y-12425960D01*
X12092444Y-12425960D02*
X12073396Y-12435484D01*
X12073396Y-12435484D02*
X12054348Y-12435484D01*
X12054348Y-12435484D02*
X12035301Y-12425960D01*
X12035301Y-12425960D02*
X12025777Y-12416436D01*
X12025777Y-12416436D02*
X12016253Y-12397388D01*
X12016253Y-12397388D02*
X12006729Y-12359293D01*
X12006729Y-12359293D02*
X12006729Y-12311674D01*
X12006729Y-12311674D02*
X12016253Y-12273579D01*
X12016253Y-12273579D02*
X12025777Y-12254531D01*
X12025777Y-12254531D02*
X12035301Y-12245008D01*
X12035301Y-12245008D02*
X12054348Y-12235484D01*
X12187682Y-12235484D02*
X12311491Y-12235484D01*
X12311491Y-12235484D02*
X12244825Y-12311674D01*
X12244825Y-12311674D02*
X12273396Y-12311674D01*
X12273396Y-12311674D02*
X12292444Y-12321198D01*
X12292444Y-12321198D02*
X12301967Y-12330722D01*
X12301967Y-12330722D02*
X12311491Y-12349769D01*
X12311491Y-12349769D02*
X12311491Y-12397388D01*
X12311491Y-12397388D02*
X12301967Y-12416436D01*
X12301967Y-12416436D02*
X12292444Y-12425960D01*
X12292444Y-12425960D02*
X12273396Y-12435484D01*
X12273396Y-12435484D02*
X12216253Y-12435484D01*
X12216253Y-12435484D02*
X12197206Y-12425960D01*
X12197206Y-12425960D02*
X12187682Y-12416436D01*
X12501967Y-12435484D02*
X12387682Y-12435484D01*
X12444825Y-12435484D02*
X12444825Y-12235484D01*
X12444825Y-12235484D02*
X12425777Y-12264055D01*
X12425777Y-12264055D02*
X12406729Y-12283103D01*
X12406729Y-12283103D02*
X12387682Y-12292627D01*
X12682920Y-12235484D02*
X12587682Y-12235484D01*
X12587682Y-12235484D02*
X12578158Y-12330722D01*
X12578158Y-12330722D02*
X12587682Y-12321198D01*
X12587682Y-12321198D02*
X12606729Y-12311674D01*
X12606729Y-12311674D02*
X12654348Y-12311674D01*
X12654348Y-12311674D02*
X12673396Y-12321198D01*
X12673396Y-12321198D02*
X12682920Y-12330722D01*
X12682920Y-12330722D02*
X12692444Y-12349769D01*
X12692444Y-12349769D02*
X12692444Y-12397388D01*
X12692444Y-12397388D02*
X12682920Y-12416436D01*
X12682920Y-12416436D02*
X12673396Y-12425960D01*
X12673396Y-12425960D02*
X12654348Y-12435484D01*
X12654348Y-12435484D02*
X12606729Y-12435484D01*
X12606729Y-12435484D02*
X12587682Y-12425960D01*
X12587682Y-12425960D02*
X12578158Y-12416436D01*
X12768634Y-12235484D02*
X12768634Y-12273579D01*
X12844825Y-12235484D02*
X12844825Y-12273579D01*
X13140063Y-12511674D02*
X13130539Y-12502150D01*
X13130539Y-12502150D02*
X13111491Y-12473579D01*
X13111491Y-12473579D02*
X13101968Y-12454531D01*
X13101968Y-12454531D02*
X13092444Y-12425960D01*
X13092444Y-12425960D02*
X13082920Y-12378341D01*
X13082920Y-12378341D02*
X13082920Y-12340246D01*
X13082920Y-12340246D02*
X13092444Y-12292627D01*
X13092444Y-12292627D02*
X13101968Y-12264055D01*
X13101968Y-12264055D02*
X13111491Y-12245008D01*
X13111491Y-12245008D02*
X13130539Y-12216436D01*
X13130539Y-12216436D02*
X13140063Y-12206912D01*
X13301968Y-12302150D02*
X13301968Y-12435484D01*
X13254348Y-12225960D02*
X13206729Y-12368817D01*
X13206729Y-12368817D02*
X13330539Y-12368817D01*
X13559110Y-12435484D02*
X13559110Y-12235484D01*
X13644825Y-12435484D02*
X13644825Y-12330722D01*
X13644825Y-12330722D02*
X13635301Y-12311674D01*
X13635301Y-12311674D02*
X13616253Y-12302150D01*
X13616253Y-12302150D02*
X13587682Y-12302150D01*
X13587682Y-12302150D02*
X13568634Y-12311674D01*
X13568634Y-12311674D02*
X13559110Y-12321198D01*
X13768634Y-12435484D02*
X13749587Y-12425960D01*
X13749587Y-12425960D02*
X13740063Y-12416436D01*
X13740063Y-12416436D02*
X13730539Y-12397388D01*
X13730539Y-12397388D02*
X13730539Y-12340246D01*
X13730539Y-12340246D02*
X13740063Y-12321198D01*
X13740063Y-12321198D02*
X13749587Y-12311674D01*
X13749587Y-12311674D02*
X13768634Y-12302150D01*
X13768634Y-12302150D02*
X13797206Y-12302150D01*
X13797206Y-12302150D02*
X13816253Y-12311674D01*
X13816253Y-12311674D02*
X13825777Y-12321198D01*
X13825777Y-12321198D02*
X13835301Y-12340246D01*
X13835301Y-12340246D02*
X13835301Y-12397388D01*
X13835301Y-12397388D02*
X13825777Y-12416436D01*
X13825777Y-12416436D02*
X13816253Y-12425960D01*
X13816253Y-12425960D02*
X13797206Y-12435484D01*
X13797206Y-12435484D02*
X13768634Y-12435484D01*
X13949587Y-12435484D02*
X13930539Y-12425960D01*
X13930539Y-12425960D02*
X13921015Y-12406912D01*
X13921015Y-12406912D02*
X13921015Y-12235484D01*
X14101968Y-12425960D02*
X14082920Y-12435484D01*
X14082920Y-12435484D02*
X14044825Y-12435484D01*
X14044825Y-12435484D02*
X14025777Y-12425960D01*
X14025777Y-12425960D02*
X14016253Y-12406912D01*
X14016253Y-12406912D02*
X14016253Y-12330722D01*
X14016253Y-12330722D02*
X14025777Y-12311674D01*
X14025777Y-12311674D02*
X14044825Y-12302150D01*
X14044825Y-12302150D02*
X14082920Y-12302150D01*
X14082920Y-12302150D02*
X14101968Y-12311674D01*
X14101968Y-12311674D02*
X14111491Y-12330722D01*
X14111491Y-12330722D02*
X14111491Y-12349769D01*
X14111491Y-12349769D02*
X14016253Y-12368817D01*
X14187682Y-12425960D02*
X14206730Y-12435484D01*
X14206730Y-12435484D02*
X14244825Y-12435484D01*
X14244825Y-12435484D02*
X14263872Y-12425960D01*
X14263872Y-12425960D02*
X14273396Y-12406912D01*
X14273396Y-12406912D02*
X14273396Y-12397388D01*
X14273396Y-12397388D02*
X14263872Y-12378341D01*
X14263872Y-12378341D02*
X14244825Y-12368817D01*
X14244825Y-12368817D02*
X14216253Y-12368817D01*
X14216253Y-12368817D02*
X14197206Y-12359293D01*
X14197206Y-12359293D02*
X14187682Y-12340246D01*
X14187682Y-12340246D02*
X14187682Y-12330722D01*
X14187682Y-12330722D02*
X14197206Y-12311674D01*
X14197206Y-12311674D02*
X14216253Y-12302150D01*
X14216253Y-12302150D02*
X14244825Y-12302150D01*
X14244825Y-12302150D02*
X14263872Y-12311674D01*
X14340063Y-12511674D02*
X14349587Y-12502150D01*
X14349587Y-12502150D02*
X14368634Y-12473579D01*
X14368634Y-12473579D02*
X14378158Y-12454531D01*
X14378158Y-12454531D02*
X14387682Y-12425960D01*
X14387682Y-12425960D02*
X14397206Y-12378341D01*
X14397206Y-12378341D02*
X14397206Y-12340246D01*
X14397206Y-12340246D02*
X14387682Y-12292627D01*
X14387682Y-12292627D02*
X14378158Y-12264055D01*
X14378158Y-12264055D02*
X14368634Y-12245008D01*
X14368634Y-12245008D02*
X14349587Y-12216436D01*
X14349587Y-12216436D02*
X14340063Y-12206912D01*
D12*
X9520000Y-12563000D02*
X9520000Y-12653000D01*
X9475000Y-12608000D02*
X9565000Y-12608000D01*
D11*
X9863872Y-12499484D02*
X9882920Y-12499484D01*
X9882920Y-12499484D02*
X9901967Y-12509008D01*
X9901967Y-12509008D02*
X9911491Y-12518531D01*
X9911491Y-12518531D02*
X9921015Y-12537579D01*
X9921015Y-12537579D02*
X9930539Y-12575674D01*
X9930539Y-12575674D02*
X9930539Y-12623293D01*
X9930539Y-12623293D02*
X9921015Y-12661388D01*
X9921015Y-12661388D02*
X9911491Y-12680436D01*
X9911491Y-12680436D02*
X9901967Y-12689960D01*
X9901967Y-12689960D02*
X9882920Y-12699484D01*
X9882920Y-12699484D02*
X9863872Y-12699484D01*
X9863872Y-12699484D02*
X9844824Y-12689960D01*
X9844824Y-12689960D02*
X9835301Y-12680436D01*
X9835301Y-12680436D02*
X9825777Y-12661388D01*
X9825777Y-12661388D02*
X9816253Y-12623293D01*
X9816253Y-12623293D02*
X9816253Y-12575674D01*
X9816253Y-12575674D02*
X9825777Y-12537579D01*
X9825777Y-12537579D02*
X9835301Y-12518531D01*
X9835301Y-12518531D02*
X9844824Y-12509008D01*
X9844824Y-12509008D02*
X9863872Y-12499484D01*
X10016253Y-12680436D02*
X10025777Y-12689960D01*
X10025777Y-12689960D02*
X10016253Y-12699484D01*
X10016253Y-12699484D02*
X10006729Y-12689960D01*
X10006729Y-12689960D02*
X10016253Y-12680436D01*
X10016253Y-12680436D02*
X10016253Y-12699484D01*
X10121015Y-12699484D02*
X10159110Y-12699484D01*
X10159110Y-12699484D02*
X10178158Y-12689960D01*
X10178158Y-12689960D02*
X10187682Y-12680436D01*
X10187682Y-12680436D02*
X10206729Y-12651865D01*
X10206729Y-12651865D02*
X10216253Y-12613769D01*
X10216253Y-12613769D02*
X10216253Y-12537579D01*
X10216253Y-12537579D02*
X10206729Y-12518531D01*
X10206729Y-12518531D02*
X10197205Y-12509008D01*
X10197205Y-12509008D02*
X10178158Y-12499484D01*
X10178158Y-12499484D02*
X10140063Y-12499484D01*
X10140063Y-12499484D02*
X10121015Y-12509008D01*
X10121015Y-12509008D02*
X10111491Y-12518531D01*
X10111491Y-12518531D02*
X10101967Y-12537579D01*
X10101967Y-12537579D02*
X10101967Y-12585198D01*
X10101967Y-12585198D02*
X10111491Y-12604246D01*
X10111491Y-12604246D02*
X10121015Y-12613769D01*
X10121015Y-12613769D02*
X10140063Y-12623293D01*
X10140063Y-12623293D02*
X10178158Y-12623293D01*
X10178158Y-12623293D02*
X10197205Y-12613769D01*
X10197205Y-12613769D02*
X10206729Y-12604246D01*
X10206729Y-12604246D02*
X10216253Y-12585198D01*
X10340063Y-12499484D02*
X10359110Y-12499484D01*
X10359110Y-12499484D02*
X10378158Y-12509008D01*
X10378158Y-12509008D02*
X10387682Y-12518531D01*
X10387682Y-12518531D02*
X10397205Y-12537579D01*
X10397205Y-12537579D02*
X10406729Y-12575674D01*
X10406729Y-12575674D02*
X10406729Y-12623293D01*
X10406729Y-12623293D02*
X10397205Y-12661388D01*
X10397205Y-12661388D02*
X10387682Y-12680436D01*
X10387682Y-12680436D02*
X10378158Y-12689960D01*
X10378158Y-12689960D02*
X10359110Y-12699484D01*
X10359110Y-12699484D02*
X10340063Y-12699484D01*
X10340063Y-12699484D02*
X10321015Y-12689960D01*
X10321015Y-12689960D02*
X10311491Y-12680436D01*
X10311491Y-12680436D02*
X10301967Y-12661388D01*
X10301967Y-12661388D02*
X10292444Y-12623293D01*
X10292444Y-12623293D02*
X10292444Y-12575674D01*
X10292444Y-12575674D02*
X10301967Y-12537579D01*
X10301967Y-12537579D02*
X10311491Y-12518531D01*
X10311491Y-12518531D02*
X10321015Y-12509008D01*
X10321015Y-12509008D02*
X10340063Y-12499484D01*
X10530539Y-12499484D02*
X10549586Y-12499484D01*
X10549586Y-12499484D02*
X10568634Y-12509008D01*
X10568634Y-12509008D02*
X10578158Y-12518531D01*
X10578158Y-12518531D02*
X10587682Y-12537579D01*
X10587682Y-12537579D02*
X10597205Y-12575674D01*
X10597205Y-12575674D02*
X10597205Y-12623293D01*
X10597205Y-12623293D02*
X10587682Y-12661388D01*
X10587682Y-12661388D02*
X10578158Y-12680436D01*
X10578158Y-12680436D02*
X10568634Y-12689960D01*
X10568634Y-12689960D02*
X10549586Y-12699484D01*
X10549586Y-12699484D02*
X10530539Y-12699484D01*
X10530539Y-12699484D02*
X10511491Y-12689960D01*
X10511491Y-12689960D02*
X10501967Y-12680436D01*
X10501967Y-12680436D02*
X10492444Y-12661388D01*
X10492444Y-12661388D02*
X10482920Y-12623293D01*
X10482920Y-12623293D02*
X10482920Y-12575674D01*
X10482920Y-12575674D02*
X10492444Y-12537579D01*
X10492444Y-12537579D02*
X10501967Y-12518531D01*
X10501967Y-12518531D02*
X10511491Y-12509008D01*
X10511491Y-12509008D02*
X10530539Y-12499484D01*
X10682920Y-12699484D02*
X10682920Y-12566150D01*
X10682920Y-12585198D02*
X10692444Y-12575674D01*
X10692444Y-12575674D02*
X10711491Y-12566150D01*
X10711491Y-12566150D02*
X10740063Y-12566150D01*
X10740063Y-12566150D02*
X10759110Y-12575674D01*
X10759110Y-12575674D02*
X10768634Y-12594722D01*
X10768634Y-12594722D02*
X10768634Y-12699484D01*
X10768634Y-12594722D02*
X10778158Y-12575674D01*
X10778158Y-12575674D02*
X10797205Y-12566150D01*
X10797205Y-12566150D02*
X10825777Y-12566150D01*
X10825777Y-12566150D02*
X10844825Y-12575674D01*
X10844825Y-12575674D02*
X10854348Y-12594722D01*
X10854348Y-12594722D02*
X10854348Y-12699484D01*
X10949586Y-12699484D02*
X10949586Y-12566150D01*
X10949586Y-12585198D02*
X10959110Y-12575674D01*
X10959110Y-12575674D02*
X10978158Y-12566150D01*
X10978158Y-12566150D02*
X11006729Y-12566150D01*
X11006729Y-12566150D02*
X11025777Y-12575674D01*
X11025777Y-12575674D02*
X11035301Y-12594722D01*
X11035301Y-12594722D02*
X11035301Y-12699484D01*
X11035301Y-12594722D02*
X11044825Y-12575674D01*
X11044825Y-12575674D02*
X11063872Y-12566150D01*
X11063872Y-12566150D02*
X11092444Y-12566150D01*
X11092444Y-12566150D02*
X11111491Y-12575674D01*
X11111491Y-12575674D02*
X11121015Y-12594722D01*
X11121015Y-12594722D02*
X11121015Y-12699484D01*
X11511491Y-12489960D02*
X11340063Y-12747103D01*
X11768634Y-12499484D02*
X11787682Y-12499484D01*
X11787682Y-12499484D02*
X11806729Y-12509008D01*
X11806729Y-12509008D02*
X11816253Y-12518531D01*
X11816253Y-12518531D02*
X11825777Y-12537579D01*
X11825777Y-12537579D02*
X11835301Y-12575674D01*
X11835301Y-12575674D02*
X11835301Y-12623293D01*
X11835301Y-12623293D02*
X11825777Y-12661388D01*
X11825777Y-12661388D02*
X11816253Y-12680436D01*
X11816253Y-12680436D02*
X11806729Y-12689960D01*
X11806729Y-12689960D02*
X11787682Y-12699484D01*
X11787682Y-12699484D02*
X11768634Y-12699484D01*
X11768634Y-12699484D02*
X11749586Y-12689960D01*
X11749586Y-12689960D02*
X11740063Y-12680436D01*
X11740063Y-12680436D02*
X11730539Y-12661388D01*
X11730539Y-12661388D02*
X11721015Y-12623293D01*
X11721015Y-12623293D02*
X11721015Y-12575674D01*
X11721015Y-12575674D02*
X11730539Y-12537579D01*
X11730539Y-12537579D02*
X11740063Y-12518531D01*
X11740063Y-12518531D02*
X11749586Y-12509008D01*
X11749586Y-12509008D02*
X11768634Y-12499484D01*
X11921015Y-12680436D02*
X11930539Y-12689960D01*
X11930539Y-12689960D02*
X11921015Y-12699484D01*
X11921015Y-12699484D02*
X11911491Y-12689960D01*
X11911491Y-12689960D02*
X11921015Y-12680436D01*
X11921015Y-12680436D02*
X11921015Y-12699484D01*
X12054348Y-12499484D02*
X12073396Y-12499484D01*
X12073396Y-12499484D02*
X12092444Y-12509008D01*
X12092444Y-12509008D02*
X12101967Y-12518531D01*
X12101967Y-12518531D02*
X12111491Y-12537579D01*
X12111491Y-12537579D02*
X12121015Y-12575674D01*
X12121015Y-12575674D02*
X12121015Y-12623293D01*
X12121015Y-12623293D02*
X12111491Y-12661388D01*
X12111491Y-12661388D02*
X12101967Y-12680436D01*
X12101967Y-12680436D02*
X12092444Y-12689960D01*
X12092444Y-12689960D02*
X12073396Y-12699484D01*
X12073396Y-12699484D02*
X12054348Y-12699484D01*
X12054348Y-12699484D02*
X12035301Y-12689960D01*
X12035301Y-12689960D02*
X12025777Y-12680436D01*
X12025777Y-12680436D02*
X12016253Y-12661388D01*
X12016253Y-12661388D02*
X12006729Y-12623293D01*
X12006729Y-12623293D02*
X12006729Y-12575674D01*
X12006729Y-12575674D02*
X12016253Y-12537579D01*
X12016253Y-12537579D02*
X12025777Y-12518531D01*
X12025777Y-12518531D02*
X12035301Y-12509008D01*
X12035301Y-12509008D02*
X12054348Y-12499484D01*
X12187682Y-12499484D02*
X12311491Y-12499484D01*
X12311491Y-12499484D02*
X12244825Y-12575674D01*
X12244825Y-12575674D02*
X12273396Y-12575674D01*
X12273396Y-12575674D02*
X12292444Y-12585198D01*
X12292444Y-12585198D02*
X12301967Y-12594722D01*
X12301967Y-12594722D02*
X12311491Y-12613769D01*
X12311491Y-12613769D02*
X12311491Y-12661388D01*
X12311491Y-12661388D02*
X12301967Y-12680436D01*
X12301967Y-12680436D02*
X12292444Y-12689960D01*
X12292444Y-12689960D02*
X12273396Y-12699484D01*
X12273396Y-12699484D02*
X12216253Y-12699484D01*
X12216253Y-12699484D02*
X12197206Y-12689960D01*
X12197206Y-12689960D02*
X12187682Y-12680436D01*
X12492444Y-12499484D02*
X12397206Y-12499484D01*
X12397206Y-12499484D02*
X12387682Y-12594722D01*
X12387682Y-12594722D02*
X12397206Y-12585198D01*
X12397206Y-12585198D02*
X12416253Y-12575674D01*
X12416253Y-12575674D02*
X12463872Y-12575674D01*
X12463872Y-12575674D02*
X12482920Y-12585198D01*
X12482920Y-12585198D02*
X12492444Y-12594722D01*
X12492444Y-12594722D02*
X12501967Y-12613769D01*
X12501967Y-12613769D02*
X12501967Y-12661388D01*
X12501967Y-12661388D02*
X12492444Y-12680436D01*
X12492444Y-12680436D02*
X12482920Y-12689960D01*
X12482920Y-12689960D02*
X12463872Y-12699484D01*
X12463872Y-12699484D02*
X12416253Y-12699484D01*
X12416253Y-12699484D02*
X12397206Y-12689960D01*
X12397206Y-12689960D02*
X12387682Y-12680436D01*
X12673396Y-12566150D02*
X12673396Y-12699484D01*
X12625777Y-12489960D02*
X12578158Y-12632817D01*
X12578158Y-12632817D02*
X12701967Y-12632817D01*
X12768634Y-12499484D02*
X12768634Y-12537579D01*
X12844825Y-12499484D02*
X12844825Y-12537579D01*
X13140063Y-12775674D02*
X13130539Y-12766150D01*
X13130539Y-12766150D02*
X13111491Y-12737579D01*
X13111491Y-12737579D02*
X13101968Y-12718531D01*
X13101968Y-12718531D02*
X13092444Y-12689960D01*
X13092444Y-12689960D02*
X13082920Y-12642341D01*
X13082920Y-12642341D02*
X13082920Y-12604246D01*
X13082920Y-12604246D02*
X13092444Y-12556627D01*
X13092444Y-12556627D02*
X13101968Y-12528055D01*
X13101968Y-12528055D02*
X13111491Y-12509008D01*
X13111491Y-12509008D02*
X13130539Y-12480436D01*
X13130539Y-12480436D02*
X13140063Y-12470912D01*
X13197206Y-12499484D02*
X13321015Y-12499484D01*
X13321015Y-12499484D02*
X13254348Y-12575674D01*
X13254348Y-12575674D02*
X13282920Y-12575674D01*
X13282920Y-12575674D02*
X13301968Y-12585198D01*
X13301968Y-12585198D02*
X13311491Y-12594722D01*
X13311491Y-12594722D02*
X13321015Y-12613769D01*
X13321015Y-12613769D02*
X13321015Y-12661388D01*
X13321015Y-12661388D02*
X13311491Y-12680436D01*
X13311491Y-12680436D02*
X13301968Y-12689960D01*
X13301968Y-12689960D02*
X13282920Y-12699484D01*
X13282920Y-12699484D02*
X13225777Y-12699484D01*
X13225777Y-12699484D02*
X13206729Y-12689960D01*
X13206729Y-12689960D02*
X13197206Y-12680436D01*
X13559110Y-12699484D02*
X13559110Y-12499484D01*
X13644825Y-12699484D02*
X13644825Y-12594722D01*
X13644825Y-12594722D02*
X13635301Y-12575674D01*
X13635301Y-12575674D02*
X13616253Y-12566150D01*
X13616253Y-12566150D02*
X13587682Y-12566150D01*
X13587682Y-12566150D02*
X13568634Y-12575674D01*
X13568634Y-12575674D02*
X13559110Y-12585198D01*
X13768634Y-12699484D02*
X13749587Y-12689960D01*
X13749587Y-12689960D02*
X13740063Y-12680436D01*
X13740063Y-12680436D02*
X13730539Y-12661388D01*
X13730539Y-12661388D02*
X13730539Y-12604246D01*
X13730539Y-12604246D02*
X13740063Y-12585198D01*
X13740063Y-12585198D02*
X13749587Y-12575674D01*
X13749587Y-12575674D02*
X13768634Y-12566150D01*
X13768634Y-12566150D02*
X13797206Y-12566150D01*
X13797206Y-12566150D02*
X13816253Y-12575674D01*
X13816253Y-12575674D02*
X13825777Y-12585198D01*
X13825777Y-12585198D02*
X13835301Y-12604246D01*
X13835301Y-12604246D02*
X13835301Y-12661388D01*
X13835301Y-12661388D02*
X13825777Y-12680436D01*
X13825777Y-12680436D02*
X13816253Y-12689960D01*
X13816253Y-12689960D02*
X13797206Y-12699484D01*
X13797206Y-12699484D02*
X13768634Y-12699484D01*
X13949587Y-12699484D02*
X13930539Y-12689960D01*
X13930539Y-12689960D02*
X13921015Y-12670912D01*
X13921015Y-12670912D02*
X13921015Y-12499484D01*
X14101968Y-12689960D02*
X14082920Y-12699484D01*
X14082920Y-12699484D02*
X14044825Y-12699484D01*
X14044825Y-12699484D02*
X14025777Y-12689960D01*
X14025777Y-12689960D02*
X14016253Y-12670912D01*
X14016253Y-12670912D02*
X14016253Y-12594722D01*
X14016253Y-12594722D02*
X14025777Y-12575674D01*
X14025777Y-12575674D02*
X14044825Y-12566150D01*
X14044825Y-12566150D02*
X14082920Y-12566150D01*
X14082920Y-12566150D02*
X14101968Y-12575674D01*
X14101968Y-12575674D02*
X14111491Y-12594722D01*
X14111491Y-12594722D02*
X14111491Y-12613769D01*
X14111491Y-12613769D02*
X14016253Y-12632817D01*
X14187682Y-12689960D02*
X14206730Y-12699484D01*
X14206730Y-12699484D02*
X14244825Y-12699484D01*
X14244825Y-12699484D02*
X14263872Y-12689960D01*
X14263872Y-12689960D02*
X14273396Y-12670912D01*
X14273396Y-12670912D02*
X14273396Y-12661388D01*
X14273396Y-12661388D02*
X14263872Y-12642341D01*
X14263872Y-12642341D02*
X14244825Y-12632817D01*
X14244825Y-12632817D02*
X14216253Y-12632817D01*
X14216253Y-12632817D02*
X14197206Y-12623293D01*
X14197206Y-12623293D02*
X14187682Y-12604246D01*
X14187682Y-12604246D02*
X14187682Y-12594722D01*
X14187682Y-12594722D02*
X14197206Y-12575674D01*
X14197206Y-12575674D02*
X14216253Y-12566150D01*
X14216253Y-12566150D02*
X14244825Y-12566150D01*
X14244825Y-12566150D02*
X14263872Y-12575674D01*
X14340063Y-12775674D02*
X14349587Y-12766150D01*
X14349587Y-12766150D02*
X14368634Y-12737579D01*
X14368634Y-12737579D02*
X14378158Y-12718531D01*
X14378158Y-12718531D02*
X14387682Y-12689960D01*
X14387682Y-12689960D02*
X14397206Y-12642341D01*
X14397206Y-12642341D02*
X14397206Y-12604246D01*
X14397206Y-12604246D02*
X14387682Y-12556627D01*
X14387682Y-12556627D02*
X14378158Y-12528055D01*
X14378158Y-12528055D02*
X14368634Y-12509008D01*
X14368634Y-12509008D02*
X14349587Y-12480436D01*
X14349587Y-12480436D02*
X14340063Y-12470912D01*
D13*
X9546402Y-12916902D02*
X9546402Y-12827098D01*
X9456598Y-12827098D01*
X9456598Y-12916902D01*
X9546402Y-12916902D01*
D11*
X9930539Y-12963484D02*
X9816253Y-12963484D01*
X9873396Y-12963484D02*
X9873396Y-12763484D01*
X9873396Y-12763484D02*
X9854348Y-12792055D01*
X9854348Y-12792055D02*
X9835301Y-12811103D01*
X9835301Y-12811103D02*
X9816253Y-12820627D01*
X10016253Y-12944436D02*
X10025777Y-12953960D01*
X10025777Y-12953960D02*
X10016253Y-12963484D01*
X10016253Y-12963484D02*
X10006729Y-12953960D01*
X10006729Y-12953960D02*
X10016253Y-12944436D01*
X10016253Y-12944436D02*
X10016253Y-12963484D01*
X10101967Y-12782531D02*
X10111491Y-12773008D01*
X10111491Y-12773008D02*
X10130539Y-12763484D01*
X10130539Y-12763484D02*
X10178158Y-12763484D01*
X10178158Y-12763484D02*
X10197205Y-12773008D01*
X10197205Y-12773008D02*
X10206729Y-12782531D01*
X10206729Y-12782531D02*
X10216253Y-12801579D01*
X10216253Y-12801579D02*
X10216253Y-12820627D01*
X10216253Y-12820627D02*
X10206729Y-12849198D01*
X10206729Y-12849198D02*
X10092444Y-12963484D01*
X10092444Y-12963484D02*
X10216253Y-12963484D01*
X10282920Y-12763484D02*
X10416253Y-12763484D01*
X10416253Y-12763484D02*
X10330539Y-12963484D01*
X10530539Y-12763484D02*
X10549586Y-12763484D01*
X10549586Y-12763484D02*
X10568634Y-12773008D01*
X10568634Y-12773008D02*
X10578158Y-12782531D01*
X10578158Y-12782531D02*
X10587682Y-12801579D01*
X10587682Y-12801579D02*
X10597205Y-12839674D01*
X10597205Y-12839674D02*
X10597205Y-12887293D01*
X10597205Y-12887293D02*
X10587682Y-12925388D01*
X10587682Y-12925388D02*
X10578158Y-12944436D01*
X10578158Y-12944436D02*
X10568634Y-12953960D01*
X10568634Y-12953960D02*
X10549586Y-12963484D01*
X10549586Y-12963484D02*
X10530539Y-12963484D01*
X10530539Y-12963484D02*
X10511491Y-12953960D01*
X10511491Y-12953960D02*
X10501967Y-12944436D01*
X10501967Y-12944436D02*
X10492444Y-12925388D01*
X10492444Y-12925388D02*
X10482920Y-12887293D01*
X10482920Y-12887293D02*
X10482920Y-12839674D01*
X10482920Y-12839674D02*
X10492444Y-12801579D01*
X10492444Y-12801579D02*
X10501967Y-12782531D01*
X10501967Y-12782531D02*
X10511491Y-12773008D01*
X10511491Y-12773008D02*
X10530539Y-12763484D01*
X10682920Y-12963484D02*
X10682920Y-12830150D01*
X10682920Y-12849198D02*
X10692444Y-12839674D01*
X10692444Y-12839674D02*
X10711491Y-12830150D01*
X10711491Y-12830150D02*
X10740063Y-12830150D01*
X10740063Y-12830150D02*
X10759110Y-12839674D01*
X10759110Y-12839674D02*
X10768634Y-12858722D01*
X10768634Y-12858722D02*
X10768634Y-12963484D01*
X10768634Y-12858722D02*
X10778158Y-12839674D01*
X10778158Y-12839674D02*
X10797205Y-12830150D01*
X10797205Y-12830150D02*
X10825777Y-12830150D01*
X10825777Y-12830150D02*
X10844825Y-12839674D01*
X10844825Y-12839674D02*
X10854348Y-12858722D01*
X10854348Y-12858722D02*
X10854348Y-12963484D01*
X10949586Y-12963484D02*
X10949586Y-12830150D01*
X10949586Y-12849198D02*
X10959110Y-12839674D01*
X10959110Y-12839674D02*
X10978158Y-12830150D01*
X10978158Y-12830150D02*
X11006729Y-12830150D01*
X11006729Y-12830150D02*
X11025777Y-12839674D01*
X11025777Y-12839674D02*
X11035301Y-12858722D01*
X11035301Y-12858722D02*
X11035301Y-12963484D01*
X11035301Y-12858722D02*
X11044825Y-12839674D01*
X11044825Y-12839674D02*
X11063872Y-12830150D01*
X11063872Y-12830150D02*
X11092444Y-12830150D01*
X11092444Y-12830150D02*
X11111491Y-12839674D01*
X11111491Y-12839674D02*
X11121015Y-12858722D01*
X11121015Y-12858722D02*
X11121015Y-12963484D01*
X11511491Y-12753960D02*
X11340063Y-13011103D01*
X11768634Y-12763484D02*
X11787682Y-12763484D01*
X11787682Y-12763484D02*
X11806729Y-12773008D01*
X11806729Y-12773008D02*
X11816253Y-12782531D01*
X11816253Y-12782531D02*
X11825777Y-12801579D01*
X11825777Y-12801579D02*
X11835301Y-12839674D01*
X11835301Y-12839674D02*
X11835301Y-12887293D01*
X11835301Y-12887293D02*
X11825777Y-12925388D01*
X11825777Y-12925388D02*
X11816253Y-12944436D01*
X11816253Y-12944436D02*
X11806729Y-12953960D01*
X11806729Y-12953960D02*
X11787682Y-12963484D01*
X11787682Y-12963484D02*
X11768634Y-12963484D01*
X11768634Y-12963484D02*
X11749586Y-12953960D01*
X11749586Y-12953960D02*
X11740063Y-12944436D01*
X11740063Y-12944436D02*
X11730539Y-12925388D01*
X11730539Y-12925388D02*
X11721015Y-12887293D01*
X11721015Y-12887293D02*
X11721015Y-12839674D01*
X11721015Y-12839674D02*
X11730539Y-12801579D01*
X11730539Y-12801579D02*
X11740063Y-12782531D01*
X11740063Y-12782531D02*
X11749586Y-12773008D01*
X11749586Y-12773008D02*
X11768634Y-12763484D01*
X11921015Y-12944436D02*
X11930539Y-12953960D01*
X11930539Y-12953960D02*
X11921015Y-12963484D01*
X11921015Y-12963484D02*
X11911491Y-12953960D01*
X11911491Y-12953960D02*
X11921015Y-12944436D01*
X11921015Y-12944436D02*
X11921015Y-12963484D01*
X12054348Y-12763484D02*
X12073396Y-12763484D01*
X12073396Y-12763484D02*
X12092444Y-12773008D01*
X12092444Y-12773008D02*
X12101967Y-12782531D01*
X12101967Y-12782531D02*
X12111491Y-12801579D01*
X12111491Y-12801579D02*
X12121015Y-12839674D01*
X12121015Y-12839674D02*
X12121015Y-12887293D01*
X12121015Y-12887293D02*
X12111491Y-12925388D01*
X12111491Y-12925388D02*
X12101967Y-12944436D01*
X12101967Y-12944436D02*
X12092444Y-12953960D01*
X12092444Y-12953960D02*
X12073396Y-12963484D01*
X12073396Y-12963484D02*
X12054348Y-12963484D01*
X12054348Y-12963484D02*
X12035301Y-12953960D01*
X12035301Y-12953960D02*
X12025777Y-12944436D01*
X12025777Y-12944436D02*
X12016253Y-12925388D01*
X12016253Y-12925388D02*
X12006729Y-12887293D01*
X12006729Y-12887293D02*
X12006729Y-12839674D01*
X12006729Y-12839674D02*
X12016253Y-12801579D01*
X12016253Y-12801579D02*
X12025777Y-12782531D01*
X12025777Y-12782531D02*
X12035301Y-12773008D01*
X12035301Y-12773008D02*
X12054348Y-12763484D01*
X12301967Y-12763484D02*
X12206729Y-12763484D01*
X12206729Y-12763484D02*
X12197206Y-12858722D01*
X12197206Y-12858722D02*
X12206729Y-12849198D01*
X12206729Y-12849198D02*
X12225777Y-12839674D01*
X12225777Y-12839674D02*
X12273396Y-12839674D01*
X12273396Y-12839674D02*
X12292444Y-12849198D01*
X12292444Y-12849198D02*
X12301967Y-12858722D01*
X12301967Y-12858722D02*
X12311491Y-12877769D01*
X12311491Y-12877769D02*
X12311491Y-12925388D01*
X12311491Y-12925388D02*
X12301967Y-12944436D01*
X12301967Y-12944436D02*
X12292444Y-12953960D01*
X12292444Y-12953960D02*
X12273396Y-12963484D01*
X12273396Y-12963484D02*
X12225777Y-12963484D01*
X12225777Y-12963484D02*
X12206729Y-12953960D01*
X12206729Y-12953960D02*
X12197206Y-12944436D01*
X12435301Y-12763484D02*
X12454348Y-12763484D01*
X12454348Y-12763484D02*
X12473396Y-12773008D01*
X12473396Y-12773008D02*
X12482920Y-12782531D01*
X12482920Y-12782531D02*
X12492444Y-12801579D01*
X12492444Y-12801579D02*
X12501967Y-12839674D01*
X12501967Y-12839674D02*
X12501967Y-12887293D01*
X12501967Y-12887293D02*
X12492444Y-12925388D01*
X12492444Y-12925388D02*
X12482920Y-12944436D01*
X12482920Y-12944436D02*
X12473396Y-12953960D01*
X12473396Y-12953960D02*
X12454348Y-12963484D01*
X12454348Y-12963484D02*
X12435301Y-12963484D01*
X12435301Y-12963484D02*
X12416253Y-12953960D01*
X12416253Y-12953960D02*
X12406729Y-12944436D01*
X12406729Y-12944436D02*
X12397206Y-12925388D01*
X12397206Y-12925388D02*
X12387682Y-12887293D01*
X12387682Y-12887293D02*
X12387682Y-12839674D01*
X12387682Y-12839674D02*
X12397206Y-12801579D01*
X12397206Y-12801579D02*
X12406729Y-12782531D01*
X12406729Y-12782531D02*
X12416253Y-12773008D01*
X12416253Y-12773008D02*
X12435301Y-12763484D01*
X12625777Y-12763484D02*
X12644825Y-12763484D01*
X12644825Y-12763484D02*
X12663872Y-12773008D01*
X12663872Y-12773008D02*
X12673396Y-12782531D01*
X12673396Y-12782531D02*
X12682920Y-12801579D01*
X12682920Y-12801579D02*
X12692444Y-12839674D01*
X12692444Y-12839674D02*
X12692444Y-12887293D01*
X12692444Y-12887293D02*
X12682920Y-12925388D01*
X12682920Y-12925388D02*
X12673396Y-12944436D01*
X12673396Y-12944436D02*
X12663872Y-12953960D01*
X12663872Y-12953960D02*
X12644825Y-12963484D01*
X12644825Y-12963484D02*
X12625777Y-12963484D01*
X12625777Y-12963484D02*
X12606729Y-12953960D01*
X12606729Y-12953960D02*
X12597206Y-12944436D01*
X12597206Y-12944436D02*
X12587682Y-12925388D01*
X12587682Y-12925388D02*
X12578158Y-12887293D01*
X12578158Y-12887293D02*
X12578158Y-12839674D01*
X12578158Y-12839674D02*
X12587682Y-12801579D01*
X12587682Y-12801579D02*
X12597206Y-12782531D01*
X12597206Y-12782531D02*
X12606729Y-12773008D01*
X12606729Y-12773008D02*
X12625777Y-12763484D01*
X12768634Y-12763484D02*
X12768634Y-12801579D01*
X12844825Y-12763484D02*
X12844825Y-12801579D01*
X13140063Y-13039674D02*
X13130539Y-13030150D01*
X13130539Y-13030150D02*
X13111491Y-13001579D01*
X13111491Y-13001579D02*
X13101968Y-12982531D01*
X13101968Y-12982531D02*
X13092444Y-12953960D01*
X13092444Y-12953960D02*
X13082920Y-12906341D01*
X13082920Y-12906341D02*
X13082920Y-12868246D01*
X13082920Y-12868246D02*
X13092444Y-12820627D01*
X13092444Y-12820627D02*
X13101968Y-12792055D01*
X13101968Y-12792055D02*
X13111491Y-12773008D01*
X13111491Y-12773008D02*
X13130539Y-12744436D01*
X13130539Y-12744436D02*
X13140063Y-12734912D01*
X13197206Y-12763484D02*
X13321015Y-12763484D01*
X13321015Y-12763484D02*
X13254348Y-12839674D01*
X13254348Y-12839674D02*
X13282920Y-12839674D01*
X13282920Y-12839674D02*
X13301968Y-12849198D01*
X13301968Y-12849198D02*
X13311491Y-12858722D01*
X13311491Y-12858722D02*
X13321015Y-12877769D01*
X13321015Y-12877769D02*
X13321015Y-12925388D01*
X13321015Y-12925388D02*
X13311491Y-12944436D01*
X13311491Y-12944436D02*
X13301968Y-12953960D01*
X13301968Y-12953960D02*
X13282920Y-12963484D01*
X13282920Y-12963484D02*
X13225777Y-12963484D01*
X13225777Y-12963484D02*
X13206729Y-12953960D01*
X13206729Y-12953960D02*
X13197206Y-12944436D01*
X13559110Y-12963484D02*
X13559110Y-12763484D01*
X13644825Y-12963484D02*
X13644825Y-12858722D01*
X13644825Y-12858722D02*
X13635301Y-12839674D01*
X13635301Y-12839674D02*
X13616253Y-12830150D01*
X13616253Y-12830150D02*
X13587682Y-12830150D01*
X13587682Y-12830150D02*
X13568634Y-12839674D01*
X13568634Y-12839674D02*
X13559110Y-12849198D01*
X13768634Y-12963484D02*
X13749587Y-12953960D01*
X13749587Y-12953960D02*
X13740063Y-12944436D01*
X13740063Y-12944436D02*
X13730539Y-12925388D01*
X13730539Y-12925388D02*
X13730539Y-12868246D01*
X13730539Y-12868246D02*
X13740063Y-12849198D01*
X13740063Y-12849198D02*
X13749587Y-12839674D01*
X13749587Y-12839674D02*
X13768634Y-12830150D01*
X13768634Y-12830150D02*
X13797206Y-12830150D01*
X13797206Y-12830150D02*
X13816253Y-12839674D01*
X13816253Y-12839674D02*
X13825777Y-12849198D01*
X13825777Y-12849198D02*
X13835301Y-12868246D01*
X13835301Y-12868246D02*
X13835301Y-12925388D01*
X13835301Y-12925388D02*
X13825777Y-12944436D01*
X13825777Y-12944436D02*
X13816253Y-12953960D01*
X13816253Y-12953960D02*
X13797206Y-12963484D01*
X13797206Y-12963484D02*
X13768634Y-12963484D01*
X13949587Y-12963484D02*
X13930539Y-12953960D01*
X13930539Y-12953960D02*
X13921015Y-12934912D01*
X13921015Y-12934912D02*
X13921015Y-12763484D01*
X14101968Y-12953960D02*
X14082920Y-12963484D01*
X14082920Y-12963484D02*
X14044825Y-12963484D01*
X14044825Y-12963484D02*
X14025777Y-12953960D01*
X14025777Y-12953960D02*
X14016253Y-12934912D01*
X14016253Y-12934912D02*
X14016253Y-12858722D01*
X14016253Y-12858722D02*
X14025777Y-12839674D01*
X14025777Y-12839674D02*
X14044825Y-12830150D01*
X14044825Y-12830150D02*
X14082920Y-12830150D01*
X14082920Y-12830150D02*
X14101968Y-12839674D01*
X14101968Y-12839674D02*
X14111491Y-12858722D01*
X14111491Y-12858722D02*
X14111491Y-12877769D01*
X14111491Y-12877769D02*
X14016253Y-12896817D01*
X14187682Y-12953960D02*
X14206730Y-12963484D01*
X14206730Y-12963484D02*
X14244825Y-12963484D01*
X14244825Y-12963484D02*
X14263872Y-12953960D01*
X14263872Y-12953960D02*
X14273396Y-12934912D01*
X14273396Y-12934912D02*
X14273396Y-12925388D01*
X14273396Y-12925388D02*
X14263872Y-12906341D01*
X14263872Y-12906341D02*
X14244825Y-12896817D01*
X14244825Y-12896817D02*
X14216253Y-12896817D01*
X14216253Y-12896817D02*
X14197206Y-12887293D01*
X14197206Y-12887293D02*
X14187682Y-12868246D01*
X14187682Y-12868246D02*
X14187682Y-12858722D01*
X14187682Y-12858722D02*
X14197206Y-12839674D01*
X14197206Y-12839674D02*
X14216253Y-12830150D01*
X14216253Y-12830150D02*
X14244825Y-12830150D01*
X14244825Y-12830150D02*
X14263872Y-12839674D01*
X14340063Y-13039674D02*
X14349587Y-13030150D01*
X14349587Y-13030150D02*
X14368634Y-13001579D01*
X14368634Y-13001579D02*
X14378158Y-12982531D01*
X14378158Y-12982531D02*
X14387682Y-12953960D01*
X14387682Y-12953960D02*
X14397206Y-12906341D01*
X14397206Y-12906341D02*
X14397206Y-12868246D01*
X14397206Y-12868246D02*
X14387682Y-12820627D01*
X14387682Y-12820627D02*
X14378158Y-12792055D01*
X14378158Y-12792055D02*
X14368634Y-12773008D01*
X14368634Y-12773008D02*
X14349587Y-12744436D01*
X14349587Y-12744436D02*
X14340063Y-12734912D01*
X9465000Y-13236000D02*
X9565000Y-13136000D01*
X9465000Y-13036000D01*
X9365000Y-13136000D01*
X9465000Y-13236000D01*
X9816253Y-13046531D02*
X9825777Y-13037008D01*
X9825777Y-13037008D02*
X9844824Y-13027484D01*
X9844824Y-13027484D02*
X9892444Y-13027484D01*
X9892444Y-13027484D02*
X9911491Y-13037008D01*
X9911491Y-13037008D02*
X9921015Y-13046531D01*
X9921015Y-13046531D02*
X9930539Y-13065579D01*
X9930539Y-13065579D02*
X9930539Y-13084627D01*
X9930539Y-13084627D02*
X9921015Y-13113198D01*
X9921015Y-13113198D02*
X9806729Y-13227484D01*
X9806729Y-13227484D02*
X9930539Y-13227484D01*
X10016253Y-13208436D02*
X10025777Y-13217960D01*
X10025777Y-13217960D02*
X10016253Y-13227484D01*
X10016253Y-13227484D02*
X10006729Y-13217960D01*
X10006729Y-13217960D02*
X10016253Y-13208436D01*
X10016253Y-13208436D02*
X10016253Y-13227484D01*
X10101967Y-13046531D02*
X10111491Y-13037008D01*
X10111491Y-13037008D02*
X10130539Y-13027484D01*
X10130539Y-13027484D02*
X10178158Y-13027484D01*
X10178158Y-13027484D02*
X10197205Y-13037008D01*
X10197205Y-13037008D02*
X10206729Y-13046531D01*
X10206729Y-13046531D02*
X10216253Y-13065579D01*
X10216253Y-13065579D02*
X10216253Y-13084627D01*
X10216253Y-13084627D02*
X10206729Y-13113198D01*
X10206729Y-13113198D02*
X10092444Y-13227484D01*
X10092444Y-13227484D02*
X10216253Y-13227484D01*
X10340063Y-13027484D02*
X10359110Y-13027484D01*
X10359110Y-13027484D02*
X10378158Y-13037008D01*
X10378158Y-13037008D02*
X10387682Y-13046531D01*
X10387682Y-13046531D02*
X10397205Y-13065579D01*
X10397205Y-13065579D02*
X10406729Y-13103674D01*
X10406729Y-13103674D02*
X10406729Y-13151293D01*
X10406729Y-13151293D02*
X10397205Y-13189388D01*
X10397205Y-13189388D02*
X10387682Y-13208436D01*
X10387682Y-13208436D02*
X10378158Y-13217960D01*
X10378158Y-13217960D02*
X10359110Y-13227484D01*
X10359110Y-13227484D02*
X10340063Y-13227484D01*
X10340063Y-13227484D02*
X10321015Y-13217960D01*
X10321015Y-13217960D02*
X10311491Y-13208436D01*
X10311491Y-13208436D02*
X10301967Y-13189388D01*
X10301967Y-13189388D02*
X10292444Y-13151293D01*
X10292444Y-13151293D02*
X10292444Y-13103674D01*
X10292444Y-13103674D02*
X10301967Y-13065579D01*
X10301967Y-13065579D02*
X10311491Y-13046531D01*
X10311491Y-13046531D02*
X10321015Y-13037008D01*
X10321015Y-13037008D02*
X10340063Y-13027484D01*
X10530539Y-13027484D02*
X10549586Y-13027484D01*
X10549586Y-13027484D02*
X10568634Y-13037008D01*
X10568634Y-13037008D02*
X10578158Y-13046531D01*
X10578158Y-13046531D02*
X10587682Y-13065579D01*
X10587682Y-13065579D02*
X10597205Y-13103674D01*
X10597205Y-13103674D02*
X10597205Y-13151293D01*
X10597205Y-13151293D02*
X10587682Y-13189388D01*
X10587682Y-13189388D02*
X10578158Y-13208436D01*
X10578158Y-13208436D02*
X10568634Y-13217960D01*
X10568634Y-13217960D02*
X10549586Y-13227484D01*
X10549586Y-13227484D02*
X10530539Y-13227484D01*
X10530539Y-13227484D02*
X10511491Y-13217960D01*
X10511491Y-13217960D02*
X10501967Y-13208436D01*
X10501967Y-13208436D02*
X10492444Y-13189388D01*
X10492444Y-13189388D02*
X10482920Y-13151293D01*
X10482920Y-13151293D02*
X10482920Y-13103674D01*
X10482920Y-13103674D02*
X10492444Y-13065579D01*
X10492444Y-13065579D02*
X10501967Y-13046531D01*
X10501967Y-13046531D02*
X10511491Y-13037008D01*
X10511491Y-13037008D02*
X10530539Y-13027484D01*
X10682920Y-13227484D02*
X10682920Y-13094150D01*
X10682920Y-13113198D02*
X10692444Y-13103674D01*
X10692444Y-13103674D02*
X10711491Y-13094150D01*
X10711491Y-13094150D02*
X10740063Y-13094150D01*
X10740063Y-13094150D02*
X10759110Y-13103674D01*
X10759110Y-13103674D02*
X10768634Y-13122722D01*
X10768634Y-13122722D02*
X10768634Y-13227484D01*
X10768634Y-13122722D02*
X10778158Y-13103674D01*
X10778158Y-13103674D02*
X10797205Y-13094150D01*
X10797205Y-13094150D02*
X10825777Y-13094150D01*
X10825777Y-13094150D02*
X10844825Y-13103674D01*
X10844825Y-13103674D02*
X10854348Y-13122722D01*
X10854348Y-13122722D02*
X10854348Y-13227484D01*
X10949586Y-13227484D02*
X10949586Y-13094150D01*
X10949586Y-13113198D02*
X10959110Y-13103674D01*
X10959110Y-13103674D02*
X10978158Y-13094150D01*
X10978158Y-13094150D02*
X11006729Y-13094150D01*
X11006729Y-13094150D02*
X11025777Y-13103674D01*
X11025777Y-13103674D02*
X11035301Y-13122722D01*
X11035301Y-13122722D02*
X11035301Y-13227484D01*
X11035301Y-13122722D02*
X11044825Y-13103674D01*
X11044825Y-13103674D02*
X11063872Y-13094150D01*
X11063872Y-13094150D02*
X11092444Y-13094150D01*
X11092444Y-13094150D02*
X11111491Y-13103674D01*
X11111491Y-13103674D02*
X11121015Y-13122722D01*
X11121015Y-13122722D02*
X11121015Y-13227484D01*
X11511491Y-13017960D02*
X11340063Y-13275103D01*
X11768634Y-13027484D02*
X11787682Y-13027484D01*
X11787682Y-13027484D02*
X11806729Y-13037008D01*
X11806729Y-13037008D02*
X11816253Y-13046531D01*
X11816253Y-13046531D02*
X11825777Y-13065579D01*
X11825777Y-13065579D02*
X11835301Y-13103674D01*
X11835301Y-13103674D02*
X11835301Y-13151293D01*
X11835301Y-13151293D02*
X11825777Y-13189388D01*
X11825777Y-13189388D02*
X11816253Y-13208436D01*
X11816253Y-13208436D02*
X11806729Y-13217960D01*
X11806729Y-13217960D02*
X11787682Y-13227484D01*
X11787682Y-13227484D02*
X11768634Y-13227484D01*
X11768634Y-13227484D02*
X11749586Y-13217960D01*
X11749586Y-13217960D02*
X11740063Y-13208436D01*
X11740063Y-13208436D02*
X11730539Y-13189388D01*
X11730539Y-13189388D02*
X11721015Y-13151293D01*
X11721015Y-13151293D02*
X11721015Y-13103674D01*
X11721015Y-13103674D02*
X11730539Y-13065579D01*
X11730539Y-13065579D02*
X11740063Y-13046531D01*
X11740063Y-13046531D02*
X11749586Y-13037008D01*
X11749586Y-13037008D02*
X11768634Y-13027484D01*
X11921015Y-13208436D02*
X11930539Y-13217960D01*
X11930539Y-13217960D02*
X11921015Y-13227484D01*
X11921015Y-13227484D02*
X11911491Y-13217960D01*
X11911491Y-13217960D02*
X11921015Y-13208436D01*
X11921015Y-13208436D02*
X11921015Y-13227484D01*
X12054348Y-13027484D02*
X12073396Y-13027484D01*
X12073396Y-13027484D02*
X12092444Y-13037008D01*
X12092444Y-13037008D02*
X12101967Y-13046531D01*
X12101967Y-13046531D02*
X12111491Y-13065579D01*
X12111491Y-13065579D02*
X12121015Y-13103674D01*
X12121015Y-13103674D02*
X12121015Y-13151293D01*
X12121015Y-13151293D02*
X12111491Y-13189388D01*
X12111491Y-13189388D02*
X12101967Y-13208436D01*
X12101967Y-13208436D02*
X12092444Y-13217960D01*
X12092444Y-13217960D02*
X12073396Y-13227484D01*
X12073396Y-13227484D02*
X12054348Y-13227484D01*
X12054348Y-13227484D02*
X12035301Y-13217960D01*
X12035301Y-13217960D02*
X12025777Y-13208436D01*
X12025777Y-13208436D02*
X12016253Y-13189388D01*
X12016253Y-13189388D02*
X12006729Y-13151293D01*
X12006729Y-13151293D02*
X12006729Y-13103674D01*
X12006729Y-13103674D02*
X12016253Y-13065579D01*
X12016253Y-13065579D02*
X12025777Y-13046531D01*
X12025777Y-13046531D02*
X12035301Y-13037008D01*
X12035301Y-13037008D02*
X12054348Y-13027484D01*
X12235301Y-13113198D02*
X12216253Y-13103674D01*
X12216253Y-13103674D02*
X12206729Y-13094150D01*
X12206729Y-13094150D02*
X12197206Y-13075103D01*
X12197206Y-13075103D02*
X12197206Y-13065579D01*
X12197206Y-13065579D02*
X12206729Y-13046531D01*
X12206729Y-13046531D02*
X12216253Y-13037008D01*
X12216253Y-13037008D02*
X12235301Y-13027484D01*
X12235301Y-13027484D02*
X12273396Y-13027484D01*
X12273396Y-13027484D02*
X12292444Y-13037008D01*
X12292444Y-13037008D02*
X12301967Y-13046531D01*
X12301967Y-13046531D02*
X12311491Y-13065579D01*
X12311491Y-13065579D02*
X12311491Y-13075103D01*
X12311491Y-13075103D02*
X12301967Y-13094150D01*
X12301967Y-13094150D02*
X12292444Y-13103674D01*
X12292444Y-13103674D02*
X12273396Y-13113198D01*
X12273396Y-13113198D02*
X12235301Y-13113198D01*
X12235301Y-13113198D02*
X12216253Y-13122722D01*
X12216253Y-13122722D02*
X12206729Y-13132246D01*
X12206729Y-13132246D02*
X12197206Y-13151293D01*
X12197206Y-13151293D02*
X12197206Y-13189388D01*
X12197206Y-13189388D02*
X12206729Y-13208436D01*
X12206729Y-13208436D02*
X12216253Y-13217960D01*
X12216253Y-13217960D02*
X12235301Y-13227484D01*
X12235301Y-13227484D02*
X12273396Y-13227484D01*
X12273396Y-13227484D02*
X12292444Y-13217960D01*
X12292444Y-13217960D02*
X12301967Y-13208436D01*
X12301967Y-13208436D02*
X12311491Y-13189388D01*
X12311491Y-13189388D02*
X12311491Y-13151293D01*
X12311491Y-13151293D02*
X12301967Y-13132246D01*
X12301967Y-13132246D02*
X12292444Y-13122722D01*
X12292444Y-13122722D02*
X12273396Y-13113198D01*
X12482920Y-13027484D02*
X12444825Y-13027484D01*
X12444825Y-13027484D02*
X12425777Y-13037008D01*
X12425777Y-13037008D02*
X12416253Y-13046531D01*
X12416253Y-13046531D02*
X12397206Y-13075103D01*
X12397206Y-13075103D02*
X12387682Y-13113198D01*
X12387682Y-13113198D02*
X12387682Y-13189388D01*
X12387682Y-13189388D02*
X12397206Y-13208436D01*
X12397206Y-13208436D02*
X12406729Y-13217960D01*
X12406729Y-13217960D02*
X12425777Y-13227484D01*
X12425777Y-13227484D02*
X12463872Y-13227484D01*
X12463872Y-13227484D02*
X12482920Y-13217960D01*
X12482920Y-13217960D02*
X12492444Y-13208436D01*
X12492444Y-13208436D02*
X12501967Y-13189388D01*
X12501967Y-13189388D02*
X12501967Y-13141769D01*
X12501967Y-13141769D02*
X12492444Y-13122722D01*
X12492444Y-13122722D02*
X12482920Y-13113198D01*
X12482920Y-13113198D02*
X12463872Y-13103674D01*
X12463872Y-13103674D02*
X12425777Y-13103674D01*
X12425777Y-13103674D02*
X12406729Y-13113198D01*
X12406729Y-13113198D02*
X12397206Y-13122722D01*
X12397206Y-13122722D02*
X12387682Y-13141769D01*
X12673396Y-13027484D02*
X12635301Y-13027484D01*
X12635301Y-13027484D02*
X12616253Y-13037008D01*
X12616253Y-13037008D02*
X12606729Y-13046531D01*
X12606729Y-13046531D02*
X12587682Y-13075103D01*
X12587682Y-13075103D02*
X12578158Y-13113198D01*
X12578158Y-13113198D02*
X12578158Y-13189388D01*
X12578158Y-13189388D02*
X12587682Y-13208436D01*
X12587682Y-13208436D02*
X12597206Y-13217960D01*
X12597206Y-13217960D02*
X12616253Y-13227484D01*
X12616253Y-13227484D02*
X12654348Y-13227484D01*
X12654348Y-13227484D02*
X12673396Y-13217960D01*
X12673396Y-13217960D02*
X12682920Y-13208436D01*
X12682920Y-13208436D02*
X12692444Y-13189388D01*
X12692444Y-13189388D02*
X12692444Y-13141769D01*
X12692444Y-13141769D02*
X12682920Y-13122722D01*
X12682920Y-13122722D02*
X12673396Y-13113198D01*
X12673396Y-13113198D02*
X12654348Y-13103674D01*
X12654348Y-13103674D02*
X12616253Y-13103674D01*
X12616253Y-13103674D02*
X12597206Y-13113198D01*
X12597206Y-13113198D02*
X12587682Y-13122722D01*
X12587682Y-13122722D02*
X12578158Y-13141769D01*
X12768634Y-13027484D02*
X12768634Y-13065579D01*
X12844825Y-13027484D02*
X12844825Y-13065579D01*
X13140063Y-13303674D02*
X13130539Y-13294150D01*
X13130539Y-13294150D02*
X13111491Y-13265579D01*
X13111491Y-13265579D02*
X13101968Y-13246531D01*
X13101968Y-13246531D02*
X13092444Y-13217960D01*
X13092444Y-13217960D02*
X13082920Y-13170341D01*
X13082920Y-13170341D02*
X13082920Y-13132246D01*
X13082920Y-13132246D02*
X13092444Y-13084627D01*
X13092444Y-13084627D02*
X13101968Y-13056055D01*
X13101968Y-13056055D02*
X13111491Y-13037008D01*
X13111491Y-13037008D02*
X13130539Y-13008436D01*
X13130539Y-13008436D02*
X13140063Y-12998912D01*
X13301968Y-13094150D02*
X13301968Y-13227484D01*
X13254348Y-13017960D02*
X13206729Y-13160817D01*
X13206729Y-13160817D02*
X13330539Y-13160817D01*
X13559110Y-13227484D02*
X13559110Y-13027484D01*
X13644825Y-13227484D02*
X13644825Y-13122722D01*
X13644825Y-13122722D02*
X13635301Y-13103674D01*
X13635301Y-13103674D02*
X13616253Y-13094150D01*
X13616253Y-13094150D02*
X13587682Y-13094150D01*
X13587682Y-13094150D02*
X13568634Y-13103674D01*
X13568634Y-13103674D02*
X13559110Y-13113198D01*
X13768634Y-13227484D02*
X13749587Y-13217960D01*
X13749587Y-13217960D02*
X13740063Y-13208436D01*
X13740063Y-13208436D02*
X13730539Y-13189388D01*
X13730539Y-13189388D02*
X13730539Y-13132246D01*
X13730539Y-13132246D02*
X13740063Y-13113198D01*
X13740063Y-13113198D02*
X13749587Y-13103674D01*
X13749587Y-13103674D02*
X13768634Y-13094150D01*
X13768634Y-13094150D02*
X13797206Y-13094150D01*
X13797206Y-13094150D02*
X13816253Y-13103674D01*
X13816253Y-13103674D02*
X13825777Y-13113198D01*
X13825777Y-13113198D02*
X13835301Y-13132246D01*
X13835301Y-13132246D02*
X13835301Y-13189388D01*
X13835301Y-13189388D02*
X13825777Y-13208436D01*
X13825777Y-13208436D02*
X13816253Y-13217960D01*
X13816253Y-13217960D02*
X13797206Y-13227484D01*
X13797206Y-13227484D02*
X13768634Y-13227484D01*
X13949587Y-13227484D02*
X13930539Y-13217960D01*
X13930539Y-13217960D02*
X13921015Y-13198912D01*
X13921015Y-13198912D02*
X13921015Y-13027484D01*
X14101968Y-13217960D02*
X14082920Y-13227484D01*
X14082920Y-13227484D02*
X14044825Y-13227484D01*
X14044825Y-13227484D02*
X14025777Y-13217960D01*
X14025777Y-13217960D02*
X14016253Y-13198912D01*
X14016253Y-13198912D02*
X14016253Y-13122722D01*
X14016253Y-13122722D02*
X14025777Y-13103674D01*
X14025777Y-13103674D02*
X14044825Y-13094150D01*
X14044825Y-13094150D02*
X14082920Y-13094150D01*
X14082920Y-13094150D02*
X14101968Y-13103674D01*
X14101968Y-13103674D02*
X14111491Y-13122722D01*
X14111491Y-13122722D02*
X14111491Y-13141769D01*
X14111491Y-13141769D02*
X14016253Y-13160817D01*
X14187682Y-13217960D02*
X14206730Y-13227484D01*
X14206730Y-13227484D02*
X14244825Y-13227484D01*
X14244825Y-13227484D02*
X14263872Y-13217960D01*
X14263872Y-13217960D02*
X14273396Y-13198912D01*
X14273396Y-13198912D02*
X14273396Y-13189388D01*
X14273396Y-13189388D02*
X14263872Y-13170341D01*
X14263872Y-13170341D02*
X14244825Y-13160817D01*
X14244825Y-13160817D02*
X14216253Y-13160817D01*
X14216253Y-13160817D02*
X14197206Y-13151293D01*
X14197206Y-13151293D02*
X14187682Y-13132246D01*
X14187682Y-13132246D02*
X14187682Y-13122722D01*
X14187682Y-13122722D02*
X14197206Y-13103674D01*
X14197206Y-13103674D02*
X14216253Y-13094150D01*
X14216253Y-13094150D02*
X14244825Y-13094150D01*
X14244825Y-13094150D02*
X14263872Y-13103674D01*
X14340063Y-13303674D02*
X14349587Y-13294150D01*
X14349587Y-13294150D02*
X14368634Y-13265579D01*
X14368634Y-13265579D02*
X14378158Y-13246531D01*
X14378158Y-13246531D02*
X14387682Y-13217960D01*
X14387682Y-13217960D02*
X14397206Y-13170341D01*
X14397206Y-13170341D02*
X14397206Y-13132246D01*
X14397206Y-13132246D02*
X14387682Y-13084627D01*
X14387682Y-13084627D02*
X14378158Y-13056055D01*
X14378158Y-13056055D02*
X14368634Y-13037008D01*
X14368634Y-13037008D02*
X14349587Y-13008436D01*
X14349587Y-13008436D02*
X14340063Y-12998912D01*
M02*
