%TF.GenerationSoftware,KiCad,Pcbnew,8.0.1*%
%TF.CreationDate,2024-11-30T19:40:22+00:00*%
%TF.ProjectId,Heating Element,48656174-696e-4672-9045-6c656d656e74,1*%
%TF.SameCoordinates,Original*%
%TF.FileFunction,Copper,L2,Bot*%
%TF.FilePolarity,Positive*%
%FSLAX46Y46*%
G04 Gerber Fmt 4.6, Leading zero omitted, Abs format (unit mm)*
G04 Created by KiCad (PCBNEW 8.0.1) date 2024-11-30 19:40:22*
%MOMM*%
%LPD*%
G01*
G04 APERTURE LIST*
%TA.AperFunction,ComponentPad*%
%ADD10C,3.800000*%
%TD*%
%TA.AperFunction,ComponentPad*%
%ADD11C,1.800000*%
%TD*%
%TA.AperFunction,ComponentPad*%
%ADD12R,1.350000X1.350000*%
%TD*%
%TA.AperFunction,ComponentPad*%
%ADD13O,1.350000X1.350000*%
%TD*%
%TA.AperFunction,ComponentPad*%
%ADD14R,1.910000X1.910000*%
%TD*%
%TA.AperFunction,ComponentPad*%
%ADD15C,1.910000*%
%TD*%
%TA.AperFunction,ViaPad*%
%ADD16C,0.600000*%
%TD*%
%TA.AperFunction,Conductor*%
%ADD17C,0.200000*%
%TD*%
G04 APERTURE END LIST*
D10*
%TO.P,H4,1*%
%TO.N,N/C*%
X136175000Y-111150000D03*
%TD*%
%TO.P,H3,1*%
%TO.N,N/C*%
X99009200Y-111150000D03*
%TD*%
%TO.P,H2,1*%
%TO.N,N/C*%
X136175000Y-80517200D03*
%TD*%
%TO.P,H1,1*%
%TO.N,N/C*%
X99009200Y-80517200D03*
%TD*%
D11*
%TO.P,TP1,1,1*%
%TO.N,/VG*%
X112530000Y-92400000D03*
%TD*%
D12*
%TO.P,J1,1,Pin_1*%
%TO.N,/PWM input*%
X99560000Y-94680000D03*
D13*
%TO.P,J1,2,Pin_2*%
%TO.N,GND*%
X99560000Y-96680000D03*
%TD*%
D11*
%TO.P,TP3,1,1*%
%TO.N,/+15V*%
X113050000Y-103620000D03*
%TD*%
%TO.P,TP2,1,1*%
%TO.N,GND*%
X112680000Y-98310000D03*
%TD*%
D14*
%TO.P,U1,1*%
%TO.N,/VG*%
X118540000Y-109400000D03*
D15*
%TO.P,U1,2*%
%TO.N,/Vdrain*%
X116000000Y-109400000D03*
%TO.P,U1,3*%
%TO.N,GND*%
X113460000Y-109400000D03*
%TD*%
D12*
%TO.P,J2,1,Pin_1*%
%TO.N,+24V*%
X136042400Y-96129600D03*
D13*
%TO.P,J2,2,Pin_2*%
%TO.N,/Vdrain*%
X136042400Y-98129600D03*
%TD*%
D16*
%TO.N,GND*%
X129946000Y-98850700D03*
X120951000Y-85345000D03*
X97300000Y-100525000D03*
X120266000Y-93123700D03*
X124896000Y-107506000D03*
X103042000Y-87849200D03*
X102624000Y-95987200D03*
X126045000Y-87396700D03*
%TD*%
D17*
%TO.N,/VG*%
X118540000Y-98410000D02*
X118540000Y-109400000D01*
X112530000Y-92400000D02*
X118540000Y-98410000D01*
%TD*%
%TA.AperFunction,Conductor*%
%TO.N,GND*%
G36*
X134724228Y-78395185D02*
G01*
X134769983Y-78447989D01*
X134779927Y-78517147D01*
X134750902Y-78580703D01*
X134730074Y-78599818D01*
X134641846Y-78663919D01*
X134641836Y-78663927D01*
X134421652Y-78870694D01*
X134229111Y-79103436D01*
X134067268Y-79358461D01*
X134067265Y-79358467D01*
X133938661Y-79631763D01*
X133938659Y-79631768D01*
X133845320Y-79919035D01*
X133788719Y-80215746D01*
X133788718Y-80215753D01*
X133769754Y-80517194D01*
X133769754Y-80517205D01*
X133788718Y-80818646D01*
X133788719Y-80818653D01*
X133845320Y-81115364D01*
X133938659Y-81402631D01*
X133938661Y-81402636D01*
X134067265Y-81675932D01*
X134067268Y-81675938D01*
X134229111Y-81930963D01*
X134421652Y-82163705D01*
X134641836Y-82370472D01*
X134641846Y-82370480D01*
X134886193Y-82548008D01*
X134886198Y-82548010D01*
X134886205Y-82548016D01*
X135150896Y-82693532D01*
X135150901Y-82693534D01*
X135150903Y-82693535D01*
X135150904Y-82693536D01*
X135431734Y-82804724D01*
X135431737Y-82804725D01*
X135529259Y-82829764D01*
X135724302Y-82879842D01*
X135871039Y-82898379D01*
X136023963Y-82917699D01*
X136023969Y-82917699D01*
X136023973Y-82917700D01*
X136023975Y-82917700D01*
X136326025Y-82917700D01*
X136326027Y-82917700D01*
X136326032Y-82917699D01*
X136326036Y-82917699D01*
X136405591Y-82907648D01*
X136625698Y-82879842D01*
X136918262Y-82804725D01*
X136918265Y-82804724D01*
X137199095Y-82693536D01*
X137199096Y-82693535D01*
X137199094Y-82693535D01*
X137199104Y-82693532D01*
X137463795Y-82548016D01*
X137708162Y-82370474D01*
X137928349Y-82163704D01*
X138120885Y-81930968D01*
X138282733Y-81675936D01*
X138411341Y-81402630D01*
X138432569Y-81337296D01*
X138472006Y-81279622D01*
X138536365Y-81252423D01*
X138605211Y-81264338D01*
X138656687Y-81311582D01*
X138674500Y-81375615D01*
X138674500Y-110291584D01*
X138654815Y-110358623D01*
X138602011Y-110404378D01*
X138532853Y-110414322D01*
X138469297Y-110385297D01*
X138432569Y-110329902D01*
X138411340Y-110264568D01*
X138411338Y-110264563D01*
X138357765Y-110150716D01*
X138282733Y-109991264D01*
X138164393Y-109804789D01*
X138120888Y-109736236D01*
X138120885Y-109736232D01*
X137928349Y-109503496D01*
X137708162Y-109296726D01*
X137708159Y-109296724D01*
X137708153Y-109296719D01*
X137463806Y-109119191D01*
X137463799Y-109119186D01*
X137463795Y-109119184D01*
X137199104Y-108973668D01*
X137199101Y-108973666D01*
X137199096Y-108973664D01*
X137199095Y-108973663D01*
X136918265Y-108862475D01*
X136918262Y-108862474D01*
X136625695Y-108787357D01*
X136326036Y-108749500D01*
X136326027Y-108749500D01*
X136023973Y-108749500D01*
X136023963Y-108749500D01*
X135724304Y-108787357D01*
X135431737Y-108862474D01*
X135431734Y-108862475D01*
X135150904Y-108973663D01*
X135150903Y-108973664D01*
X134886205Y-109119184D01*
X134886193Y-109119191D01*
X134641846Y-109296719D01*
X134641836Y-109296727D01*
X134421652Y-109503494D01*
X134229111Y-109736236D01*
X134067268Y-109991261D01*
X134067265Y-109991267D01*
X133938661Y-110264563D01*
X133938659Y-110264568D01*
X133845320Y-110551835D01*
X133788719Y-110848546D01*
X133788718Y-110848553D01*
X133769754Y-111149994D01*
X133769754Y-111150005D01*
X133788718Y-111451446D01*
X133788719Y-111451453D01*
X133845320Y-111748164D01*
X133938659Y-112035431D01*
X133938661Y-112035436D01*
X134067265Y-112308732D01*
X134067268Y-112308738D01*
X134229111Y-112563763D01*
X134421652Y-112796505D01*
X134641836Y-113003272D01*
X134641846Y-113003280D01*
X134844039Y-113150182D01*
X134886705Y-113205512D01*
X134892684Y-113275125D01*
X134860078Y-113336920D01*
X134799240Y-113371277D01*
X134771154Y-113374500D01*
X100413046Y-113374500D01*
X100346007Y-113354815D01*
X100300252Y-113302011D01*
X100290308Y-113232853D01*
X100319333Y-113169297D01*
X100340161Y-113150182D01*
X100480288Y-113048372D01*
X100542362Y-113003274D01*
X100762549Y-112796504D01*
X100955085Y-112563768D01*
X101116933Y-112308736D01*
X101245541Y-112035430D01*
X101338881Y-111748160D01*
X101395480Y-111451457D01*
X101414446Y-111150000D01*
X101395886Y-110855000D01*
X101395481Y-110848553D01*
X101395480Y-110848546D01*
X101395480Y-110848543D01*
X101338881Y-110551840D01*
X101245541Y-110264570D01*
X101229428Y-110230329D01*
X101191965Y-110150716D01*
X101116933Y-109991264D01*
X100998593Y-109804789D01*
X100955088Y-109736236D01*
X100955085Y-109736232D01*
X100762549Y-109503496D01*
X100542362Y-109296726D01*
X100542359Y-109296724D01*
X100542353Y-109296719D01*
X100298006Y-109119191D01*
X100297999Y-109119186D01*
X100297995Y-109119184D01*
X100033304Y-108973668D01*
X100033301Y-108973666D01*
X100033296Y-108973664D01*
X100033295Y-108973663D01*
X99752465Y-108862475D01*
X99752462Y-108862474D01*
X99459895Y-108787357D01*
X99160236Y-108749500D01*
X99160227Y-108749500D01*
X98858173Y-108749500D01*
X98858163Y-108749500D01*
X98558504Y-108787357D01*
X98265937Y-108862474D01*
X98265934Y-108862475D01*
X97985104Y-108973663D01*
X97985103Y-108973664D01*
X97720405Y-109119184D01*
X97720393Y-109119191D01*
X97476046Y-109296719D01*
X97476036Y-109296727D01*
X97255852Y-109503494D01*
X97063311Y-109736236D01*
X96904197Y-109986962D01*
X96851655Y-110033018D01*
X96782555Y-110043357D01*
X96718834Y-110014695D01*
X96680724Y-109956134D01*
X96675500Y-109920520D01*
X96675500Y-103620006D01*
X111644700Y-103620006D01*
X111663864Y-103851297D01*
X111663866Y-103851308D01*
X111720842Y-104076300D01*
X111814075Y-104288848D01*
X111941016Y-104483147D01*
X111941019Y-104483151D01*
X111941021Y-104483153D01*
X112098216Y-104653913D01*
X112098219Y-104653915D01*
X112098222Y-104653918D01*
X112281365Y-104796464D01*
X112281371Y-104796468D01*
X112281374Y-104796470D01*
X112485497Y-104906936D01*
X112599487Y-104946068D01*
X112705015Y-104982297D01*
X112705017Y-104982297D01*
X112705019Y-104982298D01*
X112933951Y-105020500D01*
X112933952Y-105020500D01*
X113166048Y-105020500D01*
X113166049Y-105020500D01*
X113394981Y-104982298D01*
X113614503Y-104906936D01*
X113818626Y-104796470D01*
X114001784Y-104653913D01*
X114158979Y-104483153D01*
X114285924Y-104288849D01*
X114379157Y-104076300D01*
X114436134Y-103851305D01*
X114455300Y-103620000D01*
X114455300Y-103619993D01*
X114436135Y-103388702D01*
X114436133Y-103388691D01*
X114379157Y-103163699D01*
X114285924Y-102951151D01*
X114158983Y-102756852D01*
X114158980Y-102756849D01*
X114158979Y-102756847D01*
X114001784Y-102586087D01*
X114001779Y-102586083D01*
X114001777Y-102586081D01*
X113818634Y-102443535D01*
X113818628Y-102443531D01*
X113614504Y-102333064D01*
X113614495Y-102333061D01*
X113394984Y-102257702D01*
X113223282Y-102229050D01*
X113166049Y-102219500D01*
X112933951Y-102219500D01*
X112888164Y-102227140D01*
X112705015Y-102257702D01*
X112485504Y-102333061D01*
X112485495Y-102333064D01*
X112281371Y-102443531D01*
X112281365Y-102443535D01*
X112098222Y-102586081D01*
X112098219Y-102586084D01*
X111941016Y-102756852D01*
X111814075Y-102951151D01*
X111720842Y-103163699D01*
X111663866Y-103388691D01*
X111663864Y-103388702D01*
X111644700Y-103619993D01*
X111644700Y-103620006D01*
X96675500Y-103620006D01*
X96675500Y-98310005D01*
X111275202Y-98310005D01*
X111294361Y-98541218D01*
X111351317Y-98766135D01*
X111444515Y-98978606D01*
X111528812Y-99107633D01*
X112237861Y-98398584D01*
X112260667Y-98483694D01*
X112319910Y-98586306D01*
X112403694Y-98670090D01*
X112506306Y-98729333D01*
X112591414Y-98752138D01*
X111881201Y-99462351D01*
X111911649Y-99486050D01*
X112115697Y-99596476D01*
X112115706Y-99596479D01*
X112335139Y-99671811D01*
X112563993Y-99710000D01*
X112796007Y-99710000D01*
X113024860Y-99671811D01*
X113244293Y-99596479D01*
X113244301Y-99596476D01*
X113448355Y-99486047D01*
X113478797Y-99462351D01*
X113478798Y-99462350D01*
X112768585Y-98752137D01*
X112853694Y-98729333D01*
X112956306Y-98670090D01*
X113040090Y-98586306D01*
X113099333Y-98483694D01*
X113122138Y-98398585D01*
X113831186Y-99107633D01*
X113915482Y-98978611D01*
X114008682Y-98766135D01*
X114065638Y-98541218D01*
X114084798Y-98310005D01*
X114084798Y-98309994D01*
X114065638Y-98078781D01*
X114008682Y-97853864D01*
X113915484Y-97641393D01*
X113831186Y-97512365D01*
X113122137Y-98221414D01*
X113099333Y-98136306D01*
X113040090Y-98033694D01*
X112956306Y-97949910D01*
X112853694Y-97890667D01*
X112768584Y-97867861D01*
X113478797Y-97157647D01*
X113478797Y-97157645D01*
X113448360Y-97133955D01*
X113448354Y-97133951D01*
X113244302Y-97023523D01*
X113244293Y-97023520D01*
X113024860Y-96948188D01*
X112796007Y-96910000D01*
X112563993Y-96910000D01*
X112335139Y-96948188D01*
X112115706Y-97023520D01*
X112115697Y-97023523D01*
X111911650Y-97133949D01*
X111881200Y-97157647D01*
X112591415Y-97867861D01*
X112506306Y-97890667D01*
X112403694Y-97949910D01*
X112319910Y-98033694D01*
X112260667Y-98136306D01*
X112237861Y-98221415D01*
X111528811Y-97512365D01*
X111444516Y-97641390D01*
X111351317Y-97853864D01*
X111294361Y-98078781D01*
X111275202Y-98309994D01*
X111275202Y-98310005D01*
X96675500Y-98310005D01*
X96675500Y-95402870D01*
X98384500Y-95402870D01*
X98384501Y-95402876D01*
X98390908Y-95462483D01*
X98441202Y-95597328D01*
X98441206Y-95597335D01*
X98527452Y-95712544D01*
X98527455Y-95712547D01*
X98613504Y-95776964D01*
X98655375Y-95832898D01*
X98660359Y-95902589D01*
X98638148Y-95950956D01*
X98556714Y-96058792D01*
X98459651Y-96253719D01*
X98409494Y-96429999D01*
X98409495Y-96430000D01*
X99244314Y-96430000D01*
X99239920Y-96434394D01*
X99187259Y-96525606D01*
X99160000Y-96627339D01*
X99160000Y-96732661D01*
X99187259Y-96834394D01*
X99239920Y-96925606D01*
X99244314Y-96930000D01*
X98409495Y-96930000D01*
X98459651Y-97106280D01*
X98556715Y-97301208D01*
X98687945Y-97474985D01*
X98848868Y-97621685D01*
X99034012Y-97736322D01*
X99034023Y-97736327D01*
X99237060Y-97814984D01*
X99310000Y-97828619D01*
X99310000Y-96995686D01*
X99314394Y-97000080D01*
X99405606Y-97052741D01*
X99507339Y-97080000D01*
X99612661Y-97080000D01*
X99714394Y-97052741D01*
X99805606Y-97000080D01*
X99810000Y-96995686D01*
X99810000Y-97828619D01*
X99882939Y-97814984D01*
X100085976Y-97736327D01*
X100085987Y-97736322D01*
X100271130Y-97621685D01*
X100271131Y-97621685D01*
X100432054Y-97474985D01*
X100563284Y-97301208D01*
X100660348Y-97106280D01*
X100710505Y-96930000D01*
X99875686Y-96930000D01*
X99880080Y-96925606D01*
X99932741Y-96834394D01*
X99960000Y-96732661D01*
X99960000Y-96627339D01*
X99932741Y-96525606D01*
X99880080Y-96434394D01*
X99875686Y-96430000D01*
X100710505Y-96430000D01*
X100710505Y-96429999D01*
X100660348Y-96253719D01*
X100563284Y-96058791D01*
X100481852Y-95950957D01*
X100457160Y-95885595D01*
X100471725Y-95817261D01*
X100506493Y-95776965D01*
X100592546Y-95712546D01*
X100678796Y-95597331D01*
X100729091Y-95462483D01*
X100735500Y-95402873D01*
X100735499Y-93957128D01*
X100729091Y-93897517D01*
X100678796Y-93762669D01*
X100678795Y-93762668D01*
X100678793Y-93762664D01*
X100592547Y-93647455D01*
X100592544Y-93647452D01*
X100477335Y-93561206D01*
X100477328Y-93561202D01*
X100342482Y-93510908D01*
X100342483Y-93510908D01*
X100282883Y-93504501D01*
X100282881Y-93504500D01*
X100282873Y-93504500D01*
X100282864Y-93504500D01*
X98837129Y-93504500D01*
X98837123Y-93504501D01*
X98777516Y-93510908D01*
X98642671Y-93561202D01*
X98642664Y-93561206D01*
X98527455Y-93647452D01*
X98527452Y-93647455D01*
X98441206Y-93762664D01*
X98441202Y-93762671D01*
X98390908Y-93897517D01*
X98384501Y-93957116D01*
X98384501Y-93957123D01*
X98384500Y-93957135D01*
X98384500Y-95402870D01*
X96675500Y-95402870D01*
X96675500Y-92400006D01*
X111124700Y-92400006D01*
X111143864Y-92631297D01*
X111143866Y-92631308D01*
X111200842Y-92856300D01*
X111294075Y-93068848D01*
X111421016Y-93263147D01*
X111421019Y-93263151D01*
X111421021Y-93263153D01*
X111578216Y-93433913D01*
X111578219Y-93433915D01*
X111578222Y-93433918D01*
X111761365Y-93576464D01*
X111761371Y-93576468D01*
X111761374Y-93576470D01*
X111965497Y-93686936D01*
X112079487Y-93726068D01*
X112185015Y-93762297D01*
X112185017Y-93762297D01*
X112185019Y-93762298D01*
X112413951Y-93800500D01*
X112413952Y-93800500D01*
X112646048Y-93800500D01*
X112646049Y-93800500D01*
X112874981Y-93762298D01*
X112926897Y-93744474D01*
X112996693Y-93741324D01*
X113054840Y-93774075D01*
X117903181Y-98622416D01*
X117936666Y-98683739D01*
X117939500Y-98710097D01*
X117939500Y-107820500D01*
X117919815Y-107887539D01*
X117867011Y-107933294D01*
X117815500Y-107944500D01*
X117537130Y-107944500D01*
X117537123Y-107944501D01*
X117477516Y-107950908D01*
X117342671Y-108001202D01*
X117342664Y-108001206D01*
X117227455Y-108087452D01*
X117227452Y-108087455D01*
X117141206Y-108202664D01*
X117141202Y-108202672D01*
X117130528Y-108231289D01*
X117088655Y-108287222D01*
X117023190Y-108311637D01*
X116954918Y-108296784D01*
X116938185Y-108285806D01*
X116798819Y-108177333D01*
X116798808Y-108177326D01*
X116586677Y-108062527D01*
X116586674Y-108062525D01*
X116586671Y-108062524D01*
X116586668Y-108062523D01*
X116586666Y-108062522D01*
X116358531Y-107984203D01*
X116159006Y-107950908D01*
X116120606Y-107944500D01*
X115879394Y-107944500D01*
X115840994Y-107950908D01*
X115641468Y-107984203D01*
X115413333Y-108062522D01*
X115413322Y-108062527D01*
X115201191Y-108177326D01*
X115201180Y-108177333D01*
X115010844Y-108325478D01*
X115010841Y-108325481D01*
X114847472Y-108502947D01*
X114833510Y-108524318D01*
X114780363Y-108569674D01*
X114711131Y-108579097D01*
X114682895Y-108565944D01*
X114650924Y-108562628D01*
X114049560Y-109163991D01*
X114022729Y-109099215D01*
X113953236Y-108995211D01*
X113864789Y-108906764D01*
X113760785Y-108837271D01*
X113696007Y-108810438D01*
X114297989Y-108208455D01*
X114297989Y-108208454D01*
X114258538Y-108177749D01*
X114046471Y-108062983D01*
X114046462Y-108062980D01*
X113818408Y-107984688D01*
X113580565Y-107945000D01*
X113339435Y-107945000D01*
X113101591Y-107984688D01*
X112873537Y-108062980D01*
X112873529Y-108062983D01*
X112661455Y-108177753D01*
X112622009Y-108208453D01*
X112622008Y-108208455D01*
X113223992Y-108810438D01*
X113159215Y-108837271D01*
X113055211Y-108906764D01*
X112966764Y-108995211D01*
X112897271Y-109099215D01*
X112870438Y-109163992D01*
X112269074Y-108562628D01*
X112175979Y-108705123D01*
X112079118Y-108925942D01*
X112019924Y-109159697D01*
X112000013Y-109399993D01*
X112000013Y-109400006D01*
X112019924Y-109640302D01*
X112079118Y-109874057D01*
X112175979Y-110094876D01*
X112269074Y-110237369D01*
X112870438Y-109636006D01*
X112897271Y-109700785D01*
X112966764Y-109804789D01*
X113055211Y-109893236D01*
X113159215Y-109962729D01*
X113223991Y-109989560D01*
X112622009Y-110591543D01*
X112622009Y-110591545D01*
X112661454Y-110622246D01*
X112661460Y-110622250D01*
X112873528Y-110737016D01*
X112873537Y-110737019D01*
X113101591Y-110815311D01*
X113339435Y-110855000D01*
X113580565Y-110855000D01*
X113818408Y-110815311D01*
X114046462Y-110737019D01*
X114046471Y-110737016D01*
X114258538Y-110622250D01*
X114297989Y-110591544D01*
X114297989Y-110591543D01*
X113696008Y-109989560D01*
X113760785Y-109962729D01*
X113864789Y-109893236D01*
X113953236Y-109804789D01*
X114022729Y-109700785D01*
X114049560Y-109636007D01*
X114650924Y-110237370D01*
X114673527Y-110235026D01*
X114679031Y-110230329D01*
X114748261Y-110220901D01*
X114811599Y-110250398D01*
X114833508Y-110275680D01*
X114847470Y-110297050D01*
X115010838Y-110474516D01*
X115010841Y-110474518D01*
X115010844Y-110474521D01*
X115201180Y-110622666D01*
X115201187Y-110622670D01*
X115201189Y-110622672D01*
X115413329Y-110737476D01*
X115641471Y-110815797D01*
X115879394Y-110855500D01*
X115879395Y-110855500D01*
X116120605Y-110855500D01*
X116120606Y-110855500D01*
X116358529Y-110815797D01*
X116586671Y-110737476D01*
X116798811Y-110622672D01*
X116938185Y-110514192D01*
X117003178Y-110488550D01*
X117071718Y-110502116D01*
X117122043Y-110550584D01*
X117130528Y-110568711D01*
X117141201Y-110597325D01*
X117141206Y-110597335D01*
X117227452Y-110712544D01*
X117227455Y-110712547D01*
X117342664Y-110798793D01*
X117342671Y-110798797D01*
X117477517Y-110849091D01*
X117477516Y-110849091D01*
X117484444Y-110849835D01*
X117537127Y-110855500D01*
X119542872Y-110855499D01*
X119602483Y-110849091D01*
X119737331Y-110798796D01*
X119852546Y-110712546D01*
X119938796Y-110597331D01*
X119989091Y-110462483D01*
X119995500Y-110402873D01*
X119995499Y-108397128D01*
X119989091Y-108337517D01*
X119979438Y-108311637D01*
X119938797Y-108202671D01*
X119938793Y-108202664D01*
X119852547Y-108087455D01*
X119852544Y-108087452D01*
X119737335Y-108001206D01*
X119737328Y-108001202D01*
X119602482Y-107950908D01*
X119602483Y-107950908D01*
X119542883Y-107944501D01*
X119542881Y-107944500D01*
X119542873Y-107944500D01*
X119542865Y-107944500D01*
X119264500Y-107944500D01*
X119197461Y-107924815D01*
X119151706Y-107872011D01*
X119140500Y-107820500D01*
X119140500Y-98499060D01*
X119140501Y-98499047D01*
X119140501Y-98330944D01*
X119140501Y-98330943D01*
X119099577Y-98178216D01*
X119099573Y-98178209D01*
X119071509Y-98129600D01*
X134861864Y-98129600D01*
X134881964Y-98346518D01*
X134881964Y-98346520D01*
X134881965Y-98346523D01*
X134941583Y-98556059D01*
X134941584Y-98556062D01*
X134998364Y-98670090D01*
X135038688Y-98751072D01*
X135169973Y-98924922D01*
X135330968Y-99071688D01*
X135330975Y-99071692D01*
X135330976Y-99071693D01*
X135516186Y-99186370D01*
X135516192Y-99186373D01*
X135539064Y-99195233D01*
X135719331Y-99265070D01*
X135933474Y-99305100D01*
X135933476Y-99305100D01*
X136151324Y-99305100D01*
X136151326Y-99305100D01*
X136365469Y-99265070D01*
X136568610Y-99186372D01*
X136753832Y-99071688D01*
X136914827Y-98924922D01*
X137046112Y-98751072D01*
X137143217Y-98556059D01*
X137202835Y-98346523D01*
X137222936Y-98129600D01*
X137202835Y-97912677D01*
X137143217Y-97703141D01*
X137046112Y-97508128D01*
X136964651Y-97400256D01*
X136939960Y-97334897D01*
X136954525Y-97266562D01*
X136989295Y-97226265D01*
X137036945Y-97190593D01*
X137074946Y-97162146D01*
X137161196Y-97046931D01*
X137211491Y-96912083D01*
X137217900Y-96852473D01*
X137217899Y-95406728D01*
X137211491Y-95347117D01*
X137161196Y-95212269D01*
X137161195Y-95212268D01*
X137161193Y-95212264D01*
X137074947Y-95097055D01*
X137074944Y-95097052D01*
X136959735Y-95010806D01*
X136959728Y-95010802D01*
X136824882Y-94960508D01*
X136824883Y-94960508D01*
X136765283Y-94954101D01*
X136765281Y-94954100D01*
X136765273Y-94954100D01*
X136765264Y-94954100D01*
X135319529Y-94954100D01*
X135319523Y-94954101D01*
X135259916Y-94960508D01*
X135125071Y-95010802D01*
X135125064Y-95010806D01*
X135009855Y-95097052D01*
X135009852Y-95097055D01*
X134923606Y-95212264D01*
X134923602Y-95212271D01*
X134873308Y-95347117D01*
X134867314Y-95402872D01*
X134866901Y-95406723D01*
X134866900Y-95406735D01*
X134866900Y-96852470D01*
X134866901Y-96852476D01*
X134873308Y-96912083D01*
X134923602Y-97046928D01*
X134923606Y-97046935D01*
X134988746Y-97133949D01*
X135009854Y-97162146D01*
X135095505Y-97226264D01*
X135137375Y-97282197D01*
X135142359Y-97351889D01*
X135120148Y-97400256D01*
X135038688Y-97508128D01*
X134941584Y-97703137D01*
X134881964Y-97912681D01*
X134861864Y-98129599D01*
X134861864Y-98129600D01*
X119071509Y-98129600D01*
X119020524Y-98041290D01*
X119020518Y-98041282D01*
X116576564Y-95597328D01*
X113904203Y-92924968D01*
X113870719Y-92863646D01*
X113871680Y-92806847D01*
X113916131Y-92631317D01*
X113916133Y-92631308D01*
X113916134Y-92631305D01*
X113935300Y-92400000D01*
X113935300Y-92399993D01*
X113916135Y-92168702D01*
X113916133Y-92168691D01*
X113859157Y-91943699D01*
X113765924Y-91731151D01*
X113638983Y-91536852D01*
X113638980Y-91536849D01*
X113638979Y-91536847D01*
X113481784Y-91366087D01*
X113481779Y-91366083D01*
X113481777Y-91366081D01*
X113298634Y-91223535D01*
X113298628Y-91223531D01*
X113094504Y-91113064D01*
X113094495Y-91113061D01*
X112874984Y-91037702D01*
X112703282Y-91009050D01*
X112646049Y-90999500D01*
X112413951Y-90999500D01*
X112368164Y-91007140D01*
X112185015Y-91037702D01*
X111965504Y-91113061D01*
X111965495Y-91113064D01*
X111761371Y-91223531D01*
X111761365Y-91223535D01*
X111578222Y-91366081D01*
X111578219Y-91366084D01*
X111421016Y-91536852D01*
X111294075Y-91731151D01*
X111200842Y-91943699D01*
X111143866Y-92168691D01*
X111143864Y-92168702D01*
X111124700Y-92399993D01*
X111124700Y-92400006D01*
X96675500Y-92400006D01*
X96675500Y-81746679D01*
X96695185Y-81679640D01*
X96747989Y-81633885D01*
X96817147Y-81623941D01*
X96880703Y-81652966D01*
X96904195Y-81680234D01*
X96946362Y-81746679D01*
X97063311Y-81930963D01*
X97255852Y-82163705D01*
X97476036Y-82370472D01*
X97476046Y-82370480D01*
X97720393Y-82548008D01*
X97720398Y-82548010D01*
X97720405Y-82548016D01*
X97985096Y-82693532D01*
X97985101Y-82693534D01*
X97985103Y-82693535D01*
X97985104Y-82693536D01*
X98265934Y-82804724D01*
X98265937Y-82804725D01*
X98363459Y-82829764D01*
X98558502Y-82879842D01*
X98705239Y-82898379D01*
X98858163Y-82917699D01*
X98858169Y-82917699D01*
X98858173Y-82917700D01*
X98858175Y-82917700D01*
X99160225Y-82917700D01*
X99160227Y-82917700D01*
X99160232Y-82917699D01*
X99160236Y-82917699D01*
X99239791Y-82907648D01*
X99459898Y-82879842D01*
X99752462Y-82804725D01*
X99752465Y-82804724D01*
X100033295Y-82693536D01*
X100033296Y-82693535D01*
X100033294Y-82693535D01*
X100033304Y-82693532D01*
X100297995Y-82548016D01*
X100542362Y-82370474D01*
X100762549Y-82163704D01*
X100955085Y-81930968D01*
X101116933Y-81675936D01*
X101245541Y-81402630D01*
X101338881Y-81115360D01*
X101395480Y-80818657D01*
X101414446Y-80517200D01*
X101395480Y-80215743D01*
X101338881Y-79919040D01*
X101245541Y-79631770D01*
X101116933Y-79358464D01*
X100955085Y-79103432D01*
X100762549Y-78870696D01*
X100542362Y-78663926D01*
X100542359Y-78663924D01*
X100542353Y-78663919D01*
X100454126Y-78599818D01*
X100411460Y-78544488D01*
X100405481Y-78474875D01*
X100438087Y-78413080D01*
X100498925Y-78378723D01*
X100527011Y-78375500D01*
X134657189Y-78375500D01*
X134724228Y-78395185D01*
G37*
%TD.AperFunction*%
%TD*%
M02*
