%TF.GenerationSoftware,KiCad,Pcbnew,8.0.1*%
%TF.CreationDate,2024-11-30T19:41:01+00:00*%
%TF.ProjectId,Heating Element,48656174-696e-4672-9045-6c656d656e74,1*%
%TF.SameCoordinates,Original*%
%TF.FileFunction,Drillmap*%
%TF.FilePolarity,Positive*%
%FSLAX45Y45*%
G04 Gerber Fmt 4.5, Leading zero omitted, Abs format (unit mm)*
G04 Created by KiCad (PCBNEW 8.0.1) date 2024-11-30 19:41:01*
%MOMM*%
%LPD*%
G01*
G04 APERTURE LIST*
%ADD10C,0.050000*%
%ADD11C,0.200000*%
G04 APERTURE END LIST*
D10*
X9567500Y-7737500D02*
X13967500Y-7737500D01*
X13967500Y-11437500D01*
X9567500Y-11437500D01*
X9567500Y-7737500D01*
D11*
X9825777Y-11751484D02*
X9825777Y-11551484D01*
X9825777Y-11551484D02*
X9873396Y-11551484D01*
X9873396Y-11551484D02*
X9901967Y-11561008D01*
X9901967Y-11561008D02*
X9921015Y-11580055D01*
X9921015Y-11580055D02*
X9930539Y-11599103D01*
X9930539Y-11599103D02*
X9940063Y-11637198D01*
X9940063Y-11637198D02*
X9940063Y-11665769D01*
X9940063Y-11665769D02*
X9930539Y-11703865D01*
X9930539Y-11703865D02*
X9921015Y-11722912D01*
X9921015Y-11722912D02*
X9901967Y-11741960D01*
X9901967Y-11741960D02*
X9873396Y-11751484D01*
X9873396Y-11751484D02*
X9825777Y-11751484D01*
X10025777Y-11751484D02*
X10025777Y-11618150D01*
X10025777Y-11656246D02*
X10035301Y-11637198D01*
X10035301Y-11637198D02*
X10044824Y-11627674D01*
X10044824Y-11627674D02*
X10063872Y-11618150D01*
X10063872Y-11618150D02*
X10082920Y-11618150D01*
X10149586Y-11751484D02*
X10149586Y-11618150D01*
X10149586Y-11551484D02*
X10140063Y-11561008D01*
X10140063Y-11561008D02*
X10149586Y-11570531D01*
X10149586Y-11570531D02*
X10159110Y-11561008D01*
X10159110Y-11561008D02*
X10149586Y-11551484D01*
X10149586Y-11551484D02*
X10149586Y-11570531D01*
X10273396Y-11751484D02*
X10254348Y-11741960D01*
X10254348Y-11741960D02*
X10244824Y-11722912D01*
X10244824Y-11722912D02*
X10244824Y-11551484D01*
X10378158Y-11751484D02*
X10359110Y-11741960D01*
X10359110Y-11741960D02*
X10349586Y-11722912D01*
X10349586Y-11722912D02*
X10349586Y-11551484D01*
X10606729Y-11751484D02*
X10606729Y-11551484D01*
X10606729Y-11551484D02*
X10673396Y-11694341D01*
X10673396Y-11694341D02*
X10740063Y-11551484D01*
X10740063Y-11551484D02*
X10740063Y-11751484D01*
X10921015Y-11751484D02*
X10921015Y-11646722D01*
X10921015Y-11646722D02*
X10911491Y-11627674D01*
X10911491Y-11627674D02*
X10892444Y-11618150D01*
X10892444Y-11618150D02*
X10854348Y-11618150D01*
X10854348Y-11618150D02*
X10835301Y-11627674D01*
X10921015Y-11741960D02*
X10901967Y-11751484D01*
X10901967Y-11751484D02*
X10854348Y-11751484D01*
X10854348Y-11751484D02*
X10835301Y-11741960D01*
X10835301Y-11741960D02*
X10825777Y-11722912D01*
X10825777Y-11722912D02*
X10825777Y-11703865D01*
X10825777Y-11703865D02*
X10835301Y-11684817D01*
X10835301Y-11684817D02*
X10854348Y-11675293D01*
X10854348Y-11675293D02*
X10901967Y-11675293D01*
X10901967Y-11675293D02*
X10921015Y-11665769D01*
X11016253Y-11618150D02*
X11016253Y-11818150D01*
X11016253Y-11627674D02*
X11035301Y-11618150D01*
X11035301Y-11618150D02*
X11073396Y-11618150D01*
X11073396Y-11618150D02*
X11092444Y-11627674D01*
X11092444Y-11627674D02*
X11101967Y-11637198D01*
X11101967Y-11637198D02*
X11111491Y-11656246D01*
X11111491Y-11656246D02*
X11111491Y-11713388D01*
X11111491Y-11713388D02*
X11101967Y-11732436D01*
X11101967Y-11732436D02*
X11092444Y-11741960D01*
X11092444Y-11741960D02*
X11073396Y-11751484D01*
X11073396Y-11751484D02*
X11035301Y-11751484D01*
X11035301Y-11751484D02*
X11016253Y-11741960D01*
X11197205Y-11732436D02*
X11206729Y-11741960D01*
X11206729Y-11741960D02*
X11197205Y-11751484D01*
X11197205Y-11751484D02*
X11187682Y-11741960D01*
X11187682Y-11741960D02*
X11197205Y-11732436D01*
X11197205Y-11732436D02*
X11197205Y-11751484D01*
X11197205Y-11627674D02*
X11206729Y-11637198D01*
X11206729Y-11637198D02*
X11197205Y-11646722D01*
X11197205Y-11646722D02*
X11187682Y-11637198D01*
X11187682Y-11637198D02*
X11197205Y-11627674D01*
X11197205Y-11627674D02*
X11197205Y-11646722D01*
M02*
