M48
; DRILL file {KiCad 8.0.1} date 2025-03-03T18:06:45+0000
; FORMAT={-:-/ absolute / metric / decimal}
; #@! TF.CreationDate,2025-03-03T18:06:45+00:00
; #@! TF.GenerationSoftware,Kicad,Pcbnew,8.0.1
; #@! TF.FileFunction,Plated,1,2,PTH
FMAT,2
METRIC
; #@! TA.AperFunction,Plated,PTH,ViaDrill
T1C0.300
; #@! TA.AperFunction,Plated,PTH,ComponentDrill
T2C1.000
; #@! TA.AperFunction,Plated,PTH,ComponentDrill
T3C1.190
; #@! TA.AperFunction,Plated,PTH,ComponentDrill
T4C2.200
%
G90
G05
T1
X88.13Y-63.885
X92.852Y-129.503
X93.0Y-63.885
X101.673Y-129.515
X110.619Y-129.453
X114.916Y-80.557
X117.006Y-130.907
X119.87Y-61.2
X123.737Y-129.428
X129.025Y-64.148
X137.636Y-61.2
X140.004Y-127.603
X145.751Y-127.603
X151.499Y-127.603
T2
X72.0Y-79.875
X72.0Y-82.415
X72.0Y-84.955
X72.0Y-87.495
X72.0Y-90.035
X72.0Y-92.575
X72.0Y-95.115
X72.0Y-97.655
X72.0Y-100.195
X72.0Y-102.735
X72.0Y-105.275
X72.0Y-107.815
X72.0Y-110.355
X72.0Y-112.895
X72.0Y-115.435
X76.0Y-60.6
X78.54Y-60.6
X82.88Y-79.625
X82.88Y-82.165
X82.88Y-84.705
X82.88Y-87.245
X82.88Y-89.785
X82.88Y-92.325
X82.88Y-94.865
X82.88Y-97.405
X82.88Y-99.945
X82.88Y-102.485
X82.88Y-105.025
X82.88Y-107.565
X82.88Y-110.105
X82.88Y-112.645
X82.88Y-115.185
X83.725Y-60.6
X86.265Y-60.6
X87.19Y-123.4
X89.73Y-123.4
X91.46Y-60.6
X92.27Y-123.4
X94.0Y-60.6
X94.81Y-123.4
X97.35Y-123.4
X99.89Y-123.4
X102.43Y-123.4
X104.97Y-123.4
X107.51Y-123.4
X110.05Y-123.4
X110.8Y-79.625
X110.8Y-82.165
X110.8Y-84.705
X110.8Y-87.245
X110.8Y-89.785
X110.8Y-92.325
X110.8Y-94.865
X110.8Y-97.405
X110.8Y-99.945
X110.8Y-102.485
X110.8Y-105.025
X110.8Y-107.565
X110.8Y-110.105
X110.8Y-112.645
X110.8Y-115.185
X112.59Y-123.4
X115.13Y-123.4
X117.67Y-123.4
X120.21Y-123.4
X122.75Y-123.4
X124.6Y-79.875
X124.6Y-82.415
X124.6Y-84.955
X124.6Y-87.495
X124.6Y-90.035
X124.6Y-92.575
X124.6Y-95.115
X124.6Y-97.655
X124.6Y-100.195
X124.6Y-102.735
X124.6Y-105.275
X124.6Y-107.815
X124.6Y-110.355
X124.6Y-112.895
X124.6Y-115.435
X139.3Y-123.204
X141.84Y-123.204
X144.38Y-123.204
X146.92Y-123.204
X149.46Y-123.204
X152.0Y-123.204
T3
X145.84Y-61.2
X148.38Y-61.2
X150.92Y-61.2
X153.46Y-61.2
X156.0Y-61.2
T4
X68.4Y-57.404
X68.4Y-129.2
X162.8Y-57.404
X162.8Y-129.2
M30
