M48
INCH
T1C0.0118
T2C0.0394
T3C0.0469
T4C0.0866
%
G90
G05
T1
X3.4697Y-2.5152
X3.6556Y-5.0985
X3.6614Y-2.5152
X4.0029Y-5.099
X4.3551Y-5.0966
X4.5242Y-3.1715
X4.6065Y-5.1538
X4.7193Y-2.4094
X4.8716Y-5.0956
X5.0797Y-2.5255
X5.4187Y-2.4094
X5.512Y-5.0238
X5.7382Y-5.0238
X5.9645Y-5.0238
T2
X2.8346Y-3.1447
X2.8346Y-3.2447
X2.8346Y-3.3447
X2.8346Y-3.4447
X2.8346Y-3.5447
X2.8346Y-3.6447
X2.8346Y-3.7447
X2.8346Y-3.8447
X2.8346Y-3.9447
X2.8346Y-4.0447
X2.8346Y-4.1447
X2.8346Y-4.2447
X2.8346Y-4.3447
X2.8346Y-4.4447
X2.8346Y-4.5447
X2.9921Y-2.3858
X3.0921Y-2.3858
X3.263Y-3.1348
X3.263Y-3.2348
X3.263Y-3.3348
X3.263Y-3.4348
X3.263Y-3.5348
X3.263Y-3.6348
X3.263Y-3.7348
X3.263Y-3.8348
X3.263Y-3.9348
X3.263Y-4.0348
X3.263Y-4.1348
X3.263Y-4.2348
X3.263Y-4.3348
X3.263Y-4.4348
X3.263Y-4.5348
X3.2963Y-2.3858
X3.3963Y-2.3858
X3.4327Y-4.8583
X3.5327Y-4.8583
X3.6008Y-2.3858
X3.6327Y-4.8583
X3.7008Y-2.3858
X3.7327Y-4.8583
X3.8327Y-4.8583
X3.9327Y-4.8583
X4.0327Y-4.8583
X4.1327Y-4.8583
X4.2327Y-4.8583
X4.3327Y-4.8583
X4.3622Y-3.1348
X4.3622Y-3.2348
X4.3622Y-3.3348
X4.3622Y-3.4348
X4.3622Y-3.5348
X4.3622Y-3.6348
X4.3622Y-3.7348
X4.3622Y-3.8348
X4.3622Y-3.9348
X4.3622Y-4.0348
X4.3622Y-4.1348
X4.3622Y-4.2348
X4.3622Y-4.3348
X4.3622Y-4.4348
X4.3622Y-4.5348
X4.4327Y-4.8583
X4.5327Y-4.8583
X4.6327Y-4.8583
X4.7327Y-4.8583
X4.8327Y-4.8583
X4.9055Y-3.1447
X4.9055Y-3.2447
X4.9055Y-3.3447
X4.9055Y-3.4447
X4.9055Y-3.5447
X4.9055Y-3.6447
X4.9055Y-3.7447
X4.9055Y-3.8447
X4.9055Y-3.9447
X4.9055Y-4.0447
X4.9055Y-4.1447
X4.9055Y-4.2447
X4.9055Y-4.3447
X4.9055Y-4.4447
X4.9055Y-4.5447
X5.4843Y-4.8506
X5.5843Y-4.8506
X5.6843Y-4.8506
X5.7843Y-4.8506
X5.8843Y-4.8506
X5.9843Y-4.8506
T3
X5.7417Y-2.4094
X5.8417Y-2.4094
X5.9417Y-2.4094
X6.0417Y-2.4094
X6.1417Y-2.4094
T4
X2.6929Y-2.26
X2.6929Y-5.0866
X6.4094Y-2.26
X6.4094Y-5.0866
M30
