%TF.GenerationSoftware,KiCad,Pcbnew,8.0.1*%
%TF.CreationDate,2025-04-29T19:59:47+01:00*%
%TF.ProjectId,Interpose,496e7465-7270-46f7-9365-2e6b69636164,V1*%
%TF.SameCoordinates,Original*%
%TF.FileFunction,Legend,Top*%
%TF.FilePolarity,Positive*%
%FSLAX46Y46*%
G04 Gerber Fmt 4.6, Leading zero omitted, Abs format (unit mm)*
G04 Created by KiCad (PCBNEW 8.0.1) date 2025-04-29 19:59:47*
%MOMM*%
%LPD*%
G01*
G04 APERTURE LIST*
G04 Aperture macros list*
%AMRoundRect*
0 Rectangle with rounded corners*
0 $1 Rounding radius*
0 $2 $3 $4 $5 $6 $7 $8 $9 X,Y pos of 4 corners*
0 Add a 4 corners polygon primitive as box body*
4,1,4,$2,$3,$4,$5,$6,$7,$8,$9,$2,$3,0*
0 Add four circle primitives for the rounded corners*
1,1,$1+$1,$2,$3*
1,1,$1+$1,$4,$5*
1,1,$1+$1,$6,$7*
1,1,$1+$1,$8,$9*
0 Add four rect primitives between the rounded corners*
20,1,$1+$1,$2,$3,$4,$5,0*
20,1,$1+$1,$4,$5,$6,$7,0*
20,1,$1+$1,$6,$7,$8,$9,0*
20,1,$1+$1,$8,$9,$2,$3,0*%
G04 Aperture macros list end*
%ADD10C,0.300000*%
%ADD11C,0.150000*%
%ADD12C,0.120000*%
%ADD13C,0.200000*%
%ADD14C,0.100000*%
%ADD15RoundRect,0.250000X-0.325000X-0.650000X0.325000X-0.650000X0.325000X0.650000X-0.325000X0.650000X0*%
%ADD16R,1.700000X1.700000*%
%ADD17O,1.700000X1.700000*%
%ADD18RoundRect,0.250000X-0.650000X0.325000X-0.650000X-0.325000X0.650000X-0.325000X0.650000X0.325000X0*%
%ADD19C,3.800000*%
%ADD20RoundRect,0.135000X-0.185000X0.135000X-0.185000X-0.135000X0.185000X-0.135000X0.185000X0.135000X0*%
%ADD21RoundRect,0.102000X1.200000X-0.800000X1.200000X0.800000X-1.200000X0.800000X-1.200000X-0.800000X0*%
%ADD22RoundRect,0.135000X0.185000X-0.135000X0.185000X0.135000X-0.185000X0.135000X-0.185000X-0.135000X0*%
%ADD23RoundRect,0.102000X-1.200000X0.800000X-1.200000X-0.800000X1.200000X-0.800000X1.200000X0.800000X0*%
%ADD24RoundRect,0.250000X-0.620000X-0.845000X0.620000X-0.845000X0.620000X0.845000X-0.620000X0.845000X0*%
%ADD25O,1.740000X2.190000*%
G04 APERTURE END LIST*
D10*
X86283082Y-119243685D02*
X86354510Y-119172257D01*
X86354510Y-119172257D02*
X86497368Y-119100828D01*
X86497368Y-119100828D02*
X86854510Y-119100828D01*
X86854510Y-119100828D02*
X86997368Y-119172257D01*
X86997368Y-119172257D02*
X87068796Y-119243685D01*
X87068796Y-119243685D02*
X87140225Y-119386542D01*
X87140225Y-119386542D02*
X87140225Y-119529400D01*
X87140225Y-119529400D02*
X87068796Y-119743685D01*
X87068796Y-119743685D02*
X86211653Y-120600828D01*
X86211653Y-120600828D02*
X87140225Y-120600828D01*
X88425939Y-119600828D02*
X88425939Y-120600828D01*
X88068796Y-119029400D02*
X87711653Y-120100828D01*
X87711653Y-120100828D02*
X88640224Y-120100828D01*
X88997367Y-119100828D02*
X89497367Y-120600828D01*
X89497367Y-120600828D02*
X89997367Y-119100828D01*
X90497366Y-120029400D02*
X91640224Y-120029400D01*
X91068795Y-120600828D02*
X91068795Y-119457971D01*
X128340225Y-57600828D02*
X127483082Y-57600828D01*
X127911653Y-57600828D02*
X127911653Y-56100828D01*
X127911653Y-56100828D02*
X127768796Y-56315114D01*
X127768796Y-56315114D02*
X127625939Y-56457971D01*
X127625939Y-56457971D02*
X127483082Y-56529400D01*
X128911653Y-56243685D02*
X128983081Y-56172257D01*
X128983081Y-56172257D02*
X129125939Y-56100828D01*
X129125939Y-56100828D02*
X129483081Y-56100828D01*
X129483081Y-56100828D02*
X129625939Y-56172257D01*
X129625939Y-56172257D02*
X129697367Y-56243685D01*
X129697367Y-56243685D02*
X129768796Y-56386542D01*
X129768796Y-56386542D02*
X129768796Y-56529400D01*
X129768796Y-56529400D02*
X129697367Y-56743685D01*
X129697367Y-56743685D02*
X128840224Y-57600828D01*
X128840224Y-57600828D02*
X129768796Y-57600828D01*
X130197367Y-56100828D02*
X130697367Y-57600828D01*
X130697367Y-57600828D02*
X131197367Y-56100828D01*
X131697366Y-57029400D02*
X132840224Y-57029400D01*
X132268795Y-57600828D02*
X132268795Y-56457971D01*
X75211653Y-55300828D02*
X76140225Y-55300828D01*
X76140225Y-55300828D02*
X75640225Y-55872257D01*
X75640225Y-55872257D02*
X75854510Y-55872257D01*
X75854510Y-55872257D02*
X75997368Y-55943685D01*
X75997368Y-55943685D02*
X76068796Y-56015114D01*
X76068796Y-56015114D02*
X76140225Y-56157971D01*
X76140225Y-56157971D02*
X76140225Y-56515114D01*
X76140225Y-56515114D02*
X76068796Y-56657971D01*
X76068796Y-56657971D02*
X75997368Y-56729400D01*
X75997368Y-56729400D02*
X75854510Y-56800828D01*
X75854510Y-56800828D02*
X75425939Y-56800828D01*
X75425939Y-56800828D02*
X75283082Y-56729400D01*
X75283082Y-56729400D02*
X75211653Y-56657971D01*
X76568796Y-55300828D02*
X77068796Y-56800828D01*
X77068796Y-56800828D02*
X77568796Y-55300828D01*
X77925938Y-55300828D02*
X78854510Y-55300828D01*
X78854510Y-55300828D02*
X78354510Y-55872257D01*
X78354510Y-55872257D02*
X78568795Y-55872257D01*
X78568795Y-55872257D02*
X78711653Y-55943685D01*
X78711653Y-55943685D02*
X78783081Y-56015114D01*
X78783081Y-56015114D02*
X78854510Y-56157971D01*
X78854510Y-56157971D02*
X78854510Y-56515114D01*
X78854510Y-56515114D02*
X78783081Y-56657971D01*
X78783081Y-56657971D02*
X78711653Y-56729400D01*
X78711653Y-56729400D02*
X78568795Y-56800828D01*
X78568795Y-56800828D02*
X78140224Y-56800828D01*
X78140224Y-56800828D02*
X77997367Y-56729400D01*
X77997367Y-56729400D02*
X77925938Y-56657971D01*
X79497366Y-56229400D02*
X80640224Y-56229400D01*
X80068795Y-56800828D02*
X80068795Y-55657971D01*
X82683082Y-55443685D02*
X82754510Y-55372257D01*
X82754510Y-55372257D02*
X82897368Y-55300828D01*
X82897368Y-55300828D02*
X83254510Y-55300828D01*
X83254510Y-55300828D02*
X83397368Y-55372257D01*
X83397368Y-55372257D02*
X83468796Y-55443685D01*
X83468796Y-55443685D02*
X83540225Y-55586542D01*
X83540225Y-55586542D02*
X83540225Y-55729400D01*
X83540225Y-55729400D02*
X83468796Y-55943685D01*
X83468796Y-55943685D02*
X82611653Y-56800828D01*
X82611653Y-56800828D02*
X83540225Y-56800828D01*
X84825939Y-55800828D02*
X84825939Y-56800828D01*
X84468796Y-55229400D02*
X84111653Y-56300828D01*
X84111653Y-56300828D02*
X85040224Y-56300828D01*
X85397367Y-55300828D02*
X85897367Y-56800828D01*
X85897367Y-56800828D02*
X86397367Y-55300828D01*
X86897366Y-56229400D02*
X88040224Y-56229400D01*
X87468795Y-56800828D02*
X87468795Y-55657971D01*
X136683082Y-56243685D02*
X136754510Y-56172257D01*
X136754510Y-56172257D02*
X136897368Y-56100828D01*
X136897368Y-56100828D02*
X137254510Y-56100828D01*
X137254510Y-56100828D02*
X137397368Y-56172257D01*
X137397368Y-56172257D02*
X137468796Y-56243685D01*
X137468796Y-56243685D02*
X137540225Y-56386542D01*
X137540225Y-56386542D02*
X137540225Y-56529400D01*
X137540225Y-56529400D02*
X137468796Y-56743685D01*
X137468796Y-56743685D02*
X136611653Y-57600828D01*
X136611653Y-57600828D02*
X137540225Y-57600828D01*
X138825939Y-56600828D02*
X138825939Y-57600828D01*
X138468796Y-56029400D02*
X138111653Y-57100828D01*
X138111653Y-57100828D02*
X139040224Y-57100828D01*
X139397367Y-56100828D02*
X139897367Y-57600828D01*
X139897367Y-57600828D02*
X140397367Y-56100828D01*
X140897366Y-57029400D02*
X142040224Y-57029400D01*
X141468795Y-57600828D02*
X141468795Y-56457971D01*
X91140225Y-56600828D02*
X90283082Y-56600828D01*
X90711653Y-56600828D02*
X90711653Y-55100828D01*
X90711653Y-55100828D02*
X90568796Y-55315114D01*
X90568796Y-55315114D02*
X90425939Y-55457971D01*
X90425939Y-55457971D02*
X90283082Y-55529400D01*
X91711653Y-55243685D02*
X91783081Y-55172257D01*
X91783081Y-55172257D02*
X91925939Y-55100828D01*
X91925939Y-55100828D02*
X92283081Y-55100828D01*
X92283081Y-55100828D02*
X92425939Y-55172257D01*
X92425939Y-55172257D02*
X92497367Y-55243685D01*
X92497367Y-55243685D02*
X92568796Y-55386542D01*
X92568796Y-55386542D02*
X92568796Y-55529400D01*
X92568796Y-55529400D02*
X92497367Y-55743685D01*
X92497367Y-55743685D02*
X91640224Y-56600828D01*
X91640224Y-56600828D02*
X92568796Y-56600828D01*
X92997367Y-55100828D02*
X93497367Y-56600828D01*
X93497367Y-56600828D02*
X93997367Y-55100828D01*
X94497366Y-56029400D02*
X95640224Y-56029400D01*
X95068795Y-56600828D02*
X95068795Y-55457971D01*
X145540225Y-55372257D02*
X145397368Y-55300828D01*
X145397368Y-55300828D02*
X145183082Y-55300828D01*
X145183082Y-55300828D02*
X144968796Y-55372257D01*
X144968796Y-55372257D02*
X144825939Y-55515114D01*
X144825939Y-55515114D02*
X144754510Y-55657971D01*
X144754510Y-55657971D02*
X144683082Y-55943685D01*
X144683082Y-55943685D02*
X144683082Y-56157971D01*
X144683082Y-56157971D02*
X144754510Y-56443685D01*
X144754510Y-56443685D02*
X144825939Y-56586542D01*
X144825939Y-56586542D02*
X144968796Y-56729400D01*
X144968796Y-56729400D02*
X145183082Y-56800828D01*
X145183082Y-56800828D02*
X145325939Y-56800828D01*
X145325939Y-56800828D02*
X145540225Y-56729400D01*
X145540225Y-56729400D02*
X145611653Y-56657971D01*
X145611653Y-56657971D02*
X145611653Y-56157971D01*
X145611653Y-56157971D02*
X145325939Y-56157971D01*
X146254510Y-56800828D02*
X146254510Y-55300828D01*
X146254510Y-55300828D02*
X147111653Y-56800828D01*
X147111653Y-56800828D02*
X147111653Y-55300828D01*
X147825939Y-56800828D02*
X147825939Y-55300828D01*
X147825939Y-55300828D02*
X148183082Y-55300828D01*
X148183082Y-55300828D02*
X148397368Y-55372257D01*
X148397368Y-55372257D02*
X148540225Y-55515114D01*
X148540225Y-55515114D02*
X148611654Y-55657971D01*
X148611654Y-55657971D02*
X148683082Y-55943685D01*
X148683082Y-55943685D02*
X148683082Y-56157971D01*
X148683082Y-56157971D02*
X148611654Y-56443685D01*
X148611654Y-56443685D02*
X148540225Y-56586542D01*
X148540225Y-56586542D02*
X148397368Y-56729400D01*
X148397368Y-56729400D02*
X148183082Y-56800828D01*
X148183082Y-56800828D02*
X147825939Y-56800828D01*
X137940225Y-120800828D02*
X137083082Y-120800828D01*
X137511653Y-120800828D02*
X137511653Y-119300828D01*
X137511653Y-119300828D02*
X137368796Y-119515114D01*
X137368796Y-119515114D02*
X137225939Y-119657971D01*
X137225939Y-119657971D02*
X137083082Y-119729400D01*
X138511653Y-119443685D02*
X138583081Y-119372257D01*
X138583081Y-119372257D02*
X138725939Y-119300828D01*
X138725939Y-119300828D02*
X139083081Y-119300828D01*
X139083081Y-119300828D02*
X139225939Y-119372257D01*
X139225939Y-119372257D02*
X139297367Y-119443685D01*
X139297367Y-119443685D02*
X139368796Y-119586542D01*
X139368796Y-119586542D02*
X139368796Y-119729400D01*
X139368796Y-119729400D02*
X139297367Y-119943685D01*
X139297367Y-119943685D02*
X138440224Y-120800828D01*
X138440224Y-120800828D02*
X139368796Y-120800828D01*
X139797367Y-119300828D02*
X140297367Y-120800828D01*
X140297367Y-120800828D02*
X140797367Y-119300828D01*
X141297366Y-120229400D02*
X142440224Y-120229400D01*
X141868795Y-120800828D02*
X141868795Y-119657971D01*
X117611653Y-55900828D02*
X118540225Y-55900828D01*
X118540225Y-55900828D02*
X118040225Y-56472257D01*
X118040225Y-56472257D02*
X118254510Y-56472257D01*
X118254510Y-56472257D02*
X118397368Y-56543685D01*
X118397368Y-56543685D02*
X118468796Y-56615114D01*
X118468796Y-56615114D02*
X118540225Y-56757971D01*
X118540225Y-56757971D02*
X118540225Y-57115114D01*
X118540225Y-57115114D02*
X118468796Y-57257971D01*
X118468796Y-57257971D02*
X118397368Y-57329400D01*
X118397368Y-57329400D02*
X118254510Y-57400828D01*
X118254510Y-57400828D02*
X117825939Y-57400828D01*
X117825939Y-57400828D02*
X117683082Y-57329400D01*
X117683082Y-57329400D02*
X117611653Y-57257971D01*
X118968796Y-55900828D02*
X119468796Y-57400828D01*
X119468796Y-57400828D02*
X119968796Y-55900828D01*
X120325938Y-55900828D02*
X121254510Y-55900828D01*
X121254510Y-55900828D02*
X120754510Y-56472257D01*
X120754510Y-56472257D02*
X120968795Y-56472257D01*
X120968795Y-56472257D02*
X121111653Y-56543685D01*
X121111653Y-56543685D02*
X121183081Y-56615114D01*
X121183081Y-56615114D02*
X121254510Y-56757971D01*
X121254510Y-56757971D02*
X121254510Y-57115114D01*
X121254510Y-57115114D02*
X121183081Y-57257971D01*
X121183081Y-57257971D02*
X121111653Y-57329400D01*
X121111653Y-57329400D02*
X120968795Y-57400828D01*
X120968795Y-57400828D02*
X120540224Y-57400828D01*
X120540224Y-57400828D02*
X120397367Y-57329400D01*
X120397367Y-57329400D02*
X120325938Y-57257971D01*
X121897366Y-56829400D02*
X123040224Y-56829400D01*
X122468795Y-57400828D02*
X122468795Y-56257971D01*
X97215114Y-106845489D02*
X97215114Y-106345489D01*
X98000828Y-106131203D02*
X98000828Y-106845489D01*
X98000828Y-106845489D02*
X96500828Y-106845489D01*
X96500828Y-106845489D02*
X96500828Y-106131203D01*
X97929400Y-105559774D02*
X98000828Y-105345489D01*
X98000828Y-105345489D02*
X98000828Y-104988346D01*
X98000828Y-104988346D02*
X97929400Y-104845489D01*
X97929400Y-104845489D02*
X97857971Y-104774060D01*
X97857971Y-104774060D02*
X97715114Y-104702631D01*
X97715114Y-104702631D02*
X97572257Y-104702631D01*
X97572257Y-104702631D02*
X97429400Y-104774060D01*
X97429400Y-104774060D02*
X97357971Y-104845489D01*
X97357971Y-104845489D02*
X97286542Y-104988346D01*
X97286542Y-104988346D02*
X97215114Y-105274060D01*
X97215114Y-105274060D02*
X97143685Y-105416917D01*
X97143685Y-105416917D02*
X97072257Y-105488346D01*
X97072257Y-105488346D02*
X96929400Y-105559774D01*
X96929400Y-105559774D02*
X96786542Y-105559774D01*
X96786542Y-105559774D02*
X96643685Y-105488346D01*
X96643685Y-105488346D02*
X96572257Y-105416917D01*
X96572257Y-105416917D02*
X96500828Y-105274060D01*
X96500828Y-105274060D02*
X96500828Y-104916917D01*
X96500828Y-104916917D02*
X96572257Y-104702631D01*
X98000828Y-104059775D02*
X96500828Y-104059775D01*
X96500828Y-104059775D02*
X96500828Y-103488346D01*
X96500828Y-103488346D02*
X96572257Y-103345489D01*
X96572257Y-103345489D02*
X96643685Y-103274060D01*
X96643685Y-103274060D02*
X96786542Y-103202632D01*
X96786542Y-103202632D02*
X97000828Y-103202632D01*
X97000828Y-103202632D02*
X97143685Y-103274060D01*
X97143685Y-103274060D02*
X97215114Y-103345489D01*
X97215114Y-103345489D02*
X97286542Y-103488346D01*
X97286542Y-103488346D02*
X97286542Y-104059775D01*
X96500828Y-102702632D02*
X96500828Y-101774060D01*
X96500828Y-101774060D02*
X97072257Y-102274060D01*
X97072257Y-102274060D02*
X97072257Y-102059775D01*
X97072257Y-102059775D02*
X97143685Y-101916918D01*
X97143685Y-101916918D02*
X97215114Y-101845489D01*
X97215114Y-101845489D02*
X97357971Y-101774060D01*
X97357971Y-101774060D02*
X97715114Y-101774060D01*
X97715114Y-101774060D02*
X97857971Y-101845489D01*
X97857971Y-101845489D02*
X97929400Y-101916918D01*
X97929400Y-101916918D02*
X98000828Y-102059775D01*
X98000828Y-102059775D02*
X98000828Y-102488346D01*
X98000828Y-102488346D02*
X97929400Y-102631203D01*
X97929400Y-102631203D02*
X97857971Y-102702632D01*
X96643685Y-101202632D02*
X96572257Y-101131204D01*
X96572257Y-101131204D02*
X96500828Y-100988347D01*
X96500828Y-100988347D02*
X96500828Y-100631204D01*
X96500828Y-100631204D02*
X96572257Y-100488347D01*
X96572257Y-100488347D02*
X96643685Y-100416918D01*
X96643685Y-100416918D02*
X96786542Y-100345489D01*
X96786542Y-100345489D02*
X96929400Y-100345489D01*
X96929400Y-100345489D02*
X97143685Y-100416918D01*
X97143685Y-100416918D02*
X98000828Y-101274061D01*
X98000828Y-101274061D02*
X98000828Y-100345489D01*
X98000828Y-98559776D02*
X96500828Y-98559776D01*
X96500828Y-98559776D02*
X96500828Y-98202633D01*
X96500828Y-98202633D02*
X96572257Y-97988347D01*
X96572257Y-97988347D02*
X96715114Y-97845490D01*
X96715114Y-97845490D02*
X96857971Y-97774061D01*
X96857971Y-97774061D02*
X97143685Y-97702633D01*
X97143685Y-97702633D02*
X97357971Y-97702633D01*
X97357971Y-97702633D02*
X97643685Y-97774061D01*
X97643685Y-97774061D02*
X97786542Y-97845490D01*
X97786542Y-97845490D02*
X97929400Y-97988347D01*
X97929400Y-97988347D02*
X98000828Y-98202633D01*
X98000828Y-98202633D02*
X98000828Y-98559776D01*
X97215114Y-97059776D02*
X97215114Y-96559776D01*
X98000828Y-96345490D02*
X98000828Y-97059776D01*
X98000828Y-97059776D02*
X96500828Y-97059776D01*
X96500828Y-97059776D02*
X96500828Y-96345490D01*
X96500828Y-95916918D02*
X98000828Y-95416918D01*
X98000828Y-95416918D02*
X96500828Y-94916918D01*
X98000828Y-94416919D02*
X96500828Y-94416919D01*
X98000828Y-93559776D02*
X97143685Y-94202633D01*
X96500828Y-93559776D02*
X97357971Y-94416919D01*
X98000828Y-92916919D02*
X96500828Y-92916919D01*
X96500828Y-92416918D02*
X96500828Y-91559776D01*
X98000828Y-91988347D02*
X96500828Y-91988347D01*
X96500828Y-90131204D02*
X98000828Y-89631204D01*
X98000828Y-89631204D02*
X96500828Y-89131204D01*
X98000828Y-87845490D02*
X98000828Y-88702633D01*
X98000828Y-88274062D02*
X96500828Y-88274062D01*
X96500828Y-88274062D02*
X96715114Y-88416919D01*
X96715114Y-88416919D02*
X96857971Y-88559776D01*
X96857971Y-88559776D02*
X96929400Y-88702633D01*
D11*
X92833333Y-66159580D02*
X92785714Y-66207200D01*
X92785714Y-66207200D02*
X92642857Y-66254819D01*
X92642857Y-66254819D02*
X92547619Y-66254819D01*
X92547619Y-66254819D02*
X92404762Y-66207200D01*
X92404762Y-66207200D02*
X92309524Y-66111961D01*
X92309524Y-66111961D02*
X92261905Y-66016723D01*
X92261905Y-66016723D02*
X92214286Y-65826247D01*
X92214286Y-65826247D02*
X92214286Y-65683390D01*
X92214286Y-65683390D02*
X92261905Y-65492914D01*
X92261905Y-65492914D02*
X92309524Y-65397676D01*
X92309524Y-65397676D02*
X92404762Y-65302438D01*
X92404762Y-65302438D02*
X92547619Y-65254819D01*
X92547619Y-65254819D02*
X92642857Y-65254819D01*
X92642857Y-65254819D02*
X92785714Y-65302438D01*
X92785714Y-65302438D02*
X92833333Y-65350057D01*
X93214286Y-65350057D02*
X93261905Y-65302438D01*
X93261905Y-65302438D02*
X93357143Y-65254819D01*
X93357143Y-65254819D02*
X93595238Y-65254819D01*
X93595238Y-65254819D02*
X93690476Y-65302438D01*
X93690476Y-65302438D02*
X93738095Y-65350057D01*
X93738095Y-65350057D02*
X93785714Y-65445295D01*
X93785714Y-65445295D02*
X93785714Y-65540533D01*
X93785714Y-65540533D02*
X93738095Y-65683390D01*
X93738095Y-65683390D02*
X93166667Y-66254819D01*
X93166667Y-66254819D02*
X93785714Y-66254819D01*
X71666666Y-76999819D02*
X71666666Y-77714104D01*
X71666666Y-77714104D02*
X71619047Y-77856961D01*
X71619047Y-77856961D02*
X71523809Y-77952200D01*
X71523809Y-77952200D02*
X71380952Y-77999819D01*
X71380952Y-77999819D02*
X71285714Y-77999819D01*
X72285714Y-77428390D02*
X72190476Y-77380771D01*
X72190476Y-77380771D02*
X72142857Y-77333152D01*
X72142857Y-77333152D02*
X72095238Y-77237914D01*
X72095238Y-77237914D02*
X72095238Y-77190295D01*
X72095238Y-77190295D02*
X72142857Y-77095057D01*
X72142857Y-77095057D02*
X72190476Y-77047438D01*
X72190476Y-77047438D02*
X72285714Y-76999819D01*
X72285714Y-76999819D02*
X72476190Y-76999819D01*
X72476190Y-76999819D02*
X72571428Y-77047438D01*
X72571428Y-77047438D02*
X72619047Y-77095057D01*
X72619047Y-77095057D02*
X72666666Y-77190295D01*
X72666666Y-77190295D02*
X72666666Y-77237914D01*
X72666666Y-77237914D02*
X72619047Y-77333152D01*
X72619047Y-77333152D02*
X72571428Y-77380771D01*
X72571428Y-77380771D02*
X72476190Y-77428390D01*
X72476190Y-77428390D02*
X72285714Y-77428390D01*
X72285714Y-77428390D02*
X72190476Y-77476009D01*
X72190476Y-77476009D02*
X72142857Y-77523628D01*
X72142857Y-77523628D02*
X72095238Y-77618866D01*
X72095238Y-77618866D02*
X72095238Y-77809342D01*
X72095238Y-77809342D02*
X72142857Y-77904580D01*
X72142857Y-77904580D02*
X72190476Y-77952200D01*
X72190476Y-77952200D02*
X72285714Y-77999819D01*
X72285714Y-77999819D02*
X72476190Y-77999819D01*
X72476190Y-77999819D02*
X72571428Y-77952200D01*
X72571428Y-77952200D02*
X72619047Y-77904580D01*
X72619047Y-77904580D02*
X72666666Y-77809342D01*
X72666666Y-77809342D02*
X72666666Y-77618866D01*
X72666666Y-77618866D02*
X72619047Y-77523628D01*
X72619047Y-77523628D02*
X72571428Y-77476009D01*
X72571428Y-77476009D02*
X72476190Y-77428390D01*
X93159580Y-128141666D02*
X93207200Y-128189285D01*
X93207200Y-128189285D02*
X93254819Y-128332142D01*
X93254819Y-128332142D02*
X93254819Y-128427380D01*
X93254819Y-128427380D02*
X93207200Y-128570237D01*
X93207200Y-128570237D02*
X93111961Y-128665475D01*
X93111961Y-128665475D02*
X93016723Y-128713094D01*
X93016723Y-128713094D02*
X92826247Y-128760713D01*
X92826247Y-128760713D02*
X92683390Y-128760713D01*
X92683390Y-128760713D02*
X92492914Y-128713094D01*
X92492914Y-128713094D02*
X92397676Y-128665475D01*
X92397676Y-128665475D02*
X92302438Y-128570237D01*
X92302438Y-128570237D02*
X92254819Y-128427380D01*
X92254819Y-128427380D02*
X92254819Y-128332142D01*
X92254819Y-128332142D02*
X92302438Y-128189285D01*
X92302438Y-128189285D02*
X92350057Y-128141666D01*
X92588152Y-127284523D02*
X93254819Y-127284523D01*
X92207200Y-127522618D02*
X92921485Y-127760713D01*
X92921485Y-127760713D02*
X92921485Y-127141666D01*
X125854819Y-61566666D02*
X125378628Y-61899999D01*
X125854819Y-62138094D02*
X124854819Y-62138094D01*
X124854819Y-62138094D02*
X124854819Y-61757142D01*
X124854819Y-61757142D02*
X124902438Y-61661904D01*
X124902438Y-61661904D02*
X124950057Y-61614285D01*
X124950057Y-61614285D02*
X125045295Y-61566666D01*
X125045295Y-61566666D02*
X125188152Y-61566666D01*
X125188152Y-61566666D02*
X125283390Y-61614285D01*
X125283390Y-61614285D02*
X125331009Y-61661904D01*
X125331009Y-61661904D02*
X125378628Y-61757142D01*
X125378628Y-61757142D02*
X125378628Y-62138094D01*
X124950057Y-61185713D02*
X124902438Y-61138094D01*
X124902438Y-61138094D02*
X124854819Y-61042856D01*
X124854819Y-61042856D02*
X124854819Y-60804761D01*
X124854819Y-60804761D02*
X124902438Y-60709523D01*
X124902438Y-60709523D02*
X124950057Y-60661904D01*
X124950057Y-60661904D02*
X125045295Y-60614285D01*
X125045295Y-60614285D02*
X125140533Y-60614285D01*
X125140533Y-60614285D02*
X125283390Y-60661904D01*
X125283390Y-60661904D02*
X125854819Y-61233332D01*
X125854819Y-61233332D02*
X125854819Y-60614285D01*
X111159580Y-128266666D02*
X111207200Y-128314285D01*
X111207200Y-128314285D02*
X111254819Y-128457142D01*
X111254819Y-128457142D02*
X111254819Y-128552380D01*
X111254819Y-128552380D02*
X111207200Y-128695237D01*
X111207200Y-128695237D02*
X111111961Y-128790475D01*
X111111961Y-128790475D02*
X111016723Y-128838094D01*
X111016723Y-128838094D02*
X110826247Y-128885713D01*
X110826247Y-128885713D02*
X110683390Y-128885713D01*
X110683390Y-128885713D02*
X110492914Y-128838094D01*
X110492914Y-128838094D02*
X110397676Y-128790475D01*
X110397676Y-128790475D02*
X110302438Y-128695237D01*
X110302438Y-128695237D02*
X110254819Y-128552380D01*
X110254819Y-128552380D02*
X110254819Y-128457142D01*
X110254819Y-128457142D02*
X110302438Y-128314285D01*
X110302438Y-128314285D02*
X110350057Y-128266666D01*
X111254819Y-127790475D02*
X111254819Y-127599999D01*
X111254819Y-127599999D02*
X111207200Y-127504761D01*
X111207200Y-127504761D02*
X111159580Y-127457142D01*
X111159580Y-127457142D02*
X111016723Y-127361904D01*
X111016723Y-127361904D02*
X110826247Y-127314285D01*
X110826247Y-127314285D02*
X110445295Y-127314285D01*
X110445295Y-127314285D02*
X110350057Y-127361904D01*
X110350057Y-127361904D02*
X110302438Y-127409523D01*
X110302438Y-127409523D02*
X110254819Y-127504761D01*
X110254819Y-127504761D02*
X110254819Y-127695237D01*
X110254819Y-127695237D02*
X110302438Y-127790475D01*
X110302438Y-127790475D02*
X110350057Y-127838094D01*
X110350057Y-127838094D02*
X110445295Y-127885713D01*
X110445295Y-127885713D02*
X110683390Y-127885713D01*
X110683390Y-127885713D02*
X110778628Y-127838094D01*
X110778628Y-127838094D02*
X110826247Y-127790475D01*
X110826247Y-127790475D02*
X110873866Y-127695237D01*
X110873866Y-127695237D02*
X110873866Y-127504761D01*
X110873866Y-127504761D02*
X110826247Y-127409523D01*
X110826247Y-127409523D02*
X110778628Y-127361904D01*
X110778628Y-127361904D02*
X110683390Y-127314285D01*
X134454819Y-61166666D02*
X133978628Y-61499999D01*
X134454819Y-61738094D02*
X133454819Y-61738094D01*
X133454819Y-61738094D02*
X133454819Y-61357142D01*
X133454819Y-61357142D02*
X133502438Y-61261904D01*
X133502438Y-61261904D02*
X133550057Y-61214285D01*
X133550057Y-61214285D02*
X133645295Y-61166666D01*
X133645295Y-61166666D02*
X133788152Y-61166666D01*
X133788152Y-61166666D02*
X133883390Y-61214285D01*
X133883390Y-61214285D02*
X133931009Y-61261904D01*
X133931009Y-61261904D02*
X133978628Y-61357142D01*
X133978628Y-61357142D02*
X133978628Y-61738094D01*
X134454819Y-60214285D02*
X134454819Y-60785713D01*
X134454819Y-60499999D02*
X133454819Y-60499999D01*
X133454819Y-60499999D02*
X133597676Y-60595237D01*
X133597676Y-60595237D02*
X133692914Y-60690475D01*
X133692914Y-60690475D02*
X133740533Y-60785713D01*
X101959580Y-128191666D02*
X102007200Y-128239285D01*
X102007200Y-128239285D02*
X102054819Y-128382142D01*
X102054819Y-128382142D02*
X102054819Y-128477380D01*
X102054819Y-128477380D02*
X102007200Y-128620237D01*
X102007200Y-128620237D02*
X101911961Y-128715475D01*
X101911961Y-128715475D02*
X101816723Y-128763094D01*
X101816723Y-128763094D02*
X101626247Y-128810713D01*
X101626247Y-128810713D02*
X101483390Y-128810713D01*
X101483390Y-128810713D02*
X101292914Y-128763094D01*
X101292914Y-128763094D02*
X101197676Y-128715475D01*
X101197676Y-128715475D02*
X101102438Y-128620237D01*
X101102438Y-128620237D02*
X101054819Y-128477380D01*
X101054819Y-128477380D02*
X101054819Y-128382142D01*
X101054819Y-128382142D02*
X101102438Y-128239285D01*
X101102438Y-128239285D02*
X101150057Y-128191666D01*
X101054819Y-127334523D02*
X101054819Y-127524999D01*
X101054819Y-127524999D02*
X101102438Y-127620237D01*
X101102438Y-127620237D02*
X101150057Y-127667856D01*
X101150057Y-127667856D02*
X101292914Y-127763094D01*
X101292914Y-127763094D02*
X101483390Y-127810713D01*
X101483390Y-127810713D02*
X101864342Y-127810713D01*
X101864342Y-127810713D02*
X101959580Y-127763094D01*
X101959580Y-127763094D02*
X102007200Y-127715475D01*
X102007200Y-127715475D02*
X102054819Y-127620237D01*
X102054819Y-127620237D02*
X102054819Y-127429761D01*
X102054819Y-127429761D02*
X102007200Y-127334523D01*
X102007200Y-127334523D02*
X101959580Y-127286904D01*
X101959580Y-127286904D02*
X101864342Y-127239285D01*
X101864342Y-127239285D02*
X101626247Y-127239285D01*
X101626247Y-127239285D02*
X101531009Y-127286904D01*
X101531009Y-127286904D02*
X101483390Y-127334523D01*
X101483390Y-127334523D02*
X101435771Y-127429761D01*
X101435771Y-127429761D02*
X101435771Y-127620237D01*
X101435771Y-127620237D02*
X101483390Y-127715475D01*
X101483390Y-127715475D02*
X101531009Y-127763094D01*
X101531009Y-127763094D02*
X101626247Y-127810713D01*
X106659580Y-128266666D02*
X106707200Y-128314285D01*
X106707200Y-128314285D02*
X106754819Y-128457142D01*
X106754819Y-128457142D02*
X106754819Y-128552380D01*
X106754819Y-128552380D02*
X106707200Y-128695237D01*
X106707200Y-128695237D02*
X106611961Y-128790475D01*
X106611961Y-128790475D02*
X106516723Y-128838094D01*
X106516723Y-128838094D02*
X106326247Y-128885713D01*
X106326247Y-128885713D02*
X106183390Y-128885713D01*
X106183390Y-128885713D02*
X105992914Y-128838094D01*
X105992914Y-128838094D02*
X105897676Y-128790475D01*
X105897676Y-128790475D02*
X105802438Y-128695237D01*
X105802438Y-128695237D02*
X105754819Y-128552380D01*
X105754819Y-128552380D02*
X105754819Y-128457142D01*
X105754819Y-128457142D02*
X105802438Y-128314285D01*
X105802438Y-128314285D02*
X105850057Y-128266666D01*
X106183390Y-127695237D02*
X106135771Y-127790475D01*
X106135771Y-127790475D02*
X106088152Y-127838094D01*
X106088152Y-127838094D02*
X105992914Y-127885713D01*
X105992914Y-127885713D02*
X105945295Y-127885713D01*
X105945295Y-127885713D02*
X105850057Y-127838094D01*
X105850057Y-127838094D02*
X105802438Y-127790475D01*
X105802438Y-127790475D02*
X105754819Y-127695237D01*
X105754819Y-127695237D02*
X105754819Y-127504761D01*
X105754819Y-127504761D02*
X105802438Y-127409523D01*
X105802438Y-127409523D02*
X105850057Y-127361904D01*
X105850057Y-127361904D02*
X105945295Y-127314285D01*
X105945295Y-127314285D02*
X105992914Y-127314285D01*
X105992914Y-127314285D02*
X106088152Y-127361904D01*
X106088152Y-127361904D02*
X106135771Y-127409523D01*
X106135771Y-127409523D02*
X106183390Y-127504761D01*
X106183390Y-127504761D02*
X106183390Y-127695237D01*
X106183390Y-127695237D02*
X106231009Y-127790475D01*
X106231009Y-127790475D02*
X106278628Y-127838094D01*
X106278628Y-127838094D02*
X106373866Y-127885713D01*
X106373866Y-127885713D02*
X106564342Y-127885713D01*
X106564342Y-127885713D02*
X106659580Y-127838094D01*
X106659580Y-127838094D02*
X106707200Y-127790475D01*
X106707200Y-127790475D02*
X106754819Y-127695237D01*
X106754819Y-127695237D02*
X106754819Y-127504761D01*
X106754819Y-127504761D02*
X106707200Y-127409523D01*
X106707200Y-127409523D02*
X106659580Y-127361904D01*
X106659580Y-127361904D02*
X106564342Y-127314285D01*
X106564342Y-127314285D02*
X106373866Y-127314285D01*
X106373866Y-127314285D02*
X106278628Y-127361904D01*
X106278628Y-127361904D02*
X106231009Y-127409523D01*
X106231009Y-127409523D02*
X106183390Y-127504761D01*
X132262295Y-61790475D02*
X131462295Y-61790475D01*
X131462295Y-61790475D02*
X131462295Y-61599999D01*
X131462295Y-61599999D02*
X131500390Y-61485713D01*
X131500390Y-61485713D02*
X131576580Y-61409523D01*
X131576580Y-61409523D02*
X131652771Y-61371428D01*
X131652771Y-61371428D02*
X131805152Y-61333332D01*
X131805152Y-61333332D02*
X131919438Y-61333332D01*
X131919438Y-61333332D02*
X132071819Y-61371428D01*
X132071819Y-61371428D02*
X132148009Y-61409523D01*
X132148009Y-61409523D02*
X132224200Y-61485713D01*
X132224200Y-61485713D02*
X132262295Y-61599999D01*
X132262295Y-61599999D02*
X132262295Y-61790475D01*
X131538485Y-61028571D02*
X131500390Y-60990475D01*
X131500390Y-60990475D02*
X131462295Y-60914285D01*
X131462295Y-60914285D02*
X131462295Y-60723809D01*
X131462295Y-60723809D02*
X131500390Y-60647618D01*
X131500390Y-60647618D02*
X131538485Y-60609523D01*
X131538485Y-60609523D02*
X131614676Y-60571428D01*
X131614676Y-60571428D02*
X131690866Y-60571428D01*
X131690866Y-60571428D02*
X131805152Y-60609523D01*
X131805152Y-60609523D02*
X132262295Y-61066666D01*
X132262295Y-61066666D02*
X132262295Y-60571428D01*
X129457533Y-58604761D02*
X129457533Y-57995238D01*
X129762295Y-58299999D02*
X129152771Y-58299999D01*
X120609580Y-128667857D02*
X120657200Y-128715476D01*
X120657200Y-128715476D02*
X120704819Y-128858333D01*
X120704819Y-128858333D02*
X120704819Y-128953571D01*
X120704819Y-128953571D02*
X120657200Y-129096428D01*
X120657200Y-129096428D02*
X120561961Y-129191666D01*
X120561961Y-129191666D02*
X120466723Y-129239285D01*
X120466723Y-129239285D02*
X120276247Y-129286904D01*
X120276247Y-129286904D02*
X120133390Y-129286904D01*
X120133390Y-129286904D02*
X119942914Y-129239285D01*
X119942914Y-129239285D02*
X119847676Y-129191666D01*
X119847676Y-129191666D02*
X119752438Y-129096428D01*
X119752438Y-129096428D02*
X119704819Y-128953571D01*
X119704819Y-128953571D02*
X119704819Y-128858333D01*
X119704819Y-128858333D02*
X119752438Y-128715476D01*
X119752438Y-128715476D02*
X119800057Y-128667857D01*
X120704819Y-127715476D02*
X120704819Y-128286904D01*
X120704819Y-128001190D02*
X119704819Y-128001190D01*
X119704819Y-128001190D02*
X119847676Y-128096428D01*
X119847676Y-128096428D02*
X119942914Y-128191666D01*
X119942914Y-128191666D02*
X119990533Y-128286904D01*
X120704819Y-126763095D02*
X120704819Y-127334523D01*
X120704819Y-127048809D02*
X119704819Y-127048809D01*
X119704819Y-127048809D02*
X119847676Y-127144047D01*
X119847676Y-127144047D02*
X119942914Y-127239285D01*
X119942914Y-127239285D02*
X119990533Y-127334523D01*
X139357142Y-126509580D02*
X139309523Y-126557200D01*
X139309523Y-126557200D02*
X139166666Y-126604819D01*
X139166666Y-126604819D02*
X139071428Y-126604819D01*
X139071428Y-126604819D02*
X138928571Y-126557200D01*
X138928571Y-126557200D02*
X138833333Y-126461961D01*
X138833333Y-126461961D02*
X138785714Y-126366723D01*
X138785714Y-126366723D02*
X138738095Y-126176247D01*
X138738095Y-126176247D02*
X138738095Y-126033390D01*
X138738095Y-126033390D02*
X138785714Y-125842914D01*
X138785714Y-125842914D02*
X138833333Y-125747676D01*
X138833333Y-125747676D02*
X138928571Y-125652438D01*
X138928571Y-125652438D02*
X139071428Y-125604819D01*
X139071428Y-125604819D02*
X139166666Y-125604819D01*
X139166666Y-125604819D02*
X139309523Y-125652438D01*
X139309523Y-125652438D02*
X139357142Y-125700057D01*
X140309523Y-126604819D02*
X139738095Y-126604819D01*
X140023809Y-126604819D02*
X140023809Y-125604819D01*
X140023809Y-125604819D02*
X139928571Y-125747676D01*
X139928571Y-125747676D02*
X139833333Y-125842914D01*
X139833333Y-125842914D02*
X139738095Y-125890533D01*
X140690476Y-125700057D02*
X140738095Y-125652438D01*
X140738095Y-125652438D02*
X140833333Y-125604819D01*
X140833333Y-125604819D02*
X141071428Y-125604819D01*
X141071428Y-125604819D02*
X141166666Y-125652438D01*
X141166666Y-125652438D02*
X141214285Y-125700057D01*
X141214285Y-125700057D02*
X141261904Y-125795295D01*
X141261904Y-125795295D02*
X141261904Y-125890533D01*
X141261904Y-125890533D02*
X141214285Y-126033390D01*
X141214285Y-126033390D02*
X140642857Y-126604819D01*
X140642857Y-126604819D02*
X141261904Y-126604819D01*
X117654295Y-61790475D02*
X116854295Y-61790475D01*
X116854295Y-61790475D02*
X116854295Y-61599999D01*
X116854295Y-61599999D02*
X116892390Y-61485713D01*
X116892390Y-61485713D02*
X116968580Y-61409523D01*
X116968580Y-61409523D02*
X117044771Y-61371428D01*
X117044771Y-61371428D02*
X117197152Y-61333332D01*
X117197152Y-61333332D02*
X117311438Y-61333332D01*
X117311438Y-61333332D02*
X117463819Y-61371428D01*
X117463819Y-61371428D02*
X117540009Y-61409523D01*
X117540009Y-61409523D02*
X117616200Y-61485713D01*
X117616200Y-61485713D02*
X117654295Y-61599999D01*
X117654295Y-61599999D02*
X117654295Y-61790475D01*
X116854295Y-61066666D02*
X116854295Y-60571428D01*
X116854295Y-60571428D02*
X117159057Y-60838094D01*
X117159057Y-60838094D02*
X117159057Y-60723809D01*
X117159057Y-60723809D02*
X117197152Y-60647618D01*
X117197152Y-60647618D02*
X117235247Y-60609523D01*
X117235247Y-60609523D02*
X117311438Y-60571428D01*
X117311438Y-60571428D02*
X117501914Y-60571428D01*
X117501914Y-60571428D02*
X117578104Y-60609523D01*
X117578104Y-60609523D02*
X117616200Y-60647618D01*
X117616200Y-60647618D02*
X117654295Y-60723809D01*
X117654295Y-60723809D02*
X117654295Y-60952380D01*
X117654295Y-60952380D02*
X117616200Y-61028571D01*
X117616200Y-61028571D02*
X117578104Y-61066666D01*
X119807533Y-58679761D02*
X119807533Y-58070238D01*
X120112295Y-58374999D02*
X119502771Y-58374999D01*
X113759580Y-80566666D02*
X113807200Y-80614285D01*
X113807200Y-80614285D02*
X113854819Y-80757142D01*
X113854819Y-80757142D02*
X113854819Y-80852380D01*
X113854819Y-80852380D02*
X113807200Y-80995237D01*
X113807200Y-80995237D02*
X113711961Y-81090475D01*
X113711961Y-81090475D02*
X113616723Y-81138094D01*
X113616723Y-81138094D02*
X113426247Y-81185713D01*
X113426247Y-81185713D02*
X113283390Y-81185713D01*
X113283390Y-81185713D02*
X113092914Y-81138094D01*
X113092914Y-81138094D02*
X112997676Y-81090475D01*
X112997676Y-81090475D02*
X112902438Y-80995237D01*
X112902438Y-80995237D02*
X112854819Y-80852380D01*
X112854819Y-80852380D02*
X112854819Y-80757142D01*
X112854819Y-80757142D02*
X112902438Y-80614285D01*
X112902438Y-80614285D02*
X112950057Y-80566666D01*
X112854819Y-80233332D02*
X112854819Y-79566666D01*
X112854819Y-79566666D02*
X113854819Y-79995237D01*
X150557142Y-126509580D02*
X150509523Y-126557200D01*
X150509523Y-126557200D02*
X150366666Y-126604819D01*
X150366666Y-126604819D02*
X150271428Y-126604819D01*
X150271428Y-126604819D02*
X150128571Y-126557200D01*
X150128571Y-126557200D02*
X150033333Y-126461961D01*
X150033333Y-126461961D02*
X149985714Y-126366723D01*
X149985714Y-126366723D02*
X149938095Y-126176247D01*
X149938095Y-126176247D02*
X149938095Y-126033390D01*
X149938095Y-126033390D02*
X149985714Y-125842914D01*
X149985714Y-125842914D02*
X150033333Y-125747676D01*
X150033333Y-125747676D02*
X150128571Y-125652438D01*
X150128571Y-125652438D02*
X150271428Y-125604819D01*
X150271428Y-125604819D02*
X150366666Y-125604819D01*
X150366666Y-125604819D02*
X150509523Y-125652438D01*
X150509523Y-125652438D02*
X150557142Y-125700057D01*
X151509523Y-126604819D02*
X150938095Y-126604819D01*
X151223809Y-126604819D02*
X151223809Y-125604819D01*
X151223809Y-125604819D02*
X151128571Y-125747676D01*
X151128571Y-125747676D02*
X151033333Y-125842914D01*
X151033333Y-125842914D02*
X150938095Y-125890533D01*
X152366666Y-125938152D02*
X152366666Y-126604819D01*
X152128571Y-125557200D02*
X151890476Y-126271485D01*
X151890476Y-126271485D02*
X152509523Y-126271485D01*
X110466666Y-76749819D02*
X110466666Y-77464104D01*
X110466666Y-77464104D02*
X110419047Y-77606961D01*
X110419047Y-77606961D02*
X110323809Y-77702200D01*
X110323809Y-77702200D02*
X110180952Y-77749819D01*
X110180952Y-77749819D02*
X110085714Y-77749819D01*
X110847619Y-76749819D02*
X111514285Y-76749819D01*
X111514285Y-76749819D02*
X111085714Y-77749819D01*
X122684819Y-61366666D02*
X122208628Y-61699999D01*
X122684819Y-61938094D02*
X121684819Y-61938094D01*
X121684819Y-61938094D02*
X121684819Y-61557142D01*
X121684819Y-61557142D02*
X121732438Y-61461904D01*
X121732438Y-61461904D02*
X121780057Y-61414285D01*
X121780057Y-61414285D02*
X121875295Y-61366666D01*
X121875295Y-61366666D02*
X122018152Y-61366666D01*
X122018152Y-61366666D02*
X122113390Y-61414285D01*
X122113390Y-61414285D02*
X122161009Y-61461904D01*
X122161009Y-61461904D02*
X122208628Y-61557142D01*
X122208628Y-61557142D02*
X122208628Y-61938094D01*
X121684819Y-61033332D02*
X121684819Y-60414285D01*
X121684819Y-60414285D02*
X122065771Y-60747618D01*
X122065771Y-60747618D02*
X122065771Y-60604761D01*
X122065771Y-60604761D02*
X122113390Y-60509523D01*
X122113390Y-60509523D02*
X122161009Y-60461904D01*
X122161009Y-60461904D02*
X122256247Y-60414285D01*
X122256247Y-60414285D02*
X122494342Y-60414285D01*
X122494342Y-60414285D02*
X122589580Y-60461904D01*
X122589580Y-60461904D02*
X122637200Y-60509523D01*
X122637200Y-60509523D02*
X122684819Y-60604761D01*
X122684819Y-60604761D02*
X122684819Y-60890475D01*
X122684819Y-60890475D02*
X122637200Y-60985713D01*
X122637200Y-60985713D02*
X122589580Y-61033332D01*
X136424819Y-124013523D02*
X137139104Y-124013523D01*
X137139104Y-124013523D02*
X137281961Y-124061142D01*
X137281961Y-124061142D02*
X137377200Y-124156380D01*
X137377200Y-124156380D02*
X137424819Y-124299237D01*
X137424819Y-124299237D02*
X137424819Y-124394475D01*
X137424819Y-123013523D02*
X137424819Y-123584951D01*
X137424819Y-123299237D02*
X136424819Y-123299237D01*
X136424819Y-123299237D02*
X136567676Y-123394475D01*
X136567676Y-123394475D02*
X136662914Y-123489713D01*
X136662914Y-123489713D02*
X136710533Y-123584951D01*
X136424819Y-122394475D02*
X136424819Y-122299237D01*
X136424819Y-122299237D02*
X136472438Y-122203999D01*
X136472438Y-122203999D02*
X136520057Y-122156380D01*
X136520057Y-122156380D02*
X136615295Y-122108761D01*
X136615295Y-122108761D02*
X136805771Y-122061142D01*
X136805771Y-122061142D02*
X137043866Y-122061142D01*
X137043866Y-122061142D02*
X137234342Y-122108761D01*
X137234342Y-122108761D02*
X137329580Y-122156380D01*
X137329580Y-122156380D02*
X137377200Y-122203999D01*
X137377200Y-122203999D02*
X137424819Y-122299237D01*
X137424819Y-122299237D02*
X137424819Y-122394475D01*
X137424819Y-122394475D02*
X137377200Y-122489713D01*
X137377200Y-122489713D02*
X137329580Y-122537332D01*
X137329580Y-122537332D02*
X137234342Y-122584951D01*
X137234342Y-122584951D02*
X137043866Y-122632570D01*
X137043866Y-122632570D02*
X136805771Y-122632570D01*
X136805771Y-122632570D02*
X136615295Y-122584951D01*
X136615295Y-122584951D02*
X136520057Y-122537332D01*
X136520057Y-122537332D02*
X136472438Y-122489713D01*
X136472438Y-122489713D02*
X136424819Y-122394475D01*
X82546666Y-76749819D02*
X82546666Y-77464104D01*
X82546666Y-77464104D02*
X82499047Y-77606961D01*
X82499047Y-77606961D02*
X82403809Y-77702200D01*
X82403809Y-77702200D02*
X82260952Y-77749819D01*
X82260952Y-77749819D02*
X82165714Y-77749819D01*
X83451428Y-76749819D02*
X83260952Y-76749819D01*
X83260952Y-76749819D02*
X83165714Y-76797438D01*
X83165714Y-76797438D02*
X83118095Y-76845057D01*
X83118095Y-76845057D02*
X83022857Y-76987914D01*
X83022857Y-76987914D02*
X82975238Y-77178390D01*
X82975238Y-77178390D02*
X82975238Y-77559342D01*
X82975238Y-77559342D02*
X83022857Y-77654580D01*
X83022857Y-77654580D02*
X83070476Y-77702200D01*
X83070476Y-77702200D02*
X83165714Y-77749819D01*
X83165714Y-77749819D02*
X83356190Y-77749819D01*
X83356190Y-77749819D02*
X83451428Y-77702200D01*
X83451428Y-77702200D02*
X83499047Y-77654580D01*
X83499047Y-77654580D02*
X83546666Y-77559342D01*
X83546666Y-77559342D02*
X83546666Y-77321247D01*
X83546666Y-77321247D02*
X83499047Y-77226009D01*
X83499047Y-77226009D02*
X83451428Y-77178390D01*
X83451428Y-77178390D02*
X83356190Y-77130771D01*
X83356190Y-77130771D02*
X83165714Y-77130771D01*
X83165714Y-77130771D02*
X83070476Y-77178390D01*
X83070476Y-77178390D02*
X83022857Y-77226009D01*
X83022857Y-77226009D02*
X82975238Y-77321247D01*
X115609580Y-128742857D02*
X115657200Y-128790476D01*
X115657200Y-128790476D02*
X115704819Y-128933333D01*
X115704819Y-128933333D02*
X115704819Y-129028571D01*
X115704819Y-129028571D02*
X115657200Y-129171428D01*
X115657200Y-129171428D02*
X115561961Y-129266666D01*
X115561961Y-129266666D02*
X115466723Y-129314285D01*
X115466723Y-129314285D02*
X115276247Y-129361904D01*
X115276247Y-129361904D02*
X115133390Y-129361904D01*
X115133390Y-129361904D02*
X114942914Y-129314285D01*
X114942914Y-129314285D02*
X114847676Y-129266666D01*
X114847676Y-129266666D02*
X114752438Y-129171428D01*
X114752438Y-129171428D02*
X114704819Y-129028571D01*
X114704819Y-129028571D02*
X114704819Y-128933333D01*
X114704819Y-128933333D02*
X114752438Y-128790476D01*
X114752438Y-128790476D02*
X114800057Y-128742857D01*
X115704819Y-127790476D02*
X115704819Y-128361904D01*
X115704819Y-128076190D02*
X114704819Y-128076190D01*
X114704819Y-128076190D02*
X114847676Y-128171428D01*
X114847676Y-128171428D02*
X114942914Y-128266666D01*
X114942914Y-128266666D02*
X114990533Y-128361904D01*
X114704819Y-127171428D02*
X114704819Y-127076190D01*
X114704819Y-127076190D02*
X114752438Y-126980952D01*
X114752438Y-126980952D02*
X114800057Y-126933333D01*
X114800057Y-126933333D02*
X114895295Y-126885714D01*
X114895295Y-126885714D02*
X115085771Y-126838095D01*
X115085771Y-126838095D02*
X115323866Y-126838095D01*
X115323866Y-126838095D02*
X115514342Y-126885714D01*
X115514342Y-126885714D02*
X115609580Y-126933333D01*
X115609580Y-126933333D02*
X115657200Y-126980952D01*
X115657200Y-126980952D02*
X115704819Y-127076190D01*
X115704819Y-127076190D02*
X115704819Y-127171428D01*
X115704819Y-127171428D02*
X115657200Y-127266666D01*
X115657200Y-127266666D02*
X115609580Y-127314285D01*
X115609580Y-127314285D02*
X115514342Y-127361904D01*
X115514342Y-127361904D02*
X115323866Y-127409523D01*
X115323866Y-127409523D02*
X115085771Y-127409523D01*
X115085771Y-127409523D02*
X114895295Y-127361904D01*
X114895295Y-127361904D02*
X114800057Y-127314285D01*
X114800057Y-127314285D02*
X114752438Y-127266666D01*
X114752438Y-127266666D02*
X114704819Y-127171428D01*
X83874819Y-123733333D02*
X84589104Y-123733333D01*
X84589104Y-123733333D02*
X84731961Y-123780952D01*
X84731961Y-123780952D02*
X84827200Y-123876190D01*
X84827200Y-123876190D02*
X84874819Y-124019047D01*
X84874819Y-124019047D02*
X84874819Y-124114285D01*
X83874819Y-122780952D02*
X83874819Y-123257142D01*
X83874819Y-123257142D02*
X84351009Y-123304761D01*
X84351009Y-123304761D02*
X84303390Y-123257142D01*
X84303390Y-123257142D02*
X84255771Y-123161904D01*
X84255771Y-123161904D02*
X84255771Y-122923809D01*
X84255771Y-122923809D02*
X84303390Y-122828571D01*
X84303390Y-122828571D02*
X84351009Y-122780952D01*
X84351009Y-122780952D02*
X84446247Y-122733333D01*
X84446247Y-122733333D02*
X84684342Y-122733333D01*
X84684342Y-122733333D02*
X84779580Y-122780952D01*
X84779580Y-122780952D02*
X84827200Y-122828571D01*
X84827200Y-122828571D02*
X84874819Y-122923809D01*
X84874819Y-122923809D02*
X84874819Y-123161904D01*
X84874819Y-123161904D02*
X84827200Y-123257142D01*
X84827200Y-123257142D02*
X84779580Y-123304761D01*
X140870295Y-61790475D02*
X140070295Y-61790475D01*
X140070295Y-61790475D02*
X140070295Y-61599999D01*
X140070295Y-61599999D02*
X140108390Y-61485713D01*
X140108390Y-61485713D02*
X140184580Y-61409523D01*
X140184580Y-61409523D02*
X140260771Y-61371428D01*
X140260771Y-61371428D02*
X140413152Y-61333332D01*
X140413152Y-61333332D02*
X140527438Y-61333332D01*
X140527438Y-61333332D02*
X140679819Y-61371428D01*
X140679819Y-61371428D02*
X140756009Y-61409523D01*
X140756009Y-61409523D02*
X140832200Y-61485713D01*
X140832200Y-61485713D02*
X140870295Y-61599999D01*
X140870295Y-61599999D02*
X140870295Y-61790475D01*
X140870295Y-60571428D02*
X140870295Y-61028571D01*
X140870295Y-60799999D02*
X140070295Y-60799999D01*
X140070295Y-60799999D02*
X140184580Y-60876190D01*
X140184580Y-60876190D02*
X140260771Y-60952380D01*
X140260771Y-60952380D02*
X140298866Y-61028571D01*
X137645238Y-64082533D02*
X138254762Y-64082533D01*
X137950000Y-64387295D02*
X137950000Y-63777771D01*
X85033333Y-66359580D02*
X84985714Y-66407200D01*
X84985714Y-66407200D02*
X84842857Y-66454819D01*
X84842857Y-66454819D02*
X84747619Y-66454819D01*
X84747619Y-66454819D02*
X84604762Y-66407200D01*
X84604762Y-66407200D02*
X84509524Y-66311961D01*
X84509524Y-66311961D02*
X84461905Y-66216723D01*
X84461905Y-66216723D02*
X84414286Y-66026247D01*
X84414286Y-66026247D02*
X84414286Y-65883390D01*
X84414286Y-65883390D02*
X84461905Y-65692914D01*
X84461905Y-65692914D02*
X84509524Y-65597676D01*
X84509524Y-65597676D02*
X84604762Y-65502438D01*
X84604762Y-65502438D02*
X84747619Y-65454819D01*
X84747619Y-65454819D02*
X84842857Y-65454819D01*
X84842857Y-65454819D02*
X84985714Y-65502438D01*
X84985714Y-65502438D02*
X85033333Y-65550057D01*
X85985714Y-66454819D02*
X85414286Y-66454819D01*
X85700000Y-66454819D02*
X85700000Y-65454819D01*
X85700000Y-65454819D02*
X85604762Y-65597676D01*
X85604762Y-65597676D02*
X85509524Y-65692914D01*
X85509524Y-65692914D02*
X85414286Y-65740533D01*
X144957142Y-126513580D02*
X144909523Y-126561200D01*
X144909523Y-126561200D02*
X144766666Y-126608819D01*
X144766666Y-126608819D02*
X144671428Y-126608819D01*
X144671428Y-126608819D02*
X144528571Y-126561200D01*
X144528571Y-126561200D02*
X144433333Y-126465961D01*
X144433333Y-126465961D02*
X144385714Y-126370723D01*
X144385714Y-126370723D02*
X144338095Y-126180247D01*
X144338095Y-126180247D02*
X144338095Y-126037390D01*
X144338095Y-126037390D02*
X144385714Y-125846914D01*
X144385714Y-125846914D02*
X144433333Y-125751676D01*
X144433333Y-125751676D02*
X144528571Y-125656438D01*
X144528571Y-125656438D02*
X144671428Y-125608819D01*
X144671428Y-125608819D02*
X144766666Y-125608819D01*
X144766666Y-125608819D02*
X144909523Y-125656438D01*
X144909523Y-125656438D02*
X144957142Y-125704057D01*
X145909523Y-126608819D02*
X145338095Y-126608819D01*
X145623809Y-126608819D02*
X145623809Y-125608819D01*
X145623809Y-125608819D02*
X145528571Y-125751676D01*
X145528571Y-125751676D02*
X145433333Y-125846914D01*
X145433333Y-125846914D02*
X145338095Y-125894533D01*
X146242857Y-125608819D02*
X146861904Y-125608819D01*
X146861904Y-125608819D02*
X146528571Y-125989771D01*
X146528571Y-125989771D02*
X146671428Y-125989771D01*
X146671428Y-125989771D02*
X146766666Y-126037390D01*
X146766666Y-126037390D02*
X146814285Y-126085009D01*
X146814285Y-126085009D02*
X146861904Y-126180247D01*
X146861904Y-126180247D02*
X146861904Y-126418342D01*
X146861904Y-126418342D02*
X146814285Y-126513580D01*
X146814285Y-126513580D02*
X146766666Y-126561200D01*
X146766666Y-126561200D02*
X146671428Y-126608819D01*
X146671428Y-126608819D02*
X146385714Y-126608819D01*
X146385714Y-126608819D02*
X146290476Y-126561200D01*
X146290476Y-126561200D02*
X146242857Y-126513580D01*
X89009580Y-128241666D02*
X89057200Y-128289285D01*
X89057200Y-128289285D02*
X89104819Y-128432142D01*
X89104819Y-128432142D02*
X89104819Y-128527380D01*
X89104819Y-128527380D02*
X89057200Y-128670237D01*
X89057200Y-128670237D02*
X88961961Y-128765475D01*
X88961961Y-128765475D02*
X88866723Y-128813094D01*
X88866723Y-128813094D02*
X88676247Y-128860713D01*
X88676247Y-128860713D02*
X88533390Y-128860713D01*
X88533390Y-128860713D02*
X88342914Y-128813094D01*
X88342914Y-128813094D02*
X88247676Y-128765475D01*
X88247676Y-128765475D02*
X88152438Y-128670237D01*
X88152438Y-128670237D02*
X88104819Y-128527380D01*
X88104819Y-128527380D02*
X88104819Y-128432142D01*
X88104819Y-128432142D02*
X88152438Y-128289285D01*
X88152438Y-128289285D02*
X88200057Y-128241666D01*
X88104819Y-127908332D02*
X88104819Y-127289285D01*
X88104819Y-127289285D02*
X88485771Y-127622618D01*
X88485771Y-127622618D02*
X88485771Y-127479761D01*
X88485771Y-127479761D02*
X88533390Y-127384523D01*
X88533390Y-127384523D02*
X88581009Y-127336904D01*
X88581009Y-127336904D02*
X88676247Y-127289285D01*
X88676247Y-127289285D02*
X88914342Y-127289285D01*
X88914342Y-127289285D02*
X89009580Y-127336904D01*
X89009580Y-127336904D02*
X89057200Y-127384523D01*
X89057200Y-127384523D02*
X89104819Y-127479761D01*
X89104819Y-127479761D02*
X89104819Y-127765475D01*
X89104819Y-127765475D02*
X89057200Y-127860713D01*
X89057200Y-127860713D02*
X89009580Y-127908332D01*
X150586666Y-56534819D02*
X150586666Y-57249104D01*
X150586666Y-57249104D02*
X150539047Y-57391961D01*
X150539047Y-57391961D02*
X150443809Y-57487200D01*
X150443809Y-57487200D02*
X150300952Y-57534819D01*
X150300952Y-57534819D02*
X150205714Y-57534819D01*
X151491428Y-56868152D02*
X151491428Y-57534819D01*
X151253333Y-56487200D02*
X151015238Y-57201485D01*
X151015238Y-57201485D02*
X151634285Y-57201485D01*
X124266666Y-76999819D02*
X124266666Y-77714104D01*
X124266666Y-77714104D02*
X124219047Y-77856961D01*
X124219047Y-77856961D02*
X124123809Y-77952200D01*
X124123809Y-77952200D02*
X123980952Y-77999819D01*
X123980952Y-77999819D02*
X123885714Y-77999819D01*
X124790476Y-77999819D02*
X124980952Y-77999819D01*
X124980952Y-77999819D02*
X125076190Y-77952200D01*
X125076190Y-77952200D02*
X125123809Y-77904580D01*
X125123809Y-77904580D02*
X125219047Y-77761723D01*
X125219047Y-77761723D02*
X125266666Y-77571247D01*
X125266666Y-77571247D02*
X125266666Y-77190295D01*
X125266666Y-77190295D02*
X125219047Y-77095057D01*
X125219047Y-77095057D02*
X125171428Y-77047438D01*
X125171428Y-77047438D02*
X125076190Y-76999819D01*
X125076190Y-76999819D02*
X124885714Y-76999819D01*
X124885714Y-76999819D02*
X124790476Y-77047438D01*
X124790476Y-77047438D02*
X124742857Y-77095057D01*
X124742857Y-77095057D02*
X124695238Y-77190295D01*
X124695238Y-77190295D02*
X124695238Y-77428390D01*
X124695238Y-77428390D02*
X124742857Y-77523628D01*
X124742857Y-77523628D02*
X124790476Y-77571247D01*
X124790476Y-77571247D02*
X124885714Y-77618866D01*
X124885714Y-77618866D02*
X125076190Y-77618866D01*
X125076190Y-77618866D02*
X125171428Y-77571247D01*
X125171428Y-77571247D02*
X125219047Y-77523628D01*
X125219047Y-77523628D02*
X125266666Y-77428390D01*
X97459580Y-128491666D02*
X97507200Y-128539285D01*
X97507200Y-128539285D02*
X97554819Y-128682142D01*
X97554819Y-128682142D02*
X97554819Y-128777380D01*
X97554819Y-128777380D02*
X97507200Y-128920237D01*
X97507200Y-128920237D02*
X97411961Y-129015475D01*
X97411961Y-129015475D02*
X97316723Y-129063094D01*
X97316723Y-129063094D02*
X97126247Y-129110713D01*
X97126247Y-129110713D02*
X96983390Y-129110713D01*
X96983390Y-129110713D02*
X96792914Y-129063094D01*
X96792914Y-129063094D02*
X96697676Y-129015475D01*
X96697676Y-129015475D02*
X96602438Y-128920237D01*
X96602438Y-128920237D02*
X96554819Y-128777380D01*
X96554819Y-128777380D02*
X96554819Y-128682142D01*
X96554819Y-128682142D02*
X96602438Y-128539285D01*
X96602438Y-128539285D02*
X96650057Y-128491666D01*
X96554819Y-127586904D02*
X96554819Y-128063094D01*
X96554819Y-128063094D02*
X97031009Y-128110713D01*
X97031009Y-128110713D02*
X96983390Y-128063094D01*
X96983390Y-128063094D02*
X96935771Y-127967856D01*
X96935771Y-127967856D02*
X96935771Y-127729761D01*
X96935771Y-127729761D02*
X96983390Y-127634523D01*
X96983390Y-127634523D02*
X97031009Y-127586904D01*
X97031009Y-127586904D02*
X97126247Y-127539285D01*
X97126247Y-127539285D02*
X97364342Y-127539285D01*
X97364342Y-127539285D02*
X97459580Y-127586904D01*
X97459580Y-127586904D02*
X97507200Y-127634523D01*
X97507200Y-127634523D02*
X97554819Y-127729761D01*
X97554819Y-127729761D02*
X97554819Y-127967856D01*
X97554819Y-127967856D02*
X97507200Y-128063094D01*
X97507200Y-128063094D02*
X97459580Y-128110713D01*
D12*
%TO.C,C2*%
X92288748Y-62890000D02*
X93711252Y-62890000D01*
X92288748Y-64710000D02*
X93711252Y-64710000D01*
%TO.C,J8*%
X70670000Y-78545000D02*
X72000000Y-78545000D01*
X70670000Y-79875000D02*
X70670000Y-78545000D01*
X70670000Y-81145000D02*
X70670000Y-116765000D01*
X70670000Y-81145000D02*
X73330000Y-81145000D01*
X70670000Y-116765000D02*
X73330000Y-116765000D01*
X73330000Y-81145000D02*
X73330000Y-116765000D01*
%TO.C,C4*%
X93740000Y-127338748D02*
X93740000Y-128761252D01*
X95560000Y-127338748D02*
X95560000Y-128761252D01*
%TO.C,R2*%
X126220000Y-61046359D02*
X126220000Y-61353641D01*
X126980000Y-61046359D02*
X126980000Y-61353641D01*
%TO.C,C9*%
X111590000Y-127238748D02*
X111590000Y-128661252D01*
X113410000Y-127238748D02*
X113410000Y-128661252D01*
%TO.C,R1*%
X135020000Y-61046359D02*
X135020000Y-61353641D01*
X135780000Y-61046359D02*
X135780000Y-61353641D01*
%TO.C,C6*%
X102540000Y-127363748D02*
X102540000Y-128786252D01*
X104360000Y-127363748D02*
X104360000Y-128786252D01*
%TO.C,C8*%
X107290000Y-127313748D02*
X107290000Y-128736252D01*
X109110000Y-127313748D02*
X109110000Y-128736252D01*
D13*
%TO.C,D2*%
X127900000Y-63050000D02*
X127900000Y-59350000D01*
D14*
X129150000Y-61000000D02*
X129700000Y-61000000D01*
X129400000Y-61400000D02*
X129150000Y-61000000D01*
X129700000Y-61000000D02*
X129400000Y-61400000D01*
D13*
X130900000Y-59350000D02*
X130900000Y-63050000D01*
D12*
%TO.C,C11*%
X121290000Y-127188748D02*
X121290000Y-128611252D01*
X123110000Y-127188748D02*
X123110000Y-128611252D01*
%TO.C,C12*%
X139288748Y-127090000D02*
X140711252Y-127090000D01*
X139288748Y-128910000D02*
X140711252Y-128910000D01*
D13*
%TO.C,D3*%
X118300000Y-63050000D02*
X118300000Y-59350000D01*
D14*
X119550000Y-61000000D02*
X120100000Y-61000000D01*
X119800000Y-61400000D02*
X119550000Y-61000000D01*
X120100000Y-61000000D02*
X119800000Y-61400000D01*
D13*
X121300000Y-59350000D02*
X121300000Y-63050000D01*
D12*
%TO.C,J2*%
X82395000Y-61930000D02*
X82395000Y-60600000D01*
X83725000Y-61930000D02*
X82395000Y-61930000D01*
X84995000Y-59270000D02*
X87595000Y-59270000D01*
X84995000Y-61930000D02*
X84995000Y-59270000D01*
X84995000Y-61930000D02*
X87595000Y-61930000D01*
X87595000Y-61930000D02*
X87595000Y-59270000D01*
%TO.C,C7*%
X114290000Y-79688748D02*
X114290000Y-81111252D01*
X116110000Y-79688748D02*
X116110000Y-81111252D01*
%TO.C,C14*%
X150488748Y-127090000D02*
X151911252Y-127090000D01*
X150488748Y-128910000D02*
X151911252Y-128910000D01*
%TO.C,J7*%
X109470000Y-78295000D02*
X110800000Y-78295000D01*
X109470000Y-79625000D02*
X109470000Y-78295000D01*
X109470000Y-80895000D02*
X109470000Y-116515000D01*
X109470000Y-80895000D02*
X112130000Y-80895000D01*
X109470000Y-116515000D02*
X112130000Y-116515000D01*
X112130000Y-80895000D02*
X112130000Y-116515000D01*
%TO.C,R3*%
X123020000Y-61353641D02*
X123020000Y-61046359D01*
X123780000Y-61353641D02*
X123780000Y-61046359D01*
%TO.C,J10*%
X137970000Y-124534000D02*
X137970000Y-123204000D01*
X139300000Y-124534000D02*
X137970000Y-124534000D01*
X140570000Y-121874000D02*
X153330000Y-121874000D01*
X140570000Y-124534000D02*
X140570000Y-121874000D01*
X140570000Y-124534000D02*
X153330000Y-124534000D01*
X153330000Y-124534000D02*
X153330000Y-121874000D01*
%TO.C,J6*%
X81550000Y-78295000D02*
X82880000Y-78295000D01*
X81550000Y-79625000D02*
X81550000Y-78295000D01*
X81550000Y-80895000D02*
X81550000Y-116515000D01*
X81550000Y-80895000D02*
X84210000Y-80895000D01*
X81550000Y-116515000D02*
X84210000Y-116515000D01*
X84210000Y-80895000D02*
X84210000Y-116515000D01*
%TO.C,C10*%
X116390000Y-127213748D02*
X116390000Y-128636252D01*
X118210000Y-127213748D02*
X118210000Y-128636252D01*
%TO.C,J5*%
X85860000Y-122070000D02*
X87190000Y-122070000D01*
X85860000Y-123400000D02*
X85860000Y-122070000D01*
X88460000Y-122070000D02*
X124080000Y-122070000D01*
X88460000Y-124730000D02*
X88460000Y-122070000D01*
X88460000Y-124730000D02*
X124080000Y-124730000D01*
X124080000Y-124730000D02*
X124080000Y-122070000D01*
D13*
%TO.C,D1*%
X136500000Y-63050000D02*
X136500000Y-59350000D01*
D14*
X137700000Y-61400000D02*
X138000000Y-61000000D01*
X138000000Y-61000000D02*
X138250000Y-61400000D01*
X138250000Y-61400000D02*
X137700000Y-61400000D01*
D13*
X139500000Y-59350000D02*
X139500000Y-63050000D01*
D12*
%TO.C,C1*%
X84488748Y-63090000D02*
X85911252Y-63090000D01*
X84488748Y-64910000D02*
X85911252Y-64910000D01*
%TO.C,C13*%
X144888748Y-127094000D02*
X146311252Y-127094000D01*
X144888748Y-128914000D02*
X146311252Y-128914000D01*
%TO.C,C3*%
X89740000Y-127388748D02*
X89740000Y-128811252D01*
X91560000Y-127388748D02*
X91560000Y-128811252D01*
%TO.C,J1*%
X74670000Y-61930000D02*
X74670000Y-60600000D01*
X76000000Y-61930000D02*
X74670000Y-61930000D01*
X77270000Y-59270000D02*
X79870000Y-59270000D01*
X77270000Y-61930000D02*
X77270000Y-59270000D01*
X77270000Y-61930000D02*
X79870000Y-61930000D01*
X79870000Y-61930000D02*
X79870000Y-59270000D01*
%TO.C,J4*%
X144170000Y-59200000D02*
X144170000Y-63200000D01*
X144460000Y-58170000D02*
X144460000Y-64190000D01*
X144460000Y-64190000D02*
X157380000Y-64190000D01*
X145040000Y-58170000D02*
X145040000Y-58770000D01*
X145040000Y-58770000D02*
X146640000Y-58770000D01*
X145840000Y-63190000D02*
X146090000Y-62660000D01*
X145840000Y-63190000D02*
X156000000Y-63190000D01*
X145840000Y-64190000D02*
X145840000Y-63190000D01*
X146090000Y-62660000D02*
X155750000Y-62660000D01*
X146090000Y-64190000D02*
X146090000Y-63190000D01*
X146640000Y-58770000D02*
X146640000Y-58170000D01*
X147580000Y-58170000D02*
X147580000Y-58770000D01*
X147580000Y-58770000D02*
X149180000Y-58770000D01*
X149180000Y-58770000D02*
X149180000Y-58170000D01*
X150120000Y-58170000D02*
X150120000Y-58770000D01*
X150120000Y-58770000D02*
X151720000Y-58770000D01*
X151720000Y-58770000D02*
X151720000Y-58170000D01*
X152660000Y-58170000D02*
X152660000Y-58770000D01*
X152660000Y-58770000D02*
X154260000Y-58770000D01*
X154260000Y-58770000D02*
X154260000Y-58170000D01*
X155200000Y-58170000D02*
X155200000Y-58770000D01*
X155200000Y-58770000D02*
X156800000Y-58770000D01*
X155750000Y-62660000D02*
X156000000Y-63190000D01*
X155750000Y-64190000D02*
X155750000Y-63190000D01*
X156000000Y-63190000D02*
X156000000Y-64190000D01*
X156800000Y-58770000D02*
X156800000Y-58170000D01*
X157380000Y-58170000D02*
X144460000Y-58170000D01*
X157380000Y-64190000D02*
X157380000Y-58170000D01*
%TO.C,J9*%
X123270000Y-78545000D02*
X124600000Y-78545000D01*
X123270000Y-79875000D02*
X123270000Y-78545000D01*
X123270000Y-81145000D02*
X123270000Y-116765000D01*
X123270000Y-81145000D02*
X125930000Y-81145000D01*
X123270000Y-116765000D02*
X125930000Y-116765000D01*
X125930000Y-81145000D02*
X125930000Y-116765000D01*
%TO.C,J3*%
X90130000Y-61930000D02*
X90130000Y-60600000D01*
X91460000Y-61930000D02*
X90130000Y-61930000D01*
X92730000Y-59270000D02*
X95330000Y-59270000D01*
X92730000Y-61930000D02*
X92730000Y-59270000D01*
X92730000Y-61930000D02*
X95330000Y-61930000D01*
X95330000Y-61930000D02*
X95330000Y-59270000D01*
%TO.C,C5*%
X98090000Y-127313748D02*
X98090000Y-128736252D01*
X99910000Y-127313748D02*
X99910000Y-128736252D01*
%TD*%
%LPC*%
D15*
%TO.C,C2*%
X91525000Y-63800000D03*
X94475000Y-63800000D03*
%TD*%
D16*
%TO.C,J8*%
X72000000Y-79875000D03*
D17*
X72000000Y-82415000D03*
X72000000Y-84955000D03*
X72000000Y-87495000D03*
X72000000Y-90035000D03*
X72000000Y-92575000D03*
X72000000Y-95115000D03*
X72000000Y-97655000D03*
X72000000Y-100195000D03*
X72000000Y-102735000D03*
X72000000Y-105275000D03*
X72000000Y-107815000D03*
X72000000Y-110355000D03*
X72000000Y-112895000D03*
X72000000Y-115435000D03*
%TD*%
D18*
%TO.C,C4*%
X94650000Y-126575000D03*
X94650000Y-129525000D03*
%TD*%
D19*
%TO.C,H2*%
X162800000Y-57404000D03*
%TD*%
D20*
%TO.C,R2*%
X126600000Y-60690000D03*
X126600000Y-61710000D03*
%TD*%
D18*
%TO.C,C9*%
X112500000Y-126475000D03*
X112500000Y-129425000D03*
%TD*%
D20*
%TO.C,R1*%
X135400000Y-60690000D03*
X135400000Y-61710000D03*
%TD*%
D19*
%TO.C,H3*%
X68400000Y-129200000D03*
%TD*%
D18*
%TO.C,C6*%
X103450000Y-126600000D03*
X103450000Y-129550000D03*
%TD*%
%TO.C,C8*%
X108200000Y-126550000D03*
X108200000Y-129500000D03*
%TD*%
D21*
%TO.C,D2*%
X129400000Y-62625000D03*
X129400000Y-59775000D03*
%TD*%
D18*
%TO.C,C11*%
X122200000Y-126425000D03*
X122200000Y-129375000D03*
%TD*%
D15*
%TO.C,C12*%
X138525000Y-128000000D03*
X141475000Y-128000000D03*
%TD*%
D21*
%TO.C,D3*%
X119800000Y-62625000D03*
X119800000Y-59775000D03*
%TD*%
D16*
%TO.C,J2*%
X83725000Y-60600000D03*
D17*
X86265000Y-60600000D03*
%TD*%
D19*
%TO.C,H4*%
X162800000Y-129200000D03*
%TD*%
D18*
%TO.C,C7*%
X115200000Y-78925000D03*
X115200000Y-81875000D03*
%TD*%
D15*
%TO.C,C14*%
X149725000Y-128000000D03*
X152675000Y-128000000D03*
%TD*%
D16*
%TO.C,J7*%
X110800000Y-79625000D03*
D17*
X110800000Y-82165000D03*
X110800000Y-84705000D03*
X110800000Y-87245000D03*
X110800000Y-89785000D03*
X110800000Y-92325000D03*
X110800000Y-94865000D03*
X110800000Y-97405000D03*
X110800000Y-99945000D03*
X110800000Y-102485000D03*
X110800000Y-105025000D03*
X110800000Y-107565000D03*
X110800000Y-110105000D03*
X110800000Y-112645000D03*
X110800000Y-115185000D03*
%TD*%
D22*
%TO.C,R3*%
X123400000Y-61710000D03*
X123400000Y-60690000D03*
%TD*%
D16*
%TO.C,J10*%
X139300000Y-123204000D03*
D17*
X141840000Y-123204000D03*
X144380000Y-123204000D03*
X146920000Y-123204000D03*
X149460000Y-123204000D03*
X152000000Y-123204000D03*
%TD*%
D16*
%TO.C,J6*%
X82880000Y-79625000D03*
D17*
X82880000Y-82165000D03*
X82880000Y-84705000D03*
X82880000Y-87245000D03*
X82880000Y-89785000D03*
X82880000Y-92325000D03*
X82880000Y-94865000D03*
X82880000Y-97405000D03*
X82880000Y-99945000D03*
X82880000Y-102485000D03*
X82880000Y-105025000D03*
X82880000Y-107565000D03*
X82880000Y-110105000D03*
X82880000Y-112645000D03*
X82880000Y-115185000D03*
%TD*%
D18*
%TO.C,C10*%
X117300000Y-126450000D03*
X117300000Y-129400000D03*
%TD*%
D16*
%TO.C,J5*%
X87190000Y-123400000D03*
D17*
X89730000Y-123400000D03*
X92270000Y-123400000D03*
X94810000Y-123400000D03*
X97350000Y-123400000D03*
X99890000Y-123400000D03*
X102430000Y-123400000D03*
X104970000Y-123400000D03*
X107510000Y-123400000D03*
X110050000Y-123400000D03*
X112590000Y-123400000D03*
X115130000Y-123400000D03*
X117670000Y-123400000D03*
X120210000Y-123400000D03*
X122750000Y-123400000D03*
%TD*%
D23*
%TO.C,D1*%
X138000000Y-59775000D03*
X138000000Y-62625000D03*
%TD*%
D15*
%TO.C,C1*%
X83725000Y-64000000D03*
X86675000Y-64000000D03*
%TD*%
%TO.C,C13*%
X144125000Y-128004000D03*
X147075000Y-128004000D03*
%TD*%
D18*
%TO.C,C3*%
X90650000Y-126625000D03*
X90650000Y-129575000D03*
%TD*%
D16*
%TO.C,J1*%
X76000000Y-60600000D03*
D17*
X78540000Y-60600000D03*
%TD*%
D19*
%TO.C,H1*%
X68400000Y-57404000D03*
%TD*%
D24*
%TO.C,J4*%
X145840000Y-61200000D03*
D25*
X148380000Y-61200000D03*
X150920000Y-61200000D03*
X153460000Y-61200000D03*
X156000000Y-61200000D03*
%TD*%
D16*
%TO.C,J9*%
X124600000Y-79875000D03*
D17*
X124600000Y-82415000D03*
X124600000Y-84955000D03*
X124600000Y-87495000D03*
X124600000Y-90035000D03*
X124600000Y-92575000D03*
X124600000Y-95115000D03*
X124600000Y-97655000D03*
X124600000Y-100195000D03*
X124600000Y-102735000D03*
X124600000Y-105275000D03*
X124600000Y-107815000D03*
X124600000Y-110355000D03*
X124600000Y-112895000D03*
X124600000Y-115435000D03*
%TD*%
D16*
%TO.C,J3*%
X91460000Y-60600000D03*
D17*
X94000000Y-60600000D03*
%TD*%
D18*
%TO.C,C5*%
X99000000Y-126550000D03*
X99000000Y-129500000D03*
%TD*%
%LPD*%
M02*
