%TF.GenerationSoftware,KiCad,Pcbnew,8.0.1*%
%TF.CreationDate,2025-03-05T11:05:37+00:00*%
%TF.ProjectId,PWM Control Circuit,50574d20-436f-46e7-9472-6f6c20436972,Version 2*%
%TF.SameCoordinates,Original*%
%TF.FileFunction,Soldermask,Top*%
%TF.FilePolarity,Negative*%
%FSLAX46Y46*%
G04 Gerber Fmt 4.6, Leading zero omitted, Abs format (unit mm)*
G04 Created by KiCad (PCBNEW 8.0.1) date 2025-03-05 11:05:37*
%MOMM*%
%LPD*%
G01*
G04 APERTURE LIST*
G04 Aperture macros list*
%AMRoundRect*
0 Rectangle with rounded corners*
0 $1 Rounding radius*
0 $2 $3 $4 $5 $6 $7 $8 $9 X,Y pos of 4 corners*
0 Add a 4 corners polygon primitive as box body*
4,1,4,$2,$3,$4,$5,$6,$7,$8,$9,$2,$3,0*
0 Add four circle primitives for the rounded corners*
1,1,$1+$1,$2,$3*
1,1,$1+$1,$4,$5*
1,1,$1+$1,$6,$7*
1,1,$1+$1,$8,$9*
0 Add four rect primitives between the rounded corners*
20,1,$1+$1,$2,$3,$4,$5,0*
20,1,$1+$1,$4,$5,$6,$7,0*
20,1,$1+$1,$6,$7,$8,$9,0*
20,1,$1+$1,$8,$9,$2,$3,0*%
G04 Aperture macros list end*
%ADD10RoundRect,0.102000X-0.555000X-0.610000X0.555000X-0.610000X0.555000X0.610000X-0.555000X0.610000X0*%
%ADD11RoundRect,0.250000X-0.312500X-0.625000X0.312500X-0.625000X0.312500X0.625000X-0.312500X0.625000X0*%
%ADD12RoundRect,0.150000X0.150000X-0.587500X0.150000X0.587500X-0.150000X0.587500X-0.150000X-0.587500X0*%
%ADD13C,3.800000*%
%ADD14C,1.800000*%
%ADD15RoundRect,0.102000X-0.485000X-1.415000X0.485000X-1.415000X0.485000X1.415000X-0.485000X1.415000X0*%
%ADD16RoundRect,0.102000X-2.815000X-3.045000X2.815000X-3.045000X2.815000X3.045000X-2.815000X3.045000X0*%
%ADD17RoundRect,0.250000X-0.650000X0.325000X-0.650000X-0.325000X0.650000X-0.325000X0.650000X0.325000X0*%
%ADD18RoundRect,0.102000X0.500000X-0.700000X0.500000X0.700000X-0.500000X0.700000X-0.500000X-0.700000X0*%
%ADD19R,1.850000X0.650000*%
%ADD20RoundRect,0.102000X-0.955000X-0.955000X0.955000X-0.955000X0.955000X0.955000X-0.955000X0.955000X0*%
%ADD21C,2.114000*%
%ADD22R,1.700000X1.700000*%
%ADD23O,1.700000X1.700000*%
%ADD24RoundRect,0.102000X-0.800000X-1.200000X0.800000X-1.200000X0.800000X1.200000X-0.800000X1.200000X0*%
G04 APERTURE END LIST*
D10*
%TO.C,D3*%
X107950000Y-90000000D03*
X111050000Y-90000000D03*
%TD*%
D11*
%TO.C,R5*%
X102075000Y-90000000D03*
X105000000Y-90000000D03*
%TD*%
D12*
%TO.C,D2*%
X103100000Y-102500000D03*
X105000000Y-102500000D03*
X104050000Y-100625000D03*
%TD*%
D13*
%TO.C,H1*%
X88500000Y-80500000D03*
%TD*%
D14*
%TO.C,+15V_TP1*%
X110000000Y-94325000D03*
%TD*%
D15*
%TO.C,U2*%
X118593300Y-93650000D03*
D16*
X120883300Y-87000000D03*
D15*
X123173300Y-93650000D03*
%TD*%
D14*
%TO.C,GND_TP1*%
X110000000Y-100000000D03*
%TD*%
D11*
%TO.C,R1*%
X96350000Y-90000000D03*
X99275000Y-90000000D03*
%TD*%
D17*
%TO.C,C2*%
X93500000Y-92025000D03*
X93500000Y-94975000D03*
%TD*%
D18*
%TO.C,D4*%
X114050000Y-104100000D03*
X115950000Y-104100000D03*
X115000000Y-101900000D03*
%TD*%
D17*
%TO.C,C1*%
X93500000Y-98525000D03*
X93500000Y-101475000D03*
%TD*%
D11*
%TO.C,R6*%
X102100000Y-95100000D03*
X105025000Y-95100000D03*
%TD*%
D14*
%TO.C,VG_TP1*%
X110000000Y-105750000D03*
%TD*%
D17*
%TO.C,C4*%
X122500000Y-97525000D03*
X122500000Y-100475000D03*
%TD*%
D13*
%TO.C,H3*%
X88500000Y-112000000D03*
%TD*%
D17*
%TO.C,C3*%
X118500000Y-97525000D03*
X118500000Y-100475000D03*
%TD*%
D11*
%TO.C,R2*%
X96200000Y-95000000D03*
X99125000Y-95000000D03*
%TD*%
%TO.C,R3*%
X96125000Y-100300000D03*
X99050000Y-100300000D03*
%TD*%
%TO.C,R4*%
X96150000Y-106075000D03*
X99075000Y-106075000D03*
%TD*%
D19*
%TO.C,IC1*%
X100875000Y-82530000D03*
X100875000Y-83800000D03*
X100875000Y-85070000D03*
X111525000Y-85070000D03*
X111525000Y-83800000D03*
X111525000Y-82530000D03*
%TD*%
D20*
%TO.C,U1*%
X112420000Y-111500000D03*
D21*
X114960000Y-111500000D03*
X117500000Y-111500000D03*
%TD*%
D13*
%TO.C,H4*%
X127000000Y-112000000D03*
%TD*%
D22*
%TO.C,J2*%
X127000000Y-96000000D03*
D23*
X127000000Y-98540000D03*
%TD*%
D13*
%TO.C,H2*%
X127000000Y-80500000D03*
%TD*%
D22*
%TO.C,J1*%
X89850000Y-91030000D03*
D23*
X89850000Y-93570000D03*
X89850000Y-96110000D03*
X89850000Y-98650000D03*
X89850000Y-101190000D03*
%TD*%
D24*
%TO.C,D1*%
X92175000Y-85000000D03*
X95025000Y-85000000D03*
%TD*%
M02*
