%TF.GenerationSoftware,KiCad,Pcbnew,8.0.1*%
%TF.CreationDate,2025-03-05T11:05:37+00:00*%
%TF.ProjectId,PWM Control Circuit,50574d20-436f-46e7-9472-6f6c20436972,Version 2*%
%TF.SameCoordinates,Original*%
%TF.FileFunction,Copper,L2,Bot*%
%TF.FilePolarity,Positive*%
%FSLAX46Y46*%
G04 Gerber Fmt 4.6, Leading zero omitted, Abs format (unit mm)*
G04 Created by KiCad (PCBNEW 8.0.1) date 2025-03-05 11:05:37*
%MOMM*%
%LPD*%
G01*
G04 APERTURE LIST*
%TA.AperFunction,ComponentPad*%
%ADD10C,3.800000*%
%TD*%
%TA.AperFunction,ComponentPad*%
%ADD11C,1.800000*%
%TD*%
%TA.AperFunction,ComponentPad*%
%ADD12R,1.910000X1.910000*%
%TD*%
%TA.AperFunction,ComponentPad*%
%ADD13C,1.910000*%
%TD*%
%TA.AperFunction,ComponentPad*%
%ADD14R,1.700000X1.700000*%
%TD*%
%TA.AperFunction,ComponentPad*%
%ADD15O,1.700000X1.700000*%
%TD*%
%TA.AperFunction,ViaPad*%
%ADD16C,0.600000*%
%TD*%
%TA.AperFunction,Conductor*%
%ADD17C,0.800000*%
%TD*%
G04 APERTURE END LIST*
D10*
%TO.P,H1,1*%
%TO.N,N/C*%
X88500000Y-80500000D03*
%TD*%
D11*
%TO.P,+15V_TP1,1,1*%
%TO.N,/+15V*%
X110000000Y-94325000D03*
%TD*%
%TO.P,GND_TP1,1,1*%
%TO.N,GND*%
X110000000Y-100000000D03*
%TD*%
%TO.P,VG_TP1,1,1*%
%TO.N,/VG*%
X110000000Y-105750000D03*
%TD*%
D10*
%TO.P,H3,1*%
%TO.N,N/C*%
X88500000Y-112000000D03*
%TD*%
D12*
%TO.P,U1,1*%
%TO.N,/VG*%
X112420000Y-111500000D03*
D13*
%TO.P,U1,2*%
%TO.N,+12V*%
X114960000Y-111500000D03*
%TO.P,U1,3*%
%TO.N,/Vsource*%
X117500000Y-111500000D03*
%TD*%
D10*
%TO.P,H4,1*%
%TO.N,N/C*%
X127000000Y-112000000D03*
%TD*%
D14*
%TO.P,J2,1,Pin_1*%
%TO.N,/Vsource*%
X127000000Y-96000000D03*
D15*
%TO.P,J2,2,Pin_2*%
%TO.N,GND*%
X127000000Y-98540000D03*
%TD*%
D10*
%TO.P,H2,1*%
%TO.N,N/C*%
X127000000Y-80500000D03*
%TD*%
D14*
%TO.P,J1,1,Pin_1*%
%TO.N,/PWM input*%
X89850000Y-91030000D03*
D15*
%TO.P,J1,2,Pin_2*%
%TO.N,GND*%
X89850000Y-93570000D03*
%TO.P,J1,3,Pin_3*%
%TO.N,+24V*%
X89850000Y-96110000D03*
%TO.P,J1,4,Pin_4*%
%TO.N,+12V*%
X89850000Y-98650000D03*
%TO.P,J1,5,Pin_5*%
%TO.N,GND*%
X89850000Y-101190000D03*
%TD*%
D16*
%TO.N,/VG*%
X113097400Y-84006300D03*
%TO.N,GND*%
X93600000Y-84553200D03*
X120105700Y-100597900D03*
X125230500Y-87414800D03*
X95018800Y-95222400D03*
X93518200Y-102602300D03*
X113012900Y-85191800D03*
X111131800Y-91158600D03*
X103914600Y-102258300D03*
X113747200Y-102802500D03*
%TD*%
D17*
%TO.N,+12V*%
X114960000Y-111268300D02*
X114960000Y-111500000D01*
X111487000Y-107795300D02*
X114960000Y-111268300D01*
X105654500Y-107795300D02*
X111487000Y-107795300D01*
X96509200Y-98650000D02*
X105654500Y-107795300D01*
X89850000Y-98650000D02*
X96509200Y-98650000D01*
%TO.N,/Vsource*%
X117500000Y-105500000D02*
X117500000Y-111500000D01*
X127000000Y-96000000D02*
X117500000Y-105500000D01*
%TO.N,/VG*%
X110000000Y-105274600D02*
X110000000Y-105750000D01*
X113914600Y-101360000D02*
X110000000Y-105274600D01*
X113914600Y-84790100D02*
X113914600Y-101360000D01*
X113130800Y-84006300D02*
X113914600Y-84790100D01*
X113097400Y-84006300D02*
X113130800Y-84006300D01*
%TD*%
%TA.AperFunction,Conductor*%
%TO.N,GND*%
G36*
X126209133Y-78020185D02*
G01*
X126254888Y-78072989D01*
X126264832Y-78142147D01*
X126235807Y-78205703D01*
X126187741Y-78239792D01*
X125975904Y-78323663D01*
X125975903Y-78323664D01*
X125711205Y-78469184D01*
X125711193Y-78469191D01*
X125466846Y-78646719D01*
X125466836Y-78646727D01*
X125246652Y-78853494D01*
X125054111Y-79086236D01*
X124892268Y-79341261D01*
X124892265Y-79341267D01*
X124763661Y-79614563D01*
X124763659Y-79614568D01*
X124670320Y-79901835D01*
X124613719Y-80198546D01*
X124613718Y-80198553D01*
X124594754Y-80499994D01*
X124594754Y-80500005D01*
X124613718Y-80801446D01*
X124613719Y-80801453D01*
X124670320Y-81098164D01*
X124763659Y-81385431D01*
X124763661Y-81385436D01*
X124892265Y-81658732D01*
X124892268Y-81658738D01*
X125054111Y-81913763D01*
X125054114Y-81913767D01*
X125054115Y-81913768D01*
X125246649Y-82146502D01*
X125246652Y-82146505D01*
X125466836Y-82353272D01*
X125466846Y-82353280D01*
X125711193Y-82530808D01*
X125711198Y-82530810D01*
X125711205Y-82530816D01*
X125975896Y-82676332D01*
X125975901Y-82676334D01*
X125975903Y-82676335D01*
X125975904Y-82676336D01*
X126256734Y-82787524D01*
X126256737Y-82787525D01*
X126354259Y-82812564D01*
X126549302Y-82862642D01*
X126696039Y-82881179D01*
X126848963Y-82900499D01*
X126848969Y-82900499D01*
X126848973Y-82900500D01*
X126848975Y-82900500D01*
X127151025Y-82900500D01*
X127151027Y-82900500D01*
X127151032Y-82900499D01*
X127151036Y-82900499D01*
X127230591Y-82890448D01*
X127450698Y-82862642D01*
X127743262Y-82787525D01*
X127743265Y-82787524D01*
X128024095Y-82676336D01*
X128024096Y-82676335D01*
X128024094Y-82676335D01*
X128024104Y-82676332D01*
X128288795Y-82530816D01*
X128533162Y-82353274D01*
X128753349Y-82146504D01*
X128829956Y-82053901D01*
X128887856Y-82014794D01*
X128957707Y-82013198D01*
X129017333Y-82049619D01*
X129047803Y-82112495D01*
X129049500Y-82132942D01*
X129049500Y-110367057D01*
X129029815Y-110434096D01*
X128977011Y-110479851D01*
X128907853Y-110489795D01*
X128844297Y-110460770D01*
X128829957Y-110446098D01*
X128753352Y-110353499D01*
X128753350Y-110353497D01*
X128533163Y-110146727D01*
X128533153Y-110146719D01*
X128288806Y-109969191D01*
X128288799Y-109969186D01*
X128288795Y-109969184D01*
X128024104Y-109823668D01*
X128024101Y-109823666D01*
X128024096Y-109823664D01*
X128024095Y-109823663D01*
X127743265Y-109712475D01*
X127743262Y-109712474D01*
X127450695Y-109637357D01*
X127151036Y-109599500D01*
X127151027Y-109599500D01*
X126848973Y-109599500D01*
X126848963Y-109599500D01*
X126549304Y-109637357D01*
X126256737Y-109712474D01*
X126256734Y-109712475D01*
X125975904Y-109823663D01*
X125975903Y-109823664D01*
X125711205Y-109969184D01*
X125711193Y-109969191D01*
X125466846Y-110146719D01*
X125466836Y-110146727D01*
X125246652Y-110353494D01*
X125054111Y-110586236D01*
X124892268Y-110841261D01*
X124892265Y-110841267D01*
X124763661Y-111114563D01*
X124763659Y-111114568D01*
X124670320Y-111401835D01*
X124613719Y-111698546D01*
X124613718Y-111698553D01*
X124594754Y-111999994D01*
X124594754Y-112000005D01*
X124613718Y-112301446D01*
X124613719Y-112301453D01*
X124670320Y-112598164D01*
X124763659Y-112885431D01*
X124763661Y-112885436D01*
X124892265Y-113158732D01*
X124892268Y-113158738D01*
X125054111Y-113413763D01*
X125246652Y-113646505D01*
X125394249Y-113785108D01*
X125429644Y-113845349D01*
X125426851Y-113915163D01*
X125386757Y-113972384D01*
X125322092Y-113998845D01*
X125309365Y-113999500D01*
X90190635Y-113999500D01*
X90123596Y-113979815D01*
X90077841Y-113927011D01*
X90067897Y-113857853D01*
X90096922Y-113794297D01*
X90105751Y-113785108D01*
X90253349Y-113646504D01*
X90445885Y-113413768D01*
X90607733Y-113158736D01*
X90736341Y-112885430D01*
X90829681Y-112598160D01*
X90886280Y-112301457D01*
X90891578Y-112217249D01*
X90905246Y-112000005D01*
X90905246Y-111999994D01*
X90886281Y-111698553D01*
X90886280Y-111698546D01*
X90886280Y-111698543D01*
X90829681Y-111401840D01*
X90736341Y-111114570D01*
X90607733Y-110841264D01*
X90549500Y-110749503D01*
X90445888Y-110586236D01*
X90445885Y-110586232D01*
X90253349Y-110353496D01*
X90235779Y-110336997D01*
X90033163Y-110146727D01*
X90033153Y-110146719D01*
X89788806Y-109969191D01*
X89788799Y-109969186D01*
X89788795Y-109969184D01*
X89524104Y-109823668D01*
X89524101Y-109823666D01*
X89524096Y-109823664D01*
X89524095Y-109823663D01*
X89243265Y-109712475D01*
X89243262Y-109712474D01*
X88950695Y-109637357D01*
X88651036Y-109599500D01*
X88651027Y-109599500D01*
X88348973Y-109599500D01*
X88348963Y-109599500D01*
X88049304Y-109637357D01*
X87756737Y-109712474D01*
X87756734Y-109712475D01*
X87475904Y-109823663D01*
X87475903Y-109823664D01*
X87211205Y-109969184D01*
X87211193Y-109969191D01*
X86966846Y-110146719D01*
X86966836Y-110146727D01*
X86746652Y-110353494D01*
X86554111Y-110586236D01*
X86392268Y-110841261D01*
X86392265Y-110841267D01*
X86286698Y-111065608D01*
X86240343Y-111117886D01*
X86173083Y-111136803D01*
X86106273Y-111116354D01*
X86061124Y-111063030D01*
X86050500Y-111012811D01*
X86050500Y-98650000D01*
X88494341Y-98650000D01*
X88514936Y-98885403D01*
X88514938Y-98885413D01*
X88576094Y-99113655D01*
X88576096Y-99113659D01*
X88576097Y-99113663D01*
X88675965Y-99327830D01*
X88675967Y-99327834D01*
X88811501Y-99521395D01*
X88811506Y-99521402D01*
X88978597Y-99688493D01*
X88978603Y-99688498D01*
X89164594Y-99818730D01*
X89208219Y-99873307D01*
X89215413Y-99942805D01*
X89183890Y-100005160D01*
X89164595Y-100021880D01*
X88978922Y-100151890D01*
X88978920Y-100151891D01*
X88811891Y-100318920D01*
X88811886Y-100318926D01*
X88676400Y-100512420D01*
X88676399Y-100512422D01*
X88576570Y-100726507D01*
X88576567Y-100726513D01*
X88519364Y-100939999D01*
X88519364Y-100940000D01*
X89416988Y-100940000D01*
X89384075Y-100997007D01*
X89350000Y-101124174D01*
X89350000Y-101255826D01*
X89384075Y-101382993D01*
X89416988Y-101440000D01*
X88519364Y-101440000D01*
X88576567Y-101653486D01*
X88576570Y-101653492D01*
X88676399Y-101867578D01*
X88811894Y-102061082D01*
X88978917Y-102228105D01*
X89172421Y-102363600D01*
X89386507Y-102463429D01*
X89386516Y-102463433D01*
X89600000Y-102520634D01*
X89600000Y-101623012D01*
X89657007Y-101655925D01*
X89784174Y-101690000D01*
X89915826Y-101690000D01*
X90042993Y-101655925D01*
X90100000Y-101623012D01*
X90100000Y-102520633D01*
X90313483Y-102463433D01*
X90313492Y-102463429D01*
X90527578Y-102363600D01*
X90721082Y-102228105D01*
X90888105Y-102061082D01*
X91023600Y-101867578D01*
X91123429Y-101653492D01*
X91123432Y-101653486D01*
X91180636Y-101440000D01*
X90283012Y-101440000D01*
X90315925Y-101382993D01*
X90350000Y-101255826D01*
X90350000Y-101124174D01*
X90315925Y-100997007D01*
X90283012Y-100940000D01*
X91180636Y-100940000D01*
X91180635Y-100939999D01*
X91123432Y-100726513D01*
X91123429Y-100726507D01*
X91023600Y-100512422D01*
X91023599Y-100512420D01*
X90888113Y-100318926D01*
X90888108Y-100318920D01*
X90721078Y-100151890D01*
X90535405Y-100021879D01*
X90491780Y-99967302D01*
X90484588Y-99897804D01*
X90516110Y-99835449D01*
X90535406Y-99818730D01*
X90542977Y-99813429D01*
X90721401Y-99688495D01*
X90823077Y-99586819D01*
X90884400Y-99553334D01*
X90910758Y-99550500D01*
X96084838Y-99550500D01*
X96151877Y-99570185D01*
X96172519Y-99586819D01*
X104955036Y-108369335D01*
X105080465Y-108494764D01*
X105080466Y-108494765D01*
X105227946Y-108593309D01*
X105227959Y-108593316D01*
X105350863Y-108644223D01*
X105391834Y-108661194D01*
X105434435Y-108669668D01*
X105565805Y-108695800D01*
X105565808Y-108695800D01*
X105565809Y-108695800D01*
X111062638Y-108695800D01*
X111129677Y-108715485D01*
X111150319Y-108732119D01*
X112251019Y-109832819D01*
X112284504Y-109894142D01*
X112279520Y-109963834D01*
X112237648Y-110019767D01*
X112172184Y-110044184D01*
X112163338Y-110044500D01*
X111417129Y-110044500D01*
X111417123Y-110044501D01*
X111357516Y-110050908D01*
X111222671Y-110101202D01*
X111222664Y-110101206D01*
X111107455Y-110187452D01*
X111107452Y-110187455D01*
X111021206Y-110302664D01*
X111021202Y-110302671D01*
X110970908Y-110437517D01*
X110964501Y-110497116D01*
X110964500Y-110497135D01*
X110964500Y-112502870D01*
X110964501Y-112502876D01*
X110970908Y-112562483D01*
X111021202Y-112697328D01*
X111021206Y-112697335D01*
X111107452Y-112812544D01*
X111107455Y-112812547D01*
X111222664Y-112898793D01*
X111222671Y-112898797D01*
X111357517Y-112949091D01*
X111357516Y-112949091D01*
X111364444Y-112949835D01*
X111417127Y-112955500D01*
X113422872Y-112955499D01*
X113482483Y-112949091D01*
X113617331Y-112898796D01*
X113732546Y-112812546D01*
X113818796Y-112697331D01*
X113818798Y-112697326D01*
X113829470Y-112668714D01*
X113871341Y-112612780D01*
X113936805Y-112588362D01*
X114005078Y-112603213D01*
X114021814Y-112614193D01*
X114161180Y-112722666D01*
X114161187Y-112722670D01*
X114161189Y-112722672D01*
X114373329Y-112837476D01*
X114601471Y-112915797D01*
X114839394Y-112955500D01*
X114839395Y-112955500D01*
X115080605Y-112955500D01*
X115080606Y-112955500D01*
X115318529Y-112915797D01*
X115546671Y-112837476D01*
X115758811Y-112722672D01*
X115949162Y-112574516D01*
X116112530Y-112397050D01*
X116126191Y-112376139D01*
X116179336Y-112330784D01*
X116248567Y-112321359D01*
X116311903Y-112350860D01*
X116333807Y-112376138D01*
X116347470Y-112397050D01*
X116510838Y-112574516D01*
X116510841Y-112574518D01*
X116510844Y-112574521D01*
X116701180Y-112722666D01*
X116701187Y-112722670D01*
X116701189Y-112722672D01*
X116913329Y-112837476D01*
X117141471Y-112915797D01*
X117379394Y-112955500D01*
X117379395Y-112955500D01*
X117620605Y-112955500D01*
X117620606Y-112955500D01*
X117858529Y-112915797D01*
X118086671Y-112837476D01*
X118298811Y-112722672D01*
X118489162Y-112574516D01*
X118652530Y-112397050D01*
X118784461Y-112195115D01*
X118881355Y-111974220D01*
X118940569Y-111740388D01*
X118960488Y-111500000D01*
X118940569Y-111259612D01*
X118881355Y-111025780D01*
X118784461Y-110804885D01*
X118652530Y-110602950D01*
X118489162Y-110425484D01*
X118448337Y-110393708D01*
X118407524Y-110336997D01*
X118400500Y-110295855D01*
X118400500Y-105924361D01*
X118420185Y-105857322D01*
X118436814Y-105836685D01*
X125478221Y-98795277D01*
X125539540Y-98761795D01*
X125609232Y-98766779D01*
X125665165Y-98808651D01*
X125685673Y-98850867D01*
X125726567Y-99003485D01*
X125726570Y-99003492D01*
X125826399Y-99217578D01*
X125961894Y-99411082D01*
X126128917Y-99578105D01*
X126322421Y-99713600D01*
X126536507Y-99813429D01*
X126536516Y-99813433D01*
X126750000Y-99870634D01*
X126750000Y-98973012D01*
X126807007Y-99005925D01*
X126934174Y-99040000D01*
X127065826Y-99040000D01*
X127192993Y-99005925D01*
X127250000Y-98973012D01*
X127250000Y-99870633D01*
X127463483Y-99813433D01*
X127463492Y-99813429D01*
X127677578Y-99713600D01*
X127871082Y-99578105D01*
X128038105Y-99411082D01*
X128173600Y-99217578D01*
X128273429Y-99003492D01*
X128273432Y-99003486D01*
X128330636Y-98790000D01*
X127433012Y-98790000D01*
X127465925Y-98732993D01*
X127500000Y-98605826D01*
X127500000Y-98474174D01*
X127465925Y-98347007D01*
X127433012Y-98290000D01*
X128330636Y-98290000D01*
X128330635Y-98289999D01*
X128273432Y-98076513D01*
X128273429Y-98076507D01*
X128173600Y-97862422D01*
X128173599Y-97862420D01*
X128038113Y-97668926D01*
X128038108Y-97668920D01*
X127916053Y-97546865D01*
X127882568Y-97485542D01*
X127887552Y-97415850D01*
X127929424Y-97359917D01*
X127960400Y-97343002D01*
X128092331Y-97293796D01*
X128207546Y-97207546D01*
X128293796Y-97092331D01*
X128344091Y-96957483D01*
X128350500Y-96897873D01*
X128350499Y-95102128D01*
X128344091Y-95042517D01*
X128293796Y-94907669D01*
X128293795Y-94907668D01*
X128293793Y-94907664D01*
X128207547Y-94792455D01*
X128207544Y-94792452D01*
X128092335Y-94706206D01*
X128092328Y-94706202D01*
X127957482Y-94655908D01*
X127957483Y-94655908D01*
X127897883Y-94649501D01*
X127897881Y-94649500D01*
X127897873Y-94649500D01*
X127897864Y-94649500D01*
X126102129Y-94649500D01*
X126102123Y-94649501D01*
X126042516Y-94655908D01*
X125907671Y-94706202D01*
X125907664Y-94706206D01*
X125792455Y-94792452D01*
X125792452Y-94792455D01*
X125706206Y-94907664D01*
X125706202Y-94907671D01*
X125655908Y-95042517D01*
X125649501Y-95102116D01*
X125649501Y-95102123D01*
X125649500Y-95102135D01*
X125649500Y-96025637D01*
X125629815Y-96092676D01*
X125613181Y-96113318D01*
X116800538Y-104925960D01*
X116800537Y-104925961D01*
X116761064Y-104985039D01*
X116761063Y-104985040D01*
X116701988Y-105073449D01*
X116698798Y-105081151D01*
X116672728Y-105144092D01*
X116634105Y-105237334D01*
X116609051Y-105363292D01*
X116609051Y-105363293D01*
X116599500Y-105411307D01*
X116599500Y-110295855D01*
X116579815Y-110362894D01*
X116551663Y-110393708D01*
X116510840Y-110425482D01*
X116510838Y-110425483D01*
X116510838Y-110425484D01*
X116347470Y-110602950D01*
X116333806Y-110623863D01*
X116280661Y-110669218D01*
X116211430Y-110678641D01*
X116148094Y-110649138D01*
X116126194Y-110623864D01*
X116112530Y-110602950D01*
X115949162Y-110425484D01*
X115949157Y-110425480D01*
X115949155Y-110425478D01*
X115758819Y-110277333D01*
X115758808Y-110277326D01*
X115546677Y-110162527D01*
X115546674Y-110162525D01*
X115546671Y-110162524D01*
X115546668Y-110162523D01*
X115546666Y-110162522D01*
X115318531Y-110084203D01*
X115119006Y-110050908D01*
X115080606Y-110044500D01*
X115080605Y-110044500D01*
X115061061Y-110044500D01*
X114994022Y-110024815D01*
X114973380Y-110008181D01*
X112061035Y-107095835D01*
X112061030Y-107095831D01*
X112001961Y-107056364D01*
X112001960Y-107056363D01*
X111913544Y-106997285D01*
X111913542Y-106997284D01*
X111831607Y-106963346D01*
X111831606Y-106963346D01*
X111749666Y-106929405D01*
X111749658Y-106929403D01*
X111575696Y-106894800D01*
X111575692Y-106894800D01*
X111575691Y-106894800D01*
X111132396Y-106894800D01*
X111065357Y-106875115D01*
X111019602Y-106822311D01*
X111009658Y-106753153D01*
X111038683Y-106689597D01*
X111041166Y-106686818D01*
X111050898Y-106676245D01*
X111108979Y-106613153D01*
X111235924Y-106418849D01*
X111329157Y-106206300D01*
X111386134Y-105981305D01*
X111386135Y-105981297D01*
X111405300Y-105750006D01*
X111405300Y-105749993D01*
X111386135Y-105518702D01*
X111386131Y-105518682D01*
X111356313Y-105400935D01*
X111331347Y-105302348D01*
X111333971Y-105232529D01*
X111363869Y-105184229D01*
X114614063Y-101934036D01*
X114614064Y-101934035D01*
X114712613Y-101786547D01*
X114780494Y-101622666D01*
X114815100Y-101448691D01*
X114815100Y-84701409D01*
X114806227Y-84656800D01*
X114780495Y-84527434D01*
X114714939Y-84369171D01*
X114713295Y-84364574D01*
X114614065Y-84216066D01*
X114614064Y-84216065D01*
X114488635Y-84090636D01*
X114315603Y-83917604D01*
X113704841Y-83306840D01*
X113704840Y-83306839D01*
X113704836Y-83306836D01*
X113645759Y-83267363D01*
X113645758Y-83267361D01*
X113557344Y-83208285D01*
X113557342Y-83208284D01*
X113475407Y-83174346D01*
X113475406Y-83174346D01*
X113393466Y-83140405D01*
X113393458Y-83140403D01*
X113219496Y-83105800D01*
X113219492Y-83105800D01*
X113219491Y-83105800D01*
X113008709Y-83105800D01*
X113008706Y-83105800D01*
X112834741Y-83140403D01*
X112834732Y-83140406D01*
X112670859Y-83208283D01*
X112670846Y-83208290D01*
X112523365Y-83306835D01*
X112523361Y-83306838D01*
X112397938Y-83432261D01*
X112397935Y-83432265D01*
X112299390Y-83579746D01*
X112299383Y-83579759D01*
X112231506Y-83743632D01*
X112231503Y-83743641D01*
X112196900Y-83917604D01*
X112196900Y-84094995D01*
X112231503Y-84268958D01*
X112231506Y-84268967D01*
X112299383Y-84432840D01*
X112299390Y-84432853D01*
X112397935Y-84580334D01*
X112397938Y-84580338D01*
X112523364Y-84705764D01*
X112613866Y-84766235D01*
X112632656Y-84781656D01*
X112977781Y-85126780D01*
X113011266Y-85188103D01*
X113014100Y-85214461D01*
X113014100Y-100935638D01*
X112994415Y-101002677D01*
X112977781Y-101023319D01*
X109611925Y-104389174D01*
X109564507Y-104418774D01*
X109435504Y-104463061D01*
X109435495Y-104463064D01*
X109231371Y-104573531D01*
X109231365Y-104573535D01*
X109048222Y-104716081D01*
X109048219Y-104716084D01*
X108891016Y-104886852D01*
X108764075Y-105081151D01*
X108670842Y-105293699D01*
X108613866Y-105518691D01*
X108613864Y-105518702D01*
X108594700Y-105749993D01*
X108594700Y-105750006D01*
X108613864Y-105981297D01*
X108613866Y-105981308D01*
X108670842Y-106206300D01*
X108764075Y-106418848D01*
X108891018Y-106613150D01*
X108958834Y-106686818D01*
X108989756Y-106749472D01*
X108981896Y-106818898D01*
X108937748Y-106873054D01*
X108871331Y-106894744D01*
X108867604Y-106894800D01*
X106078861Y-106894800D01*
X106011822Y-106875115D01*
X105991180Y-106858481D01*
X99132705Y-100000005D01*
X108595202Y-100000005D01*
X108614361Y-100231218D01*
X108671317Y-100456135D01*
X108764515Y-100668606D01*
X108848812Y-100797633D01*
X109557861Y-100088584D01*
X109580667Y-100173694D01*
X109639910Y-100276306D01*
X109723694Y-100360090D01*
X109826306Y-100419333D01*
X109911414Y-100442138D01*
X109201201Y-101152351D01*
X109231649Y-101176050D01*
X109435697Y-101286476D01*
X109435706Y-101286479D01*
X109655139Y-101361811D01*
X109883993Y-101400000D01*
X110116007Y-101400000D01*
X110344860Y-101361811D01*
X110564293Y-101286479D01*
X110564301Y-101286476D01*
X110768355Y-101176047D01*
X110798797Y-101152351D01*
X110798798Y-101152350D01*
X110088585Y-100442137D01*
X110173694Y-100419333D01*
X110276306Y-100360090D01*
X110360090Y-100276306D01*
X110419333Y-100173694D01*
X110442138Y-100088585D01*
X111151186Y-100797633D01*
X111235482Y-100668611D01*
X111328682Y-100456135D01*
X111385638Y-100231218D01*
X111404798Y-100000005D01*
X111404798Y-99999994D01*
X111385638Y-99768781D01*
X111328682Y-99543864D01*
X111235484Y-99331393D01*
X111151186Y-99202365D01*
X110442137Y-99911414D01*
X110419333Y-99826306D01*
X110360090Y-99723694D01*
X110276306Y-99639910D01*
X110173694Y-99580667D01*
X110088584Y-99557861D01*
X110798797Y-98847647D01*
X110798797Y-98847645D01*
X110768360Y-98823955D01*
X110768354Y-98823951D01*
X110564302Y-98713523D01*
X110564293Y-98713520D01*
X110344860Y-98638188D01*
X110116007Y-98600000D01*
X109883993Y-98600000D01*
X109655139Y-98638188D01*
X109435706Y-98713520D01*
X109435697Y-98713523D01*
X109231650Y-98823949D01*
X109201200Y-98847647D01*
X109911415Y-99557861D01*
X109826306Y-99580667D01*
X109723694Y-99639910D01*
X109639910Y-99723694D01*
X109580667Y-99826306D01*
X109557861Y-99911415D01*
X108848811Y-99202365D01*
X108764516Y-99331390D01*
X108671317Y-99543864D01*
X108614361Y-99768781D01*
X108595202Y-99999994D01*
X108595202Y-100000005D01*
X99132705Y-100000005D01*
X97083235Y-97950535D01*
X97083230Y-97950531D01*
X97024161Y-97911064D01*
X97024160Y-97911063D01*
X96935744Y-97851985D01*
X96935742Y-97851984D01*
X96853807Y-97818046D01*
X96853806Y-97818046D01*
X96771866Y-97784105D01*
X96771858Y-97784103D01*
X96597896Y-97749500D01*
X96597892Y-97749500D01*
X96597891Y-97749500D01*
X90910758Y-97749500D01*
X90843719Y-97729815D01*
X90823077Y-97713181D01*
X90721402Y-97611506D01*
X90721396Y-97611501D01*
X90535842Y-97481575D01*
X90492217Y-97426998D01*
X90485023Y-97357500D01*
X90516546Y-97295145D01*
X90535842Y-97278425D01*
X90637066Y-97207547D01*
X90721401Y-97148495D01*
X90888495Y-96981401D01*
X91024035Y-96787830D01*
X91123903Y-96573663D01*
X91185063Y-96345408D01*
X91205659Y-96110000D01*
X91185063Y-95874592D01*
X91123903Y-95646337D01*
X91024035Y-95432171D01*
X90972740Y-95358913D01*
X90888494Y-95238597D01*
X90721402Y-95071506D01*
X90721401Y-95071505D01*
X90535405Y-94941269D01*
X90491781Y-94886692D01*
X90484588Y-94817193D01*
X90516110Y-94754839D01*
X90535405Y-94738119D01*
X90721082Y-94608105D01*
X90888105Y-94441082D01*
X90969384Y-94325006D01*
X108594700Y-94325006D01*
X108613864Y-94556297D01*
X108613866Y-94556308D01*
X108670842Y-94781300D01*
X108764075Y-94993848D01*
X108891016Y-95188147D01*
X108891019Y-95188151D01*
X108891021Y-95188153D01*
X109048216Y-95358913D01*
X109048219Y-95358915D01*
X109048222Y-95358918D01*
X109231365Y-95501464D01*
X109231371Y-95501468D01*
X109231374Y-95501470D01*
X109435497Y-95611936D01*
X109535698Y-95646335D01*
X109655015Y-95687297D01*
X109655017Y-95687297D01*
X109655019Y-95687298D01*
X109883951Y-95725500D01*
X109883952Y-95725500D01*
X110116048Y-95725500D01*
X110116049Y-95725500D01*
X110344981Y-95687298D01*
X110564503Y-95611936D01*
X110768626Y-95501470D01*
X110951784Y-95358913D01*
X111108979Y-95188153D01*
X111235924Y-94993849D01*
X111329157Y-94781300D01*
X111386134Y-94556305D01*
X111386135Y-94556297D01*
X111405300Y-94325006D01*
X111405300Y-94324993D01*
X111386135Y-94093702D01*
X111386133Y-94093691D01*
X111329157Y-93868699D01*
X111235924Y-93656151D01*
X111108983Y-93461852D01*
X111108980Y-93461849D01*
X111108979Y-93461847D01*
X110951784Y-93291087D01*
X110951779Y-93291083D01*
X110951777Y-93291081D01*
X110768634Y-93148535D01*
X110768628Y-93148531D01*
X110564504Y-93038064D01*
X110564495Y-93038061D01*
X110344984Y-92962702D01*
X110173282Y-92934050D01*
X110116049Y-92924500D01*
X109883951Y-92924500D01*
X109838164Y-92932140D01*
X109655015Y-92962702D01*
X109435504Y-93038061D01*
X109435495Y-93038064D01*
X109231371Y-93148531D01*
X109231365Y-93148535D01*
X109048222Y-93291081D01*
X109048219Y-93291084D01*
X108891016Y-93461852D01*
X108764075Y-93656151D01*
X108670842Y-93868699D01*
X108613866Y-94093691D01*
X108613864Y-94093702D01*
X108594700Y-94324993D01*
X108594700Y-94325006D01*
X90969384Y-94325006D01*
X91023600Y-94247578D01*
X91123429Y-94033492D01*
X91123432Y-94033486D01*
X91180636Y-93820000D01*
X90283012Y-93820000D01*
X90315925Y-93762993D01*
X90350000Y-93635826D01*
X90350000Y-93504174D01*
X90315925Y-93377007D01*
X90283012Y-93320000D01*
X91180636Y-93320000D01*
X91180635Y-93319999D01*
X91123432Y-93106513D01*
X91123429Y-93106507D01*
X91023600Y-92892422D01*
X91023599Y-92892420D01*
X90888113Y-92698926D01*
X90888108Y-92698920D01*
X90766053Y-92576865D01*
X90732568Y-92515542D01*
X90737552Y-92445850D01*
X90779424Y-92389917D01*
X90810400Y-92373002D01*
X90942331Y-92323796D01*
X91057546Y-92237546D01*
X91143796Y-92122331D01*
X91194091Y-91987483D01*
X91200500Y-91927873D01*
X91200499Y-90132128D01*
X91194091Y-90072517D01*
X91143796Y-89937669D01*
X91143795Y-89937668D01*
X91143793Y-89937664D01*
X91057547Y-89822455D01*
X91057544Y-89822452D01*
X90942335Y-89736206D01*
X90942328Y-89736202D01*
X90807482Y-89685908D01*
X90807483Y-89685908D01*
X90747883Y-89679501D01*
X90747881Y-89679500D01*
X90747873Y-89679500D01*
X90747864Y-89679500D01*
X88952129Y-89679500D01*
X88952123Y-89679501D01*
X88892516Y-89685908D01*
X88757671Y-89736202D01*
X88757664Y-89736206D01*
X88642455Y-89822452D01*
X88642452Y-89822455D01*
X88556206Y-89937664D01*
X88556202Y-89937671D01*
X88505908Y-90072517D01*
X88499501Y-90132116D01*
X88499501Y-90132123D01*
X88499500Y-90132135D01*
X88499500Y-91927870D01*
X88499501Y-91927876D01*
X88505908Y-91987483D01*
X88556202Y-92122328D01*
X88556206Y-92122335D01*
X88642452Y-92237544D01*
X88642455Y-92237547D01*
X88757664Y-92323793D01*
X88757671Y-92323797D01*
X88757674Y-92323798D01*
X88889598Y-92373002D01*
X88945531Y-92414873D01*
X88969949Y-92480337D01*
X88955098Y-92548610D01*
X88933947Y-92576865D01*
X88811886Y-92698926D01*
X88676400Y-92892420D01*
X88676399Y-92892422D01*
X88576570Y-93106507D01*
X88576567Y-93106513D01*
X88519364Y-93319999D01*
X88519364Y-93320000D01*
X89416988Y-93320000D01*
X89384075Y-93377007D01*
X89350000Y-93504174D01*
X89350000Y-93635826D01*
X89384075Y-93762993D01*
X89416988Y-93820000D01*
X88519364Y-93820000D01*
X88576567Y-94033486D01*
X88576570Y-94033492D01*
X88676399Y-94247578D01*
X88811894Y-94441082D01*
X88978917Y-94608105D01*
X89164595Y-94738119D01*
X89208219Y-94792696D01*
X89215412Y-94862195D01*
X89183890Y-94924549D01*
X89164595Y-94941269D01*
X88978594Y-95071508D01*
X88811505Y-95238597D01*
X88675965Y-95432169D01*
X88675964Y-95432171D01*
X88576098Y-95646335D01*
X88576094Y-95646344D01*
X88514938Y-95874586D01*
X88514936Y-95874596D01*
X88494341Y-96109999D01*
X88494341Y-96110000D01*
X88514936Y-96345403D01*
X88514938Y-96345413D01*
X88576094Y-96573655D01*
X88576096Y-96573659D01*
X88576097Y-96573663D01*
X88675965Y-96787830D01*
X88675967Y-96787834D01*
X88811501Y-96981395D01*
X88811506Y-96981402D01*
X88978597Y-97148493D01*
X88978603Y-97148498D01*
X89164158Y-97278425D01*
X89207783Y-97333002D01*
X89214977Y-97402500D01*
X89183454Y-97464855D01*
X89164158Y-97481575D01*
X88978597Y-97611505D01*
X88811505Y-97778597D01*
X88675965Y-97972169D01*
X88675964Y-97972171D01*
X88576098Y-98186335D01*
X88576094Y-98186344D01*
X88514938Y-98414586D01*
X88514936Y-98414596D01*
X88494341Y-98649999D01*
X88494341Y-98650000D01*
X86050500Y-98650000D01*
X86050500Y-81487188D01*
X86070185Y-81420149D01*
X86122989Y-81374394D01*
X86192147Y-81364450D01*
X86255703Y-81393475D01*
X86286697Y-81434388D01*
X86392267Y-81658736D01*
X86392269Y-81658739D01*
X86392270Y-81658741D01*
X86554111Y-81913763D01*
X86554114Y-81913767D01*
X86554115Y-81913768D01*
X86746649Y-82146502D01*
X86746652Y-82146505D01*
X86966836Y-82353272D01*
X86966846Y-82353280D01*
X87211193Y-82530808D01*
X87211198Y-82530810D01*
X87211205Y-82530816D01*
X87475896Y-82676332D01*
X87475901Y-82676334D01*
X87475903Y-82676335D01*
X87475904Y-82676336D01*
X87756734Y-82787524D01*
X87756737Y-82787525D01*
X87854259Y-82812564D01*
X88049302Y-82862642D01*
X88196039Y-82881179D01*
X88348963Y-82900499D01*
X88348969Y-82900499D01*
X88348973Y-82900500D01*
X88348975Y-82900500D01*
X88651025Y-82900500D01*
X88651027Y-82900500D01*
X88651032Y-82900499D01*
X88651036Y-82900499D01*
X88730591Y-82890448D01*
X88950698Y-82862642D01*
X89243262Y-82787525D01*
X89243265Y-82787524D01*
X89524095Y-82676336D01*
X89524096Y-82676335D01*
X89524094Y-82676335D01*
X89524104Y-82676332D01*
X89788795Y-82530816D01*
X90033162Y-82353274D01*
X90253349Y-82146504D01*
X90445885Y-81913768D01*
X90607733Y-81658736D01*
X90736341Y-81385430D01*
X90829681Y-81098160D01*
X90886280Y-80801457D01*
X90905246Y-80500000D01*
X90886280Y-80198543D01*
X90829681Y-79901840D01*
X90736341Y-79614570D01*
X90607733Y-79341264D01*
X90445885Y-79086232D01*
X90253349Y-78853496D01*
X90033162Y-78646726D01*
X90033159Y-78646724D01*
X90033153Y-78646719D01*
X89788806Y-78469191D01*
X89788799Y-78469186D01*
X89788795Y-78469184D01*
X89524104Y-78323668D01*
X89524101Y-78323666D01*
X89524096Y-78323664D01*
X89524095Y-78323663D01*
X89312259Y-78239792D01*
X89257173Y-78196811D01*
X89234070Y-78130872D01*
X89250283Y-78062909D01*
X89300667Y-78014502D01*
X89357906Y-78000500D01*
X126142094Y-78000500D01*
X126209133Y-78020185D01*
G37*
%TD.AperFunction*%
%TD*%
M02*
