%TF.GenerationSoftware,KiCad,Pcbnew,8.0.1*%
%TF.CreationDate,2025-03-05T11:05:37+00:00*%
%TF.ProjectId,PWM Control Circuit,50574d20-436f-46e7-9472-6f6c20436972,Version 2*%
%TF.SameCoordinates,Original*%
%TF.FileFunction,Copper,L1,Top*%
%TF.FilePolarity,Positive*%
%FSLAX46Y46*%
G04 Gerber Fmt 4.6, Leading zero omitted, Abs format (unit mm)*
G04 Created by KiCad (PCBNEW 8.0.1) date 2025-03-05 11:05:37*
%MOMM*%
%LPD*%
G01*
G04 APERTURE LIST*
G04 Aperture macros list*
%AMRoundRect*
0 Rectangle with rounded corners*
0 $1 Rounding radius*
0 $2 $3 $4 $5 $6 $7 $8 $9 X,Y pos of 4 corners*
0 Add a 4 corners polygon primitive as box body*
4,1,4,$2,$3,$4,$5,$6,$7,$8,$9,$2,$3,0*
0 Add four circle primitives for the rounded corners*
1,1,$1+$1,$2,$3*
1,1,$1+$1,$4,$5*
1,1,$1+$1,$6,$7*
1,1,$1+$1,$8,$9*
0 Add four rect primitives between the rounded corners*
20,1,$1+$1,$2,$3,$4,$5,0*
20,1,$1+$1,$4,$5,$6,$7,0*
20,1,$1+$1,$6,$7,$8,$9,0*
20,1,$1+$1,$8,$9,$2,$3,0*%
G04 Aperture macros list end*
%TA.AperFunction,SMDPad,CuDef*%
%ADD10R,1.110000X1.220000*%
%TD*%
%TA.AperFunction,SMDPad,CuDef*%
%ADD11RoundRect,0.250000X-0.312500X-0.625000X0.312500X-0.625000X0.312500X0.625000X-0.312500X0.625000X0*%
%TD*%
%TA.AperFunction,SMDPad,CuDef*%
%ADD12RoundRect,0.150000X0.150000X-0.587500X0.150000X0.587500X-0.150000X0.587500X-0.150000X-0.587500X0*%
%TD*%
%TA.AperFunction,ComponentPad*%
%ADD13C,3.800000*%
%TD*%
%TA.AperFunction,ComponentPad*%
%ADD14C,1.800000*%
%TD*%
%TA.AperFunction,SMDPad,CuDef*%
%ADD15R,0.970000X2.830000*%
%TD*%
%TA.AperFunction,SMDPad,CuDef*%
%ADD16R,5.630000X6.090000*%
%TD*%
%TA.AperFunction,SMDPad,CuDef*%
%ADD17RoundRect,0.250000X-0.650000X0.325000X-0.650000X-0.325000X0.650000X-0.325000X0.650000X0.325000X0*%
%TD*%
%TA.AperFunction,SMDPad,CuDef*%
%ADD18R,1.000000X1.400000*%
%TD*%
%TA.AperFunction,SMDPad,CuDef*%
%ADD19R,1.850000X0.650000*%
%TD*%
%TA.AperFunction,ComponentPad*%
%ADD20R,1.910000X1.910000*%
%TD*%
%TA.AperFunction,ComponentPad*%
%ADD21C,1.910000*%
%TD*%
%TA.AperFunction,ComponentPad*%
%ADD22R,1.700000X1.700000*%
%TD*%
%TA.AperFunction,ComponentPad*%
%ADD23O,1.700000X1.700000*%
%TD*%
%TA.AperFunction,SMDPad,CuDef*%
%ADD24R,1.600000X2.400000*%
%TD*%
%TA.AperFunction,ViaPad*%
%ADD25C,0.600000*%
%TD*%
%TA.AperFunction,Conductor*%
%ADD26C,0.800000*%
%TD*%
%TA.AperFunction,Conductor*%
%ADD27C,0.200000*%
%TD*%
G04 APERTURE END LIST*
D10*
%TO.P,D3,1*%
%TO.N,Net-(D3-Pad1)*%
X107950000Y-90000000D03*
%TO.P,D3,2*%
%TO.N,GND*%
X111050000Y-90000000D03*
%TD*%
D11*
%TO.P,R5,1*%
%TO.N,+24V*%
X102075000Y-90000000D03*
%TO.P,R5,2*%
%TO.N,Net-(D3-Pad1)*%
X105000000Y-90000000D03*
%TD*%
D12*
%TO.P,D2,1,A*%
%TO.N,GND*%
X103100000Y-102500000D03*
%TO.P,D2,2,NC*%
%TO.N,unconnected-(D2-NC-Pad2)*%
X105000000Y-102500000D03*
%TO.P,D2,3,K*%
%TO.N,Net-(D2-K)*%
X104050000Y-100625000D03*
%TD*%
D13*
%TO.P,H1,1*%
%TO.N,N/C*%
X88500000Y-80500000D03*
%TD*%
D14*
%TO.P,+15V_TP1,1,1*%
%TO.N,/+15V*%
X110000000Y-94325000D03*
%TD*%
D15*
%TO.P,U2,1,IN*%
%TO.N,+24V*%
X118593300Y-93650000D03*
D16*
%TO.P,U2,2,GND*%
%TO.N,GND*%
X120883300Y-87000000D03*
D15*
%TO.P,U2,3,OUT*%
%TO.N,/+15V*%
X123173300Y-93650000D03*
%TD*%
D14*
%TO.P,GND_TP1,1,1*%
%TO.N,GND*%
X110000000Y-100000000D03*
%TD*%
D11*
%TO.P,R1,1*%
%TO.N,/PWM input*%
X96350000Y-90000000D03*
%TO.P,R1,2*%
%TO.N,Net-(IC1-ANODE)*%
X99275000Y-90000000D03*
%TD*%
D17*
%TO.P,C2,1*%
%TO.N,+24V*%
X93500000Y-92025000D03*
%TO.P,C2,2*%
%TO.N,GND*%
X93500000Y-94975000D03*
%TD*%
D18*
%TO.P,D4,1*%
%TO.N,GND*%
X114050000Y-104100000D03*
%TO.P,D4,2*%
%TO.N,unconnected-(D4-Pad2)*%
X115950000Y-104100000D03*
%TO.P,D4,3*%
%TO.N,Net-(D4-Pad3)*%
X115000000Y-101900000D03*
%TD*%
D17*
%TO.P,C1,1*%
%TO.N,+12V*%
X93500000Y-98525000D03*
%TO.P,C1,2*%
%TO.N,GND*%
X93500000Y-101475000D03*
%TD*%
D11*
%TO.P,R6,1*%
%TO.N,/Vsource*%
X102100000Y-95100000D03*
%TO.P,R6,2*%
%TO.N,Net-(D4-Pad3)*%
X105025000Y-95100000D03*
%TD*%
D14*
%TO.P,VG_TP1,1,1*%
%TO.N,/VG*%
X110000000Y-105750000D03*
%TD*%
D17*
%TO.P,C4,1*%
%TO.N,/+15V*%
X122500000Y-97525000D03*
%TO.P,C4,2*%
%TO.N,GND*%
X122500000Y-100475000D03*
%TD*%
D13*
%TO.P,H3,1*%
%TO.N,N/C*%
X88500000Y-112000000D03*
%TD*%
D17*
%TO.P,C3,1*%
%TO.N,+24V*%
X118500000Y-97525000D03*
%TO.P,C3,2*%
%TO.N,GND*%
X118500000Y-100475000D03*
%TD*%
D11*
%TO.P,R2,1*%
%TO.N,GND*%
X96200000Y-95000000D03*
%TO.P,R2,2*%
%TO.N,Net-(IC1-CATHODE)*%
X99125000Y-95000000D03*
%TD*%
%TO.P,R3,1*%
%TO.N,+24V*%
X96125000Y-100300000D03*
%TO.P,R3,2*%
%TO.N,Net-(D1-Pad2)*%
X99050000Y-100300000D03*
%TD*%
%TO.P,R4,1*%
%TO.N,/VG*%
X96150000Y-106075000D03*
%TO.P,R4,2*%
%TO.N,Net-(D2-K)*%
X99075000Y-106075000D03*
%TD*%
D19*
%TO.P,IC1,1,ANODE*%
%TO.N,Net-(IC1-ANODE)*%
X100875000Y-82530000D03*
%TO.P,IC1,2,NC*%
%TO.N,unconnected-(IC1-NC-Pad2)*%
X100875000Y-83800000D03*
%TO.P,IC1,3,CATHODE*%
%TO.N,Net-(IC1-CATHODE)*%
X100875000Y-85070000D03*
%TO.P,IC1,4,VEE*%
%TO.N,GND*%
X111525000Y-85070000D03*
%TO.P,IC1,5,VOUT*%
%TO.N,/VG*%
X111525000Y-83800000D03*
%TO.P,IC1,6,VCC*%
%TO.N,/+15V*%
X111525000Y-82530000D03*
%TD*%
D20*
%TO.P,U1,1*%
%TO.N,/VG*%
X112420000Y-111500000D03*
D21*
%TO.P,U1,2*%
%TO.N,+12V*%
X114960000Y-111500000D03*
%TO.P,U1,3*%
%TO.N,/Vsource*%
X117500000Y-111500000D03*
%TD*%
D13*
%TO.P,H4,1*%
%TO.N,N/C*%
X127000000Y-112000000D03*
%TD*%
D22*
%TO.P,J2,1,Pin_1*%
%TO.N,/Vsource*%
X127000000Y-96000000D03*
D23*
%TO.P,J2,2,Pin_2*%
%TO.N,GND*%
X127000000Y-98540000D03*
%TD*%
D13*
%TO.P,H2,1*%
%TO.N,N/C*%
X127000000Y-80500000D03*
%TD*%
D22*
%TO.P,J1,1,Pin_1*%
%TO.N,/PWM input*%
X89850000Y-91030000D03*
D23*
%TO.P,J1,2,Pin_2*%
%TO.N,GND*%
X89850000Y-93570000D03*
%TO.P,J1,3,Pin_3*%
%TO.N,+24V*%
X89850000Y-96110000D03*
%TO.P,J1,4,Pin_4*%
%TO.N,+12V*%
X89850000Y-98650000D03*
%TO.P,J1,5,Pin_5*%
%TO.N,GND*%
X89850000Y-101190000D03*
%TD*%
D24*
%TO.P,D1,1*%
%TO.N,GND*%
X92175000Y-85000000D03*
%TO.P,D1,2*%
%TO.N,Net-(D1-Pad2)*%
X95025000Y-85000000D03*
%TD*%
D25*
%TO.N,/VG*%
X113097400Y-84006300D03*
%TO.N,GND*%
X93600000Y-84553200D03*
X120105700Y-100597900D03*
X125230500Y-87414800D03*
X95018800Y-95222400D03*
X93518200Y-102602300D03*
X113012900Y-85191800D03*
X111131800Y-91158600D03*
X103914600Y-102258300D03*
X113747200Y-102802500D03*
%TD*%
D26*
%TO.N,+12V*%
X93375000Y-98650000D02*
X93500000Y-98525000D01*
X89850000Y-98650000D02*
X93375000Y-98650000D01*
%TO.N,/Vsource*%
X102100000Y-95582900D02*
X102100000Y-95100000D01*
X117500000Y-110982900D02*
X102100000Y-95582900D01*
X117500000Y-111500000D02*
X117500000Y-110982900D01*
D27*
%TO.N,/PWM input*%
X92031700Y-90000000D02*
X96350000Y-90000000D01*
X91001700Y-91030000D02*
X92031700Y-90000000D01*
X89850000Y-91030000D02*
X91001700Y-91030000D01*
%TO.N,Net-(IC1-CATHODE)*%
X100875000Y-93250000D02*
X99125000Y-95000000D01*
X100875000Y-85070000D02*
X100875000Y-93250000D01*
D26*
%TO.N,/VG*%
X113051700Y-83960600D02*
X113051700Y-83800000D01*
X113097400Y-84006300D02*
X113051700Y-83960600D01*
X111525000Y-83800000D02*
X113051700Y-83800000D01*
X112420000Y-111500000D02*
X112420000Y-109943300D01*
X97645300Y-107570300D02*
X96150000Y-106075000D01*
X110000000Y-107570300D02*
X97645300Y-107570300D01*
X110047000Y-107570300D02*
X110000000Y-107570300D01*
X112420000Y-109943300D02*
X110047000Y-107570300D01*
X110000000Y-107570300D02*
X110000000Y-105750000D01*
D27*
%TO.N,Net-(IC1-ANODE)*%
X99648300Y-89626700D02*
X99275000Y-90000000D01*
X99648300Y-82530000D02*
X99648300Y-89626700D01*
X100875000Y-82530000D02*
X99648300Y-82530000D01*
%TO.N,Net-(D4-Pad3)*%
X107398300Y-95100000D02*
X105025000Y-95100000D01*
X114198300Y-101900000D02*
X107398300Y-95100000D01*
X115000000Y-101900000D02*
X114198300Y-101900000D01*
%TO.N,Net-(D3-Pad1)*%
X105000000Y-90000000D02*
X107950000Y-90000000D01*
%TO.N,Net-(D2-K)*%
X99075000Y-105075300D02*
X99075000Y-106075000D01*
X103525300Y-100625000D02*
X99075000Y-105075300D01*
X104050000Y-100625000D02*
X103525300Y-100625000D01*
%TO.N,Net-(D1-Pad2)*%
X99050000Y-98404400D02*
X99050000Y-100300000D01*
X97812500Y-97166900D02*
X99050000Y-98404400D01*
X97812500Y-86685800D02*
X97812500Y-97166900D01*
X96126700Y-85000000D02*
X97812500Y-86685800D01*
X95025000Y-85000000D02*
X96126700Y-85000000D01*
D26*
%TO.N,/+15V*%
X123173300Y-93650000D02*
X122630000Y-93650000D01*
X109893300Y-94218300D02*
X110000000Y-94325000D01*
X109893300Y-82635000D02*
X109893300Y-94218300D01*
X109998300Y-82530000D02*
X109893300Y-82635000D01*
X111525000Y-82530000D02*
X109998300Y-82530000D01*
X111366600Y-95691600D02*
X110000000Y-94325000D01*
X122500000Y-95691600D02*
X111366600Y-95691600D01*
X122500000Y-93780000D02*
X122500000Y-95691600D01*
X122630000Y-93650000D02*
X122500000Y-93780000D01*
X122500000Y-95691600D02*
X122500000Y-97525000D01*
D27*
%TO.N,GND*%
X93276700Y-84876500D02*
X93276700Y-85000000D01*
X93600000Y-84553200D02*
X93276700Y-84876500D01*
X92175000Y-85000000D02*
X93276700Y-85000000D01*
X118622900Y-100597900D02*
X120105700Y-100597900D01*
X118500000Y-100475000D02*
X118622900Y-100597900D01*
X122377100Y-100597900D02*
X122500000Y-100475000D01*
X120105700Y-100597900D02*
X122377100Y-100597900D01*
X124414800Y-87414800D02*
X124000000Y-87000000D01*
X125230500Y-87414800D02*
X124414800Y-87414800D01*
X120883300Y-87000000D02*
X124000000Y-87000000D01*
X95018800Y-95222400D02*
X95018800Y-95000000D01*
X96200000Y-95000000D02*
X95018800Y-95000000D01*
X93525000Y-95000000D02*
X93500000Y-94975000D01*
X95018800Y-95000000D02*
X93525000Y-95000000D01*
X93500000Y-102584100D02*
X93500000Y-101475000D01*
X93518200Y-102602300D02*
X93500000Y-102584100D01*
X111525000Y-85070000D02*
X112751700Y-85070000D01*
X112873500Y-85191800D02*
X113012900Y-85191800D01*
X112751700Y-85070000D02*
X112873500Y-85191800D01*
X111050000Y-91076800D02*
X111050000Y-90000000D01*
X111131800Y-91158600D02*
X111050000Y-91076800D01*
X103341700Y-102258300D02*
X103100000Y-102500000D01*
X103914600Y-102258300D02*
X103341700Y-102258300D01*
X114043000Y-103098300D02*
X114050000Y-103098300D01*
X113747200Y-102802500D02*
X114043000Y-103098300D01*
X114050000Y-104100000D02*
X114050000Y-103098300D01*
%TD*%
%TA.AperFunction,Conductor*%
%TO.N,+24V*%
G36*
X126209133Y-78020185D02*
G01*
X126254888Y-78072989D01*
X126264832Y-78142147D01*
X126235807Y-78205703D01*
X126187741Y-78239792D01*
X125975904Y-78323663D01*
X125975903Y-78323664D01*
X125711205Y-78469184D01*
X125711193Y-78469191D01*
X125466846Y-78646719D01*
X125466836Y-78646727D01*
X125246652Y-78853494D01*
X125054111Y-79086236D01*
X124892268Y-79341261D01*
X124892265Y-79341267D01*
X124763661Y-79614563D01*
X124763659Y-79614568D01*
X124670320Y-79901835D01*
X124613719Y-80198546D01*
X124613718Y-80198553D01*
X124594754Y-80499994D01*
X124594754Y-80500005D01*
X124613718Y-80801446D01*
X124613719Y-80801453D01*
X124670320Y-81098164D01*
X124763659Y-81385431D01*
X124763661Y-81385436D01*
X124892265Y-81658732D01*
X124892268Y-81658738D01*
X125054111Y-81913763D01*
X125054114Y-81913767D01*
X125054115Y-81913768D01*
X125246651Y-82146504D01*
X125375321Y-82267334D01*
X125466836Y-82353272D01*
X125466846Y-82353280D01*
X125711193Y-82530808D01*
X125711198Y-82530810D01*
X125711205Y-82530816D01*
X125975896Y-82676332D01*
X125975901Y-82676334D01*
X125975903Y-82676335D01*
X125975904Y-82676336D01*
X126256734Y-82787524D01*
X126256737Y-82787525D01*
X126354259Y-82812564D01*
X126549302Y-82862642D01*
X126685238Y-82879815D01*
X126848963Y-82900499D01*
X126848969Y-82900499D01*
X126848973Y-82900500D01*
X126848975Y-82900500D01*
X127151025Y-82900500D01*
X127151027Y-82900500D01*
X127151032Y-82900499D01*
X127151036Y-82900499D01*
X127230591Y-82890448D01*
X127450698Y-82862642D01*
X127743262Y-82787525D01*
X127773634Y-82775500D01*
X128024095Y-82676336D01*
X128024096Y-82676335D01*
X128024094Y-82676335D01*
X128024104Y-82676332D01*
X128288795Y-82530816D01*
X128533162Y-82353274D01*
X128753349Y-82146504D01*
X128829956Y-82053901D01*
X128887856Y-82014794D01*
X128957707Y-82013198D01*
X129017333Y-82049619D01*
X129047803Y-82112495D01*
X129049500Y-82132942D01*
X129049500Y-110367057D01*
X129029815Y-110434096D01*
X128977011Y-110479851D01*
X128907853Y-110489795D01*
X128844297Y-110460770D01*
X128829957Y-110446098D01*
X128753352Y-110353499D01*
X128753350Y-110353497D01*
X128533163Y-110146727D01*
X128533153Y-110146719D01*
X128288806Y-109969191D01*
X128288799Y-109969186D01*
X128288795Y-109969184D01*
X128024104Y-109823668D01*
X128024101Y-109823666D01*
X128024096Y-109823664D01*
X128024095Y-109823663D01*
X127743265Y-109712475D01*
X127743262Y-109712474D01*
X127450695Y-109637357D01*
X127151036Y-109599500D01*
X127151027Y-109599500D01*
X126848973Y-109599500D01*
X126848963Y-109599500D01*
X126549304Y-109637357D01*
X126256737Y-109712474D01*
X126256734Y-109712475D01*
X125975904Y-109823663D01*
X125975903Y-109823664D01*
X125711205Y-109969184D01*
X125711193Y-109969191D01*
X125466846Y-110146719D01*
X125466836Y-110146727D01*
X125246652Y-110353494D01*
X125054111Y-110586236D01*
X124892268Y-110841261D01*
X124892265Y-110841267D01*
X124763661Y-111114563D01*
X124763659Y-111114568D01*
X124670320Y-111401835D01*
X124613719Y-111698546D01*
X124613718Y-111698553D01*
X124594754Y-111999994D01*
X124594754Y-112000005D01*
X124613718Y-112301446D01*
X124613719Y-112301453D01*
X124670320Y-112598164D01*
X124763659Y-112885431D01*
X124763661Y-112885436D01*
X124892265Y-113158732D01*
X124892268Y-113158738D01*
X125054111Y-113413763D01*
X125246652Y-113646505D01*
X125394249Y-113785108D01*
X125429644Y-113845349D01*
X125426851Y-113915163D01*
X125386757Y-113972384D01*
X125322092Y-113998845D01*
X125309365Y-113999500D01*
X90190635Y-113999500D01*
X90123596Y-113979815D01*
X90077841Y-113927011D01*
X90067897Y-113857853D01*
X90096922Y-113794297D01*
X90105751Y-113785108D01*
X90253349Y-113646504D01*
X90445885Y-113413768D01*
X90607733Y-113158736D01*
X90736341Y-112885430D01*
X90829681Y-112598160D01*
X90886280Y-112301457D01*
X90891578Y-112217249D01*
X90905246Y-112000005D01*
X90905246Y-111999994D01*
X90886281Y-111698553D01*
X90886280Y-111698546D01*
X90886280Y-111698543D01*
X90829681Y-111401840D01*
X90736341Y-111114570D01*
X90607733Y-110841264D01*
X90549500Y-110749503D01*
X90445888Y-110586236D01*
X90398580Y-110529050D01*
X90253349Y-110353496D01*
X90033162Y-110146726D01*
X90033159Y-110146724D01*
X90033153Y-110146719D01*
X89788806Y-109969191D01*
X89788799Y-109969186D01*
X89788795Y-109969184D01*
X89524104Y-109823668D01*
X89524101Y-109823666D01*
X89524096Y-109823664D01*
X89524095Y-109823663D01*
X89243265Y-109712475D01*
X89243262Y-109712474D01*
X88950695Y-109637357D01*
X88651036Y-109599500D01*
X88651027Y-109599500D01*
X88348973Y-109599500D01*
X88348963Y-109599500D01*
X88049304Y-109637357D01*
X87756737Y-109712474D01*
X87756734Y-109712475D01*
X87475904Y-109823663D01*
X87475903Y-109823664D01*
X87211205Y-109969184D01*
X87211193Y-109969191D01*
X86966846Y-110146719D01*
X86966836Y-110146727D01*
X86746652Y-110353494D01*
X86554111Y-110586236D01*
X86392268Y-110841261D01*
X86392265Y-110841267D01*
X86286698Y-111065608D01*
X86240343Y-111117886D01*
X86173083Y-111136803D01*
X86106273Y-111116354D01*
X86061124Y-111063030D01*
X86050500Y-111012811D01*
X86050500Y-101190000D01*
X88494341Y-101190000D01*
X88514936Y-101425403D01*
X88514938Y-101425413D01*
X88576094Y-101653655D01*
X88576096Y-101653659D01*
X88576097Y-101653663D01*
X88586280Y-101675500D01*
X88675965Y-101867830D01*
X88675967Y-101867834D01*
X88735461Y-101952799D01*
X88811505Y-102061401D01*
X88978599Y-102228495D01*
X89075384Y-102296265D01*
X89172165Y-102364032D01*
X89172167Y-102364033D01*
X89172170Y-102364035D01*
X89386337Y-102463903D01*
X89614592Y-102525063D01*
X89802918Y-102541539D01*
X89849999Y-102545659D01*
X89850000Y-102545659D01*
X89850001Y-102545659D01*
X89889234Y-102542226D01*
X90085408Y-102525063D01*
X90313663Y-102463903D01*
X90527830Y-102364035D01*
X90721401Y-102228495D01*
X90888495Y-102061401D01*
X91024035Y-101867830D01*
X91032349Y-101850001D01*
X92099500Y-101850001D01*
X92099501Y-101850019D01*
X92110000Y-101952796D01*
X92110001Y-101952799D01*
X92118569Y-101978654D01*
X92165186Y-102119334D01*
X92257288Y-102268656D01*
X92381344Y-102392712D01*
X92530666Y-102484814D01*
X92630610Y-102517932D01*
X92688055Y-102557705D01*
X92714826Y-102621754D01*
X92732830Y-102781550D01*
X92732831Y-102781554D01*
X92792411Y-102951823D01*
X92852335Y-103047191D01*
X92888384Y-103104562D01*
X93015938Y-103232116D01*
X93168678Y-103328089D01*
X93237398Y-103352135D01*
X93338945Y-103387668D01*
X93338950Y-103387669D01*
X93518196Y-103407865D01*
X93518200Y-103407865D01*
X93518204Y-103407865D01*
X93697449Y-103387669D01*
X93697452Y-103387668D01*
X93697455Y-103387668D01*
X93867722Y-103328089D01*
X94020462Y-103232116D01*
X94148016Y-103104562D01*
X94243989Y-102951822D01*
X94303568Y-102781555D01*
X94322985Y-102609225D01*
X94350051Y-102544811D01*
X94407200Y-102505402D01*
X94469334Y-102484814D01*
X94618656Y-102392712D01*
X94742712Y-102268656D01*
X94834814Y-102119334D01*
X94889999Y-101952797D01*
X94900500Y-101850009D01*
X94900499Y-101312291D01*
X94920183Y-101245253D01*
X94972987Y-101199498D01*
X95042146Y-101189554D01*
X95105702Y-101218579D01*
X95130038Y-101247195D01*
X95220184Y-101393345D01*
X95344154Y-101517315D01*
X95493375Y-101609356D01*
X95493380Y-101609358D01*
X95659802Y-101664505D01*
X95659809Y-101664506D01*
X95762519Y-101674999D01*
X95874999Y-101674999D01*
X95875000Y-101674998D01*
X95875000Y-100550000D01*
X96375000Y-100550000D01*
X96375000Y-101674999D01*
X96487472Y-101674999D01*
X96487486Y-101674998D01*
X96590197Y-101664505D01*
X96756619Y-101609358D01*
X96756624Y-101609356D01*
X96905845Y-101517315D01*
X97029815Y-101393345D01*
X97121856Y-101244124D01*
X97121858Y-101244119D01*
X97177005Y-101077697D01*
X97177006Y-101077690D01*
X97187499Y-100974986D01*
X97187500Y-100974973D01*
X97187500Y-100550000D01*
X96375000Y-100550000D01*
X95875000Y-100550000D01*
X95062501Y-100550000D01*
X95062501Y-100762567D01*
X95042816Y-100829606D01*
X94990012Y-100875361D01*
X94920854Y-100885305D01*
X94857298Y-100856280D01*
X94832962Y-100827664D01*
X94801959Y-100777400D01*
X94742712Y-100681344D01*
X94618656Y-100557288D01*
X94469334Y-100465186D01*
X94302797Y-100410001D01*
X94302795Y-100410000D01*
X94200010Y-100399500D01*
X92799998Y-100399500D01*
X92799981Y-100399501D01*
X92697203Y-100410000D01*
X92697200Y-100410001D01*
X92530668Y-100465185D01*
X92530663Y-100465187D01*
X92381342Y-100557289D01*
X92257289Y-100681342D01*
X92165187Y-100830663D01*
X92165185Y-100830668D01*
X92147080Y-100885305D01*
X92110001Y-100997203D01*
X92110001Y-100997204D01*
X92110000Y-100997204D01*
X92099500Y-101099983D01*
X92099500Y-101850001D01*
X91032349Y-101850001D01*
X91123903Y-101653663D01*
X91185063Y-101425408D01*
X91205659Y-101190000D01*
X91185063Y-100954592D01*
X91123903Y-100726337D01*
X91024035Y-100512171D01*
X90991136Y-100465185D01*
X90888494Y-100318597D01*
X90721402Y-100151506D01*
X90721396Y-100151501D01*
X90576437Y-100050000D01*
X95062500Y-100050000D01*
X95875000Y-100050000D01*
X95875000Y-98925000D01*
X96375000Y-98925000D01*
X96375000Y-100050000D01*
X97187499Y-100050000D01*
X97187499Y-99625028D01*
X97187498Y-99625013D01*
X97177005Y-99522302D01*
X97121858Y-99355880D01*
X97121856Y-99355875D01*
X97029815Y-99206654D01*
X96905845Y-99082684D01*
X96756624Y-98990643D01*
X96756619Y-98990641D01*
X96590197Y-98935494D01*
X96590190Y-98935493D01*
X96487486Y-98925000D01*
X96375000Y-98925000D01*
X95875000Y-98925000D01*
X95762527Y-98925000D01*
X95762512Y-98925001D01*
X95659802Y-98935494D01*
X95493380Y-98990641D01*
X95493375Y-98990643D01*
X95344154Y-99082684D01*
X95220184Y-99206654D01*
X95128143Y-99355875D01*
X95128141Y-99355880D01*
X95072994Y-99522302D01*
X95072993Y-99522309D01*
X95062500Y-99625013D01*
X95062500Y-100050000D01*
X90576437Y-100050000D01*
X90535842Y-100021575D01*
X90492217Y-99966998D01*
X90485023Y-99897500D01*
X90516546Y-99835145D01*
X90535842Y-99818425D01*
X90598043Y-99774871D01*
X90721401Y-99688495D01*
X90823077Y-99586819D01*
X90884400Y-99553334D01*
X90910758Y-99550500D01*
X92557993Y-99550500D01*
X92596997Y-99556794D01*
X92697203Y-99589999D01*
X92799991Y-99600500D01*
X94200008Y-99600499D01*
X94302797Y-99589999D01*
X94469334Y-99534814D01*
X94618656Y-99442712D01*
X94742712Y-99318656D01*
X94834814Y-99169334D01*
X94889999Y-99002797D01*
X94900500Y-98900009D01*
X94900499Y-98149992D01*
X94889999Y-98047203D01*
X94834814Y-97880666D01*
X94742712Y-97731344D01*
X94618656Y-97607288D01*
X94525888Y-97550069D01*
X94469336Y-97515187D01*
X94469331Y-97515185D01*
X94467862Y-97514698D01*
X94302797Y-97460001D01*
X94302795Y-97460000D01*
X94200010Y-97449500D01*
X92799998Y-97449500D01*
X92799981Y-97449501D01*
X92697203Y-97460000D01*
X92697200Y-97460001D01*
X92530668Y-97515185D01*
X92530663Y-97515187D01*
X92381345Y-97607287D01*
X92275450Y-97713182D01*
X92214127Y-97746666D01*
X92187769Y-97749500D01*
X90910758Y-97749500D01*
X90843719Y-97729815D01*
X90823077Y-97713181D01*
X90721402Y-97611506D01*
X90721401Y-97611505D01*
X90535405Y-97481269D01*
X90491781Y-97426692D01*
X90484588Y-97357193D01*
X90516110Y-97294839D01*
X90535405Y-97278119D01*
X90721082Y-97148105D01*
X90888105Y-96981082D01*
X91023600Y-96787578D01*
X91123429Y-96573492D01*
X91123432Y-96573486D01*
X91180636Y-96360000D01*
X90283012Y-96360000D01*
X90315925Y-96302993D01*
X90350000Y-96175826D01*
X90350000Y-96044174D01*
X90315925Y-95917007D01*
X90283012Y-95860000D01*
X91180636Y-95860000D01*
X91180635Y-95859999D01*
X91123432Y-95646513D01*
X91123429Y-95646507D01*
X91023600Y-95432422D01*
X91023599Y-95432420D01*
X90888113Y-95238926D01*
X90888108Y-95238920D01*
X90721078Y-95071890D01*
X90535405Y-94941879D01*
X90491780Y-94887302D01*
X90484588Y-94817804D01*
X90516110Y-94755449D01*
X90535406Y-94738730D01*
X90637704Y-94667100D01*
X90721401Y-94608495D01*
X90888495Y-94441401D01*
X91024035Y-94247830D01*
X91123903Y-94033663D01*
X91185063Y-93805408D01*
X91205659Y-93570000D01*
X91185063Y-93334592D01*
X91135240Y-93148646D01*
X91123905Y-93106344D01*
X91123904Y-93106343D01*
X91123903Y-93106337D01*
X91024035Y-92892171D01*
X90888495Y-92698599D01*
X90766567Y-92576671D01*
X90733084Y-92515351D01*
X90738068Y-92445659D01*
X90779939Y-92389725D01*
X90810915Y-92372810D01*
X90942331Y-92323796D01*
X91007514Y-92275000D01*
X92100001Y-92275000D01*
X92100001Y-92399986D01*
X92110494Y-92502697D01*
X92165641Y-92669119D01*
X92165643Y-92669124D01*
X92257684Y-92818345D01*
X92381654Y-92942315D01*
X92530875Y-93034356D01*
X92530880Y-93034358D01*
X92697302Y-93089505D01*
X92697309Y-93089506D01*
X92800019Y-93099999D01*
X93249999Y-93099999D01*
X93250000Y-93099998D01*
X93250000Y-92275000D01*
X93750000Y-92275000D01*
X93750000Y-93099999D01*
X94199972Y-93099999D01*
X94199986Y-93099998D01*
X94302697Y-93089505D01*
X94469119Y-93034358D01*
X94469124Y-93034356D01*
X94618345Y-92942315D01*
X94742315Y-92818345D01*
X94834356Y-92669124D01*
X94834358Y-92669119D01*
X94889505Y-92502697D01*
X94889506Y-92502690D01*
X94899999Y-92399986D01*
X94900000Y-92399973D01*
X94900000Y-92275000D01*
X93750000Y-92275000D01*
X93250000Y-92275000D01*
X92100001Y-92275000D01*
X91007514Y-92275000D01*
X91057546Y-92237546D01*
X91143796Y-92122331D01*
X91194091Y-91987483D01*
X91200500Y-91927873D01*
X91200499Y-91775000D01*
X92100000Y-91775000D01*
X93250000Y-91775000D01*
X93250000Y-90950000D01*
X93750000Y-90950000D01*
X93750000Y-91775000D01*
X94899999Y-91775000D01*
X94899999Y-91650028D01*
X94899998Y-91650013D01*
X94889505Y-91547302D01*
X94834358Y-91380880D01*
X94834356Y-91380875D01*
X94742315Y-91231654D01*
X94618345Y-91107684D01*
X94469124Y-91015643D01*
X94469119Y-91015641D01*
X94302697Y-90960494D01*
X94302690Y-90960493D01*
X94199986Y-90950000D01*
X93750000Y-90950000D01*
X93250000Y-90950000D01*
X92800028Y-90950000D01*
X92800012Y-90950001D01*
X92697302Y-90960494D01*
X92530880Y-91015641D01*
X92530875Y-91015643D01*
X92381654Y-91107684D01*
X92257684Y-91231654D01*
X92165643Y-91380875D01*
X92165641Y-91380880D01*
X92110494Y-91547302D01*
X92110493Y-91547309D01*
X92100000Y-91650013D01*
X92100000Y-91775000D01*
X91200499Y-91775000D01*
X91200499Y-91680211D01*
X91220183Y-91613173D01*
X91262499Y-91572825D01*
X91289355Y-91557320D01*
X91370416Y-91510520D01*
X91482220Y-91398716D01*
X91482220Y-91398714D01*
X91492424Y-91388511D01*
X91492427Y-91388506D01*
X92244116Y-90636819D01*
X92305439Y-90603334D01*
X92331797Y-90600500D01*
X95167411Y-90600500D01*
X95234450Y-90620185D01*
X95280205Y-90672989D01*
X95290769Y-90711898D01*
X95297501Y-90777797D01*
X95297501Y-90777799D01*
X95352685Y-90944331D01*
X95352687Y-90944336D01*
X95367002Y-90967544D01*
X95444788Y-91093656D01*
X95568844Y-91217712D01*
X95718166Y-91309814D01*
X95884703Y-91364999D01*
X95987491Y-91375500D01*
X96712508Y-91375499D01*
X96712516Y-91375498D01*
X96712519Y-91375498D01*
X96768802Y-91369748D01*
X96815297Y-91364999D01*
X96981834Y-91309814D01*
X97022904Y-91284481D01*
X97090296Y-91266042D01*
X97156959Y-91286965D01*
X97201729Y-91340607D01*
X97212000Y-91390021D01*
X97212000Y-93713770D01*
X97192315Y-93780809D01*
X97139511Y-93826564D01*
X97070353Y-93836508D01*
X97006797Y-93807483D01*
X97000319Y-93801451D01*
X96981157Y-93782289D01*
X96981156Y-93782288D01*
X96831834Y-93690186D01*
X96665297Y-93635001D01*
X96665295Y-93635000D01*
X96562510Y-93624500D01*
X95837498Y-93624500D01*
X95837480Y-93624501D01*
X95734703Y-93635000D01*
X95734700Y-93635001D01*
X95568168Y-93690185D01*
X95568163Y-93690187D01*
X95418842Y-93782289D01*
X95294789Y-93906342D01*
X95202687Y-94055663D01*
X95202685Y-94055668D01*
X95183332Y-94114073D01*
X95161041Y-94181344D01*
X95147501Y-94222204D01*
X95147500Y-94222205D01*
X95140768Y-94288103D01*
X95114371Y-94352795D01*
X95057190Y-94392946D01*
X95017410Y-94399500D01*
X94945908Y-94399500D01*
X94878869Y-94379815D01*
X94840363Y-94335728D01*
X94838605Y-94336813D01*
X94834812Y-94330663D01*
X94742712Y-94181344D01*
X94618656Y-94057288D01*
X94469334Y-93965186D01*
X94302797Y-93910001D01*
X94302795Y-93910000D01*
X94200010Y-93899500D01*
X92799998Y-93899500D01*
X92799981Y-93899501D01*
X92697203Y-93910000D01*
X92697200Y-93910001D01*
X92530668Y-93965185D01*
X92530663Y-93965187D01*
X92381342Y-94057289D01*
X92257289Y-94181342D01*
X92165187Y-94330663D01*
X92165185Y-94330668D01*
X92144548Y-94392946D01*
X92110001Y-94497203D01*
X92110001Y-94497204D01*
X92110000Y-94497204D01*
X92099500Y-94599983D01*
X92099500Y-95350001D01*
X92099501Y-95350019D01*
X92110000Y-95452796D01*
X92110001Y-95452799D01*
X92145223Y-95559091D01*
X92165186Y-95619334D01*
X92257288Y-95768656D01*
X92381344Y-95892712D01*
X92530666Y-95984814D01*
X92697203Y-96039999D01*
X92799991Y-96050500D01*
X94200008Y-96050499D01*
X94302797Y-96039999D01*
X94469334Y-95984814D01*
X94533943Y-95944962D01*
X94601332Y-95926522D01*
X94665014Y-95945510D01*
X94669278Y-95948189D01*
X94835221Y-96006255D01*
X94839545Y-96007768D01*
X94839550Y-96007769D01*
X95018796Y-96027965D01*
X95018800Y-96027965D01*
X95018804Y-96027965D01*
X95160828Y-96011963D01*
X95229650Y-96024018D01*
X95280249Y-96070085D01*
X95294788Y-96093656D01*
X95418844Y-96217712D01*
X95568166Y-96309814D01*
X95734703Y-96364999D01*
X95837491Y-96375500D01*
X96562508Y-96375499D01*
X96562516Y-96375498D01*
X96562519Y-96375498D01*
X96618802Y-96369748D01*
X96665297Y-96364999D01*
X96831834Y-96309814D01*
X96981156Y-96217712D01*
X97000319Y-96198549D01*
X97061642Y-96165064D01*
X97131334Y-96170048D01*
X97187267Y-96211920D01*
X97211684Y-96277384D01*
X97212000Y-96286230D01*
X97212000Y-97080230D01*
X97211999Y-97080248D01*
X97211999Y-97245954D01*
X97211998Y-97245954D01*
X97252923Y-97398685D01*
X97281858Y-97448800D01*
X97281859Y-97448804D01*
X97281860Y-97448804D01*
X97331979Y-97535614D01*
X97331981Y-97535617D01*
X97450849Y-97654485D01*
X97450855Y-97654490D01*
X98413181Y-98616816D01*
X98446666Y-98678139D01*
X98449500Y-98704497D01*
X98449500Y-98901652D01*
X98429815Y-98968691D01*
X98390598Y-99007189D01*
X98313335Y-99054845D01*
X98268842Y-99082289D01*
X98144789Y-99206342D01*
X98052687Y-99355663D01*
X98052685Y-99355668D01*
X98041341Y-99389902D01*
X97997501Y-99522203D01*
X97997501Y-99522204D01*
X97997500Y-99522204D01*
X97987000Y-99624983D01*
X97987000Y-100975001D01*
X97987001Y-100975018D01*
X97997500Y-101077796D01*
X97997501Y-101077799D01*
X98052685Y-101244331D01*
X98052687Y-101244336D01*
X98060686Y-101257304D01*
X98144788Y-101393656D01*
X98268844Y-101517712D01*
X98418166Y-101609814D01*
X98584703Y-101664999D01*
X98687491Y-101675500D01*
X99412508Y-101675499D01*
X99412516Y-101675498D01*
X99412519Y-101675498D01*
X99468802Y-101669748D01*
X99515297Y-101664999D01*
X99681834Y-101609814D01*
X99831156Y-101517712D01*
X99955212Y-101393656D01*
X100047314Y-101244334D01*
X100102499Y-101077797D01*
X100113000Y-100975009D01*
X100112999Y-99624992D01*
X100109424Y-99589999D01*
X100102499Y-99522203D01*
X100102498Y-99522200D01*
X100076158Y-99442712D01*
X100047314Y-99355666D01*
X99955212Y-99206344D01*
X99831156Y-99082288D01*
X99709402Y-99007190D01*
X99662679Y-98955243D01*
X99650500Y-98901652D01*
X99650500Y-98325346D01*
X99650500Y-98325343D01*
X99629821Y-98248165D01*
X99609577Y-98172615D01*
X99566759Y-98098453D01*
X99566759Y-98098451D01*
X99530524Y-98035690D01*
X99530521Y-98035686D01*
X99530520Y-98035684D01*
X99418716Y-97923880D01*
X99418715Y-97923879D01*
X99414385Y-97919549D01*
X99414374Y-97919539D01*
X98449319Y-96954484D01*
X98415834Y-96893161D01*
X98413000Y-96866803D01*
X98413000Y-96454969D01*
X98432685Y-96387930D01*
X98485489Y-96342175D01*
X98554647Y-96332231D01*
X98575992Y-96337260D01*
X98659703Y-96364999D01*
X98762491Y-96375500D01*
X99487508Y-96375499D01*
X99487516Y-96375498D01*
X99487519Y-96375498D01*
X99543802Y-96369748D01*
X99590297Y-96364999D01*
X99756834Y-96309814D01*
X99906156Y-96217712D01*
X100030212Y-96093656D01*
X100122314Y-95944334D01*
X100177499Y-95777797D01*
X100188000Y-95675009D01*
X100187999Y-94837596D01*
X100207683Y-94770558D01*
X100224313Y-94749921D01*
X100873534Y-94100701D01*
X100934856Y-94067217D01*
X101004548Y-94072201D01*
X101060481Y-94114073D01*
X101084898Y-94179537D01*
X101078920Y-94227386D01*
X101058801Y-94288103D01*
X101047501Y-94322203D01*
X101047500Y-94322204D01*
X101037000Y-94424983D01*
X101037000Y-95775001D01*
X101037001Y-95775018D01*
X101047500Y-95877796D01*
X101047501Y-95877799D01*
X101102685Y-96044331D01*
X101102687Y-96044336D01*
X101106489Y-96050500D01*
X101194788Y-96193656D01*
X101318844Y-96317712D01*
X101468166Y-96409814D01*
X101634703Y-96464999D01*
X101673120Y-96468923D01*
X101737811Y-96495318D01*
X101748200Y-96504600D01*
X104427522Y-99183922D01*
X104461007Y-99245245D01*
X104456023Y-99314937D01*
X104414151Y-99370870D01*
X104348687Y-99395287D01*
X104305250Y-99390681D01*
X104302567Y-99389901D01*
X104265701Y-99387000D01*
X104265694Y-99387000D01*
X103834306Y-99387000D01*
X103834298Y-99387000D01*
X103797432Y-99389901D01*
X103797426Y-99389902D01*
X103639606Y-99435754D01*
X103639603Y-99435755D01*
X103498137Y-99519417D01*
X103498129Y-99519423D01*
X103381923Y-99635629D01*
X103381917Y-99635637D01*
X103298255Y-99777103D01*
X103298254Y-99777106D01*
X103252402Y-99934926D01*
X103252401Y-99934932D01*
X103249501Y-99971789D01*
X103249500Y-99971813D01*
X103249500Y-100019244D01*
X103229815Y-100086283D01*
X103187503Y-100126628D01*
X103156584Y-100144480D01*
X103156581Y-100144482D01*
X98706284Y-104594780D01*
X98706283Y-104594781D01*
X98602604Y-104698458D01*
X98553929Y-104728481D01*
X98443174Y-104765182D01*
X98443163Y-104765187D01*
X98293842Y-104857289D01*
X98169789Y-104981342D01*
X98077687Y-105130663D01*
X98077685Y-105130668D01*
X98049849Y-105214670D01*
X98022501Y-105297203D01*
X98022501Y-105297204D01*
X98022500Y-105297204D01*
X98012000Y-105399983D01*
X98012000Y-106364138D01*
X97992315Y-106431177D01*
X97939511Y-106476932D01*
X97870353Y-106486876D01*
X97806797Y-106457851D01*
X97800319Y-106451819D01*
X97249318Y-105900818D01*
X97215833Y-105839495D01*
X97212999Y-105813137D01*
X97212999Y-105399998D01*
X97212998Y-105399981D01*
X97202499Y-105297203D01*
X97202498Y-105297200D01*
X97184802Y-105243797D01*
X97147314Y-105130666D01*
X97055212Y-104981344D01*
X96931156Y-104857288D01*
X96781834Y-104765186D01*
X96615297Y-104710001D01*
X96615295Y-104710000D01*
X96512510Y-104699500D01*
X95787498Y-104699500D01*
X95787480Y-104699501D01*
X95684703Y-104710000D01*
X95684700Y-104710001D01*
X95518168Y-104765185D01*
X95518163Y-104765187D01*
X95368842Y-104857289D01*
X95244789Y-104981342D01*
X95152687Y-105130663D01*
X95152685Y-105130668D01*
X95124849Y-105214670D01*
X95097501Y-105297203D01*
X95097501Y-105297204D01*
X95097500Y-105297204D01*
X95087000Y-105399983D01*
X95087000Y-106750001D01*
X95087001Y-106750018D01*
X95097500Y-106852796D01*
X95097501Y-106852799D01*
X95107989Y-106884448D01*
X95152686Y-107019334D01*
X95244788Y-107168656D01*
X95368844Y-107292712D01*
X95518166Y-107384814D01*
X95684703Y-107439999D01*
X95787491Y-107450500D01*
X96200637Y-107450499D01*
X96267676Y-107470183D01*
X96288318Y-107486818D01*
X96945836Y-108144335D01*
X97071265Y-108269764D01*
X97218753Y-108368313D01*
X97266752Y-108388195D01*
X97382634Y-108436195D01*
X97556604Y-108470799D01*
X97556608Y-108470800D01*
X97556609Y-108470800D01*
X109622638Y-108470800D01*
X109689677Y-108490485D01*
X109710319Y-108507119D01*
X111168223Y-109965023D01*
X111201708Y-110026346D01*
X111196724Y-110096038D01*
X111154854Y-110151970D01*
X111107452Y-110187455D01*
X111021206Y-110302664D01*
X111021202Y-110302671D01*
X110970908Y-110437517D01*
X110964501Y-110497116D01*
X110964500Y-110497135D01*
X110964500Y-112502870D01*
X110964501Y-112502876D01*
X110970908Y-112562483D01*
X111021202Y-112697328D01*
X111021206Y-112697335D01*
X111107452Y-112812544D01*
X111107455Y-112812547D01*
X111222664Y-112898793D01*
X111222671Y-112898797D01*
X111357517Y-112949091D01*
X111357516Y-112949091D01*
X111364444Y-112949835D01*
X111417127Y-112955500D01*
X113422872Y-112955499D01*
X113482483Y-112949091D01*
X113617331Y-112898796D01*
X113732546Y-112812546D01*
X113818796Y-112697331D01*
X113818798Y-112697326D01*
X113829470Y-112668714D01*
X113871341Y-112612780D01*
X113936805Y-112588362D01*
X114005078Y-112603213D01*
X114021814Y-112614193D01*
X114161180Y-112722666D01*
X114161187Y-112722670D01*
X114161189Y-112722672D01*
X114373329Y-112837476D01*
X114601471Y-112915797D01*
X114839394Y-112955500D01*
X114839395Y-112955500D01*
X115080605Y-112955500D01*
X115080606Y-112955500D01*
X115318529Y-112915797D01*
X115546671Y-112837476D01*
X115758811Y-112722672D01*
X115949162Y-112574516D01*
X116112530Y-112397050D01*
X116126191Y-112376139D01*
X116179336Y-112330784D01*
X116248567Y-112321359D01*
X116311903Y-112350860D01*
X116333807Y-112376138D01*
X116347470Y-112397050D01*
X116510838Y-112574516D01*
X116510841Y-112574518D01*
X116510844Y-112574521D01*
X116701180Y-112722666D01*
X116701187Y-112722670D01*
X116701189Y-112722672D01*
X116913329Y-112837476D01*
X117141471Y-112915797D01*
X117379394Y-112955500D01*
X117379395Y-112955500D01*
X117620605Y-112955500D01*
X117620606Y-112955500D01*
X117858529Y-112915797D01*
X118086671Y-112837476D01*
X118298811Y-112722672D01*
X118489162Y-112574516D01*
X118652530Y-112397050D01*
X118784461Y-112195115D01*
X118881355Y-111974220D01*
X118940569Y-111740388D01*
X118960488Y-111500000D01*
X118940569Y-111259612D01*
X118881355Y-111025780D01*
X118784461Y-110804885D01*
X118652530Y-110602950D01*
X118489162Y-110425484D01*
X118489157Y-110425480D01*
X118489155Y-110425478D01*
X118298819Y-110277333D01*
X118298808Y-110277326D01*
X118086677Y-110162527D01*
X118086674Y-110162526D01*
X118086671Y-110162524D01*
X118086665Y-110162522D01*
X118086663Y-110162521D01*
X117910442Y-110102024D01*
X117863024Y-110072424D01*
X113274903Y-105484303D01*
X113241418Y-105422980D01*
X113246402Y-105353288D01*
X113288274Y-105297355D01*
X113353738Y-105272938D01*
X113405915Y-105280439D01*
X113442517Y-105294091D01*
X113502127Y-105300500D01*
X114597872Y-105300499D01*
X114657483Y-105294091D01*
X114792331Y-105243796D01*
X114907546Y-105157546D01*
X114907548Y-105157542D01*
X114912319Y-105152773D01*
X114973642Y-105119288D01*
X115043334Y-105124272D01*
X115087681Y-105152773D01*
X115092455Y-105157547D01*
X115207664Y-105243793D01*
X115207671Y-105243797D01*
X115342517Y-105294091D01*
X115342516Y-105294091D01*
X115349444Y-105294835D01*
X115402127Y-105300500D01*
X116497872Y-105300499D01*
X116557483Y-105294091D01*
X116692331Y-105243796D01*
X116807546Y-105157546D01*
X116893796Y-105042331D01*
X116944091Y-104907483D01*
X116950500Y-104847873D01*
X116950499Y-103352128D01*
X116944091Y-103292517D01*
X116929783Y-103254156D01*
X116893797Y-103157671D01*
X116893793Y-103157664D01*
X116807547Y-103042455D01*
X116807544Y-103042452D01*
X116692335Y-102956206D01*
X116692328Y-102956202D01*
X116557482Y-102905908D01*
X116557483Y-102905908D01*
X116497883Y-102899501D01*
X116497881Y-102899500D01*
X116497873Y-102899500D01*
X116497865Y-102899500D01*
X116101067Y-102899500D01*
X116034028Y-102879815D01*
X115988273Y-102827011D01*
X115978329Y-102757853D01*
X115984885Y-102732168D01*
X115994090Y-102707485D01*
X115994091Y-102707483D01*
X115994892Y-102700035D01*
X116000500Y-102647873D01*
X116000499Y-101152128D01*
X115994091Y-101092517D01*
X115988600Y-101077796D01*
X115943797Y-100957671D01*
X115943793Y-100957664D01*
X115863196Y-100850001D01*
X117099500Y-100850001D01*
X117099501Y-100850019D01*
X117110000Y-100952796D01*
X117110001Y-100952799D01*
X117156299Y-101092516D01*
X117165186Y-101119334D01*
X117257288Y-101268656D01*
X117381344Y-101392712D01*
X117530666Y-101484814D01*
X117697203Y-101539999D01*
X117799991Y-101550500D01*
X119200008Y-101550499D01*
X119302797Y-101539999D01*
X119469334Y-101484814D01*
X119618656Y-101392712D01*
X119650340Y-101361028D01*
X119711662Y-101327542D01*
X119778977Y-101331667D01*
X119926437Y-101383266D01*
X119926443Y-101383267D01*
X119926445Y-101383268D01*
X119926446Y-101383268D01*
X119926450Y-101383269D01*
X120105696Y-101403465D01*
X120105700Y-101403465D01*
X120105704Y-101403465D01*
X120284949Y-101383269D01*
X120284952Y-101383268D01*
X120284955Y-101383268D01*
X120455222Y-101323689D01*
X120607962Y-101227716D01*
X120607967Y-101227710D01*
X120610797Y-101225455D01*
X120612975Y-101224565D01*
X120613858Y-101224011D01*
X120613955Y-101224165D01*
X120675483Y-101199045D01*
X120688112Y-101198400D01*
X121144747Y-101198400D01*
X121211786Y-101218085D01*
X121250286Y-101257304D01*
X121254972Y-101264902D01*
X121257288Y-101268656D01*
X121381344Y-101392712D01*
X121530666Y-101484814D01*
X121697203Y-101539999D01*
X121799991Y-101550500D01*
X123200008Y-101550499D01*
X123302797Y-101539999D01*
X123469334Y-101484814D01*
X123618656Y-101392712D01*
X123742712Y-101268656D01*
X123834814Y-101119334D01*
X123889999Y-100952797D01*
X123900500Y-100850009D01*
X123900499Y-100099992D01*
X123889999Y-99997203D01*
X123834814Y-99830666D01*
X123742712Y-99681344D01*
X123618656Y-99557288D01*
X123469334Y-99465186D01*
X123302797Y-99410001D01*
X123302795Y-99410000D01*
X123200010Y-99399500D01*
X121799998Y-99399500D01*
X121799981Y-99399501D01*
X121697203Y-99410000D01*
X121697200Y-99410001D01*
X121530668Y-99465185D01*
X121530663Y-99465187D01*
X121381342Y-99557289D01*
X121257289Y-99681342D01*
X121165187Y-99830663D01*
X121165186Y-99830666D01*
X121143040Y-99897500D01*
X121138101Y-99912404D01*
X121098328Y-99969849D01*
X121033812Y-99996672D01*
X121020395Y-99997400D01*
X120688112Y-99997400D01*
X120621073Y-99977715D01*
X120610797Y-99970345D01*
X120607963Y-99968085D01*
X120607962Y-99968084D01*
X120519348Y-99912404D01*
X120455223Y-99872111D01*
X120284954Y-99812531D01*
X120284949Y-99812530D01*
X120105704Y-99792335D01*
X120105696Y-99792335D01*
X119926441Y-99812531D01*
X119922842Y-99813353D01*
X119920453Y-99813206D01*
X119919525Y-99813311D01*
X119919506Y-99813148D01*
X119853104Y-99809074D01*
X119796749Y-99767771D01*
X119789720Y-99757557D01*
X119742712Y-99681344D01*
X119618656Y-99557288D01*
X119469334Y-99465186D01*
X119302797Y-99410001D01*
X119302795Y-99410000D01*
X119200010Y-99399500D01*
X117799998Y-99399500D01*
X117799981Y-99399501D01*
X117697203Y-99410000D01*
X117697200Y-99410001D01*
X117530668Y-99465185D01*
X117530663Y-99465187D01*
X117381342Y-99557289D01*
X117257289Y-99681342D01*
X117165187Y-99830663D01*
X117165185Y-99830668D01*
X117161050Y-99843147D01*
X117110001Y-99997203D01*
X117110001Y-99997204D01*
X117110000Y-99997204D01*
X117099500Y-100099983D01*
X117099500Y-100850001D01*
X115863196Y-100850001D01*
X115857547Y-100842455D01*
X115857544Y-100842452D01*
X115742335Y-100756206D01*
X115742328Y-100756202D01*
X115607482Y-100705908D01*
X115607483Y-100705908D01*
X115547883Y-100699501D01*
X115547881Y-100699500D01*
X115547873Y-100699500D01*
X115547864Y-100699500D01*
X114452129Y-100699500D01*
X114452123Y-100699501D01*
X114392516Y-100705908D01*
X114257671Y-100756202D01*
X114257668Y-100756204D01*
X114141276Y-100843335D01*
X114075811Y-100867752D01*
X114007538Y-100852900D01*
X113979284Y-100831749D01*
X110922535Y-97775000D01*
X117100001Y-97775000D01*
X117100001Y-97899986D01*
X117110494Y-98002697D01*
X117165641Y-98169119D01*
X117165643Y-98169124D01*
X117257684Y-98318345D01*
X117381654Y-98442315D01*
X117530875Y-98534356D01*
X117530880Y-98534358D01*
X117697302Y-98589505D01*
X117697309Y-98589506D01*
X117800019Y-98599999D01*
X118249999Y-98599999D01*
X118250000Y-98599998D01*
X118250000Y-97775000D01*
X118750000Y-97775000D01*
X118750000Y-98599999D01*
X119199972Y-98599999D01*
X119199986Y-98599998D01*
X119302697Y-98589505D01*
X119469119Y-98534358D01*
X119469124Y-98534356D01*
X119618345Y-98442315D01*
X119742315Y-98318345D01*
X119834356Y-98169124D01*
X119834358Y-98169119D01*
X119889505Y-98002697D01*
X119889506Y-98002690D01*
X119899999Y-97899986D01*
X119900000Y-97899973D01*
X119900000Y-97775000D01*
X118750000Y-97775000D01*
X118250000Y-97775000D01*
X117100001Y-97775000D01*
X110922535Y-97775000D01*
X107885890Y-94738355D01*
X107885888Y-94738352D01*
X107767017Y-94619481D01*
X107767009Y-94619475D01*
X107657594Y-94556305D01*
X107657593Y-94556304D01*
X107657593Y-94556305D01*
X107630085Y-94540423D01*
X107477357Y-94499499D01*
X107319243Y-94499499D01*
X107311647Y-94499499D01*
X107311631Y-94499500D01*
X106207589Y-94499500D01*
X106140550Y-94479815D01*
X106094795Y-94427011D01*
X106084231Y-94388102D01*
X106078991Y-94336813D01*
X106077499Y-94322203D01*
X106022314Y-94155666D01*
X105930212Y-94006344D01*
X105806156Y-93882288D01*
X105656834Y-93790186D01*
X105490297Y-93735001D01*
X105490295Y-93735000D01*
X105387510Y-93724500D01*
X104662498Y-93724500D01*
X104662480Y-93724501D01*
X104559703Y-93735000D01*
X104559700Y-93735001D01*
X104393168Y-93790185D01*
X104393163Y-93790187D01*
X104243842Y-93882289D01*
X104119789Y-94006342D01*
X104027687Y-94155663D01*
X104027686Y-94155666D01*
X103972501Y-94322203D01*
X103972501Y-94322204D01*
X103972500Y-94322204D01*
X103962000Y-94424983D01*
X103962000Y-95775001D01*
X103962002Y-95775021D01*
X103971679Y-95869759D01*
X103958909Y-95938451D01*
X103911028Y-95989335D01*
X103843238Y-96006255D01*
X103777061Y-95983838D01*
X103760640Y-95970040D01*
X103199318Y-95408718D01*
X103165833Y-95347395D01*
X103162999Y-95321037D01*
X103162999Y-94424998D01*
X103162998Y-94424981D01*
X103152499Y-94322203D01*
X103152498Y-94322200D01*
X103141199Y-94288103D01*
X103097314Y-94155666D01*
X103005212Y-94006344D01*
X102881156Y-93882288D01*
X102731834Y-93790186D01*
X102565297Y-93735001D01*
X102565295Y-93735000D01*
X102462510Y-93724500D01*
X101737498Y-93724500D01*
X101737480Y-93724501D01*
X101634703Y-93735000D01*
X101634700Y-93735001D01*
X101515774Y-93774410D01*
X101445946Y-93776812D01*
X101385904Y-93741080D01*
X101354711Y-93678560D01*
X101362272Y-93609100D01*
X101369383Y-93594704D01*
X101383646Y-93570000D01*
X101434577Y-93481784D01*
X101475501Y-93329057D01*
X101475501Y-93170942D01*
X101475501Y-93163347D01*
X101475500Y-93163329D01*
X101475500Y-91488098D01*
X101495185Y-91421059D01*
X101547989Y-91375304D01*
X101612104Y-91364740D01*
X101712521Y-91374999D01*
X101824999Y-91374999D01*
X101825000Y-91374998D01*
X101825000Y-90250000D01*
X102325000Y-90250000D01*
X102325000Y-91374999D01*
X102437472Y-91374999D01*
X102437486Y-91374998D01*
X102540197Y-91364505D01*
X102706619Y-91309358D01*
X102706624Y-91309356D01*
X102855845Y-91217315D01*
X102979815Y-91093345D01*
X103071856Y-90944124D01*
X103071858Y-90944119D01*
X103127005Y-90777697D01*
X103127006Y-90777690D01*
X103137497Y-90675001D01*
X103937000Y-90675001D01*
X103937001Y-90675018D01*
X103947500Y-90777796D01*
X103947501Y-90777799D01*
X104002685Y-90944331D01*
X104002687Y-90944336D01*
X104017002Y-90967544D01*
X104094788Y-91093656D01*
X104218844Y-91217712D01*
X104368166Y-91309814D01*
X104534703Y-91364999D01*
X104637491Y-91375500D01*
X105362508Y-91375499D01*
X105362516Y-91375498D01*
X105362519Y-91375498D01*
X105418802Y-91369748D01*
X105465297Y-91364999D01*
X105631834Y-91309814D01*
X105781156Y-91217712D01*
X105905212Y-91093656D01*
X105997314Y-90944334D01*
X106052499Y-90777797D01*
X106058661Y-90717482D01*
X106059232Y-90711897D01*
X106085629Y-90647205D01*
X106142810Y-90607054D01*
X106182590Y-90600500D01*
X106776949Y-90600500D01*
X106843988Y-90620185D01*
X106889743Y-90672989D01*
X106900239Y-90711251D01*
X106900908Y-90717482D01*
X106951202Y-90852328D01*
X106951206Y-90852335D01*
X107037452Y-90967544D01*
X107037455Y-90967547D01*
X107152664Y-91053793D01*
X107152671Y-91053797D01*
X107287517Y-91104091D01*
X107287516Y-91104091D01*
X107294444Y-91104835D01*
X107347127Y-91110500D01*
X108552872Y-91110499D01*
X108612483Y-91104091D01*
X108747331Y-91053796D01*
X108794488Y-91018493D01*
X108859953Y-90994076D01*
X108928226Y-91008927D01*
X108977632Y-91058332D01*
X108992800Y-91117760D01*
X108992800Y-93302900D01*
X108973115Y-93369939D01*
X108960031Y-93386880D01*
X108891021Y-93461847D01*
X108891019Y-93461848D01*
X108891016Y-93461853D01*
X108764076Y-93656150D01*
X108670842Y-93868699D01*
X108613866Y-94093691D01*
X108613864Y-94093702D01*
X108594700Y-94324993D01*
X108594700Y-94325006D01*
X108613864Y-94556297D01*
X108613866Y-94556305D01*
X108670842Y-94781300D01*
X108764075Y-94993848D01*
X108891016Y-95188147D01*
X108891019Y-95188151D01*
X108891021Y-95188153D01*
X109048216Y-95358913D01*
X109048219Y-95358915D01*
X109048222Y-95358918D01*
X109231365Y-95501464D01*
X109231371Y-95501468D01*
X109231374Y-95501470D01*
X109337848Y-95559091D01*
X109431919Y-95610000D01*
X109435497Y-95611936D01*
X109529115Y-95644075D01*
X109655015Y-95687297D01*
X109655017Y-95687297D01*
X109655019Y-95687298D01*
X109883951Y-95725500D01*
X109883952Y-95725500D01*
X110075639Y-95725500D01*
X110142678Y-95745185D01*
X110163320Y-95761819D01*
X110667136Y-96265635D01*
X110733732Y-96332231D01*
X110792566Y-96391065D01*
X110940047Y-96489609D01*
X110940053Y-96489613D01*
X111021993Y-96523553D01*
X111103934Y-96557495D01*
X111277903Y-96592099D01*
X111277907Y-96592100D01*
X111277908Y-96592100D01*
X111277909Y-96592100D01*
X117121587Y-96592100D01*
X117188626Y-96611785D01*
X117234381Y-96664589D01*
X117244325Y-96733747D01*
X117227126Y-96781197D01*
X117165643Y-96880875D01*
X117165641Y-96880880D01*
X117110494Y-97047302D01*
X117110493Y-97047309D01*
X117100000Y-97150013D01*
X117100000Y-97275000D01*
X119899999Y-97275000D01*
X119899999Y-97150028D01*
X119899998Y-97150013D01*
X119889505Y-97047302D01*
X119834358Y-96880880D01*
X119834356Y-96880875D01*
X119772874Y-96781197D01*
X119754434Y-96713804D01*
X119775357Y-96647141D01*
X119828999Y-96602371D01*
X119878413Y-96592100D01*
X121121000Y-96592100D01*
X121188039Y-96611785D01*
X121233794Y-96664589D01*
X121243738Y-96733747D01*
X121226539Y-96781196D01*
X121165189Y-96880659D01*
X121165185Y-96880668D01*
X121159487Y-96897864D01*
X121110001Y-97047203D01*
X121110001Y-97047204D01*
X121110000Y-97047204D01*
X121099500Y-97149983D01*
X121099500Y-97900001D01*
X121099501Y-97900019D01*
X121110000Y-98002796D01*
X121110001Y-98002799D01*
X121141698Y-98098453D01*
X121165186Y-98169334D01*
X121257288Y-98318656D01*
X121381344Y-98442712D01*
X121530666Y-98534814D01*
X121697203Y-98589999D01*
X121799991Y-98600500D01*
X123200008Y-98600499D01*
X123302797Y-98589999D01*
X123453684Y-98540000D01*
X125644341Y-98540000D01*
X125664936Y-98775403D01*
X125664938Y-98775413D01*
X125726094Y-99003655D01*
X125726096Y-99003659D01*
X125726097Y-99003663D01*
X125803351Y-99169334D01*
X125825965Y-99217830D01*
X125825967Y-99217834D01*
X125905313Y-99331151D01*
X125961505Y-99411401D01*
X126128599Y-99578495D01*
X126194988Y-99624981D01*
X126322165Y-99714032D01*
X126322167Y-99714033D01*
X126322170Y-99714035D01*
X126536337Y-99813903D01*
X126536343Y-99813904D01*
X126536344Y-99813905D01*
X126591285Y-99828626D01*
X126764592Y-99875063D01*
X126952918Y-99891539D01*
X126999999Y-99895659D01*
X127000000Y-99895659D01*
X127000001Y-99895659D01*
X127039234Y-99892226D01*
X127235408Y-99875063D01*
X127463663Y-99813903D01*
X127677830Y-99714035D01*
X127871401Y-99578495D01*
X128038495Y-99411401D01*
X128174035Y-99217830D01*
X128273903Y-99003663D01*
X128335063Y-98775408D01*
X128355659Y-98540000D01*
X128335063Y-98304592D01*
X128273903Y-98076337D01*
X128174035Y-97862171D01*
X128112997Y-97775000D01*
X128038496Y-97668600D01*
X127981401Y-97611505D01*
X127916567Y-97546671D01*
X127883084Y-97485351D01*
X127888068Y-97415659D01*
X127929939Y-97359725D01*
X127960915Y-97342810D01*
X128092331Y-97293796D01*
X128207546Y-97207546D01*
X128293796Y-97092331D01*
X128344091Y-96957483D01*
X128350500Y-96897873D01*
X128350499Y-95102128D01*
X128344091Y-95042517D01*
X128306555Y-94941879D01*
X128293797Y-94907671D01*
X128293793Y-94907664D01*
X128207547Y-94792455D01*
X128207544Y-94792452D01*
X128092335Y-94706206D01*
X128092328Y-94706202D01*
X127957482Y-94655908D01*
X127957483Y-94655908D01*
X127897883Y-94649501D01*
X127897881Y-94649500D01*
X127897873Y-94649500D01*
X127897864Y-94649500D01*
X126102129Y-94649500D01*
X126102123Y-94649501D01*
X126042516Y-94655908D01*
X125907671Y-94706202D01*
X125907664Y-94706206D01*
X125792455Y-94792452D01*
X125792452Y-94792455D01*
X125706206Y-94907664D01*
X125706202Y-94907671D01*
X125655908Y-95042517D01*
X125649501Y-95102116D01*
X125649501Y-95102123D01*
X125649500Y-95102135D01*
X125649500Y-96897870D01*
X125649501Y-96897876D01*
X125655908Y-96957483D01*
X125706202Y-97092328D01*
X125706206Y-97092335D01*
X125792452Y-97207544D01*
X125792455Y-97207547D01*
X125907664Y-97293793D01*
X125907671Y-97293797D01*
X126039081Y-97342810D01*
X126095015Y-97384681D01*
X126119432Y-97450145D01*
X126104580Y-97518418D01*
X126083430Y-97546673D01*
X125961503Y-97668600D01*
X125825965Y-97862169D01*
X125825964Y-97862171D01*
X125726098Y-98076335D01*
X125726094Y-98076344D01*
X125664938Y-98304586D01*
X125664936Y-98304596D01*
X125644341Y-98539999D01*
X125644341Y-98540000D01*
X123453684Y-98540000D01*
X123469334Y-98534814D01*
X123618656Y-98442712D01*
X123742712Y-98318656D01*
X123834814Y-98169334D01*
X123889999Y-98002797D01*
X123900500Y-97900009D01*
X123900499Y-97149992D01*
X123894150Y-97087843D01*
X123889999Y-97047203D01*
X123889998Y-97047200D01*
X123834814Y-96880666D01*
X123742712Y-96731344D01*
X123618656Y-96607288D01*
X123469334Y-96515186D01*
X123469332Y-96515185D01*
X123463187Y-96511395D01*
X123464290Y-96509605D01*
X123419649Y-96470290D01*
X123400500Y-96404091D01*
X123400500Y-95689499D01*
X123420185Y-95622460D01*
X123472989Y-95576705D01*
X123524500Y-95565499D01*
X123706171Y-95565499D01*
X123706172Y-95565499D01*
X123765783Y-95559091D01*
X123900631Y-95508796D01*
X124015846Y-95422546D01*
X124102096Y-95307331D01*
X124152391Y-95172483D01*
X124158800Y-95112873D01*
X124158799Y-92187128D01*
X124152391Y-92127517D01*
X124150458Y-92122335D01*
X124102097Y-91992671D01*
X124102093Y-91992664D01*
X124015847Y-91877455D01*
X124015844Y-91877452D01*
X123900635Y-91791206D01*
X123900628Y-91791202D01*
X123765782Y-91740908D01*
X123765783Y-91740908D01*
X123706183Y-91734501D01*
X123706181Y-91734500D01*
X123706173Y-91734500D01*
X123706164Y-91734500D01*
X122640429Y-91734500D01*
X122640423Y-91734501D01*
X122580816Y-91740908D01*
X122445971Y-91791202D01*
X122445964Y-91791206D01*
X122330755Y-91877452D01*
X122330752Y-91877455D01*
X122244506Y-91992664D01*
X122244502Y-91992671D01*
X122194208Y-92127517D01*
X122187801Y-92187116D01*
X122187801Y-92187123D01*
X122187800Y-92187135D01*
X122187800Y-92796166D01*
X122168115Y-92863205D01*
X122132692Y-92899267D01*
X122083380Y-92932218D01*
X122083377Y-92932219D01*
X122083377Y-92932220D01*
X122055966Y-92950534D01*
X122055961Y-92950538D01*
X121800538Y-93205960D01*
X121800537Y-93205961D01*
X121761064Y-93265039D01*
X121761063Y-93265040D01*
X121701988Y-93353449D01*
X121672559Y-93424499D01*
X121634105Y-93517333D01*
X121634103Y-93517341D01*
X121606492Y-93656149D01*
X121606493Y-93656150D01*
X121599500Y-93691309D01*
X121599500Y-94667100D01*
X121579815Y-94734139D01*
X121527011Y-94779894D01*
X121475500Y-94791100D01*
X119702300Y-94791100D01*
X119635261Y-94771415D01*
X119589506Y-94718611D01*
X119578300Y-94667100D01*
X119578300Y-93900000D01*
X117608300Y-93900000D01*
X117608300Y-94667100D01*
X117588615Y-94734139D01*
X117535811Y-94779894D01*
X117484300Y-94791100D01*
X111790961Y-94791100D01*
X111723922Y-94771415D01*
X111703280Y-94754781D01*
X111435855Y-94487356D01*
X111402370Y-94426033D01*
X111399960Y-94389437D01*
X111405300Y-94325000D01*
X111386134Y-94093695D01*
X111338690Y-93906344D01*
X111329157Y-93868699D01*
X111235924Y-93656150D01*
X111108983Y-93461852D01*
X111108980Y-93461849D01*
X111108979Y-93461847D01*
X111052045Y-93400000D01*
X117608300Y-93400000D01*
X118343300Y-93400000D01*
X118343300Y-91735000D01*
X118843300Y-91735000D01*
X118843300Y-93400000D01*
X119578300Y-93400000D01*
X119578300Y-92187172D01*
X119578299Y-92187155D01*
X119571898Y-92127627D01*
X119571896Y-92127620D01*
X119521654Y-91992913D01*
X119521650Y-91992906D01*
X119435490Y-91877812D01*
X119435487Y-91877809D01*
X119320393Y-91791649D01*
X119320386Y-91791645D01*
X119185679Y-91741403D01*
X119185672Y-91741401D01*
X119126144Y-91735000D01*
X118843300Y-91735000D01*
X118343300Y-91735000D01*
X118060455Y-91735000D01*
X118000927Y-91741401D01*
X118000920Y-91741403D01*
X117866213Y-91791645D01*
X117866206Y-91791649D01*
X117751112Y-91877809D01*
X117751109Y-91877812D01*
X117664949Y-91992906D01*
X117664945Y-91992913D01*
X117614703Y-92127620D01*
X117614701Y-92127627D01*
X117608300Y-92187155D01*
X117608300Y-93400000D01*
X111052045Y-93400000D01*
X110951784Y-93291087D01*
X110841637Y-93205356D01*
X110800825Y-93148646D01*
X110793800Y-93107503D01*
X110793800Y-92063181D01*
X110813485Y-91996142D01*
X110866289Y-91950387D01*
X110935447Y-91940443D01*
X110945642Y-91942947D01*
X110945763Y-91942420D01*
X110952548Y-91943969D01*
X111131796Y-91964165D01*
X111131800Y-91964165D01*
X111131804Y-91964165D01*
X111311049Y-91943969D01*
X111311052Y-91943968D01*
X111311055Y-91943968D01*
X111481322Y-91884389D01*
X111634062Y-91788416D01*
X111761616Y-91660862D01*
X111857589Y-91508122D01*
X111917168Y-91337855D01*
X111920328Y-91309814D01*
X111937365Y-91158602D01*
X111937365Y-91158597D01*
X111927254Y-91068864D01*
X111939308Y-91000042D01*
X111957421Y-90974788D01*
X111957231Y-90974646D01*
X111979921Y-90944336D01*
X112048796Y-90852331D01*
X112099091Y-90717483D01*
X112105500Y-90657873D01*
X112105500Y-90092870D01*
X117567800Y-90092870D01*
X117567801Y-90092876D01*
X117574208Y-90152483D01*
X117624502Y-90287328D01*
X117624506Y-90287335D01*
X117710752Y-90402544D01*
X117710755Y-90402547D01*
X117825964Y-90488793D01*
X117825971Y-90488797D01*
X117960817Y-90539091D01*
X117960816Y-90539091D01*
X117967744Y-90539835D01*
X118020427Y-90545500D01*
X123746172Y-90545499D01*
X123805783Y-90539091D01*
X123940631Y-90488796D01*
X124055846Y-90402546D01*
X124142096Y-90287331D01*
X124192391Y-90152483D01*
X124198800Y-90092873D01*
X124198799Y-88138665D01*
X124218484Y-88071627D01*
X124271287Y-88025872D01*
X124327615Y-88017436D01*
X124327615Y-88015301D01*
X124501454Y-88015301D01*
X124501470Y-88015300D01*
X124648088Y-88015300D01*
X124715127Y-88034985D01*
X124725403Y-88042355D01*
X124728236Y-88044614D01*
X124728238Y-88044616D01*
X124771226Y-88071627D01*
X124877917Y-88138666D01*
X124880978Y-88140589D01*
X125051245Y-88200168D01*
X125051250Y-88200169D01*
X125230496Y-88220365D01*
X125230500Y-88220365D01*
X125230504Y-88220365D01*
X125409749Y-88200169D01*
X125409752Y-88200168D01*
X125409755Y-88200168D01*
X125580022Y-88140589D01*
X125732762Y-88044616D01*
X125860316Y-87917062D01*
X125956289Y-87764322D01*
X126015868Y-87594055D01*
X126036065Y-87414800D01*
X126015868Y-87235545D01*
X125956289Y-87065278D01*
X125860316Y-86912538D01*
X125732762Y-86784984D01*
X125704593Y-86767284D01*
X125580023Y-86689011D01*
X125409754Y-86629431D01*
X125409749Y-86629430D01*
X125230504Y-86609235D01*
X125230496Y-86609235D01*
X125051250Y-86629430D01*
X125051245Y-86629431D01*
X124880974Y-86689012D01*
X124754227Y-86768652D01*
X124686991Y-86787652D01*
X124620155Y-86767284D01*
X124600575Y-86751339D01*
X124368716Y-86519480D01*
X124368714Y-86519479D01*
X124281904Y-86469360D01*
X124281904Y-86469358D01*
X124281899Y-86469357D01*
X124270347Y-86462687D01*
X124260795Y-86457172D01*
X124212581Y-86406602D01*
X124198799Y-86349787D01*
X124198799Y-83907129D01*
X124198798Y-83907123D01*
X124198797Y-83907116D01*
X124192391Y-83847517D01*
X124156813Y-83752128D01*
X124142097Y-83712671D01*
X124142093Y-83712664D01*
X124055847Y-83597455D01*
X124055844Y-83597452D01*
X123940635Y-83511206D01*
X123940628Y-83511202D01*
X123805782Y-83460908D01*
X123805783Y-83460908D01*
X123746183Y-83454501D01*
X123746181Y-83454500D01*
X123746173Y-83454500D01*
X123746164Y-83454500D01*
X118020429Y-83454500D01*
X118020423Y-83454501D01*
X117960816Y-83460908D01*
X117825971Y-83511202D01*
X117825964Y-83511206D01*
X117710755Y-83597452D01*
X117710752Y-83597455D01*
X117624506Y-83712664D01*
X117624502Y-83712671D01*
X117574208Y-83847517D01*
X117567801Y-83907116D01*
X117567801Y-83907123D01*
X117567800Y-83907135D01*
X117567800Y-90092870D01*
X112105500Y-90092870D01*
X112105499Y-89342128D01*
X112099762Y-89288756D01*
X112099091Y-89282516D01*
X112048797Y-89147671D01*
X112048793Y-89147664D01*
X111962547Y-89032455D01*
X111962544Y-89032452D01*
X111847335Y-88946206D01*
X111847328Y-88946202D01*
X111712482Y-88895908D01*
X111712483Y-88895908D01*
X111652883Y-88889501D01*
X111652881Y-88889500D01*
X111652873Y-88889500D01*
X111652865Y-88889500D01*
X110917800Y-88889500D01*
X110850761Y-88869815D01*
X110805006Y-88817011D01*
X110793800Y-88765500D01*
X110793800Y-86019499D01*
X110813485Y-85952460D01*
X110866289Y-85906705D01*
X110917800Y-85895499D01*
X112497871Y-85895499D01*
X112497872Y-85895499D01*
X112545759Y-85890351D01*
X112565197Y-85888262D01*
X112565536Y-85891424D01*
X112620673Y-85894357D01*
X112645435Y-85906314D01*
X112663378Y-85917589D01*
X112763034Y-85952460D01*
X112833645Y-85977168D01*
X112833650Y-85977169D01*
X113012896Y-85997365D01*
X113012900Y-85997365D01*
X113012904Y-85997365D01*
X113192149Y-85977169D01*
X113192152Y-85977168D01*
X113192155Y-85977168D01*
X113362422Y-85917589D01*
X113515162Y-85821616D01*
X113642716Y-85694062D01*
X113738689Y-85541322D01*
X113798268Y-85371055D01*
X113818465Y-85191800D01*
X113798268Y-85012545D01*
X113798267Y-85012543D01*
X113798266Y-85012537D01*
X113738690Y-84842281D01*
X113738688Y-84842275D01*
X113712671Y-84800871D01*
X113693670Y-84733635D01*
X113714037Y-84666799D01*
X113729978Y-84647221D01*
X113796864Y-84580336D01*
X113895413Y-84432847D01*
X113963295Y-84268966D01*
X113997900Y-84094992D01*
X113997900Y-83917609D01*
X113963295Y-83743634D01*
X113958992Y-83733245D01*
X113951938Y-83709990D01*
X113917596Y-83537341D01*
X113917593Y-83537332D01*
X113906771Y-83511206D01*
X113883284Y-83454501D01*
X113849716Y-83373459D01*
X113849709Y-83373446D01*
X113751164Y-83225965D01*
X113751161Y-83225961D01*
X113625738Y-83100538D01*
X113625734Y-83100535D01*
X113478253Y-83001990D01*
X113478240Y-83001983D01*
X113314367Y-82934106D01*
X113314358Y-82934103D01*
X113140394Y-82899500D01*
X113140391Y-82899500D01*
X113074500Y-82899500D01*
X113007461Y-82879815D01*
X112961706Y-82827011D01*
X112950500Y-82775500D01*
X112950499Y-82157129D01*
X112950498Y-82157123D01*
X112949356Y-82146502D01*
X112944091Y-82097517D01*
X112930457Y-82060963D01*
X112893797Y-81962671D01*
X112893793Y-81962664D01*
X112807547Y-81847455D01*
X112807544Y-81847452D01*
X112692335Y-81761206D01*
X112692328Y-81761202D01*
X112557482Y-81710908D01*
X112557483Y-81710908D01*
X112497883Y-81704501D01*
X112497881Y-81704500D01*
X112497873Y-81704500D01*
X112497865Y-81704500D01*
X111909851Y-81704500D01*
X111862399Y-81695061D01*
X111787667Y-81664106D01*
X111787658Y-81664103D01*
X111613694Y-81629500D01*
X111613691Y-81629500D01*
X109909609Y-81629500D01*
X109909606Y-81629500D01*
X109735641Y-81664103D01*
X109735632Y-81664106D01*
X109571759Y-81731983D01*
X109571746Y-81731990D01*
X109424267Y-81830533D01*
X109424265Y-81830535D01*
X109424265Y-81830536D01*
X109424264Y-81830537D01*
X109346851Y-81907950D01*
X109193836Y-82060963D01*
X109169413Y-82097516D01*
X109159405Y-82112495D01*
X109154364Y-82120039D01*
X109154363Y-82120040D01*
X109095288Y-82208449D01*
X109070898Y-82267334D01*
X109027405Y-82372333D01*
X109027403Y-82372341D01*
X108992800Y-82546303D01*
X108992800Y-88882239D01*
X108973115Y-88949278D01*
X108920311Y-88995033D01*
X108851153Y-89004977D01*
X108794490Y-88981506D01*
X108747334Y-88946206D01*
X108747328Y-88946202D01*
X108612482Y-88895908D01*
X108612483Y-88895908D01*
X108552883Y-88889501D01*
X108552881Y-88889500D01*
X108552873Y-88889500D01*
X108552864Y-88889500D01*
X107347129Y-88889500D01*
X107347123Y-88889501D01*
X107287516Y-88895908D01*
X107152671Y-88946202D01*
X107152664Y-88946206D01*
X107037455Y-89032452D01*
X107037452Y-89032455D01*
X106951206Y-89147664D01*
X106951202Y-89147671D01*
X106900908Y-89282516D01*
X106900238Y-89288756D01*
X106873500Y-89353307D01*
X106816107Y-89393155D01*
X106776949Y-89399500D01*
X106182589Y-89399500D01*
X106115550Y-89379815D01*
X106069795Y-89327011D01*
X106059231Y-89288102D01*
X106056937Y-89265649D01*
X106052499Y-89222203D01*
X105997314Y-89055666D01*
X105905212Y-88906344D01*
X105781156Y-88782288D01*
X105631834Y-88690186D01*
X105465297Y-88635001D01*
X105465295Y-88635000D01*
X105362510Y-88624500D01*
X104637498Y-88624500D01*
X104637480Y-88624501D01*
X104534703Y-88635000D01*
X104534700Y-88635001D01*
X104368168Y-88690185D01*
X104368163Y-88690187D01*
X104218842Y-88782289D01*
X104094789Y-88906342D01*
X104002687Y-89055663D01*
X104002685Y-89055668D01*
X104002615Y-89055880D01*
X103947501Y-89222203D01*
X103947501Y-89222204D01*
X103947500Y-89222204D01*
X103937000Y-89324983D01*
X103937000Y-90675001D01*
X103137497Y-90675001D01*
X103137499Y-90674986D01*
X103137500Y-90674973D01*
X103137500Y-90250000D01*
X102325000Y-90250000D01*
X101825000Y-90250000D01*
X101825000Y-88625000D01*
X102325000Y-88625000D01*
X102325000Y-89750000D01*
X103137499Y-89750000D01*
X103137499Y-89325028D01*
X103137498Y-89325013D01*
X103127005Y-89222302D01*
X103071858Y-89055880D01*
X103071856Y-89055875D01*
X102979815Y-88906654D01*
X102855845Y-88782684D01*
X102706624Y-88690643D01*
X102706619Y-88690641D01*
X102540197Y-88635494D01*
X102540190Y-88635493D01*
X102437486Y-88625000D01*
X102325000Y-88625000D01*
X101825000Y-88625000D01*
X101712527Y-88625000D01*
X101712510Y-88625001D01*
X101612101Y-88635259D01*
X101543409Y-88622489D01*
X101492524Y-88574608D01*
X101475500Y-88511901D01*
X101475500Y-86019499D01*
X101495185Y-85952460D01*
X101547989Y-85906705D01*
X101599500Y-85895499D01*
X101847871Y-85895499D01*
X101847872Y-85895499D01*
X101907483Y-85889091D01*
X102042331Y-85838796D01*
X102157546Y-85752546D01*
X102243796Y-85637331D01*
X102294091Y-85502483D01*
X102300500Y-85442873D01*
X102300499Y-84697128D01*
X102294091Y-84637517D01*
X102291767Y-84631286D01*
X102243797Y-84502670D01*
X102239547Y-84494888D01*
X102242757Y-84493134D01*
X102224361Y-84444001D01*
X102239127Y-84375709D01*
X102239752Y-84374736D01*
X102243797Y-84367329D01*
X102255052Y-84337150D01*
X102294091Y-84232483D01*
X102300500Y-84172873D01*
X102300499Y-83427128D01*
X102294091Y-83367517D01*
X102294091Y-83367516D01*
X102243797Y-83232670D01*
X102239547Y-83224888D01*
X102242757Y-83223134D01*
X102224361Y-83174001D01*
X102239127Y-83105709D01*
X102239752Y-83104736D01*
X102243797Y-83097329D01*
X102255052Y-83067150D01*
X102294091Y-82962483D01*
X102300500Y-82902873D01*
X102300499Y-82157128D01*
X102294091Y-82097517D01*
X102280457Y-82060963D01*
X102243797Y-81962671D01*
X102243793Y-81962664D01*
X102157547Y-81847455D01*
X102157544Y-81847452D01*
X102042335Y-81761206D01*
X102042328Y-81761202D01*
X101907482Y-81710908D01*
X101907483Y-81710908D01*
X101847883Y-81704501D01*
X101847881Y-81704500D01*
X101847873Y-81704500D01*
X101847864Y-81704500D01*
X99902129Y-81704500D01*
X99902123Y-81704501D01*
X99842516Y-81710908D01*
X99707671Y-81761202D01*
X99707664Y-81761206D01*
X99592457Y-81847451D01*
X99592450Y-81847457D01*
X99547165Y-81907950D01*
X99491230Y-81949821D01*
X99479995Y-81953412D01*
X99416521Y-81970421D01*
X99416509Y-81970426D01*
X99279590Y-82049475D01*
X99279582Y-82049481D01*
X99167781Y-82161282D01*
X99167775Y-82161290D01*
X99088726Y-82298209D01*
X99088723Y-82298216D01*
X99047800Y-82450943D01*
X99047800Y-88500500D01*
X99028115Y-88567539D01*
X98975311Y-88613294D01*
X98923809Y-88624500D01*
X98912503Y-88624500D01*
X98912480Y-88624501D01*
X98809703Y-88635000D01*
X98809700Y-88635001D01*
X98643168Y-88690185D01*
X98643166Y-88690185D01*
X98643166Y-88690186D01*
X98643162Y-88690187D01*
X98643161Y-88690189D01*
X98602095Y-88715518D01*
X98534702Y-88733957D01*
X98468039Y-88713033D01*
X98423271Y-88659391D01*
X98413000Y-88609978D01*
X98413000Y-86606746D01*
X98413000Y-86606743D01*
X98389619Y-86519481D01*
X98372077Y-86454015D01*
X98340602Y-86399499D01*
X98293020Y-86317084D01*
X98181216Y-86205280D01*
X98181215Y-86205279D01*
X98176885Y-86200949D01*
X98176874Y-86200939D01*
X96614290Y-84638355D01*
X96614288Y-84638352D01*
X96495417Y-84519481D01*
X96495416Y-84519480D01*
X96402804Y-84466011D01*
X96402802Y-84466009D01*
X96387499Y-84457174D01*
X96339283Y-84406607D01*
X96325499Y-84349787D01*
X96325499Y-83752129D01*
X96325498Y-83752123D01*
X96325497Y-83752116D01*
X96319091Y-83692517D01*
X96310259Y-83668838D01*
X96268797Y-83557671D01*
X96268793Y-83557664D01*
X96182547Y-83442455D01*
X96182544Y-83442452D01*
X96067335Y-83356206D01*
X96067328Y-83356202D01*
X95932482Y-83305908D01*
X95932483Y-83305908D01*
X95872883Y-83299501D01*
X95872881Y-83299500D01*
X95872873Y-83299500D01*
X95872864Y-83299500D01*
X94177129Y-83299500D01*
X94177123Y-83299501D01*
X94117516Y-83305908D01*
X93982671Y-83356202D01*
X93982664Y-83356206D01*
X93867455Y-83442452D01*
X93867452Y-83442455D01*
X93781206Y-83557664D01*
X93781203Y-83557669D01*
X93739740Y-83668838D01*
X93697868Y-83724771D01*
X93632404Y-83749188D01*
X93609680Y-83748725D01*
X93600002Y-83747635D01*
X93599997Y-83747635D01*
X93590318Y-83748725D01*
X93521497Y-83736667D01*
X93470120Y-83689315D01*
X93460259Y-83668837D01*
X93418797Y-83557671D01*
X93418793Y-83557664D01*
X93332547Y-83442455D01*
X93332544Y-83442452D01*
X93217335Y-83356206D01*
X93217328Y-83356202D01*
X93082482Y-83305908D01*
X93082483Y-83305908D01*
X93022883Y-83299501D01*
X93022881Y-83299500D01*
X93022873Y-83299500D01*
X93022864Y-83299500D01*
X91327129Y-83299500D01*
X91327123Y-83299501D01*
X91267516Y-83305908D01*
X91132671Y-83356202D01*
X91132664Y-83356206D01*
X91017455Y-83442452D01*
X91017452Y-83442455D01*
X90931206Y-83557664D01*
X90931202Y-83557671D01*
X90880908Y-83692517D01*
X90877441Y-83724771D01*
X90874501Y-83752123D01*
X90874500Y-83752135D01*
X90874500Y-86247870D01*
X90874501Y-86247876D01*
X90880908Y-86307483D01*
X90931202Y-86442328D01*
X90931206Y-86442335D01*
X91017452Y-86557544D01*
X91017455Y-86557547D01*
X91132664Y-86643793D01*
X91132671Y-86643797D01*
X91267517Y-86694091D01*
X91267516Y-86694091D01*
X91274444Y-86694835D01*
X91327127Y-86700500D01*
X93022872Y-86700499D01*
X93082483Y-86694091D01*
X93217331Y-86643796D01*
X93332546Y-86557546D01*
X93418796Y-86442331D01*
X93469091Y-86307483D01*
X93475500Y-86247873D01*
X93475499Y-85650211D01*
X93495183Y-85583173D01*
X93537490Y-85542830D01*
X93538496Y-85542249D01*
X93606393Y-85525774D01*
X93672422Y-85548623D01*
X93715615Y-85603542D01*
X93724500Y-85649634D01*
X93724500Y-86247870D01*
X93724501Y-86247876D01*
X93730908Y-86307483D01*
X93781202Y-86442328D01*
X93781206Y-86442335D01*
X93867452Y-86557544D01*
X93867455Y-86557547D01*
X93982664Y-86643793D01*
X93982671Y-86643797D01*
X94117517Y-86694091D01*
X94117516Y-86694091D01*
X94124444Y-86694835D01*
X94177127Y-86700500D01*
X95872872Y-86700499D01*
X95932483Y-86694091D01*
X96067331Y-86643796D01*
X96182546Y-86557546D01*
X96268796Y-86442331D01*
X96319091Y-86307483D01*
X96319090Y-86307483D01*
X96321802Y-86300215D01*
X96323351Y-86300792D01*
X96353339Y-86248121D01*
X96415247Y-86215731D01*
X96484839Y-86221952D01*
X96527130Y-86249665D01*
X97175681Y-86898216D01*
X97209166Y-86959539D01*
X97212000Y-86985897D01*
X97212000Y-88609978D01*
X97192315Y-88677017D01*
X97139511Y-88722772D01*
X97070353Y-88732716D01*
X97022905Y-88715518D01*
X97000412Y-88701645D01*
X96981834Y-88690186D01*
X96815297Y-88635001D01*
X96815295Y-88635000D01*
X96712510Y-88624500D01*
X95987498Y-88624500D01*
X95987480Y-88624501D01*
X95884703Y-88635000D01*
X95884700Y-88635001D01*
X95718168Y-88690185D01*
X95718163Y-88690187D01*
X95568842Y-88782289D01*
X95444789Y-88906342D01*
X95352687Y-89055663D01*
X95352685Y-89055668D01*
X95352615Y-89055880D01*
X95297502Y-89222202D01*
X95297501Y-89222204D01*
X95297500Y-89222205D01*
X95290768Y-89288103D01*
X95264371Y-89352795D01*
X95207190Y-89392946D01*
X95167410Y-89399500D01*
X92118369Y-89399500D01*
X92118353Y-89399499D01*
X92110757Y-89399499D01*
X91952643Y-89399499D01*
X91845287Y-89428265D01*
X91799910Y-89440424D01*
X91799909Y-89440425D01*
X91749796Y-89469359D01*
X91749795Y-89469360D01*
X91706389Y-89494420D01*
X91662985Y-89519479D01*
X91662982Y-89519481D01*
X91551178Y-89631286D01*
X91288223Y-89894240D01*
X91226900Y-89927725D01*
X91157208Y-89922741D01*
X91101277Y-89880872D01*
X91057546Y-89822454D01*
X91057544Y-89822452D01*
X91057543Y-89822451D01*
X90942335Y-89736206D01*
X90942328Y-89736202D01*
X90807482Y-89685908D01*
X90807483Y-89685908D01*
X90747883Y-89679501D01*
X90747881Y-89679500D01*
X90747873Y-89679500D01*
X90747864Y-89679500D01*
X88952129Y-89679500D01*
X88952123Y-89679501D01*
X88892516Y-89685908D01*
X88757671Y-89736202D01*
X88757664Y-89736206D01*
X88642455Y-89822452D01*
X88642452Y-89822455D01*
X88556206Y-89937664D01*
X88556202Y-89937671D01*
X88505908Y-90072517D01*
X88499501Y-90132116D01*
X88499500Y-90132135D01*
X88499500Y-91927870D01*
X88499501Y-91927876D01*
X88505908Y-91987483D01*
X88556202Y-92122328D01*
X88556206Y-92122335D01*
X88642452Y-92237544D01*
X88642455Y-92237547D01*
X88757664Y-92323793D01*
X88757671Y-92323797D01*
X88889081Y-92372810D01*
X88945015Y-92414681D01*
X88969432Y-92480145D01*
X88954580Y-92548418D01*
X88933430Y-92576673D01*
X88811503Y-92698600D01*
X88675965Y-92892169D01*
X88675964Y-92892171D01*
X88608158Y-93037582D01*
X88579053Y-93099999D01*
X88576098Y-93106335D01*
X88576094Y-93106344D01*
X88514938Y-93334586D01*
X88514936Y-93334596D01*
X88494341Y-93569999D01*
X88494341Y-93570000D01*
X88514936Y-93805403D01*
X88514938Y-93805413D01*
X88576094Y-94033655D01*
X88576096Y-94033659D01*
X88576097Y-94033663D01*
X88644961Y-94181342D01*
X88675965Y-94247830D01*
X88675967Y-94247834D01*
X88749462Y-94352795D01*
X88800019Y-94424998D01*
X88811501Y-94441395D01*
X88811506Y-94441402D01*
X88978597Y-94608493D01*
X88978603Y-94608498D01*
X89164594Y-94738730D01*
X89208219Y-94793307D01*
X89215413Y-94862805D01*
X89183890Y-94925160D01*
X89164595Y-94941880D01*
X88978922Y-95071890D01*
X88978920Y-95071891D01*
X88811891Y-95238920D01*
X88811886Y-95238926D01*
X88676400Y-95432420D01*
X88676399Y-95432422D01*
X88576570Y-95646507D01*
X88576567Y-95646513D01*
X88519364Y-95859999D01*
X88519364Y-95860000D01*
X89416988Y-95860000D01*
X89384075Y-95917007D01*
X89350000Y-96044174D01*
X89350000Y-96175826D01*
X89384075Y-96302993D01*
X89416988Y-96360000D01*
X88519364Y-96360000D01*
X88576567Y-96573486D01*
X88576570Y-96573492D01*
X88676399Y-96787578D01*
X88811894Y-96981082D01*
X88978917Y-97148105D01*
X89164595Y-97278119D01*
X89208219Y-97332696D01*
X89215412Y-97402195D01*
X89183890Y-97464549D01*
X89164595Y-97481269D01*
X88978594Y-97611508D01*
X88811505Y-97778597D01*
X88675965Y-97972169D01*
X88675964Y-97972171D01*
X88576098Y-98186335D01*
X88576094Y-98186344D01*
X88514938Y-98414586D01*
X88514936Y-98414596D01*
X88494341Y-98649999D01*
X88494341Y-98650000D01*
X88514936Y-98885403D01*
X88514938Y-98885413D01*
X88576094Y-99113655D01*
X88576096Y-99113659D01*
X88576097Y-99113663D01*
X88619314Y-99206342D01*
X88675965Y-99327830D01*
X88675967Y-99327834D01*
X88811501Y-99521395D01*
X88811506Y-99521402D01*
X88978597Y-99688493D01*
X88978603Y-99688498D01*
X89164158Y-99818425D01*
X89207783Y-99873002D01*
X89214977Y-99942500D01*
X89183454Y-100004855D01*
X89164158Y-100021575D01*
X88978597Y-100151505D01*
X88811505Y-100318597D01*
X88675965Y-100512169D01*
X88675964Y-100512171D01*
X88576098Y-100726335D01*
X88576094Y-100726344D01*
X88514938Y-100954586D01*
X88514936Y-100954596D01*
X88494341Y-101189999D01*
X88494341Y-101190000D01*
X86050500Y-101190000D01*
X86050500Y-81487188D01*
X86070185Y-81420149D01*
X86122989Y-81374394D01*
X86192147Y-81364450D01*
X86255703Y-81393475D01*
X86286697Y-81434388D01*
X86392267Y-81658736D01*
X86392269Y-81658739D01*
X86392270Y-81658741D01*
X86554111Y-81913763D01*
X86554114Y-81913767D01*
X86554115Y-81913768D01*
X86746651Y-82146504D01*
X86875321Y-82267334D01*
X86966836Y-82353272D01*
X86966846Y-82353280D01*
X87211193Y-82530808D01*
X87211198Y-82530810D01*
X87211205Y-82530816D01*
X87475896Y-82676332D01*
X87475901Y-82676334D01*
X87475903Y-82676335D01*
X87475904Y-82676336D01*
X87756734Y-82787524D01*
X87756737Y-82787525D01*
X87854259Y-82812564D01*
X88049302Y-82862642D01*
X88185238Y-82879815D01*
X88348963Y-82900499D01*
X88348969Y-82900499D01*
X88348973Y-82900500D01*
X88348975Y-82900500D01*
X88651025Y-82900500D01*
X88651027Y-82900500D01*
X88651032Y-82900499D01*
X88651036Y-82900499D01*
X88730591Y-82890448D01*
X88950698Y-82862642D01*
X89243262Y-82787525D01*
X89273634Y-82775500D01*
X89524095Y-82676336D01*
X89524096Y-82676335D01*
X89524094Y-82676335D01*
X89524104Y-82676332D01*
X89788795Y-82530816D01*
X90033162Y-82353274D01*
X90253349Y-82146504D01*
X90445885Y-81913768D01*
X90607733Y-81658736D01*
X90736341Y-81385430D01*
X90829681Y-81098160D01*
X90886280Y-80801457D01*
X90905246Y-80500000D01*
X90886280Y-80198543D01*
X90829681Y-79901840D01*
X90736341Y-79614570D01*
X90607733Y-79341264D01*
X90445885Y-79086232D01*
X90253349Y-78853496D01*
X90033162Y-78646726D01*
X90033159Y-78646724D01*
X90033153Y-78646719D01*
X89788806Y-78469191D01*
X89788799Y-78469186D01*
X89788795Y-78469184D01*
X89524104Y-78323668D01*
X89524101Y-78323666D01*
X89524096Y-78323664D01*
X89524095Y-78323663D01*
X89312259Y-78239792D01*
X89257173Y-78196811D01*
X89234070Y-78130872D01*
X89250283Y-78062909D01*
X89300667Y-78014502D01*
X89357906Y-78000500D01*
X126142094Y-78000500D01*
X126209133Y-78020185D01*
G37*
%TD.AperFunction*%
%TD*%
M02*
