%TF.GenerationSoftware,KiCad,Pcbnew,8.0.1*%
%TF.CreationDate,2024-11-30T19:39:18+00:00*%
%TF.ProjectId,Heating Element,48656174-696e-4672-9045-6c656d656e74,1*%
%TF.SameCoordinates,Original*%
%TF.FileFunction,Soldermask,Top*%
%TF.FilePolarity,Negative*%
%FSLAX46Y46*%
G04 Gerber Fmt 4.6, Leading zero omitted, Abs format (unit mm)*
G04 Created by KiCad (PCBNEW 8.0.1) date 2024-11-30 19:39:18*
%MOMM*%
%LPD*%
G01*
G04 APERTURE LIST*
G04 Aperture macros list*
%AMRoundRect*
0 Rectangle with rounded corners*
0 $1 Rounding radius*
0 $2 $3 $4 $5 $6 $7 $8 $9 X,Y pos of 4 corners*
0 Add a 4 corners polygon primitive as box body*
4,1,4,$2,$3,$4,$5,$6,$7,$8,$9,$2,$3,0*
0 Add four circle primitives for the rounded corners*
1,1,$1+$1,$2,$3*
1,1,$1+$1,$4,$5*
1,1,$1+$1,$6,$7*
1,1,$1+$1,$8,$9*
0 Add four rect primitives between the rounded corners*
20,1,$1+$1,$2,$3,$4,$5,0*
20,1,$1+$1,$4,$5,$6,$7,0*
20,1,$1+$1,$6,$7,$8,$9,0*
20,1,$1+$1,$8,$9,$2,$3,0*%
G04 Aperture macros list end*
%ADD10C,3.800000*%
%ADD11C,1.800000*%
%ADD12R,1.350000X1.350000*%
%ADD13O,1.350000X1.350000*%
%ADD14RoundRect,0.250000X0.650000X-0.325000X0.650000X0.325000X-0.650000X0.325000X-0.650000X-0.325000X0*%
%ADD15RoundRect,0.102000X-0.800000X-1.200000X0.800000X-1.200000X0.800000X1.200000X-0.800000X1.200000X0*%
%ADD16RoundRect,0.250000X-0.312500X-0.625000X0.312500X-0.625000X0.312500X0.625000X-0.312500X0.625000X0*%
%ADD17RoundRect,0.102000X0.500000X-0.700000X0.500000X0.700000X-0.500000X0.700000X-0.500000X-0.700000X0*%
%ADD18R,1.850000X0.650000*%
%ADD19RoundRect,0.102000X0.955000X0.955000X-0.955000X0.955000X-0.955000X-0.955000X0.955000X-0.955000X0*%
%ADD20C,2.114000*%
%ADD21RoundRect,0.102000X-0.485000X-1.415000X0.485000X-1.415000X0.485000X1.415000X-0.485000X1.415000X0*%
%ADD22RoundRect,0.102000X-2.815000X-3.045000X2.815000X-3.045000X2.815000X3.045000X-2.815000X3.045000X0*%
%ADD23RoundRect,0.250000X-0.325000X-0.650000X0.325000X-0.650000X0.325000X0.650000X-0.325000X0.650000X0*%
%ADD24RoundRect,0.102000X-0.555000X-0.610000X0.555000X-0.610000X0.555000X0.610000X-0.555000X0.610000X0*%
%ADD25RoundRect,0.150000X0.150000X-0.587500X0.150000X0.587500X-0.150000X0.587500X-0.150000X-0.587500X0*%
G04 APERTURE END LIST*
D10*
%TO.C,H4*%
X136175000Y-111150000D03*
%TD*%
%TO.C,H3*%
X99009200Y-111150000D03*
%TD*%
%TO.C,H2*%
X136175000Y-80517200D03*
%TD*%
%TO.C,H1*%
X99009200Y-80517200D03*
%TD*%
D11*
%TO.C,TP1*%
X112530000Y-92400000D03*
%TD*%
D12*
%TO.C,J1*%
X99560000Y-94680000D03*
D13*
X99560000Y-96680000D03*
%TD*%
D14*
%TO.C,C1*%
X99450000Y-103325000D03*
X99450000Y-100375000D03*
%TD*%
D11*
%TO.C,TP3*%
X113050000Y-103620000D03*
%TD*%
D15*
%TO.C,D2*%
X103105000Y-85670000D03*
X105955000Y-85670000D03*
%TD*%
D16*
%TO.C,R3*%
X104010000Y-101150000D03*
X106935000Y-101150000D03*
%TD*%
D17*
%TO.C,D1*%
X119446000Y-98178800D03*
X121346000Y-98178800D03*
X120396000Y-95978800D03*
%TD*%
D18*
%TO.C,IC1*%
X111845000Y-83130000D03*
X111845000Y-84400000D03*
X111845000Y-85670000D03*
X122495000Y-85670000D03*
X122495000Y-84400000D03*
X122495000Y-83130000D03*
%TD*%
D16*
%TO.C,R1*%
X104267500Y-92630000D03*
X107192500Y-92630000D03*
%TD*%
D11*
%TO.C,TP2*%
X112680000Y-98310000D03*
%TD*%
D19*
%TO.C,U1*%
X118540000Y-109400000D03*
D20*
X116000000Y-109400000D03*
X113460000Y-109400000D03*
%TD*%
D21*
%TO.C,U2*%
X127097600Y-94665600D03*
D22*
X129387600Y-88015600D03*
D21*
X131677600Y-94665600D03*
%TD*%
D23*
%TO.C,C2*%
X128471400Y-99161600D03*
X131421400Y-99161600D03*
%TD*%
D16*
%TO.C,R2*%
X104267500Y-96660000D03*
X107192500Y-96660000D03*
%TD*%
D24*
%TO.C,D4*%
X118464400Y-92506800D03*
X121564400Y-92506800D03*
%TD*%
D25*
%TO.C,D3*%
X123975000Y-107275000D03*
X125875000Y-107275000D03*
X124925000Y-105400000D03*
%TD*%
D12*
%TO.C,J2*%
X136042400Y-96129600D03*
D13*
X136042400Y-98129600D03*
%TD*%
M02*
