M48
INCH
T1C0.0118
T2C0.0315
T3C0.0354
T4C0.0500
T5C0.0866
%
G90
G05
T1
X3.8307Y-3.9577
X4.0403Y-3.779
X4.0568Y-3.4586
X4.7349Y-3.6663
X4.7619Y-3.36
X4.9172Y-4.2325
X4.9624Y-3.4408
X5.116Y-3.8918
T2
X3.9197Y-3.7276
X3.9197Y-3.8063
X5.356Y-3.7846
X5.356Y-3.8634
T3
X4.4303Y-3.6378
X4.4362Y-3.8705
X4.4508Y-4.0795
T4
X4.4669Y-4.3071
X4.5669Y-4.3071
X4.6669Y-4.3071
T5
X3.898Y-3.17
X3.898Y-4.376
X5.3612Y-3.17
X5.3612Y-4.376
M30
