%TF.GenerationSoftware,KiCad,Pcbnew,8.0.1*%
%TF.CreationDate,2024-11-30T20:20:08+00:00*%
%TF.ProjectId,Heating Element,48656174-696e-4672-9045-6c656d656e74,1*%
%TF.SameCoordinates,Original*%
%TF.FileFunction,Legend,Top*%
%TF.FilePolarity,Positive*%
%FSLAX46Y46*%
G04 Gerber Fmt 4.6, Leading zero omitted, Abs format (unit mm)*
G04 Created by KiCad (PCBNEW 8.0.1) date 2024-11-30 20:20:08*
%MOMM*%
%LPD*%
G01*
G04 APERTURE LIST*
G04 Aperture macros list*
%AMRoundRect*
0 Rectangle with rounded corners*
0 $1 Rounding radius*
0 $2 $3 $4 $5 $6 $7 $8 $9 X,Y pos of 4 corners*
0 Add a 4 corners polygon primitive as box body*
4,1,4,$2,$3,$4,$5,$6,$7,$8,$9,$2,$3,0*
0 Add four circle primitives for the rounded corners*
1,1,$1+$1,$2,$3*
1,1,$1+$1,$4,$5*
1,1,$1+$1,$6,$7*
1,1,$1+$1,$8,$9*
0 Add four rect primitives between the rounded corners*
20,1,$1+$1,$2,$3,$4,$5,0*
20,1,$1+$1,$4,$5,$6,$7,0*
20,1,$1+$1,$6,$7,$8,$9,0*
20,1,$1+$1,$8,$9,$2,$3,0*%
G04 Aperture macros list end*
%ADD10C,0.100000*%
%ADD11C,0.150000*%
%ADD12C,0.254000*%
%ADD13C,0.120000*%
%ADD14C,0.200000*%
%ADD15C,0.152400*%
%ADD16C,0.127000*%
%ADD17C,0.300000*%
%ADD18C,3.800000*%
%ADD19C,1.800000*%
%ADD20R,1.350000X1.350000*%
%ADD21O,1.350000X1.350000*%
%ADD22RoundRect,0.250000X0.650000X-0.325000X0.650000X0.325000X-0.650000X0.325000X-0.650000X-0.325000X0*%
%ADD23RoundRect,0.102000X-0.800000X-1.200000X0.800000X-1.200000X0.800000X1.200000X-0.800000X1.200000X0*%
%ADD24RoundRect,0.250000X-0.312500X-0.625000X0.312500X-0.625000X0.312500X0.625000X-0.312500X0.625000X0*%
%ADD25RoundRect,0.102000X0.500000X-0.700000X0.500000X0.700000X-0.500000X0.700000X-0.500000X-0.700000X0*%
%ADD26R,1.850000X0.650000*%
%ADD27RoundRect,0.102000X0.955000X0.955000X-0.955000X0.955000X-0.955000X-0.955000X0.955000X-0.955000X0*%
%ADD28C,2.114000*%
%ADD29RoundRect,0.102000X-0.485000X-1.415000X0.485000X-1.415000X0.485000X1.415000X-0.485000X1.415000X0*%
%ADD30RoundRect,0.102000X-2.815000X-3.045000X2.815000X-3.045000X2.815000X3.045000X-2.815000X3.045000X0*%
%ADD31RoundRect,0.250000X-0.325000X-0.650000X0.325000X-0.650000X0.325000X0.650000X-0.325000X0.650000X0*%
%ADD32RoundRect,0.102000X-0.555000X-0.610000X0.555000X-0.610000X0.555000X0.610000X-0.555000X0.610000X0*%
%ADD33RoundRect,0.150000X0.150000X-0.587500X0.150000X0.587500X-0.150000X0.587500X-0.150000X-0.587500X0*%
G04 APERTURE END LIST*
D10*
X97731265Y-106583940D02*
X97731265Y-105783940D01*
X97731265Y-105783940D02*
X98036027Y-105783940D01*
X98036027Y-105783940D02*
X98112217Y-105822035D01*
X98112217Y-105822035D02*
X98150312Y-105860130D01*
X98150312Y-105860130D02*
X98188408Y-105936321D01*
X98188408Y-105936321D02*
X98188408Y-106050606D01*
X98188408Y-106050606D02*
X98150312Y-106126797D01*
X98150312Y-106126797D02*
X98112217Y-106164892D01*
X98112217Y-106164892D02*
X98036027Y-106202987D01*
X98036027Y-106202987D02*
X97731265Y-106202987D01*
X98455074Y-105783940D02*
X98645550Y-106583940D01*
X98645550Y-106583940D02*
X98797931Y-106012511D01*
X98797931Y-106012511D02*
X98950312Y-106583940D01*
X98950312Y-106583940D02*
X99140789Y-105783940D01*
X99445551Y-106583940D02*
X99445551Y-105783940D01*
X99445551Y-105783940D02*
X99712217Y-106355368D01*
X99712217Y-106355368D02*
X99978884Y-105783940D01*
X99978884Y-105783940D02*
X99978884Y-106583940D01*
X101426504Y-106507749D02*
X101388408Y-106545845D01*
X101388408Y-106545845D02*
X101274123Y-106583940D01*
X101274123Y-106583940D02*
X101197932Y-106583940D01*
X101197932Y-106583940D02*
X101083646Y-106545845D01*
X101083646Y-106545845D02*
X101007456Y-106469654D01*
X101007456Y-106469654D02*
X100969361Y-106393464D01*
X100969361Y-106393464D02*
X100931265Y-106241083D01*
X100931265Y-106241083D02*
X100931265Y-106126797D01*
X100931265Y-106126797D02*
X100969361Y-105974416D01*
X100969361Y-105974416D02*
X101007456Y-105898225D01*
X101007456Y-105898225D02*
X101083646Y-105822035D01*
X101083646Y-105822035D02*
X101197932Y-105783940D01*
X101197932Y-105783940D02*
X101274123Y-105783940D01*
X101274123Y-105783940D02*
X101388408Y-105822035D01*
X101388408Y-105822035D02*
X101426504Y-105860130D01*
X101883646Y-106583940D02*
X101807456Y-106545845D01*
X101807456Y-106545845D02*
X101769361Y-106507749D01*
X101769361Y-106507749D02*
X101731265Y-106431559D01*
X101731265Y-106431559D02*
X101731265Y-106202987D01*
X101731265Y-106202987D02*
X101769361Y-106126797D01*
X101769361Y-106126797D02*
X101807456Y-106088702D01*
X101807456Y-106088702D02*
X101883646Y-106050606D01*
X101883646Y-106050606D02*
X101997932Y-106050606D01*
X101997932Y-106050606D02*
X102074123Y-106088702D01*
X102074123Y-106088702D02*
X102112218Y-106126797D01*
X102112218Y-106126797D02*
X102150313Y-106202987D01*
X102150313Y-106202987D02*
X102150313Y-106431559D01*
X102150313Y-106431559D02*
X102112218Y-106507749D01*
X102112218Y-106507749D02*
X102074123Y-106545845D01*
X102074123Y-106545845D02*
X101997932Y-106583940D01*
X101997932Y-106583940D02*
X101883646Y-106583940D01*
X102493171Y-106050606D02*
X102493171Y-106583940D01*
X102493171Y-106126797D02*
X102531266Y-106088702D01*
X102531266Y-106088702D02*
X102607456Y-106050606D01*
X102607456Y-106050606D02*
X102721742Y-106050606D01*
X102721742Y-106050606D02*
X102797933Y-106088702D01*
X102797933Y-106088702D02*
X102836028Y-106164892D01*
X102836028Y-106164892D02*
X102836028Y-106583940D01*
X103102695Y-106050606D02*
X103407457Y-106050606D01*
X103216981Y-105783940D02*
X103216981Y-106469654D01*
X103216981Y-106469654D02*
X103255076Y-106545845D01*
X103255076Y-106545845D02*
X103331266Y-106583940D01*
X103331266Y-106583940D02*
X103407457Y-106583940D01*
X103674124Y-106583940D02*
X103674124Y-106050606D01*
X103674124Y-106202987D02*
X103712219Y-106126797D01*
X103712219Y-106126797D02*
X103750314Y-106088702D01*
X103750314Y-106088702D02*
X103826505Y-106050606D01*
X103826505Y-106050606D02*
X103902695Y-106050606D01*
X104283647Y-106583940D02*
X104207457Y-106545845D01*
X104207457Y-106545845D02*
X104169362Y-106507749D01*
X104169362Y-106507749D02*
X104131266Y-106431559D01*
X104131266Y-106431559D02*
X104131266Y-106202987D01*
X104131266Y-106202987D02*
X104169362Y-106126797D01*
X104169362Y-106126797D02*
X104207457Y-106088702D01*
X104207457Y-106088702D02*
X104283647Y-106050606D01*
X104283647Y-106050606D02*
X104397933Y-106050606D01*
X104397933Y-106050606D02*
X104474124Y-106088702D01*
X104474124Y-106088702D02*
X104512219Y-106126797D01*
X104512219Y-106126797D02*
X104550314Y-106202987D01*
X104550314Y-106202987D02*
X104550314Y-106431559D01*
X104550314Y-106431559D02*
X104512219Y-106507749D01*
X104512219Y-106507749D02*
X104474124Y-106545845D01*
X104474124Y-106545845D02*
X104397933Y-106583940D01*
X104397933Y-106583940D02*
X104283647Y-106583940D01*
X105007457Y-106583940D02*
X104931267Y-106545845D01*
X104931267Y-106545845D02*
X104893172Y-106469654D01*
X104893172Y-106469654D02*
X104893172Y-105783940D01*
X105426505Y-106583940D02*
X105350315Y-106545845D01*
X105350315Y-106545845D02*
X105312220Y-106469654D01*
X105312220Y-106469654D02*
X105312220Y-105783940D01*
X106036030Y-106545845D02*
X105959839Y-106583940D01*
X105959839Y-106583940D02*
X105807458Y-106583940D01*
X105807458Y-106583940D02*
X105731268Y-106545845D01*
X105731268Y-106545845D02*
X105693172Y-106469654D01*
X105693172Y-106469654D02*
X105693172Y-106164892D01*
X105693172Y-106164892D02*
X105731268Y-106088702D01*
X105731268Y-106088702D02*
X105807458Y-106050606D01*
X105807458Y-106050606D02*
X105959839Y-106050606D01*
X105959839Y-106050606D02*
X106036030Y-106088702D01*
X106036030Y-106088702D02*
X106074125Y-106164892D01*
X106074125Y-106164892D02*
X106074125Y-106241083D01*
X106074125Y-106241083D02*
X105693172Y-106317273D01*
X106416982Y-106583940D02*
X106416982Y-106050606D01*
X106416982Y-106202987D02*
X106455077Y-106126797D01*
X106455077Y-106126797D02*
X106493172Y-106088702D01*
X106493172Y-106088702D02*
X106569363Y-106050606D01*
X106569363Y-106050606D02*
X106645553Y-106050606D01*
X107407458Y-105783940D02*
X107674125Y-106583940D01*
X107674125Y-106583940D02*
X107940791Y-105783940D01*
X108626505Y-106583940D02*
X108169362Y-106583940D01*
X108397934Y-106583940D02*
X108397934Y-105783940D01*
X108397934Y-105783940D02*
X108321743Y-105898225D01*
X108321743Y-105898225D02*
X108245553Y-105974416D01*
X108245553Y-105974416D02*
X108169362Y-106012511D01*
X97731265Y-107871895D02*
X97731265Y-107071895D01*
X97731265Y-107071895D02*
X97921741Y-107071895D01*
X97921741Y-107071895D02*
X98036027Y-107109990D01*
X98036027Y-107109990D02*
X98112217Y-107186180D01*
X98112217Y-107186180D02*
X98150312Y-107262371D01*
X98150312Y-107262371D02*
X98188408Y-107414752D01*
X98188408Y-107414752D02*
X98188408Y-107529038D01*
X98188408Y-107529038D02*
X98150312Y-107681419D01*
X98150312Y-107681419D02*
X98112217Y-107757609D01*
X98112217Y-107757609D02*
X98036027Y-107833800D01*
X98036027Y-107833800D02*
X97921741Y-107871895D01*
X97921741Y-107871895D02*
X97731265Y-107871895D01*
X98836027Y-107833800D02*
X98759836Y-107871895D01*
X98759836Y-107871895D02*
X98607455Y-107871895D01*
X98607455Y-107871895D02*
X98531265Y-107833800D01*
X98531265Y-107833800D02*
X98493169Y-107757609D01*
X98493169Y-107757609D02*
X98493169Y-107452847D01*
X98493169Y-107452847D02*
X98531265Y-107376657D01*
X98531265Y-107376657D02*
X98607455Y-107338561D01*
X98607455Y-107338561D02*
X98759836Y-107338561D01*
X98759836Y-107338561D02*
X98836027Y-107376657D01*
X98836027Y-107376657D02*
X98874122Y-107452847D01*
X98874122Y-107452847D02*
X98874122Y-107529038D01*
X98874122Y-107529038D02*
X98493169Y-107605228D01*
X99178883Y-107833800D02*
X99255074Y-107871895D01*
X99255074Y-107871895D02*
X99407455Y-107871895D01*
X99407455Y-107871895D02*
X99483645Y-107833800D01*
X99483645Y-107833800D02*
X99521741Y-107757609D01*
X99521741Y-107757609D02*
X99521741Y-107719514D01*
X99521741Y-107719514D02*
X99483645Y-107643323D01*
X99483645Y-107643323D02*
X99407455Y-107605228D01*
X99407455Y-107605228D02*
X99293169Y-107605228D01*
X99293169Y-107605228D02*
X99216979Y-107567133D01*
X99216979Y-107567133D02*
X99178883Y-107490942D01*
X99178883Y-107490942D02*
X99178883Y-107452847D01*
X99178883Y-107452847D02*
X99216979Y-107376657D01*
X99216979Y-107376657D02*
X99293169Y-107338561D01*
X99293169Y-107338561D02*
X99407455Y-107338561D01*
X99407455Y-107338561D02*
X99483645Y-107376657D01*
X99864598Y-107871895D02*
X99864598Y-107338561D01*
X99864598Y-107071895D02*
X99826502Y-107109990D01*
X99826502Y-107109990D02*
X99864598Y-107148085D01*
X99864598Y-107148085D02*
X99902693Y-107109990D01*
X99902693Y-107109990D02*
X99864598Y-107071895D01*
X99864598Y-107071895D02*
X99864598Y-107148085D01*
X100588407Y-107338561D02*
X100588407Y-107986180D01*
X100588407Y-107986180D02*
X100550312Y-108062371D01*
X100550312Y-108062371D02*
X100512216Y-108100466D01*
X100512216Y-108100466D02*
X100436026Y-108138561D01*
X100436026Y-108138561D02*
X100321740Y-108138561D01*
X100321740Y-108138561D02*
X100245550Y-108100466D01*
X100588407Y-107833800D02*
X100512216Y-107871895D01*
X100512216Y-107871895D02*
X100359835Y-107871895D01*
X100359835Y-107871895D02*
X100283645Y-107833800D01*
X100283645Y-107833800D02*
X100245550Y-107795704D01*
X100245550Y-107795704D02*
X100207454Y-107719514D01*
X100207454Y-107719514D02*
X100207454Y-107490942D01*
X100207454Y-107490942D02*
X100245550Y-107414752D01*
X100245550Y-107414752D02*
X100283645Y-107376657D01*
X100283645Y-107376657D02*
X100359835Y-107338561D01*
X100359835Y-107338561D02*
X100512216Y-107338561D01*
X100512216Y-107338561D02*
X100588407Y-107376657D01*
X100969360Y-107338561D02*
X100969360Y-107871895D01*
X100969360Y-107414752D02*
X101007455Y-107376657D01*
X101007455Y-107376657D02*
X101083645Y-107338561D01*
X101083645Y-107338561D02*
X101197931Y-107338561D01*
X101197931Y-107338561D02*
X101274122Y-107376657D01*
X101274122Y-107376657D02*
X101312217Y-107452847D01*
X101312217Y-107452847D02*
X101312217Y-107871895D01*
X101997932Y-107833800D02*
X101921741Y-107871895D01*
X101921741Y-107871895D02*
X101769360Y-107871895D01*
X101769360Y-107871895D02*
X101693170Y-107833800D01*
X101693170Y-107833800D02*
X101655074Y-107757609D01*
X101655074Y-107757609D02*
X101655074Y-107452847D01*
X101655074Y-107452847D02*
X101693170Y-107376657D01*
X101693170Y-107376657D02*
X101769360Y-107338561D01*
X101769360Y-107338561D02*
X101921741Y-107338561D01*
X101921741Y-107338561D02*
X101997932Y-107376657D01*
X101997932Y-107376657D02*
X102036027Y-107452847D01*
X102036027Y-107452847D02*
X102036027Y-107529038D01*
X102036027Y-107529038D02*
X101655074Y-107605228D01*
X102378884Y-107871895D02*
X102378884Y-107338561D01*
X102378884Y-107490942D02*
X102416979Y-107414752D01*
X102416979Y-107414752D02*
X102455074Y-107376657D01*
X102455074Y-107376657D02*
X102531265Y-107338561D01*
X102531265Y-107338561D02*
X102607455Y-107338561D01*
X102874122Y-107795704D02*
X102912217Y-107833800D01*
X102912217Y-107833800D02*
X102874122Y-107871895D01*
X102874122Y-107871895D02*
X102836026Y-107833800D01*
X102836026Y-107833800D02*
X102874122Y-107795704D01*
X102874122Y-107795704D02*
X102874122Y-107871895D01*
X102874122Y-107376657D02*
X102912217Y-107414752D01*
X102912217Y-107414752D02*
X102874122Y-107452847D01*
X102874122Y-107452847D02*
X102836026Y-107414752D01*
X102836026Y-107414752D02*
X102874122Y-107376657D01*
X102874122Y-107376657D02*
X102874122Y-107452847D01*
X103864598Y-107871895D02*
X103864598Y-107071895D01*
X104321741Y-107871895D02*
X103978883Y-107414752D01*
X104321741Y-107071895D02*
X103864598Y-107529038D01*
X104664598Y-107795704D02*
X104702693Y-107833800D01*
X104702693Y-107833800D02*
X104664598Y-107871895D01*
X104664598Y-107871895D02*
X104626502Y-107833800D01*
X104626502Y-107833800D02*
X104664598Y-107795704D01*
X104664598Y-107795704D02*
X104664598Y-107871895D01*
X105045550Y-107871895D02*
X105045550Y-107071895D01*
X105502693Y-107871895D02*
X105159835Y-107414752D01*
X105502693Y-107071895D02*
X105045550Y-107529038D01*
X108875000Y-105350000D02*
X97325000Y-105350000D01*
X97325000Y-108725000D01*
X108875000Y-108725000D01*
X108875000Y-105350000D01*
D11*
X111268095Y-93804819D02*
X111839523Y-93804819D01*
X111553809Y-94804819D02*
X111553809Y-93804819D01*
X112172857Y-94804819D02*
X112172857Y-93804819D01*
X112172857Y-93804819D02*
X112553809Y-93804819D01*
X112553809Y-93804819D02*
X112649047Y-93852438D01*
X112649047Y-93852438D02*
X112696666Y-93900057D01*
X112696666Y-93900057D02*
X112744285Y-93995295D01*
X112744285Y-93995295D02*
X112744285Y-94138152D01*
X112744285Y-94138152D02*
X112696666Y-94233390D01*
X112696666Y-94233390D02*
X112649047Y-94281009D01*
X112649047Y-94281009D02*
X112553809Y-94328628D01*
X112553809Y-94328628D02*
X112172857Y-94328628D01*
X113696666Y-94804819D02*
X113125238Y-94804819D01*
X113410952Y-94804819D02*
X113410952Y-93804819D01*
X113410952Y-93804819D02*
X113315714Y-93947676D01*
X113315714Y-93947676D02*
X113220476Y-94042914D01*
X113220476Y-94042914D02*
X113125238Y-94090533D01*
X99226666Y-91634819D02*
X99226666Y-92349104D01*
X99226666Y-92349104D02*
X99179047Y-92491961D01*
X99179047Y-92491961D02*
X99083809Y-92587200D01*
X99083809Y-92587200D02*
X98940952Y-92634819D01*
X98940952Y-92634819D02*
X98845714Y-92634819D01*
X100226666Y-92634819D02*
X99655238Y-92634819D01*
X99940952Y-92634819D02*
X99940952Y-91634819D01*
X99940952Y-91634819D02*
X99845714Y-91777676D01*
X99845714Y-91777676D02*
X99750476Y-91872914D01*
X99750476Y-91872914D02*
X99655238Y-91920533D01*
X102349580Y-102016666D02*
X102397200Y-102064285D01*
X102397200Y-102064285D02*
X102444819Y-102207142D01*
X102444819Y-102207142D02*
X102444819Y-102302380D01*
X102444819Y-102302380D02*
X102397200Y-102445237D01*
X102397200Y-102445237D02*
X102301961Y-102540475D01*
X102301961Y-102540475D02*
X102206723Y-102588094D01*
X102206723Y-102588094D02*
X102016247Y-102635713D01*
X102016247Y-102635713D02*
X101873390Y-102635713D01*
X101873390Y-102635713D02*
X101682914Y-102588094D01*
X101682914Y-102588094D02*
X101587676Y-102540475D01*
X101587676Y-102540475D02*
X101492438Y-102445237D01*
X101492438Y-102445237D02*
X101444819Y-102302380D01*
X101444819Y-102302380D02*
X101444819Y-102207142D01*
X101444819Y-102207142D02*
X101492438Y-102064285D01*
X101492438Y-102064285D02*
X101540057Y-102016666D01*
X102444819Y-101064285D02*
X102444819Y-101635713D01*
X102444819Y-101349999D02*
X101444819Y-101349999D01*
X101444819Y-101349999D02*
X101587676Y-101445237D01*
X101587676Y-101445237D02*
X101682914Y-101540475D01*
X101682914Y-101540475D02*
X101730533Y-101635713D01*
X111788095Y-105024819D02*
X112359523Y-105024819D01*
X112073809Y-106024819D02*
X112073809Y-105024819D01*
X112692857Y-106024819D02*
X112692857Y-105024819D01*
X112692857Y-105024819D02*
X113073809Y-105024819D01*
X113073809Y-105024819D02*
X113169047Y-105072438D01*
X113169047Y-105072438D02*
X113216666Y-105120057D01*
X113216666Y-105120057D02*
X113264285Y-105215295D01*
X113264285Y-105215295D02*
X113264285Y-105358152D01*
X113264285Y-105358152D02*
X113216666Y-105453390D01*
X113216666Y-105453390D02*
X113169047Y-105501009D01*
X113169047Y-105501009D02*
X113073809Y-105548628D01*
X113073809Y-105548628D02*
X112692857Y-105548628D01*
X113597619Y-105024819D02*
X114216666Y-105024819D01*
X114216666Y-105024819D02*
X113883333Y-105405771D01*
X113883333Y-105405771D02*
X114026190Y-105405771D01*
X114026190Y-105405771D02*
X114121428Y-105453390D01*
X114121428Y-105453390D02*
X114169047Y-105501009D01*
X114169047Y-105501009D02*
X114216666Y-105596247D01*
X114216666Y-105596247D02*
X114216666Y-105834342D01*
X114216666Y-105834342D02*
X114169047Y-105929580D01*
X114169047Y-105929580D02*
X114121428Y-105977200D01*
X114121428Y-105977200D02*
X114026190Y-106024819D01*
X114026190Y-106024819D02*
X113740476Y-106024819D01*
X113740476Y-106024819D02*
X113645238Y-105977200D01*
X113645238Y-105977200D02*
X113597619Y-105929580D01*
X103939524Y-83524295D02*
X103939524Y-82724295D01*
X103939524Y-82724295D02*
X104130000Y-82724295D01*
X104130000Y-82724295D02*
X104244286Y-82762390D01*
X104244286Y-82762390D02*
X104320476Y-82838580D01*
X104320476Y-82838580D02*
X104358571Y-82914771D01*
X104358571Y-82914771D02*
X104396667Y-83067152D01*
X104396667Y-83067152D02*
X104396667Y-83181438D01*
X104396667Y-83181438D02*
X104358571Y-83333819D01*
X104358571Y-83333819D02*
X104320476Y-83410009D01*
X104320476Y-83410009D02*
X104244286Y-83486200D01*
X104244286Y-83486200D02*
X104130000Y-83524295D01*
X104130000Y-83524295D02*
X103939524Y-83524295D01*
X104701428Y-82800485D02*
X104739524Y-82762390D01*
X104739524Y-82762390D02*
X104815714Y-82724295D01*
X104815714Y-82724295D02*
X105006190Y-82724295D01*
X105006190Y-82724295D02*
X105082381Y-82762390D01*
X105082381Y-82762390D02*
X105120476Y-82800485D01*
X105120476Y-82800485D02*
X105158571Y-82876676D01*
X105158571Y-82876676D02*
X105158571Y-82952866D01*
X105158571Y-82952866D02*
X105120476Y-83067152D01*
X105120476Y-83067152D02*
X104663333Y-83524295D01*
X104663333Y-83524295D02*
X105158571Y-83524295D01*
X107025238Y-85727533D02*
X107634762Y-85727533D01*
X107330000Y-86032295D02*
X107330000Y-85422771D01*
X105305833Y-99784819D02*
X104972500Y-99308628D01*
X104734405Y-99784819D02*
X104734405Y-98784819D01*
X104734405Y-98784819D02*
X105115357Y-98784819D01*
X105115357Y-98784819D02*
X105210595Y-98832438D01*
X105210595Y-98832438D02*
X105258214Y-98880057D01*
X105258214Y-98880057D02*
X105305833Y-98975295D01*
X105305833Y-98975295D02*
X105305833Y-99118152D01*
X105305833Y-99118152D02*
X105258214Y-99213390D01*
X105258214Y-99213390D02*
X105210595Y-99261009D01*
X105210595Y-99261009D02*
X105115357Y-99308628D01*
X105115357Y-99308628D02*
X104734405Y-99308628D01*
X105639167Y-98784819D02*
X106258214Y-98784819D01*
X106258214Y-98784819D02*
X105924881Y-99165771D01*
X105924881Y-99165771D02*
X106067738Y-99165771D01*
X106067738Y-99165771D02*
X106162976Y-99213390D01*
X106162976Y-99213390D02*
X106210595Y-99261009D01*
X106210595Y-99261009D02*
X106258214Y-99356247D01*
X106258214Y-99356247D02*
X106258214Y-99594342D01*
X106258214Y-99594342D02*
X106210595Y-99689580D01*
X106210595Y-99689580D02*
X106162976Y-99737200D01*
X106162976Y-99737200D02*
X106067738Y-99784819D01*
X106067738Y-99784819D02*
X105782024Y-99784819D01*
X105782024Y-99784819D02*
X105686786Y-99737200D01*
X105686786Y-99737200D02*
X105639167Y-99689580D01*
X122123184Y-95274445D02*
X121121822Y-95274445D01*
X121121822Y-95274445D02*
X121121822Y-95036025D01*
X121121822Y-95036025D02*
X121169506Y-94892974D01*
X121169506Y-94892974D02*
X121264874Y-94797606D01*
X121264874Y-94797606D02*
X121360242Y-94749922D01*
X121360242Y-94749922D02*
X121550978Y-94702238D01*
X121550978Y-94702238D02*
X121694029Y-94702238D01*
X121694029Y-94702238D02*
X121884765Y-94749922D01*
X121884765Y-94749922D02*
X121980133Y-94797606D01*
X121980133Y-94797606D02*
X122075501Y-94892974D01*
X122075501Y-94892974D02*
X122123184Y-95036025D01*
X122123184Y-95036025D02*
X122123184Y-95274445D01*
X122123184Y-93748560D02*
X122123184Y-94320767D01*
X122123184Y-94034663D02*
X121121822Y-94034663D01*
X121121822Y-94034663D02*
X121264874Y-94130031D01*
X121264874Y-94130031D02*
X121360242Y-94225399D01*
X121360242Y-94225399D02*
X121407926Y-94320767D01*
D12*
X115930237Y-84974318D02*
X115930237Y-83704318D01*
X117260714Y-84853365D02*
X117200238Y-84913842D01*
X117200238Y-84913842D02*
X117018809Y-84974318D01*
X117018809Y-84974318D02*
X116897857Y-84974318D01*
X116897857Y-84974318D02*
X116716428Y-84913842D01*
X116716428Y-84913842D02*
X116595476Y-84792889D01*
X116595476Y-84792889D02*
X116534999Y-84671937D01*
X116534999Y-84671937D02*
X116474523Y-84430032D01*
X116474523Y-84430032D02*
X116474523Y-84248603D01*
X116474523Y-84248603D02*
X116534999Y-84006699D01*
X116534999Y-84006699D02*
X116595476Y-83885746D01*
X116595476Y-83885746D02*
X116716428Y-83764794D01*
X116716428Y-83764794D02*
X116897857Y-83704318D01*
X116897857Y-83704318D02*
X117018809Y-83704318D01*
X117018809Y-83704318D02*
X117200238Y-83764794D01*
X117200238Y-83764794D02*
X117260714Y-83825270D01*
X118470238Y-84974318D02*
X117744523Y-84974318D01*
X118107380Y-84974318D02*
X118107380Y-83704318D01*
X118107380Y-83704318D02*
X117986428Y-83885746D01*
X117986428Y-83885746D02*
X117865476Y-84006699D01*
X117865476Y-84006699D02*
X117744523Y-84067175D01*
D11*
X105553333Y-91104819D02*
X105220000Y-90628628D01*
X104981905Y-91104819D02*
X104981905Y-90104819D01*
X104981905Y-90104819D02*
X105362857Y-90104819D01*
X105362857Y-90104819D02*
X105458095Y-90152438D01*
X105458095Y-90152438D02*
X105505714Y-90200057D01*
X105505714Y-90200057D02*
X105553333Y-90295295D01*
X105553333Y-90295295D02*
X105553333Y-90438152D01*
X105553333Y-90438152D02*
X105505714Y-90533390D01*
X105505714Y-90533390D02*
X105458095Y-90581009D01*
X105458095Y-90581009D02*
X105362857Y-90628628D01*
X105362857Y-90628628D02*
X104981905Y-90628628D01*
X106505714Y-91104819D02*
X105934286Y-91104819D01*
X106220000Y-91104819D02*
X106220000Y-90104819D01*
X106220000Y-90104819D02*
X106124762Y-90247676D01*
X106124762Y-90247676D02*
X106029524Y-90342914D01*
X106029524Y-90342914D02*
X105934286Y-90390533D01*
X111418095Y-99714819D02*
X111989523Y-99714819D01*
X111703809Y-100714819D02*
X111703809Y-99714819D01*
X112322857Y-100714819D02*
X112322857Y-99714819D01*
X112322857Y-99714819D02*
X112703809Y-99714819D01*
X112703809Y-99714819D02*
X112799047Y-99762438D01*
X112799047Y-99762438D02*
X112846666Y-99810057D01*
X112846666Y-99810057D02*
X112894285Y-99905295D01*
X112894285Y-99905295D02*
X112894285Y-100048152D01*
X112894285Y-100048152D02*
X112846666Y-100143390D01*
X112846666Y-100143390D02*
X112799047Y-100191009D01*
X112799047Y-100191009D02*
X112703809Y-100238628D01*
X112703809Y-100238628D02*
X112322857Y-100238628D01*
X113275238Y-99810057D02*
X113322857Y-99762438D01*
X113322857Y-99762438D02*
X113418095Y-99714819D01*
X113418095Y-99714819D02*
X113656190Y-99714819D01*
X113656190Y-99714819D02*
X113751428Y-99762438D01*
X113751428Y-99762438D02*
X113799047Y-99810057D01*
X113799047Y-99810057D02*
X113846666Y-99905295D01*
X113846666Y-99905295D02*
X113846666Y-100000533D01*
X113846666Y-100000533D02*
X113799047Y-100143390D01*
X113799047Y-100143390D02*
X113227619Y-100714819D01*
X113227619Y-100714819D02*
X113846666Y-100714819D01*
X108638095Y-110904819D02*
X108638095Y-111714342D01*
X108638095Y-111714342D02*
X108685714Y-111809580D01*
X108685714Y-111809580D02*
X108733333Y-111857200D01*
X108733333Y-111857200D02*
X108828571Y-111904819D01*
X108828571Y-111904819D02*
X109019047Y-111904819D01*
X109019047Y-111904819D02*
X109114285Y-111857200D01*
X109114285Y-111857200D02*
X109161904Y-111809580D01*
X109161904Y-111809580D02*
X109209523Y-111714342D01*
X109209523Y-111714342D02*
X109209523Y-110904819D01*
X110209523Y-111904819D02*
X109638095Y-111904819D01*
X109923809Y-111904819D02*
X109923809Y-110904819D01*
X109923809Y-110904819D02*
X109828571Y-111047676D01*
X109828571Y-111047676D02*
X109733333Y-111142914D01*
X109733333Y-111142914D02*
X109638095Y-111190533D01*
X128955933Y-82526466D02*
X128955933Y-83659800D01*
X128955933Y-83659800D02*
X129022600Y-83793133D01*
X129022600Y-83793133D02*
X129089266Y-83859800D01*
X129089266Y-83859800D02*
X129222600Y-83926466D01*
X129222600Y-83926466D02*
X129489266Y-83926466D01*
X129489266Y-83926466D02*
X129622600Y-83859800D01*
X129622600Y-83859800D02*
X129689266Y-83793133D01*
X129689266Y-83793133D02*
X129755933Y-83659800D01*
X129755933Y-83659800D02*
X129755933Y-82526466D01*
X130355933Y-82659800D02*
X130422600Y-82593133D01*
X130422600Y-82593133D02*
X130555933Y-82526466D01*
X130555933Y-82526466D02*
X130889267Y-82526466D01*
X130889267Y-82526466D02*
X131022600Y-82593133D01*
X131022600Y-82593133D02*
X131089267Y-82659800D01*
X131089267Y-82659800D02*
X131155933Y-82793133D01*
X131155933Y-82793133D02*
X131155933Y-82926466D01*
X131155933Y-82926466D02*
X131089267Y-83126466D01*
X131089267Y-83126466D02*
X130289267Y-83926466D01*
X130289267Y-83926466D02*
X131155933Y-83926466D01*
X126376133Y-99419580D02*
X126328514Y-99467200D01*
X126328514Y-99467200D02*
X126185657Y-99514819D01*
X126185657Y-99514819D02*
X126090419Y-99514819D01*
X126090419Y-99514819D02*
X125947562Y-99467200D01*
X125947562Y-99467200D02*
X125852324Y-99371961D01*
X125852324Y-99371961D02*
X125804705Y-99276723D01*
X125804705Y-99276723D02*
X125757086Y-99086247D01*
X125757086Y-99086247D02*
X125757086Y-98943390D01*
X125757086Y-98943390D02*
X125804705Y-98752914D01*
X125804705Y-98752914D02*
X125852324Y-98657676D01*
X125852324Y-98657676D02*
X125947562Y-98562438D01*
X125947562Y-98562438D02*
X126090419Y-98514819D01*
X126090419Y-98514819D02*
X126185657Y-98514819D01*
X126185657Y-98514819D02*
X126328514Y-98562438D01*
X126328514Y-98562438D02*
X126376133Y-98610057D01*
X126757086Y-98610057D02*
X126804705Y-98562438D01*
X126804705Y-98562438D02*
X126899943Y-98514819D01*
X126899943Y-98514819D02*
X127138038Y-98514819D01*
X127138038Y-98514819D02*
X127233276Y-98562438D01*
X127233276Y-98562438D02*
X127280895Y-98610057D01*
X127280895Y-98610057D02*
X127328514Y-98705295D01*
X127328514Y-98705295D02*
X127328514Y-98800533D01*
X127328514Y-98800533D02*
X127280895Y-98943390D01*
X127280895Y-98943390D02*
X126709467Y-99514819D01*
X126709467Y-99514819D02*
X127328514Y-99514819D01*
X105563333Y-95344819D02*
X105230000Y-94868628D01*
X104991905Y-95344819D02*
X104991905Y-94344819D01*
X104991905Y-94344819D02*
X105372857Y-94344819D01*
X105372857Y-94344819D02*
X105468095Y-94392438D01*
X105468095Y-94392438D02*
X105515714Y-94440057D01*
X105515714Y-94440057D02*
X105563333Y-94535295D01*
X105563333Y-94535295D02*
X105563333Y-94678152D01*
X105563333Y-94678152D02*
X105515714Y-94773390D01*
X105515714Y-94773390D02*
X105468095Y-94821009D01*
X105468095Y-94821009D02*
X105372857Y-94868628D01*
X105372857Y-94868628D02*
X104991905Y-94868628D01*
X105944286Y-94440057D02*
X105991905Y-94392438D01*
X105991905Y-94392438D02*
X106087143Y-94344819D01*
X106087143Y-94344819D02*
X106325238Y-94344819D01*
X106325238Y-94344819D02*
X106420476Y-94392438D01*
X106420476Y-94392438D02*
X106468095Y-94440057D01*
X106468095Y-94440057D02*
X106515714Y-94535295D01*
X106515714Y-94535295D02*
X106515714Y-94630533D01*
X106515714Y-94630533D02*
X106468095Y-94773390D01*
X106468095Y-94773390D02*
X105896667Y-95344819D01*
X105896667Y-95344819D02*
X106515714Y-95344819D01*
X119771305Y-90276619D02*
X119771305Y-89276619D01*
X119771305Y-89276619D02*
X120009400Y-89276619D01*
X120009400Y-89276619D02*
X120152257Y-89324238D01*
X120152257Y-89324238D02*
X120247495Y-89419476D01*
X120247495Y-89419476D02*
X120295114Y-89514714D01*
X120295114Y-89514714D02*
X120342733Y-89705190D01*
X120342733Y-89705190D02*
X120342733Y-89848047D01*
X120342733Y-89848047D02*
X120295114Y-90038523D01*
X120295114Y-90038523D02*
X120247495Y-90133761D01*
X120247495Y-90133761D02*
X120152257Y-90229000D01*
X120152257Y-90229000D02*
X120009400Y-90276619D01*
X120009400Y-90276619D02*
X119771305Y-90276619D01*
X121199876Y-89609952D02*
X121199876Y-90276619D01*
X120961781Y-89229000D02*
X120723686Y-89943285D01*
X120723686Y-89943285D02*
X121342733Y-89943285D01*
X122979819Y-107075594D02*
X121979819Y-107075594D01*
X121979819Y-107075594D02*
X121979819Y-106837499D01*
X121979819Y-106837499D02*
X122027438Y-106694642D01*
X122027438Y-106694642D02*
X122122676Y-106599404D01*
X122122676Y-106599404D02*
X122217914Y-106551785D01*
X122217914Y-106551785D02*
X122408390Y-106504166D01*
X122408390Y-106504166D02*
X122551247Y-106504166D01*
X122551247Y-106504166D02*
X122741723Y-106551785D01*
X122741723Y-106551785D02*
X122836961Y-106599404D01*
X122836961Y-106599404D02*
X122932200Y-106694642D01*
X122932200Y-106694642D02*
X122979819Y-106837499D01*
X122979819Y-106837499D02*
X122979819Y-107075594D01*
X121979819Y-106170832D02*
X121979819Y-105551785D01*
X121979819Y-105551785D02*
X122360771Y-105885118D01*
X122360771Y-105885118D02*
X122360771Y-105742261D01*
X122360771Y-105742261D02*
X122408390Y-105647023D01*
X122408390Y-105647023D02*
X122456009Y-105599404D01*
X122456009Y-105599404D02*
X122551247Y-105551785D01*
X122551247Y-105551785D02*
X122789342Y-105551785D01*
X122789342Y-105551785D02*
X122884580Y-105599404D01*
X122884580Y-105599404D02*
X122932200Y-105647023D01*
X122932200Y-105647023D02*
X122979819Y-105742261D01*
X122979819Y-105742261D02*
X122979819Y-106027975D01*
X122979819Y-106027975D02*
X122932200Y-106123213D01*
X122932200Y-106123213D02*
X122884580Y-106170832D01*
X135709066Y-93084419D02*
X135709066Y-93798704D01*
X135709066Y-93798704D02*
X135661447Y-93941561D01*
X135661447Y-93941561D02*
X135566209Y-94036800D01*
X135566209Y-94036800D02*
X135423352Y-94084419D01*
X135423352Y-94084419D02*
X135328114Y-94084419D01*
X136137638Y-93179657D02*
X136185257Y-93132038D01*
X136185257Y-93132038D02*
X136280495Y-93084419D01*
X136280495Y-93084419D02*
X136518590Y-93084419D01*
X136518590Y-93084419D02*
X136613828Y-93132038D01*
X136613828Y-93132038D02*
X136661447Y-93179657D01*
X136661447Y-93179657D02*
X136709066Y-93274895D01*
X136709066Y-93274895D02*
X136709066Y-93370133D01*
X136709066Y-93370133D02*
X136661447Y-93512990D01*
X136661447Y-93512990D02*
X136090019Y-94084419D01*
X136090019Y-94084419D02*
X136709066Y-94084419D01*
D13*
%TO.C,TP1*%
X111230000Y-91300000D02*
X111230000Y-93000000D01*
X111230000Y-93000000D02*
X111230000Y-93500000D01*
X111230000Y-93500000D02*
X113830000Y-93500000D01*
X113830000Y-91300000D02*
X111230000Y-91300000D01*
X113830000Y-93500000D02*
X113830000Y-91300000D01*
%TO.C,J1*%
X98500000Y-95680000D02*
X98500000Y-97740000D01*
X98500000Y-95680000D02*
X100620000Y-95680000D01*
X98500000Y-97740000D02*
X100620000Y-97740000D01*
X99560000Y-93620000D02*
X100620000Y-93620000D01*
X100620000Y-93620000D02*
X100620000Y-94680000D01*
X100620000Y-95680000D02*
X100620000Y-97740000D01*
%TO.C,C1*%
X98540000Y-102561252D02*
X98540000Y-101138748D01*
X100360000Y-102561252D02*
X100360000Y-101138748D01*
%TO.C,TP3*%
X111750000Y-102520000D02*
X111750000Y-104220000D01*
X111750000Y-104220000D02*
X111750000Y-104720000D01*
X111750000Y-104720000D02*
X114350000Y-104720000D01*
X114350000Y-102520000D02*
X111750000Y-102520000D01*
X114350000Y-104720000D02*
X114350000Y-102520000D01*
D14*
%TO.C,D2*%
X102680000Y-84170000D02*
X106380000Y-84170000D01*
D10*
X104330000Y-85670000D02*
X104730000Y-85420000D01*
X104730000Y-85420000D02*
X104730000Y-85970000D01*
X104730000Y-85970000D02*
X104330000Y-85670000D01*
D14*
X106380000Y-87170000D02*
X102680000Y-87170000D01*
D13*
%TO.C,R3*%
X104745436Y-100240000D02*
X106199564Y-100240000D01*
X104745436Y-102060000D02*
X106199564Y-102060000D01*
D15*
%TO.C,D1*%
X118973600Y-96418400D02*
X119532400Y-96418400D01*
X118973600Y-97231200D02*
X118973600Y-96418400D01*
X121259600Y-96418400D02*
X121818400Y-96418400D01*
X121818400Y-96418400D02*
X121818400Y-97231200D01*
D16*
X118618000Y-98348800D02*
G75*
G02*
X118364000Y-98348800I-127000J0D01*
G01*
X118364000Y-98348800D02*
G75*
G02*
X118618000Y-98348800I127000J0D01*
G01*
D14*
%TO.C,IC1*%
X110920000Y-82455000D02*
X112770000Y-82455000D01*
X113120000Y-82060000D02*
X121220000Y-82060000D01*
X113120000Y-86740000D02*
X113120000Y-82060000D01*
X121220000Y-82060000D02*
X121220000Y-86740000D01*
X121220000Y-86740000D02*
X113120000Y-86740000D01*
D13*
%TO.C,R1*%
X105002936Y-91720000D02*
X106457064Y-91720000D01*
X105002936Y-93540000D02*
X106457064Y-93540000D01*
%TO.C,TP2*%
X111380000Y-97210000D02*
X111380000Y-98910000D01*
X111380000Y-98910000D02*
X111380000Y-99410000D01*
X111380000Y-99410000D02*
X113980000Y-99410000D01*
X113980000Y-97210000D02*
X111380000Y-97210000D01*
X113980000Y-99410000D02*
X113980000Y-97210000D01*
D16*
%TO.C,U1*%
X110800000Y-107660000D02*
X121200000Y-107660000D01*
X110800000Y-112260000D02*
X110800000Y-107660000D01*
X121200000Y-107660000D02*
X121200000Y-112260000D01*
X121200000Y-112260000D02*
X110800000Y-112260000D01*
D17*
X122500000Y-109660000D02*
G75*
G02*
X122200000Y-109660000I-150000J0D01*
G01*
X122200000Y-109660000D02*
G75*
G02*
X122500000Y-109660000I150000J0D01*
G01*
D16*
%TO.C,U2*%
X126017600Y-92653600D02*
X126017600Y-86432600D01*
X132757600Y-86432600D02*
X132757600Y-92653600D01*
X132757600Y-92653600D02*
X126017600Y-92653600D01*
D17*
X127187600Y-96925600D02*
G75*
G02*
X126987600Y-96925600I-100000J0D01*
G01*
X126987600Y-96925600D02*
G75*
G02*
X127187600Y-96925600I100000J0D01*
G01*
D13*
%TO.C,C2*%
X129235148Y-98251600D02*
X130657652Y-98251600D01*
X129235148Y-100071600D02*
X130657652Y-100071600D01*
%TO.C,R2*%
X105002936Y-95750000D02*
X106457064Y-95750000D01*
X105002936Y-97570000D02*
X106457064Y-97570000D01*
D16*
%TO.C,D4*%
X119264400Y-91606800D02*
X120764400Y-91606800D01*
X119264400Y-93406800D02*
X120764400Y-93406800D01*
D14*
X117319400Y-92379800D02*
G75*
G02*
X117119400Y-92379800I-100000J0D01*
G01*
X117119400Y-92379800D02*
G75*
G02*
X117319400Y-92379800I100000J0D01*
G01*
D13*
%TO.C,D3*%
X123365000Y-106337500D02*
X123365000Y-105687500D01*
X123365000Y-106337500D02*
X123365000Y-106987500D01*
X126485000Y-106337500D02*
X126485000Y-105687500D01*
X126485000Y-106337500D02*
X126485000Y-106987500D01*
X123415000Y-107500000D02*
X123085000Y-107740000D01*
X123085000Y-107260000D01*
X123415000Y-107500000D01*
G36*
X123415000Y-107500000D02*
G01*
X123085000Y-107740000D01*
X123085000Y-107260000D01*
X123415000Y-107500000D01*
G37*
%TO.C,J2*%
X134982400Y-97129600D02*
X134982400Y-99189600D01*
X134982400Y-97129600D02*
X137102400Y-97129600D01*
X134982400Y-99189600D02*
X137102400Y-99189600D01*
X136042400Y-95069600D02*
X137102400Y-95069600D01*
X137102400Y-95069600D02*
X137102400Y-96129600D01*
X137102400Y-97129600D02*
X137102400Y-99189600D01*
%TD*%
%LPC*%
D18*
%TO.C,H4*%
X136175000Y-111150000D03*
%TD*%
%TO.C,H3*%
X99009200Y-111150000D03*
%TD*%
%TO.C,H2*%
X136175000Y-80517200D03*
%TD*%
%TO.C,H1*%
X99009200Y-80517200D03*
%TD*%
D19*
%TO.C,TP1*%
X112530000Y-92400000D03*
%TD*%
D20*
%TO.C,J1*%
X99560000Y-94680000D03*
D21*
X99560000Y-96680000D03*
%TD*%
D22*
%TO.C,C1*%
X99450000Y-103325000D03*
X99450000Y-100375000D03*
%TD*%
D19*
%TO.C,TP3*%
X113050000Y-103620000D03*
%TD*%
D23*
%TO.C,D2*%
X103105000Y-85670000D03*
X105955000Y-85670000D03*
%TD*%
D24*
%TO.C,R3*%
X104010000Y-101150000D03*
X106935000Y-101150000D03*
%TD*%
D25*
%TO.C,D1*%
X119446000Y-98178800D03*
X121346000Y-98178800D03*
X120396000Y-95978800D03*
%TD*%
D26*
%TO.C,IC1*%
X111845000Y-83130000D03*
X111845000Y-84400000D03*
X111845000Y-85670000D03*
X122495000Y-85670000D03*
X122495000Y-84400000D03*
X122495000Y-83130000D03*
%TD*%
D24*
%TO.C,R1*%
X104267500Y-92630000D03*
X107192500Y-92630000D03*
%TD*%
D19*
%TO.C,TP2*%
X112680000Y-98310000D03*
%TD*%
D27*
%TO.C,U1*%
X118540000Y-109400000D03*
D28*
X116000000Y-109400000D03*
X113460000Y-109400000D03*
%TD*%
D29*
%TO.C,U2*%
X127097600Y-94665600D03*
D30*
X129387600Y-88015600D03*
D29*
X131677600Y-94665600D03*
%TD*%
D31*
%TO.C,C2*%
X128471400Y-99161600D03*
X131421400Y-99161600D03*
%TD*%
D24*
%TO.C,R2*%
X104267500Y-96660000D03*
X107192500Y-96660000D03*
%TD*%
D32*
%TO.C,D4*%
X118464400Y-92506800D03*
X121564400Y-92506800D03*
%TD*%
D33*
%TO.C,D3*%
X123975000Y-107275000D03*
X125875000Y-107275000D03*
X124925000Y-105400000D03*
%TD*%
D20*
%TO.C,J2*%
X136042400Y-96129600D03*
D21*
X136042400Y-98129600D03*
%TD*%
%LPD*%
M02*
