M48
INCH
T1C0.0118
T2C0.0300
T3C0.0354
T4C0.0366
T5C0.0472
T6C0.0500
T7C0.0630
%
G90
G05
T1
X4.14Y-4.1372
X4.4Y-3.7992
X5.0113Y-3.3675
X5.541Y-3.6859
X5.7185Y-4.1929
T2
X4.0Y-3.7213
X4.0Y-3.8
X4.0Y-3.8787
X4.0Y-3.9575
T3
X4.68Y-3.64
X4.68Y-3.86
X4.68Y-4.08
T4
X4.0496Y-3.4252
X4.1496Y-3.4252
T5
X5.35Y-3.54
X5.35Y-4.14
T6
X4.4669Y-4.3071
X4.5669Y-4.3071
X4.6669Y-4.3071
T7
X5.0Y-3.56
X5.0Y-4.16
M30
