%TF.GenerationSoftware,KiCad,Pcbnew,8.0.1*%
%TF.CreationDate,2025-03-03T18:06:42+00:00*%
%TF.ProjectId,Interpose,496e7465-7270-46f7-9365-2e6b69636164,V1*%
%TF.SameCoordinates,Original*%
%TF.FileFunction,Legend,Bot*%
%TF.FilePolarity,Positive*%
%FSLAX46Y46*%
G04 Gerber Fmt 4.6, Leading zero omitted, Abs format (unit mm)*
G04 Created by KiCad (PCBNEW 8.0.1) date 2025-03-03 18:06:42*
%MOMM*%
%LPD*%
G01*
G04 APERTURE LIST*
G04 Aperture macros list*
%AMRoundRect*
0 Rectangle with rounded corners*
0 $1 Rounding radius*
0 $2 $3 $4 $5 $6 $7 $8 $9 X,Y pos of 4 corners*
0 Add a 4 corners polygon primitive as box body*
4,1,4,$2,$3,$4,$5,$6,$7,$8,$9,$2,$3,0*
0 Add four circle primitives for the rounded corners*
1,1,$1+$1,$2,$3*
1,1,$1+$1,$4,$5*
1,1,$1+$1,$6,$7*
1,1,$1+$1,$8,$9*
0 Add four rect primitives between the rounded corners*
20,1,$1+$1,$2,$3,$4,$5,0*
20,1,$1+$1,$4,$5,$6,$7,0*
20,1,$1+$1,$6,$7,$8,$9,0*
20,1,$1+$1,$8,$9,$2,$3,0*%
G04 Aperture macros list end*
%ADD10R,1.700000X1.700000*%
%ADD11O,1.700000X1.700000*%
%ADD12C,3.800000*%
%ADD13RoundRect,0.250000X-0.620000X-0.845000X0.620000X-0.845000X0.620000X0.845000X-0.620000X0.845000X0*%
%ADD14O,1.740000X2.190000*%
G04 APERTURE END LIST*
%LPC*%
D10*
%TO.C,J5*%
X87190000Y-123400000D03*
D11*
X89730000Y-123400000D03*
X92270000Y-123400000D03*
X94810000Y-123400000D03*
X97350000Y-123400000D03*
X99890000Y-123400000D03*
X102430000Y-123400000D03*
X104970000Y-123400000D03*
X107510000Y-123400000D03*
X110050000Y-123400000D03*
X112590000Y-123400000D03*
X115130000Y-123400000D03*
X117670000Y-123400000D03*
X120210000Y-123400000D03*
X122750000Y-123400000D03*
%TD*%
D10*
%TO.C,J8*%
X72000000Y-79875000D03*
D11*
X72000000Y-82415000D03*
X72000000Y-84955000D03*
X72000000Y-87495000D03*
X72000000Y-90035000D03*
X72000000Y-92575000D03*
X72000000Y-95115000D03*
X72000000Y-97655000D03*
X72000000Y-100195000D03*
X72000000Y-102735000D03*
X72000000Y-105275000D03*
X72000000Y-107815000D03*
X72000000Y-110355000D03*
X72000000Y-112895000D03*
X72000000Y-115435000D03*
%TD*%
D12*
%TO.C,H2*%
X162800000Y-57404000D03*
%TD*%
%TO.C,H3*%
X68400000Y-129200000D03*
%TD*%
D10*
%TO.C,J2*%
X83725000Y-60600000D03*
D11*
X86265000Y-60600000D03*
%TD*%
D12*
%TO.C,H4*%
X162800000Y-129200000D03*
%TD*%
D10*
%TO.C,J7*%
X110800000Y-79625000D03*
D11*
X110800000Y-82165000D03*
X110800000Y-84705000D03*
X110800000Y-87245000D03*
X110800000Y-89785000D03*
X110800000Y-92325000D03*
X110800000Y-94865000D03*
X110800000Y-97405000D03*
X110800000Y-99945000D03*
X110800000Y-102485000D03*
X110800000Y-105025000D03*
X110800000Y-107565000D03*
X110800000Y-110105000D03*
X110800000Y-112645000D03*
X110800000Y-115185000D03*
%TD*%
D10*
%TO.C,J10*%
X139300000Y-123204000D03*
D11*
X141840000Y-123204000D03*
X144380000Y-123204000D03*
X146920000Y-123204000D03*
X149460000Y-123204000D03*
X152000000Y-123204000D03*
%TD*%
D10*
%TO.C,J6*%
X82880000Y-79625000D03*
D11*
X82880000Y-82165000D03*
X82880000Y-84705000D03*
X82880000Y-87245000D03*
X82880000Y-89785000D03*
X82880000Y-92325000D03*
X82880000Y-94865000D03*
X82880000Y-97405000D03*
X82880000Y-99945000D03*
X82880000Y-102485000D03*
X82880000Y-105025000D03*
X82880000Y-107565000D03*
X82880000Y-110105000D03*
X82880000Y-112645000D03*
X82880000Y-115185000D03*
%TD*%
D10*
%TO.C,J1*%
X76000000Y-60600000D03*
D11*
X78540000Y-60600000D03*
%TD*%
D12*
%TO.C,H1*%
X68400000Y-57404000D03*
%TD*%
D13*
%TO.C,J4*%
X145840000Y-61200000D03*
D14*
X148380000Y-61200000D03*
X150920000Y-61200000D03*
X153460000Y-61200000D03*
X156000000Y-61200000D03*
%TD*%
D10*
%TO.C,J9*%
X124600000Y-79875000D03*
D11*
X124600000Y-82415000D03*
X124600000Y-84955000D03*
X124600000Y-87495000D03*
X124600000Y-90035000D03*
X124600000Y-92575000D03*
X124600000Y-95115000D03*
X124600000Y-97655000D03*
X124600000Y-100195000D03*
X124600000Y-102735000D03*
X124600000Y-105275000D03*
X124600000Y-107815000D03*
X124600000Y-110355000D03*
X124600000Y-112895000D03*
X124600000Y-115435000D03*
%TD*%
D10*
%TO.C,J3*%
X91460000Y-60600000D03*
D11*
X94000000Y-60600000D03*
%TD*%
%LPD*%
M02*
